<?xml version="1.0" encoding="UTF-8"?>
<svg id="Capa_1" data-name="Capa 1" xmlns="http://www.w3.org/2000/svg" viewBox="0 0 830 420">
  <defs>
    <style>
      .cls-1 {
        font-size: 64.99px;
      }

      .cls-1, .cls-2, .cls-3 {
        font-weight: 700;
      }

      .cls-1, .cls-2, .cls-3, .cls-4 {
        fill: #55121c;
      }

      .cls-1, .cls-3 {
        font-family: MADETOMMY-Bold, 'MADE TOMMY';
      }

      .cls-5 {
        fill: #f6f1ea;
      }

      .cls-6 {
        fill: #fbc009;
      }

      .cls-2 {
        font-family: PPWoodland-Bold, 'PP Woodland';
        font-size: 26.2px;
      }

      .cls-3 {
        font-size: 35.98px;
      }
    </style>
  </defs>
  <rect class="cls-5" x="0" width="830" height="419.32"/>
  <path class="cls-6" d="M695.96,218.33c.79,.49,1.59,.96,2.4,1.4-.81-.44-1.61-.91-2.4-1.4l-2.73-1.69,2.73,1.69Z"/>
  <path class="cls-6" d="M699.17,220.17c.82,.43,1.64,.83,2.47,1.22-.83-.38-1.66-.79-2.47-1.22Z"/>
  <path class="cls-6" d="M744.27,221.86c-.83,.36-1.66,.7-2.5,1.01,.84-.32,1.68-.65,2.5-1.01Z"/>
  <path class="cls-6" d="M750.74,218.5c-.79,.48-1.58,.94-2.38,1.37,.8-.44,1.6-.89,2.38-1.37l3.84-2.35-3.84,2.35Z"/>
  <path class="cls-6" d="M760.26,213.14c.55-.25,1.1-.49,1.66-.72-.56,.23-1.11,.47-1.66,.72Z"/>
  <path class="cls-6" d="M764.44,211.45c-.56,.2-1.12,.41-1.68,.63,.56-.22,1.12-.43,1.68-.63Z"/>
  <path class="cls-6" d="M830,262.33v103.15c0,12.72-4.3,25.18-12.64,34.74-.43,.49-.87,.98-1.33,1.47l-.62,.66c-13.35,14.19-33.05,19.44-51.09,14.69-.16-.04-.33-.08-.49-.13-.37-.1-.74-.21-1.1-.32-.23-.07-.46-.14-.68-.21-.33-.1-.65-.2-.98-.31-.29-.1-.58-.2-.87-.3-.27-.1-.54-.19-.8-.29-.56-.21-1.12-.43-1.68-.66,0,0,0,0,0,0-2.49-1.03-4.93-2.27-7.29-3.71l-3.82-2.33c-.52-.32-1.04-.63-1.57-.92-.8-.45-1.59-.87-2.4-1.28-.27-.13-.54-.27-.81-.4-.82-.39-1.64-.75-2.47-1.1-.28-.11-.55-.22-.83-.34-3.61-1.42-7.34-2.42-11.12-3.01-4.97-.77-10.02-.8-14.99-.12-.88,.12-1.76,.27-2.64,.43-.29,.06-.58,.12-.88,.18-.58,.12-1.17,.25-1.75,.4-.87,.21-1.73,.45-2.6,.71-.36,.11-.71,.22-1.07,.34-.43,.14-.85,.28-1.27,.43-.15,.05-.3,.1-.45,.16-.49,.18-.98,.37-1.46,.56-.56,.22-1.12,.46-1.67,.7-2.22,.98-4.38,2.11-6.48,3.41l-2.71,1.68c-1.95,1.21-3.96,2.28-6.01,3.2-1.56,.7-3.15,1.33-4.75,1.87-1.99,.67-4.02,1.22-6.05,1.64-.37,.08-.74,.15-1.11,.22-.44,.08-.88,.15-1.32,.22-.15,.03-.29,.05-.43,.07-.51,.08-1.01,.14-1.53,.21-2.07,.24-4.15,.37-6.22,.37-.96,.11-1.93,.18-2.9,.24-2.97,.16-5.97,.07-8.94-.28,0,0,0,0,0,0-1.44-.18-2.89-.41-4.33-.7-.86-.18-1.73-.38-2.59-.6-.86-.22-1.71-.47-2.55-.74-2.36-.74-4.68-1.66-6.95-2.75-.73-.35-1.44-.72-2.16-1.1h0c-.8-.44-1.6-.9-2.39-1.38l-3.82-2.33c-.78-.48-1.57-.93-2.37-1.36-.27-.14-.53-.28-.8-.43-.8-.42-1.62-.81-2.43-1.19-.28-.12-.55-.25-.83-.37-.82-.36-1.66-.69-2.49-1.01-3.07-1.15-6.22-1.99-9.42-2.54-.58-.1-1.16-.19-1.74-.27-2.33-.32-4.68-.48-7.03-.48-.29,0-.59,0-.88,0-.26,0-.52,0-.77,.02-.71,.02-1.43,.06-2.14,.11-.21,.02-.43,.03-.64,.05-.59,.05-1.18,.11-1.77,.18-.32,.03-.63,.08-.95,.12-.55,.08-1.1,.16-1.66,.26-.6,.1-1.2,.22-1.8,.34-5.84,1.22-11.51,3.46-16.76,6.71l-2.71,1.68c-8.83,5.47-18.75,8-28.55,7.78-11.19,1.28-22.8-1.06-32.98-7.29l-3.82-2.33c-16.75-10.24-37.78-10.18-54.48,.17l-2.71,1.68c-8.49,5.26-17.99,7.81-27.42,7.8-11.13,1.23-22.68-1.11-32.82-7.31l-3.82-2.33c-16.75-10.24-37.78-10.18-54.48,.17l-2.71,1.68c-8.83,5.47-18.75,8-28.55,7.78-11.19,1.28-22.8-1.06-32.98-7.29l-3.82-2.33c-16.75-10.24-37.78-10.18-54.48,.17l-2.71,1.68c-8.49,5.26-17.99,7.81-27.42,7.8-11.14,1.23-22.69-1.11-32.82-7.31l-3.82-2.33c-16.75-10.24-37.78-10.18-54.48,.17l-2.71,1.68c-21.13,13.1-48.52,9.41-65.47-8.83l-1.48-1.59c-3.88-4.17-6.95-8.8-9.22-13.72C1.38,379.91,0,372.67,0,365.42v-103.05c0-7.26,1.38-14.49,4.41-21.07,2.27-4.91,5.34-9.55,9.22-13.72l1.48-1.59c16.96-18.23,44.34-21.92,65.47-8.83l2.71,1.68c16.69,10.34,37.72,10.41,54.48,.16l3.82-2.33c10.13-6.19,21.68-8.54,32.82-7.31,9.43-.01,18.92,2.54,27.42,7.8l2.71,1.68c16.69,10.34,37.72,10.41,54.48,.17l3.82-2.34c10.18-6.23,21.8-8.56,32.98-7.29,9.8-.23,19.72,2.3,28.55,7.78l2.71,1.68c16.69,10.34,37.72,10.41,54.48,.16l3.82-2.33c10.14-6.19,21.68-8.54,32.82-7.31,9.43-.01,18.93,2.54,27.42,7.8l2.71,1.68c16.69,10.34,37.72,10.41,54.48,.17l3.82-2.34c10.18-6.23,21.8-8.56,32.98-7.29,9.8-.23,19.72,2.3,28.55,7.78l2.71,1.68c5.13,3.18,10.67,5.39,16.37,6.62,.91,.2,1.82,.37,2.73,.52,.25,.04,.49,.08,.74,.12,.44,.06,.88,.12,1.32,.18,.46,.06,.92,.1,1.38,.15,.23,.03,.46,.04,.69,.06,.23,.02,.46,.04,.69,.05,.61,.04,1.23,.07,1.84,.09,.24,0,.49,.01,.73,.02,.29,0,.58,0,.87,0,9.39,0,18.79-2.54,27.12-7.64l3.82-2.33c10.14-6.19,21.68-8.54,32.82-7.31,2.37,0,4.75,.15,7.12,.48,.58,.08,1.17,.17,1.75,.27,.58,.1,1.17,.21,1.75,.33,3.49,.72,6.93,1.81,10.27,3.28,.55,.24,1.11,.5,1.66,.77,.55,.27,1.1,.54,1.64,.83,1.09,.57,2.16,1.19,3.22,1.84l2.71,1.68c.79,.49,1.58,.95,2.39,1.39,.27,.15,.54,.29,.8,.43,.81,.43,1.63,.83,2.46,1.21,3.59,1.65,7.31,2.87,11.1,3.67,.54,.11,1.08,.21,1.62,.31,5.3,.93,10.7,1.04,16.02,.31,.58-.08,1.17-.17,1.75-.27,3.19-.55,6.35-1.4,9.41-2.54,.83-.31,1.67-.65,2.49-1.01,.28-.12,.55-.25,.83-.37,.82-.37,1.63-.77,2.43-1.19,.27-.14,.54-.28,.8-.43,.8-.43,1.59-.89,2.37-1.36l3.82-2.34c1.31-.8,2.65-1.54,4.01-2.21,.54-.27,1.09-.53,1.64-.78,.55-.25,1.1-.49,1.65-.71,.28-.12,.55-.23,.84-.34,.55-.21,1.11-.43,1.67-.62h0c.53-.19,1.05-.36,1.58-.53,.25-.08,.49-.15,.74-.23,.28-.08,.55-.16,.83-.24,.3-.09,.6-.17,.91-.25,.2-.05,.4-.1,.6-.15,1.78-.45,3.57-.8,5.38-1.05,.01,0,.02,0,.04,0,16.31-2.29,33.23,3.26,45.12,15.89l.62,.66c.46,.48,.9,.97,1.33,1.47,8.34,9.55,12.64,22.02,12.64,34.74Z"/>
  <g>
    <path class="cls-4" d="M320.47,185.89h-94.33c-2.68,0-5.06-1.8-5.79-4.39l-26.71-95.36c-.36-1.27,.38-2.58,1.65-2.94,1.26-.35,2.58,.38,2.94,1.65l26.71,95.36c.15,.53,.64,.91,1.19,.91h94.33c.55,0,1.05-.37,1.19-.91l26.71-95.36c.36-1.27,1.69-2,2.94-1.65,1.27,.35,2.01,1.67,1.65,2.94l-26.71,95.36c-.73,2.58-3.11,4.39-5.79,4.39Z"/>
    <path class="cls-4" d="M350.58,88.07H196.04c-3.24,0-5.88-2.64-5.88-5.88v-1.56c0-3.24,2.64-5.88,5.88-5.88h154.54c3.24,0,5.88,2.64,5.88,5.88v1.56c0,3.24-2.64,5.88-5.88,5.88Zm-154.54-8.55c-.61,0-1.11,.5-1.11,1.11v1.56c0,.61,.5,1.11,1.11,1.11h154.54c.61,0,1.11-.5,1.11-1.11v-1.56c0-.61-.5-1.11-1.11-1.11H196.04Z"/>
  </g>
  <g>
    <path class="cls-4" d="M616.41,104.41h-126.43c-3.02,0-5.48-2.46-5.48-5.48v-1.38c0-3.02,2.46-5.48,5.48-5.48h126.43c3.1,0,5.62,2.52,5.62,5.62v1.09c0,3.1-2.52,5.62-5.62,5.62Zm-126.43-8.64c-.98,0-1.78,.8-1.78,1.78v1.38c0,.98,.8,1.78,1.78,1.78h126.43c1.06,0,1.92-.86,1.92-1.93v-1.09c0-1.06-.86-1.92-1.92-1.92h-126.43Z"/>
    <path class="cls-4" d="M592.61,185.79h-78.67c-2.18,0-4.11-1.46-4.7-3.56l-22.28-79.54c-.28-.98,.3-2,1.28-2.28,.98-.28,2,.3,2.28,1.28l22.28,79.54c.14,.51,.61,.86,1.14,.86h78.67c.53,0,1-.36,1.14-.86l22.28-79.54c.27-.98,1.3-1.56,2.28-1.28,.98,.28,1.56,1.29,1.28,2.28l-22.28,79.54c-.59,2.1-2.52,3.56-4.7,3.56Z"/>
  </g>
  <g>
    <path class="cls-4" d="M416.89,168.32c-1.35,0-2.45-1.43-2.45-2.22v-63.21c0-.79,1.09-2.22,2.45-2.22s2.45,1.43,2.45,2.22v63.21c0,.79-1.09,2.22-2.45,2.22Z"/>
    <path class="cls-4" d="M450.71,134.5c0,1.35-1.43,2.45-2.22,2.45h-63.21c-.79,0-2.22-1.09-2.22-2.45s1.43-2.45,2.22-2.45h63.21c.79,0,2.22,1.09,2.22,2.45Z"/>
  </g>
  <g>
    <rect class="cls-5" x="290.62" y="271.61" width="248.76" height="78.73" rx="39.37" ry="39.37"/>
    <g>
      <text class="cls-3" transform="translate(319.46 326.21)"><tspan x="0" y="0">$</tspan></text>
      <text class="cls-1" transform="translate(351.84 334.72)"><tspan x="0" y="0">3600</tspan></text>
    </g>
  </g>
  <text class="cls-2" transform="translate(246.74 140.4)"><tspan x="0" y="0">1 Kg</tspan></text>
  <text class="cls-2" transform="translate(514.96 150.18)"><tspan x="0" y="0">1/2 Kg </tspan></text>
</svg>