<?xml version="1.0" encoding="UTF-8"?>
<svg id="Capa_2" data-name="Capa 2" xmlns="http://www.w3.org/2000/svg" viewBox="0 0 1920 970">
  <defs>
    <style>
      .cls-1 {
        fill: #fcc10c;
      }

      .cls-2, .cls-3, .cls-4, .cls-5 {
        fill: #55131d;
      }

      .cls-6 {
        letter-spacing: -.02em;
      }

      .cls-3 {
        font-size: 150.33px;
      }

      .cls-3, .cls-4 {
        font-family: MADETOMMY-Bold, 'MADE TOMMY';
      }

      .cls-3, .cls-4, .cls-5 {
        font-weight: 700;
      }

      .cls-7 {
        fill: #f7f2ea;
      }

      .cls-4 {
        font-size: 83.24px;
      }

      .cls-5 {
        font-family: PPWoodland-Bold, 'PP Woodland';
        font-size: 60.61px;
      }
    </style>
  </defs>
  <g id="Capa_1-2" data-name="Capa 1">
    <g>
      <rect class="cls-7" x="0" width="1920" height="970"/>
      <path class="cls-1" d="M1609.94,505.04c1.83,1.14,3.68,2.22,5.56,3.25-1.88-1.02-3.73-2.11-5.56-3.24l-6.31-3.91,6.31,3.9Z"/>
      <path class="cls-1" d="M1617.37,509.3c1.89,.99,3.8,1.93,5.72,2.82-1.92-.88-3.83-1.82-5.72-2.82Z"/>
      <path class="cls-1" d="M1721.7,513.21c-1.91,.83-3.84,1.61-5.79,2.34,1.94-.73,3.88-1.51,5.79-2.34Z"/>
      <path class="cls-1" d="M1736.66,505.44c-1.82,1.11-3.66,2.17-5.51,3.17,1.85-1.01,3.69-2.07,5.51-3.18l8.88-5.43-8.88,5.44Z"/>
      <path class="cls-1" d="M1758.67,493.04c1.27-.58,2.55-1.14,3.84-1.66-1.29,.53-2.57,1.08-3.84,1.66Z"/>
      <path class="cls-1" d="M1768.35,489.14c-1.3,.46-2.6,.95-3.89,1.45,1.29-.51,2.59-1,3.89-1.45Z"/>
      <path class="cls-1" d="M1920,606.83v238.61c0,29.43-9.94,58.26-29.24,80.36-.99,1.14-2.02,2.28-3.07,3.39l-1.44,1.53c-30.88,32.82-76.46,44.97-118.2,33.99-.38-.1-.75-.2-1.13-.3-.85-.23-1.7-.48-2.55-.73-.53-.16-1.06-.32-1.58-.48-.75-.24-1.51-.47-2.26-.72-.68-.23-1.35-.46-2.02-.7-.62-.22-1.24-.43-1.86-.66-1.3-.48-2.59-.99-3.88-1.52,0,0,0,0,0,0-5.76-2.39-11.41-5.24-16.87-8.58l-8.84-5.4c-1.2-.74-2.42-1.45-3.64-2.14-1.84-1.03-3.69-2.02-5.56-2.95-.63-.31-1.25-.62-1.88-.92-1.89-.89-3.79-1.74-5.71-2.54-.64-.26-1.28-.52-1.92-.78-8.35-3.29-16.99-5.61-25.73-6.95-11.49-1.77-23.18-1.86-34.69-.27-2.04,.28-4.08,.62-6.12,1-.68,.13-1.35,.27-2.03,.41-1.34,.28-2.69,.59-4.04,.91-2.01,.49-4.01,1.03-6.01,1.64-.83,.25-1.65,.51-2.48,.78-.98,.32-1.97,.66-2.94,1-.35,.12-.7,.24-1.04,.37-1.13,.42-2.26,.85-3.38,1.29-1.29,.52-2.59,1.05-3.87,1.62-5.13,2.26-10.14,4.88-15,7.9l-6.28,3.89c-4.51,2.8-9.16,5.27-13.89,7.41-3.61,1.63-7.28,3.07-10.99,4.33-4.61,1.56-9.3,2.82-14,3.8-.86,.18-1.71,.35-2.58,.51-1.01,.19-2.03,.36-3.04,.52-.34,.06-.68,.11-1,.16-1.17,.18-2.35,.33-3.53,.48-4.78,.57-9.6,.86-14.39,.85-2.23,.25-4.47,.43-6.7,.55-6.88,.38-13.8,.17-20.69-.65,0,0,0,0-.02,0-3.34-.41-6.68-.94-10.01-1.62-2-.41-4-.88-5.99-1.38-1.98-.52-3.95-1.08-5.91-1.7-5.45-1.71-10.82-3.84-16.07-6.36-1.68-.82-3.34-1.67-5-2.56h0c-1.86-1.01-3.7-2.08-5.52-3.19l-8.83-5.4c-1.81-1.1-3.64-2.16-5.48-3.15-.62-.33-1.23-.66-1.86-.98-1.86-.96-3.74-1.88-5.63-2.74-.64-.28-1.27-.57-1.91-.85-1.9-.83-3.83-1.6-5.76-2.33-7.11-2.66-14.4-4.61-21.79-5.89-1.34-.23-2.68-.44-4.03-.62-5.39-.74-10.83-1.1-16.26-1.1-.68,0-1.36,0-2.04,.02-.6,0-1.19,.02-1.79,.04-1.65,.05-3.3,.14-4.95,.26-.5,.04-.99,.08-1.48,.12-1.37,.12-2.73,.26-4.1,.43-.74,.08-1.46,.18-2.19,.28-1.28,.18-2.56,.38-3.83,.6-1.39,.24-2.78,.51-4.17,.8-13.5,2.82-26.63,8-38.76,15.51l-6.28,3.89c-20.43,12.66-43.38,18.52-66.04,17.99-25.88,2.95-52.74-2.46-76.3-16.87l-8.84-5.4c-38.75-23.7-87.4-23.55-126.02,.39l-6.28,3.89c-19.64,12.17-41.62,18.06-63.43,18.04-25.76,2.85-52.47-2.58-75.92-16.92l-8.83-5.4c-38.75-23.69-87.4-23.54-126.02,.39l-6.28,3.89c-20.43,12.66-43.38,18.52-66.04,17.99-25.88,2.95-52.74-2.46-76.3-16.87l-8.84-5.4c-38.75-23.7-87.4-23.55-126.02,.39l-6.27,3.89c-19.65,12.17-41.62,18.06-63.43,18.04-25.77,2.85-52.48-2.58-75.92-16.92l-8.84-5.4c-38.75-23.69-87.4-23.54-126.02,.39l-6.27,3.89c-48.88,30.3-112.24,21.76-151.46-20.42l-3.42-3.68c-8.97-9.64-16.07-20.37-21.32-31.73-7.02-15.22-10.2-31.95-10.2-48.73v-238.37c0-16.79,3.18-33.51,10.2-48.73,5.25-11.37,12.35-22.1,21.32-31.74l3.42-3.67c39.22-42.18,102.58-50.72,151.46-20.42l6.27,3.89c38.62,23.93,87.26,24.08,126.02,.38l8.84-5.4c23.44-14.33,50.15-19.76,75.92-16.91,21.81-.03,43.78,5.87,63.43,18.04l6.27,3.89c38.62,23.93,87.26,24.08,126.02,.39l8.84-5.41c23.56-14.4,50.42-19.81,76.3-16.86,22.66-.53,45.62,5.33,66.04,17.99l6.28,3.89c38.62,23.93,87.26,24.08,126.02,.38l8.83-5.4c23.45-14.33,50.16-19.76,75.92-16.91,21.81-.03,43.79,5.87,63.43,18.04l6.28,3.89c38.62,23.93,87.26,24.08,126.02,.39l8.84-5.41c23.56-14.4,50.42-19.81,76.3-16.86,22.66-.53,45.62,5.33,66.04,17.99l6.28,3.89c11.86,7.35,24.68,12.46,37.86,15.31,2.1,.46,4.21,.86,6.32,1.19,.57,.09,1.13,.18,1.7,.27,1.01,.15,2.04,.29,3.05,.41,1.06,.13,2.13,.24,3.2,.34,.54,.06,1.06,.1,1.59,.14,.54,.05,1.06,.09,1.6,.12,1.41,.09,2.83,.16,4.25,.21,.56,.02,1.12,.03,1.68,.04,.68,.01,1.34,.02,2.02,.02,21.73,.01,43.46-5.88,62.74-17.67l8.83-5.4c23.45-14.33,50.16-19.76,75.92-16.91,5.49-.01,11,.36,16.48,1.11,1.35,.18,2.71,.39,4.06,.63,1.34,.23,2.7,.49,4.04,.77,8.08,1.67,16.04,4.2,23.77,7.59,1.28,.57,2.57,1.16,3.84,1.77,1.27,.62,2.54,1.25,3.8,1.91,2.52,1.32,5,2.74,7.45,4.27l6.28,3.89c1.82,1.12,3.66,2.21,5.53,3.22,.62,.34,1.24,.68,1.86,1,1.88,.99,3.78,1.93,5.69,2.8,8.29,3.82,16.91,6.64,25.68,8.48,1.25,.26,2.5,.5,3.75,.72,12.25,2.16,24.75,2.4,37.06,.72,1.35-.19,2.69-.39,4.04-.62,7.38-1.27,14.68-3.23,21.78-5.89,1.93-.73,3.86-1.5,5.76-2.33,.64-.28,1.27-.57,1.91-.85,1.89-.87,3.77-1.78,5.63-2.74,.63-.33,1.24-.66,1.86-.98,1.84-.99,3.67-2.05,5.48-3.15l8.83-5.41c3.03-1.86,6.13-3.56,9.27-5.12,1.25-.62,2.52-1.22,3.79-1.8,1.26-.58,2.54-1.12,3.82-1.65,.64-.28,1.28-.54,1.94-.79,1.28-.5,2.58-.98,3.87-1.44h0c1.21-.44,2.43-.84,3.66-1.23,.57-.18,1.14-.35,1.72-.52,.64-.19,1.28-.38,1.92-.56,.7-.2,1.4-.39,2.1-.57,.46-.12,.93-.24,1.39-.35,4.12-1.03,8.27-1.84,12.43-2.43,.03,0,.05,0,.08-.01,37.73-5.29,76.88,7.54,104.37,36.77l1.44,1.53c1.05,1.11,2.08,2.25,3.07,3.39,19.29,22.1,29.24,50.93,29.24,80.36Z"/>
      <g>
        <path class="cls-2" d="M741.34,430h-218.2c-6.21,0-11.71-4.17-13.38-10.15l-61.78-220.59c-.82-2.93,.89-5.98,3.82-6.8,2.91-.81,5.97,.89,6.8,3.82l61.78,220.59c.34,1.23,1.48,2.09,2.76,2.09h218.2c1.28,0,2.42-.86,2.76-2.1l61.78-220.59c.82-2.94,3.9-4.63,6.8-3.82,2.94,.82,4.65,3.87,3.82,6.8l-61.78,220.59c-1.68,5.98-7.18,10.15-13.38,10.15Z"/>
        <path class="cls-2" d="M810.99,203.73H453.49c-7.5,0-13.6-6.1-13.6-13.6v-3.61c0-7.5,6.1-13.6,13.6-13.6h357.5c7.5,0,13.6,6.1,13.6,13.6v3.61c0,7.5-6.1,13.6-13.6,13.6Zm-357.5-19.78c-1.42,0-2.57,1.15-2.57,2.57v3.61c0,1.42,1.15,2.57,2.57,2.57h357.5c1.42,0,2.57-1.15,2.57-2.57v-3.61c0-1.42-1.15-2.57-2.57-2.57H453.49Z"/>
      </g>
      <g>
        <path class="cls-2" d="M1425.92,241.52h-292.46c-6.99,0-12.67-5.68-12.67-12.67v-3.19c0-6.98,5.68-12.67,12.67-12.67h292.46c7.17,0,13,5.83,13,13v2.53c0,7.17-5.83,13-13,13Zm-292.46-19.98c-2.27,0-4.12,1.85-4.12,4.12v3.19c0,2.27,1.85,4.12,4.12,4.12h292.46c2.46,0,4.45-2,4.45-4.45v-2.53c0-2.45-2-4.45-4.45-4.45h-292.46Z"/>
        <path class="cls-2" d="M1370.85,429.78h-181.99c-5.03,0-9.5-3.39-10.86-8.24l-51.53-184c-.64-2.27,.69-4.63,2.96-5.27,2.26-.64,4.63,.69,5.27,2.96l51.53,184c.33,1.18,1.41,2,2.64,2h181.99c1.22,0,2.31-.82,2.64-2l51.53-184c.63-2.27,3-3.6,5.27-2.96,2.27,.64,3.6,2.99,2.96,5.27l-51.53,184c-1.36,4.85-5.83,8.24-10.86,8.24Z"/>
      </g>
      <g>
        <path class="cls-2" d="M964.37,389.38c-3.12,0-5.66-3.31-5.66-5.14V238.02c0-1.82,2.53-5.14,5.66-5.14s5.66,3.31,5.66,5.14v146.22c0,1.82-2.53,5.14-5.66,5.14Z"/>
        <path class="cls-2" d="M1042.62,311.13c0,3.12-3.31,5.66-5.14,5.66h-146.22c-1.82,0-5.14-2.53-5.14-5.66s3.31-5.66,5.14-5.66h146.22c1.82,0,5.14,2.53,5.14,5.66Z"/>
      </g>
      <g>
        <rect class="cls-7" x="672.28" y="628.31" width="575.44" height="182.13" rx="91.06" ry="91.06"/>
        <g>
          <text class="cls-4" transform="translate(739.01 754.61)"><tspan x="0" y="0">$</tspan></text>
          <text class="cls-3" transform="translate(813.9 774.3)"><tspan x="0" y="0">2</tspan><tspan class="cls-6" x="87.19" y="0">7</tspan><tspan x="165.96" y="0">00</tspan></text>
        </g>
      </g>
      <text class="cls-5" transform="translate(570.78 324.77)"><tspan x="0" y="0">1 Kg</tspan></text>
      <text class="cls-5" transform="translate(1191.22 347.4)"><tspan x="0" y="0">1/2 Kg </tspan></text>
    </g>
  </g>
</svg>