<?xml version="1.0" encoding="UTF-8"?>
<svg id="Capa_2" data-name="Capa 2" xmlns="http://www.w3.org/2000/svg" viewBox="0 0 1920 970">
  <defs>
    <style>
      .cls-1 {
        fill: #fcc10c;
      }

      .cls-2 {
        fill: #55131d;
      }

      .cls-3 {
        fill: #f7f2ea;
      }
    </style>
  </defs>
  <g id="Capa_1-2" data-name="Capa 1">
    <g>
      <rect class="cls-3" x="0" width="1920" height="970"/>
      <path class="cls-1" d="M1920,606.83v238.61c0,29.43-9.94,58.26-29.24,80.36-.99,1.14-2.02,2.28-3.07,3.39l-1.44,1.53c-30.88,32.82-76.46,44.97-118.2,33.99-.38-.1-.75-.2-1.13-.3-.85-.23-1.7-.48-2.55-.73-.53-.16-1.06-.32-1.58-.48-.75-.24-1.51-.47-2.26-.72-.68-.23-1.35-.46-2.02-.7-.62-.22-1.24-.43-1.86-.66-1.3-.48-2.59-.99-3.88-1.52,0,0,0,0,0,0-5.76-2.39-11.41-5.24-16.87-8.58l-8.84-5.4c-1.2-.74-2.42-1.45-3.64-2.14-1.84-1.03-3.69-2.02-5.56-2.95-.63-.31-1.25-.62-1.88-.92-1.89-.89-3.79-1.74-5.71-2.54-.64-.26-1.28-.52-1.92-.78-8.35-3.29-16.99-5.61-25.73-6.95-11.49-1.77-23.18-1.86-34.69-.27-2.04,.28-4.08,.62-6.12,1-.68,.13-1.35,.27-2.03,.41-1.34,.28-2.69,.59-4.04,.91-2.01,.49-4.01,1.03-6.01,1.64-.83,.25-1.65,.51-2.48,.78-.98,.32-1.97,.66-2.94,1-.35,.12-.7,.24-1.04,.37-1.13,.42-2.26,.85-3.38,1.29-1.29,.52-2.59,1.05-3.87,1.62-5.13,2.26-10.14,4.88-15,7.9l-6.28,3.89c-4.51,2.8-9.16,5.27-13.89,7.41-3.61,1.63-7.28,3.07-10.99,4.33-4.61,1.56-9.3,2.82-14,3.8-.86,.18-1.71,.35-2.58,.51-1.01,.19-2.03,.36-3.04,.52-.34,.06-.68,.11-1,.16-1.17,.18-2.35,.33-3.53,.48-4.78,.57-9.6,.86-14.39,.85-2.23,.25-4.47,.43-6.7,.55-6.88,.38-13.8,.17-20.69-.65,0,0,0,0-.02,0-3.34-.41-6.68-.94-10.01-1.62-2-.41-4-.88-5.99-1.38-1.98-.52-3.95-1.08-5.91-1.7-5.45-1.71-10.82-3.84-16.07-6.36-1.68-.82-3.34-1.67-5-2.56h0c-1.86-1.01-3.7-2.08-5.52-3.19l-8.83-5.4c-1.81-1.1-3.64-2.16-5.48-3.15-.62-.33-1.23-.66-1.86-.98-1.86-.96-3.74-1.88-5.63-2.74-.64-.28-1.27-.57-1.91-.85-1.9-.83-3.83-1.6-5.76-2.33-7.11-2.66-14.4-4.61-21.79-5.89-1.34-.23-2.68-.44-4.03-.62-5.39-.74-10.83-1.1-16.26-1.1-.68,0-1.36,0-2.04,.02-.6,0-1.19,.02-1.79,.04-1.65,.05-3.3,.14-4.95,.26-.5,.04-.99,.08-1.48,.12-1.37,.12-2.73,.26-4.1,.43-.74,.08-1.46,.18-2.19,.28-1.28,.18-2.56,.38-3.83,.6-1.39,.24-2.78,.51-4.17,.8-13.5,2.82-26.63,8-38.76,15.51l-6.28,3.89c-20.43,12.66-43.38,18.52-66.04,17.99-25.88,2.95-52.74-2.46-76.3-16.87l-8.84-5.4c-38.75-23.7-87.4-23.55-126.02,.39l-6.28,3.89c-19.64,12.17-41.62,18.06-63.43,18.04-25.76,2.85-52.47-2.58-75.92-16.92l-8.83-5.4c-38.75-23.69-87.4-23.54-126.02,.39l-6.28,3.89c-20.43,12.66-43.38,18.52-66.04,17.99-25.88,2.95-52.74-2.46-76.3-16.87l-8.84-5.4c-38.75-23.7-87.4-23.55-126.02,.39l-6.27,3.89c-19.65,12.17-41.62,18.06-63.43,18.04-25.77,2.85-52.48-2.58-75.92-16.92l-8.84-5.4c-38.75-23.69-87.4-23.54-126.02,.39l-6.27,3.89c-48.88,30.3-112.24,21.76-151.46-20.42l-3.42-3.68c-8.97-9.64-16.07-20.37-21.32-31.73-7.02-15.22-10.2-31.95-10.2-48.73v-238.37c0-16.79,3.18-33.51,10.2-48.73,5.25-11.37,12.35-22.1,21.32-31.74l3.42-3.67c39.22-42.18,102.58-50.72,151.46-20.42l6.27,3.89c38.62,23.93,87.26,24.08,126.02,.38l8.84-5.4c23.44-14.33,50.15-19.76,75.92-16.91,21.81-.03,43.78,5.87,63.43,18.04l6.27,3.89c38.62,23.93,87.26,24.08,126.02,.39l8.84-5.41c23.56-14.4,50.42-19.81,76.3-16.86,22.66-.53,45.62,5.33,66.04,17.99l6.28,3.89c38.62,23.93,87.26,24.08,126.02,.38l8.83-5.4c23.45-14.33,50.16-19.76,75.92-16.91,21.81-.03,43.79,5.87,63.43,18.04l6.28,3.89c38.62,23.93,87.26,24.08,126.02,.39l8.84-5.41c23.56-14.4,50.42-19.81,76.3-16.86,22.66-.53,45.62,5.33,66.04,17.99l6.28,3.89c11.86,7.35,24.68,12.46,37.86,15.31,2.1,.46,4.21,.86,6.32,1.19,.57,.09,1.13,.18,1.7,.27,1.01,.15,2.04,.29,3.05,.41,1.06,.13,2.13,.24,3.2,.34,.54,.06,1.06,.1,1.59,.14,.54,.05,1.06,.09,1.6,.12,1.41,.09,2.83,.16,4.25,.21,.56,.02,1.12,.03,1.68,.04,.68,.01,1.34,.02,2.02,.02,21.73,.01,43.46-5.88,62.74-17.67l8.83-5.4c23.45-14.33,50.16-19.76,75.92-16.91,5.49-.01,11,.36,16.48,1.11,1.35,.18,2.71,.39,4.06,.63,1.34,.23,2.7,.49,4.04,.77,8.08,1.67,16.04,4.2,23.77,7.59,1.28,.57,2.57,1.16,3.84,1.77,1.27,.62,2.54,1.25,3.8,1.91,2.52,1.32,5,2.74,7.45,4.27l6.28,3.89c1.82,1.12,3.66,2.21,5.53,3.22,.62,.34,1.24,.68,1.86,1,1.88,.99,3.78,1.93,5.69,2.8,8.29,3.82,16.91,6.64,25.68,8.48,1.25,.26,2.5,.5,3.75,.72,12.25,2.16,24.75,2.4,37.06,.72,1.35-.19,2.69-.39,4.04-.62,7.38-1.27,14.68-3.23,21.78-5.89,1.93-.73,3.86-1.5,5.76-2.33,.64-.28,1.27-.57,1.91-.85,1.89-.87,3.77-1.78,5.63-2.74,.63-.33,1.24-.66,1.86-.98,1.84-.99,3.67-2.05,5.48-3.15l8.83-5.41c3.03-1.86,6.13-3.56,9.27-5.12,1.25-.62,2.52-1.22,3.79-1.8,1.26-.58,2.54-1.12,3.82-1.65,.64-.28,1.28-.54,1.94-.79,1.28-.5,2.58-.98,3.87-1.44h0c1.21-.44,2.43-.84,3.66-1.23,.57-.18,1.14-.35,1.72-.52,.64-.19,1.28-.38,1.92-.56,.7-.2,1.4-.39,2.1-.57,.46-.12,.93-.24,1.39-.35,4.12-1.03,8.27-1.84,12.43-2.43,.03,0,.05,0,.08-.01,37.73-5.29,76.88,7.54,104.37,36.77l1.44,1.53c1.05,1.11,2.08,2.25,3.07,3.39,19.29,22.1,29.24,50.93,29.24,80.36Z"/>
      <rect class="cls-3" x="672.28" y="628.31" width="575.44" height="182.13" rx="91.06" ry="91.06"/>
      <g>
        <path class="cls-2" d="M767.81,755.44v8.41h-6.66v-8.32c-9.57-.75-18.15-4.99-20.48-14.82l13.15-4.08c.75,3.33,3.83,6.91,10.15,6.91,4.91,0,8.49-1.92,8.49-5.74,0-4.33-5.66-4.99-12.24-6.66-11.65-2.83-16.98-8.24-16.98-17.98s7.49-16.48,17.9-17.65v-8.32h6.66v8.32c8.66,1,15.65,6.08,17.65,14.4l-13.15,3.25c-.75-2.83-3.25-5.66-8.24-5.66-4.16,0-6.99,2.25-6.99,5.58,0,4.58,6.99,5.66,11.49,6.91,14.23,4,18.4,8.49,18.4,17.56s-6.91,16.65-19.14,17.9Z"/>
        <g>
          <path class="cls-2" d="M896.43,744.53c0,18.94-14.88,31.72-39.09,31.72-19.99,0-36.83-10.52-39.69-27.51l24.5-5.71c.9,4.21,4.66,10.37,15.18,10.37,9.47,0,13.23-5.41,13.23-12.33,0-7.97-7.22-10.82-14.58-10.82h-10.22v-19.84h10.22c7.97,0,13.23-3.01,13.23-10.07s-4.96-10.67-11.88-10.67-11.27,4.21-12.33,9.17l-23.75-5.41c3.76-15.48,18.19-26.16,36.08-26.16,23.75,0,36.68,12.78,36.68,30.22,0,9.47-4.51,17.44-13.53,22.4,10.22,4.36,15.94,12.48,15.94,24.65Z"/>
          <path class="cls-2" d="M979.86,750.09v24.2h-72.31v-20.29c6.92-6.61,18.64-18.49,28.41-29.31,8.12-9.02,16.08-17.14,16.08-23.3,0-4.66-3.01-9.77-10.07-9.77s-10.67,5.26-11.28,10.97l-24.5-5.56c3.46-20.14,18.64-29.76,37.28-29.76,21.35,0,34.88,12.63,34.88,32.77,0,15.33-10.52,26.91-33.37,50.06h34.88Z"/>
          <path class="cls-2" d="M1079.68,721.68c0,29.31-13.53,54.57-45.1,54.57s-44.95-25.25-44.95-54.57,13.53-54.42,44.95-54.42,45.1,25.1,45.1,54.42Zm-25.71,0c0-15.33-5.11-29.62-19.39-29.62s-19.24,14.28-19.24,29.62,5.11,29.76,19.24,29.76,19.39-14.28,19.39-29.76Z"/>
          <path class="cls-2" d="M1180.25,721.68c0,29.31-13.53,54.57-45.1,54.57s-44.95-25.25-44.95-54.57,13.53-54.42,44.95-54.42,45.1,25.1,45.1,54.42Zm-25.71,0c0-15.33-5.11-29.62-19.39-29.62s-19.24,14.28-19.24,29.62,5.11,29.76,19.24,29.76,19.39-14.28,19.39-29.76Z"/>
        </g>
      </g>
      <g>
        <g>
          <g>
            <g>
              <path class="cls-2" d="M741.34,430h-218.2c-6.21,0-11.71-4.17-13.38-10.15l-61.78-220.59c-.82-2.93,.89-5.98,3.82-6.8,2.91-.81,5.97,.89,6.8,3.82l61.78,220.59c.34,1.23,1.48,2.09,2.76,2.09h218.2c1.28,0,2.42-.86,2.76-2.1l61.78-220.59c.82-2.94,3.9-4.63,6.8-3.82,2.94,.82,4.65,3.87,3.82,6.8l-61.78,220.59c-1.68,5.98-7.18,10.15-13.38,10.15Z"/>
              <path class="cls-2" d="M810.99,203.73H453.49c-7.5,0-13.6-6.1-13.6-13.6v-3.61c0-7.5,6.1-13.6,13.6-13.6h357.5c7.5,0,13.6,6.1,13.6,13.6v3.61c0,7.5-6.1,13.6-13.6,13.6Zm-357.5-19.78c-1.42,0-2.57,1.15-2.57,2.57v3.61c0,1.42,1.15,2.57,2.57,2.57h357.5c1.42,0,2.57-1.15,2.57-2.57v-3.61c0-1.42-1.15-2.57-2.57-2.57H453.49Z"/>
            </g>
            <g>
              <path class="cls-2" d="M1388.95,430h-218.2c-6.21,0-11.71-4.17-13.38-10.15l-61.78-220.59c-.82-2.93,.89-5.98,3.82-6.8,2.91-.81,5.97,.89,6.8,3.82l61.78,220.59c.34,1.23,1.48,2.09,2.76,2.09h218.2c1.28,0,2.42-.86,2.76-2.1l61.78-220.59c.82-2.94,3.9-4.63,6.8-3.82,2.94,.82,4.65,3.87,3.82,6.8l-61.78,220.59c-1.68,5.98-7.18,10.15-13.38,10.15Z"/>
              <path class="cls-2" d="M1458.6,203.73h-357.5c-7.5,0-13.6-6.1-13.6-13.6v-3.61c0-7.5,6.1-13.6,13.6-13.6h357.5c7.5,0,13.6,6.1,13.6,13.6v3.61c0,7.5-6.1,13.6-13.6,13.6Zm-357.5-19.78c-1.42,0-2.57,1.15-2.57,2.57v3.61c0,1.42,1.15,2.57,2.57,2.57h357.5c1.42,0,2.57-1.15,2.57-2.57v-3.61c0-1.42-1.15-2.57-2.57-2.57h-357.5Z"/>
            </g>
          </g>
          <g>
            <path class="cls-2" d="M964.37,389.38c-3.12,0-5.66-3.31-5.66-5.14V238.02c0-1.82,2.53-5.14,5.66-5.14s5.66,3.31,5.66,5.14v146.22c0,1.82-2.53,5.14-5.66,5.14Z"/>
            <path class="cls-2" d="M1042.62,311.13c0,3.12-3.31,5.66-5.14,5.66h-146.22c-1.82,0-5.14-2.53-5.14-5.66s3.31-5.66,5.14-5.66h146.22c1.82,0,5.14,2.53,5.14,5.66Z"/>
          </g>
        </g>
        <g>
          <path class="cls-2" d="M573.21,322.83c5.33,0,7.39-1.46,7.39-5.33v-21.94h-7.39v-3.15c7.39,0,9.27-.91,11.15-7.64h4.61v32.73c0,3.88,2.06,5.33,7.39,5.33v1.94h-23.15v-1.94Z"/>
          <path class="cls-2" d="M655.27,322.83v1.94c-9.46,0-14-.97-16.24-9.39-2.06-7.39-2.12-12.3-9.27-12.36l-4.06,3.51v10.97c0,3.88,.85,5.33,3.03,5.33v1.94h-14.42v-1.94c2.18,0,3.03-1.46,3.03-5.33v-25.46c0-3.88-.85-5.33-3.03-5.33v-1.94h14.42v1.94c-2.18,0-3.03,1.45-3.03,5.33v10.3l14.91-12.85c2.91-2.49,3.27-2.79-2.42-2.79v-1.94h16.06v1.94c-2.36,0-5.88,.3-8.79,2.79l-12.24,10.54,.73-.61v.61c8.3-.12,10.55,4.85,13.33,13.64,2.36,7.45,4.42,9.15,8,9.15Z"/>
          <path class="cls-2" d="M687.75,300.77c.85-2.54-.06-3.39-1.09-3.39-.91,0-1.7,.42-2.12,.91,1.45,1.76,2.18,4,2.18,6.48,0,6.36-4.91,10.91-13.82,10.91-2.24,0-4.18-.3-5.88-.79-1.15,.85-1.64,1.51-1.64,2.3,0,1.7,1.94,1.82,8.36,1.27,8.67-.67,15.03,1.58,15.03,8.54,0,7.52-7.33,10.49-15.46,10.49s-17.03-2.67-14.61-12.3l8.36,1.21c-2.42,6.42,1.45,7.94,6.18,7.94s7.15-2.24,7.15-6.12c0-4.61-3.27-5.09-8.85-4.97-7.76,.3-11.64-.3-11.64-4.18,0-2.24,1.76-4.3,4.42-5.33-3.46-1.88-5.27-5.09-5.27-8.97,0-6.36,4.91-10.91,13.82-10.91,4.18,0,7.45,.97,9.76,2.73,1.21-1.7,3.21-2.73,5.58-2.73,4.3,0,5.21,2.85,4.73,5.7l-5.21,1.21Zm-9.52,3.03c-1.21-4.97-3.64-7.45-7.52-6.48-3.27,.79-4.18,4.24-3.15,8.42,1.15,4.97,3.64,7.52,7.52,6.49,3.27-.85,4.24-4.24,3.15-8.42Z"/>
        </g>
        <g>
          <path class="cls-2" d="M1220.82,322.83c5.33,0,7.39-1.46,7.39-5.33v-21.94h-7.39v-3.15c7.39,0,9.27-.91,11.15-7.64h4.61v32.73c0,3.88,2.06,5.33,7.39,5.33v1.94h-23.15v-1.94Z"/>
          <path class="cls-2" d="M1302.88,322.83v1.94c-9.46,0-14-.97-16.24-9.39-2.06-7.39-2.12-12.3-9.27-12.36l-4.06,3.51v10.97c0,3.88,.85,5.33,3.03,5.33v1.94h-14.42v-1.94c2.18,0,3.03-1.46,3.03-5.33v-25.46c0-3.88-.85-5.33-3.03-5.33v-1.94h14.42v1.94c-2.18,0-3.03,1.45-3.03,5.33v10.3l14.91-12.85c2.91-2.49,3.27-2.79-2.42-2.79v-1.94h16.06v1.94c-2.36,0-5.88,.3-8.79,2.79l-12.24,10.54,.73-.61v.61c8.3-.12,10.55,4.85,13.33,13.64,2.36,7.45,4.42,9.15,8,9.15Z"/>
          <path class="cls-2" d="M1335.37,300.77c.85-2.54-.06-3.39-1.09-3.39-.91,0-1.7,.42-2.12,.91,1.45,1.76,2.18,4,2.18,6.48,0,6.36-4.91,10.91-13.82,10.91-2.24,0-4.18-.3-5.88-.79-1.15,.85-1.64,1.51-1.64,2.3,0,1.7,1.94,1.82,8.36,1.27,8.67-.67,15.03,1.58,15.03,8.54,0,7.52-7.33,10.49-15.46,10.49s-17.03-2.67-14.61-12.3l8.36,1.21c-2.42,6.42,1.45,7.94,6.18,7.94s7.15-2.24,7.15-6.12c0-4.61-3.27-5.09-8.85-4.97-7.76,.3-11.64-.3-11.64-4.18,0-2.24,1.76-4.3,4.42-5.33-3.46-1.88-5.27-5.09-5.27-8.97,0-6.36,4.91-10.91,13.82-10.91,4.18,0,7.45,.97,9.76,2.73,1.21-1.7,3.21-2.73,5.58-2.73,4.3,0,5.21,2.85,4.73,5.7l-5.21,1.21Zm-9.52,3.03c-1.21-4.97-3.64-7.45-7.52-6.48-3.27,.79-4.18,4.24-3.15,8.42,1.15,4.97,3.64,7.52,7.52,6.49,3.27-.85,4.24-4.24,3.15-8.42Z"/>
        </g>
      </g>
    </g>
  </g>
</svg>