<svg xmlns="http://www.w3.org/2000/svg" viewBox="0 0 1920 970" xmlns:v="https://vecta.io/nano"><style><![CDATA[.F{letter-spacing:0em}.H{fill:#55131d}.I{font-weight:700}.J{font-family:MADETOMMY-Bold,MADE TOMMY}.K{font-family:PPWoodland-Bold,PP Woodland}]]></style><path d="M0 0h1920v970H0z" fill="#f7f2ea"/><path d="M1920 606.83v238.61c0 29.43-9.94 58.26-29.24 80.36-.99 1.14-2.02 2.28-3.07 3.39l-1.44 1.53c-30.88 32.82-76.46 44.97-118.2 33.99l-1.13-.3-2.55-.73-1.58-.48-2.26-.72-2.02-.7-1.86-.66c-1.3-.48-2.59-.99-3.88-1.52-5.76-2.39-11.41-5.24-16.87-8.58l-8.84-5.4a111.64 111.64 0 0 0-3.64-2.14 128.98 128.98 0 0 0-5.56-2.95l-1.88-.92a137.89 137.89 0 0 0-5.71-2.54l-1.92-.78a119.7 119.7 0 0 0-25.73-6.95 120.02 120.02 0 0 0-34.69-.27 129.9 129.9 0 0 0-6.12 1l-2.03.41a155.24 155.24 0 0 0-4.04.91c-2.01.49-4.01 1.03-6.01 1.64l-2.48.78-2.94 1-1.04.37-3.38 1.29-3.87 1.62c-5.13 2.26-10.14 4.88-15 7.9l-6.28 3.89c-4.51 2.8-9.16 5.27-13.89 7.41-3.61 1.63-7.28 3.07-10.99 4.33-4.61 1.56-9.3 2.82-14 3.8l-2.58.51a107.23 107.23 0 0 1-3.04.52c-.34.06-.68.11-1 .16-1.17.18-2.35.33-3.53.48-4.78.57-9.6.86-14.39.85-2.23.25-4.47.43-6.7.55a119.34 119.34 0 0 1-20.69-.65c-3.36-.41-6.7-.94-10.03-1.62a140.04 140.04 0 0 1-5.99-1.38c-1.98-.52-3.95-1.08-5.91-1.7a120.58 120.58 0 0 1-16.07-6.36c-1.68-.82-3.34-1.67-5-2.56h0c-1.86-1.01-3.7-2.08-5.52-3.19l-8.83-5.4a120.74 120.74 0 0 0-5.48-3.15l-1.86-.98a126.84 126.84 0 0 0-5.63-2.74l-1.91-.85c-1.9-.83-3.83-1.6-5.76-2.33-7.11-2.66-14.4-4.61-21.79-5.89a108.8 108.8 0 0 0-4.03-.62c-5.39-.74-10.83-1.1-16.26-1.1l-2.04.02c-.6 0-1.19.02-1.79.04-1.65.05-3.3.14-4.95.26l-1.48.12a113.93 113.93 0 0 0-4.1.43c-.74.08-1.46.18-2.19.28a122 122 0 0 0-3.83.6c-1.39.24-2.78.51-4.17.8-13.5 2.82-26.63 8-38.76 15.51l-6.28 3.89c-20.43 12.66-43.38 18.52-66.04 17.99-25.88 2.95-52.74-2.46-76.3-16.87l-8.84-5.4a120.05 120.05 0 0 0-126.02.39l-6.28 3.89a119.96 119.96 0 0 1-63.43 18.04c-25.76 2.85-52.47-2.58-75.92-16.92l-8.83-5.4c-38.75-23.69-87.4-23.54-126.02.39l-6.28 3.89c-20.43 12.66-43.38 18.52-66.04 17.99-25.88 2.95-52.74-2.46-76.3-16.87l-8.84-5.4a120.05 120.05 0 0 0-126.02.39l-6.27 3.89c-19.65 12.17-41.62 18.06-63.43 18.04-25.77 2.85-52.48-2.58-75.92-16.92l-8.84-5.4c-38.75-23.69-87.4-23.54-126.02.39l-6.27 3.89c-48.88 30.3-112.24 21.76-151.46-20.42l-3.42-3.68c-8.97-9.64-16.07-20.37-21.32-31.73-7.02-15.22-10.2-31.95-10.2-48.73V606.99c0-16.79 3.18-33.51 10.2-48.73 5.25-11.37 12.35-22.1 21.32-31.74l3.42-3.67c39.22-42.18 102.58-50.72 151.46-20.42l6.27 3.89c38.62 23.93 87.26 24.08 126.02.38l8.84-5.4c23.44-14.33 50.15-19.76 75.92-16.91 21.81-.03 43.78 5.87 63.43 18.04l6.27 3.89c38.62 23.93 87.26 24.08 126.02.39l8.84-5.41c23.56-14.4 50.42-19.81 76.3-16.86 22.66-.53 45.62 5.33 66.04 17.99l6.28 3.89c38.62 23.93 87.26 24.08 126.02.38l8.83-5.4c23.45-14.33 50.16-19.76 75.92-16.91a119.87 119.87 0 0 1 63.43 18.04l6.28 3.89c38.62 23.93 87.26 24.08 126.02.39l8.84-5.41c23.56-14.4 50.42-19.81 76.3-16.86 22.66-.53 45.62 5.33 66.04 17.99l6.28 3.89c11.86 7.35 24.68 12.46 37.86 15.31 2.1.46 4.21.86 6.32 1.19l1.7.27 3.05.41c1.06.13 2.13.24 3.2.34a44.59 44.59 0 0 0 1.59.14 43.03 43.03 0 0 0 1.6.12c1.41.09 2.83.16 4.25.21l1.68.04 2.02.02c21.73.01 43.46-5.88 62.74-17.67l8.83-5.4c23.45-14.33 50.16-19.76 75.92-16.91 5.49-.01 11 .36 16.48 1.11 1.35.18 2.71.39 4.06.63a114.8 114.8 0 0 1 4.04.77 119.26 119.26 0 0 1 23.77 7.59l3.84 1.77 3.8 1.91a113.3 113.3 0 0 1 7.45 4.27l6.28 3.89c1.82 1.12 3.66 2.21 5.53 3.22l1.86 1c1.88.99 3.78 1.93 5.69 2.8 8.29 3.82 16.91 6.64 25.68 8.48l3.75.72c12.25 2.16 24.75 2.4 37.06.72l4.04-.62c7.38-1.27 14.68-3.23 21.78-5.89 1.93-.73 3.86-1.5 5.76-2.33l1.91-.85a138.96 138.96 0 0 0 5.63-2.74l1.86-.98a120.74 120.74 0 0 0 5.48-3.15l8.83-5.41c3.03-1.86 6.13-3.56 9.27-5.12a131.25 131.25 0 0 1 3.79-1.8c1.26-.58 2.54-1.12 3.82-1.65.64-.28 1.28-.54 1.94-.79a138.71 138.71 0 0 1 3.87-1.44h0c1.21-.44 2.43-.84 3.66-1.23l1.72-.52 1.92-.56 2.1-.57 1.39-.35a121.74 121.74 0 0 1 12.43-2.43c.03 0 .05 0 .08-.01 37.73-5.29 76.88 7.54 104.37 36.77l1.44 1.53c1.05 1.11 2.08 2.25 3.07 3.39 19.29 22.1 29.24 50.93 29.24 80.36z" fill="#fcc10c"/><g class="H"><path d="M964.37,389.38c-3.12,0-5.66-3.31-5.66-5.14V238.02c0-1.82,2.53-5.14,5.66-5.14s5.66,3.31,5.66,5.14v146.22c0,1.82-2.53,5.14-5.66,5.14Z"/><path d="M1042.62 311.13c0 3.12-3.31 5.66-5.14 5.66H891.26c-1.82 0-5.14-2.53-5.14-5.66s3.31-5.66 5.14-5.66h146.22c1.82 0 5.14 2.53 5.14 5.66z"/></g><rect x="672.28" y="628.31" width="575.44" height="182.13" rx="91.06" fill="#f7f2ea"/><text font-size="83.24" class="H I J"><tspan x="739.01" y="754.61">$</tspan></text><text font-size="150.33" class="H I J"><tspan class="F" x="813.9" y="774.3">12</tspan><tspan x="967.84" y="774.3">50</tspan></text><text font-size="60.61" class="H I K"><tspan x="1204.14" y="331.4">1/4</tspan><tspan x="639.3" y="331.4">1/4</tspan></text><g class="H"><path d="M1365.4 252.73h-228.85c-6.99 0-12.67-5.68-12.67-12.67v-3.19a12.69 12.69 0 0 1 12.67-12.67h228.85c7.17 0 13 5.83 13 13v2.53c0 7.17-5.83 13-13 13zm-228.85-19.98a4.13 4.13 0 0 0-4.12 4.12v3.19a4.13 4.13 0 0 0 4.12 4.12h228.85c2.46 0 4.45-2 4.45-4.45v-2.53c0-2.46-2-4.45-4.45-4.45h-228.85z"/><path d="M1322.93 398.59h-143.58c-4.39 0-8.28-2.95-9.46-7.17l-40.66-145.18c-.64-2.27.69-4.63 2.96-5.27 2.26-.64 4.63.69 5.27 2.96l40.66 145.18c.15.55.66.93 1.23.93h143.58c.57 0 1.08-.38 1.23-.93l40.66-145.18c.64-2.27 2.99-3.6 5.27-2.96 2.27.64 3.6 2.99 2.96 5.27l-40.66 145.18c-1.18 4.22-5.07 7.17-9.46 7.17zM800.56 252.73H571.71c-6.99 0-12.67-5.68-12.67-12.67v-3.19a12.69 12.69 0 0 1 12.67-12.67h228.85c7.17 0 13 5.83 13 13v2.53c0 7.17-5.83 13-13 13zm-228.85-19.98a4.13 4.13 0 0 0-4.12 4.12v3.19a4.13 4.13 0 0 0 4.12 4.12h228.85c2.46 0 4.45-2 4.45-4.45v-2.53c0-2.46-2-4.45-4.45-4.45H571.71z"/><path d="M758.09 398.59H614.51c-4.39 0-8.28-2.95-9.46-7.17l-40.66-145.18c-.64-2.27.69-4.63 2.96-5.27 2.26-.64 4.63.69 5.27 2.96l40.66 145.18c.15.55.66.93 1.23.93h143.58c.57 0 1.08-.38 1.23-.93l40.66-145.18c.64-2.27 2.99-3.6 5.27-2.96 2.27.64 3.6 2.99 2.96 5.27l-40.66 145.18c-1.18 4.22-5.07 7.17-9.46 7.17z"/></g></svg>