<?xml version="1.0" encoding="UTF-8"?>
<svg id="Capa_2" data-name="Capa 2" xmlns="http://www.w3.org/2000/svg" viewBox="0 0 1920 970">
  <defs>
    <style>
      .cls-1 {
        fill: #fcc10c;
      }

      .cls-2 {
        fill: #55131d;
      }

      .cls-3 {
        fill: #f7f2ea;
      }
    </style>
  </defs>
  <g id="Capa_1-2" data-name="Capa 1">
    <g>
      <rect class="cls-3" x="475" y="-475" width="970" height="1920" transform="translate(475 1445) rotate(-90)"/>
      <path class="cls-1" d="M1920,606.83v238.61c0,29.43-9.94,58.26-29.24,80.36-.99,1.14-2.02,2.28-3.07,3.39l-1.44,1.53c-30.88,32.82-76.46,44.97-118.2,33.99-.38-.1-.75-.2-1.13-.3-.85-.23-1.7-.48-2.55-.73-.53-.16-1.06-.32-1.58-.48-.75-.24-1.51-.47-2.26-.72-.68-.23-1.35-.46-2.02-.7-.62-.22-1.24-.43-1.86-.66-1.3-.48-2.59-.99-3.88-1.52,0,0,0,0,0,0-5.76-2.39-11.41-5.24-16.87-8.58l-8.84-5.4c-1.2-.74-2.42-1.45-3.64-2.14-1.84-1.03-3.69-2.02-5.56-2.95-.63-.31-1.25-.62-1.88-.92-1.89-.89-3.79-1.74-5.71-2.54-.64-.26-1.28-.52-1.92-.78-8.35-3.29-16.99-5.61-25.73-6.95-11.49-1.77-23.18-1.86-34.69-.27-2.04,.28-4.08,.62-6.12,1-.68,.13-1.35,.27-2.03,.41-1.34,.28-2.69,.59-4.04,.91-2.01,.49-4.01,1.03-6.01,1.64-.83,.25-1.65,.51-2.48,.78-.98,.32-1.97,.66-2.94,1-.35,.12-.7,.24-1.04,.37-1.13,.42-2.26,.85-3.38,1.29-1.29,.52-2.59,1.05-3.87,1.62-5.13,2.26-10.14,4.88-15,7.9l-6.28,3.89c-4.51,2.8-9.16,5.27-13.89,7.41-3.61,1.63-7.28,3.07-10.99,4.33-4.61,1.56-9.3,2.82-14,3.8-.86,.18-1.71,.35-2.58,.51-1.01,.19-2.03,.36-3.04,.52-.34,.06-.68,.11-1,.16-1.17,.18-2.35,.33-3.53,.48-4.78,.57-9.6,.86-14.39,.85-2.23,.25-4.47,.43-6.7,.55-6.88,.38-13.8,.17-20.69-.65,0,0,0,0-.02,0-3.34-.41-6.68-.94-10.01-1.62-2-.41-4-.88-5.99-1.38-1.98-.52-3.95-1.08-5.91-1.7-5.45-1.71-10.82-3.84-16.07-6.36-1.68-.82-3.34-1.67-5-2.56h0c-1.86-1.01-3.7-2.08-5.52-3.19l-8.83-5.4c-1.81-1.1-3.64-2.16-5.48-3.15-.62-.33-1.23-.66-1.86-.98-1.86-.96-3.74-1.88-5.63-2.74-.64-.28-1.27-.57-1.91-.85-1.9-.83-3.83-1.6-5.76-2.33-7.11-2.66-14.4-4.61-21.79-5.89-1.34-.23-2.68-.44-4.03-.62-5.39-.74-10.83-1.1-16.26-1.1-.68,0-1.36,0-2.04,.02-.6,0-1.19,.02-1.79,.04-1.65,.05-3.3,.14-4.95,.26-.5,.04-.99,.08-1.48,.12-1.37,.12-2.73,.26-4.1,.43-.74,.08-1.46,.18-2.19,.28-1.28,.18-2.56,.38-3.83,.6-1.39,.24-2.78,.51-4.17,.8-13.5,2.82-26.63,8-38.76,15.51l-6.28,3.89c-20.43,12.66-43.38,18.52-66.04,17.99-25.88,2.95-52.74-2.46-76.3-16.87l-8.84-5.4c-38.75-23.7-87.4-23.55-126.02,.39l-6.28,3.89c-19.64,12.17-41.62,18.06-63.43,18.04-25.76,2.85-52.47-2.58-75.92-16.92l-8.83-5.4c-38.75-23.69-87.4-23.54-126.02,.39l-6.28,3.89c-20.43,12.66-43.38,18.52-66.04,17.99-25.88,2.95-52.74-2.46-76.3-16.87l-8.84-5.4c-38.75-23.7-87.4-23.55-126.02,.39l-6.27,3.89c-19.65,12.17-41.62,18.06-63.43,18.04-25.77,2.85-52.48-2.58-75.92-16.92l-8.84-5.4c-38.75-23.69-87.4-23.54-126.02,.39l-6.27,3.89c-48.88,30.3-112.24,21.76-151.46-20.42l-3.42-3.68c-8.97-9.64-16.07-20.37-21.32-31.73-7.02-15.22-10.2-31.95-10.2-48.73v-238.37c0-16.79,3.18-33.51,10.2-48.73,5.25-11.37,12.35-22.1,21.32-31.74l3.42-3.67c39.22-42.18,102.58-50.72,151.46-20.42l6.27,3.89c38.62,23.93,87.26,24.08,126.02,.38l8.84-5.4c23.44-14.33,50.15-19.76,75.92-16.91,21.81-.03,43.78,5.87,63.43,18.04l6.27,3.89c38.62,23.93,87.26,24.08,126.02,.39l8.84-5.41c23.56-14.4,50.42-19.81,76.3-16.86,22.66-.53,45.62,5.33,66.04,17.99l6.28,3.89c38.62,23.93,87.26,24.08,126.02,.38l8.83-5.4c23.45-14.33,50.16-19.76,75.92-16.91,21.81-.03,43.79,5.87,63.43,18.04l6.28,3.89c38.62,23.93,87.26,24.08,126.02,.39l8.84-5.41c23.56-14.4,50.42-19.81,76.3-16.86,22.66-.53,45.62,5.33,66.04,17.99l6.28,3.89c11.86,7.35,24.68,12.46,37.86,15.31,2.1,.46,4.21,.86,6.32,1.19,.57,.09,1.13,.18,1.7,.27,1.01,.15,2.04,.29,3.05,.41,1.06,.13,2.13,.24,3.2,.34,.54,.06,1.06,.1,1.59,.14,.54,.05,1.06,.09,1.6,.12,1.41,.09,2.83,.16,4.25,.21,.56,.02,1.12,.03,1.68,.04,.68,.01,1.34,.02,2.02,.02,21.73,.01,43.46-5.88,62.74-17.67l8.83-5.4c23.45-14.33,50.16-19.76,75.92-16.91,5.49-.01,11,.36,16.48,1.11,1.35,.18,2.71,.39,4.06,.63,1.34,.23,2.7,.49,4.04,.77,8.08,1.67,16.04,4.2,23.77,7.59,1.28,.57,2.57,1.16,3.84,1.77,1.27,.62,2.54,1.25,3.8,1.91,2.52,1.32,5,2.74,7.45,4.27l6.28,3.89c1.82,1.12,3.66,2.21,5.53,3.22,.62,.34,1.24,.68,1.86,1,1.88,.99,3.78,1.93,5.69,2.8,8.29,3.82,16.91,6.64,25.68,8.48,1.25,.26,2.5,.5,3.75,.72,12.25,2.16,24.75,2.4,37.06,.72,1.35-.19,2.69-.39,4.04-.62,7.38-1.27,14.68-3.23,21.78-5.89,1.93-.73,3.86-1.5,5.76-2.33,.64-.28,1.27-.57,1.91-.85,1.89-.87,3.77-1.78,5.63-2.74,.63-.33,1.24-.66,1.86-.98,1.84-.99,3.67-2.05,5.48-3.15l8.83-5.41c3.03-1.86,6.13-3.56,9.27-5.12,1.25-.62,2.52-1.22,3.79-1.8,1.26-.58,2.54-1.12,3.82-1.65,.64-.28,1.28-.54,1.94-.79,1.28-.5,2.58-.98,3.87-1.44h0c1.21-.44,2.43-.84,3.66-1.23,.57-.18,1.14-.35,1.72-.52,.64-.19,1.28-.38,1.92-.56,.7-.2,1.4-.39,2.1-.57,.46-.12,.93-.24,1.39-.35,4.12-1.03,8.27-1.84,12.43-2.43,.03,0,.05,0,.08-.01,37.73-5.29,76.88,7.54,104.37,36.77l1.44,1.53c1.05,1.11,2.08,2.25,3.07,3.39,19.29,22.1,29.24,50.93,29.24,80.36Z"/>
      <rect class="cls-3" x="997.24" y="628.31" width="575.44" height="182.13" rx="91.06" ry="91.06"/>
      <g>
        <path class="cls-2" d="M1092.76,755.44v8.41h-6.66v-8.32c-9.57-.75-18.15-4.99-20.48-14.82l13.15-4.08c.75,3.33,3.83,6.91,10.15,6.91,4.91,0,8.49-1.92,8.49-5.74,0-4.33-5.66-4.99-12.24-6.66-11.65-2.83-16.98-8.24-16.98-17.98s7.49-16.48,17.9-17.65v-8.32h6.66v8.32c8.66,1,15.65,6.08,17.65,14.4l-13.15,3.25c-.75-2.83-3.25-5.66-8.24-5.66-4.16,0-6.99,2.25-6.99,5.58,0,4.58,6.99,5.66,11.49,6.91,14.23,4,18.4,8.49,18.4,17.56s-6.91,16.65-19.14,17.9Z"/>
        <g>
          <path class="cls-2" d="M1181.99,704.24c0-21.35,15.63-36.98,39.69-36.98s39.69,15.03,39.69,36.98c0,14.58-7.82,25.26-11.73,30.97l-26.61,39.09h-27.66l25.11-34.43c-23-.45-38.48-14.13-38.48-35.63Zm25.41,0c0,8.12,5.71,14.28,14.28,14.28,8.12,0,14.28-6.31,14.28-14.28s-5.86-14.28-14.28-14.28-14.28,6.16-14.28,14.28Z"/>
          <path class="cls-2" d="M1361.93,721.68c0,29.31-13.53,54.57-45.1,54.57s-44.95-25.25-44.95-54.57,13.53-54.42,44.95-54.42,45.1,25.1,45.1,54.42Zm-25.71,0c0-15.33-5.11-29.62-19.39-29.62s-19.24,14.28-19.24,29.62,5.11,29.76,19.24,29.76,19.39-14.28,19.39-29.76Z"/>
          <path class="cls-2" d="M1462.5,721.68c0,29.31-13.53,54.57-45.1,54.57s-44.95-25.25-44.95-54.57,13.53-54.42,44.95-54.42,45.1,25.1,45.1,54.42Zm-25.71,0c0-15.33-5.11-29.62-19.39-29.62s-19.24,14.28-19.24,29.62,5.11,29.76,19.24,29.76,19.39-14.28,19.39-29.76Z"/>
        </g>
      </g>
      <g>
        <path class="cls-2" d="M960,351.49c-2.58,0-4.67-2.73-4.67-4.24v-120.63c0-1.51,2.09-4.24,4.67-4.24s4.67,2.73,4.67,4.24v120.63c0,1.51-2.09,4.24-4.67,4.24Z"/>
        <path class="cls-2" d="M1024.56,286.94c0,2.58-2.73,4.67-4.24,4.67h-120.63c-1.51,0-4.24-2.09-4.24-4.67s2.73-4.67,4.24-4.67h120.63c1.51,0,4.24,2.09,4.24,4.67Z"/>
      </g>
      <g>
        <path class="cls-2" d="M362.42,684.38l2.81,.18-.62,11.6-.26,5.1h-45.53c0-19.86,7.82-21.8,20.48-26.54,9.49-3.52,13.89-6.86,13.89-15.73,0-7.91-2.99-12.04-9.84-12.04-4.57,0-13.54,.97-10.02,14.68l-12.13,1.76c-3.52-17.14,13.01-21.01,22.94-21.01s21.18,3.78,21.18,16.35c0,15.29-15.12,17.49-23.64,20.48-10.81,3.78-14.77,6.42-14.77,14.15h27.33c5.54,0,7.82-2.64,8.17-8.96Z"/>
        <path class="cls-2" d="M415.5,656.44c14.77,0,21.97,8.26,21.53,19.34l-12.13-1.76c.88-8.61-2.81-13.01-9.49-13.01-8.96,0-11.95,7.03-11.95,18.28s2.99,18.28,11.95,18.28c6.68,0,11.25-4.39,10.37-13.89l12.13-1.76c.44,11.95-7.73,20.21-22.5,20.21-17.49,0-24.08-10.99-24.08-22.85s6.68-22.85,24.17-22.85Z"/>
        <path class="cls-2" d="M489.15,667.86v22.85c0,5.62,1.23,7.73,4.39,7.73v2.81h-5.8c-6.86,0-10.72-.44-10.72-7.29v-5.36h-.88c-1.85,8.26-6.94,13.54-15.82,13.54s-15.21-5.36-15.21-16.79v-17.49c0-5.62-1.23-7.73-4.39-7.73v-2.81h20.92v2.81c-3.16,0-4.39,2.11-4.39,7.73v20.48c0,5.89,1.93,9.23,6.77,9.23,8.96,0,13.01-12.39,13.01-24.43v-5.27c0-5.62-1.23-7.73-4.39-7.73v-2.81h20.92v2.81c-3.16,0-4.39,2.11-4.39,7.73Z"/>
        <path class="cls-2" d="M521.23,656.44c14.77,0,21.97,8.26,21.53,19.34l-12.13-1.76c.88-8.61-2.81-13.01-9.49-13.01-8.96,0-11.95,7.03-11.95,18.28s2.99,18.28,11.95,18.28c6.68,0,11.25-4.39,10.37-13.89l12.13-1.76c.44,11.95-7.73,20.21-22.5,20.21-17.49,0-24.08-10.99-24.08-22.85s6.68-22.85,24.17-22.85Z"/>
        <path class="cls-2" d="M594.88,667.86v22.85c0,5.62,1.23,7.73,4.39,7.73v2.81h-5.8c-6.86,0-10.72-.44-10.72-7.29v-5.36h-.88c-1.85,8.26-6.94,13.54-15.82,13.54s-15.21-5.36-15.21-16.79v-17.49c0-5.62-1.23-7.73-4.39-7.73v-2.81h20.92v2.81c-3.16,0-4.39,2.11-4.39,7.73v20.48c0,5.89,1.93,9.23,6.77,9.23,8.96,0,13.01-12.39,13.01-24.43v-5.27c0-5.62-1.23-7.73-4.39-7.73v-2.81h20.92v2.81c-3.16,0-4.39,2.11-4.39,7.73Z"/>
        <path class="cls-2" d="M648.22,676.74l-12.13-1.76c4.57-10.28,2.99-13.97-1.23-13.97-7.65,0-13.45,12.39-13.45,24.43v5.27c0,5.62,1.23,7.73,4.39,7.73v2.81h-20.92v-2.81c3.16,0,4.39-2.11,4.39-7.73v-22.85c0-5.62-1.23-7.73-4.39-7.73v-2.81h5.8c6.86,0,10.72,.44,10.72,7.29v5.36h.88c1.76-5.62,7.12-13.54,16.88-13.54s12.57,7.12,9.05,20.3Z"/>
        <path class="cls-2" d="M702.36,667.86v22.85c0,5.62,1.23,7.73,4.39,7.73v2.81h-5.8c-6.86,0-10.72-.44-10.72-7.29v-5.36h-.88c-1.85,8.26-6.94,13.54-15.82,13.54s-15.21-5.36-15.21-16.79v-17.49c0-5.62-1.23-7.73-4.39-7.73v-2.81h20.92v2.81c-3.16,0-4.39,2.11-4.39,7.73v20.48c0,5.89,1.93,9.23,6.77,9.23,8.96,0,13.01-12.39,13.01-24.43v-5.27c0-5.62-1.23-7.73-4.39-7.73v-2.81h20.92v2.81c-3.16,0-4.39,2.11-4.39,7.73Z"/>
        <path class="cls-2" d="M734.44,656.44c14.77,0,21.97,8.26,21.53,19.34l-12.13-1.76c.88-8.61-2.81-13.01-9.49-13.01-8.96,0-11.95,7.03-11.95,18.28s2.99,18.28,11.95,18.28c6.68,0,11.25-4.39,10.37-13.89l12.13-1.76c.44,11.95-7.73,20.21-22.5,20.21-17.49,0-24.08-10.99-24.08-22.85s6.68-22.85,24.17-22.85Z"/>
        <path class="cls-2" d="M812.66,698.45v2.81h-20.92v-2.81c3.16,0,4.39-2.11,4.39-7.73v-20.48c0-5.89-1.93-9.23-6.77-9.23-8.96,0-13.01,12.39-13.01,24.43v5.27c0,5.62,1.23,7.73,4.39,7.73v2.81h-20.92v-2.81c3.16,0,4.39-2.11,4.39-7.73v-42.19c0-5.62-1.23-7.73-4.39-7.73v-2.81h5.8c6.86,0,10.72,.53,10.72,7.73v24.26h.88c1.85-8.26,6.94-13.54,15.82-13.54s15.21,5.36,15.21,16.79v17.49c0,5.62,1.23,7.73,4.39,7.73Z"/>
        <path class="cls-2" d="M839.2,656.44c16.61,0,24.08,10.99,24.08,22.85s-7.47,22.85-24.08,22.85-24.08-10.99-24.08-22.85,7.47-22.85,24.08-22.85Zm2.46,40.96c8.26-1.05,10.81-8.44,9.4-19.6-1.41-11.07-5.62-17.67-14.33-16.61-8.26,1.05-10.81,8.44-9.4,19.6,1.41,11.07,5.62,17.67,14.33,16.61Z"/>
        <path class="cls-2" d="M888.32,656.44c11.16,0,22.41,3.87,18.9,16.26l-12.13-1.76c2.64-8-2.11-9.93-6.5-9.93-5.36,0-7.21,2.64-7.21,5.71,0,4.04,2.02,5.62,9.84,7.82,9.32,2.55,17.84,4.83,17.84,14.06,0,10.11-9.05,13.54-19.07,13.54-12.22,0-24.52-3.87-21.01-18.72l12.13,1.76c-3.52,10.02,1.76,12.39,8.17,12.39,5.45,0,7.65-2.9,7.65-6.77,0-5.01-4.31-6.42-10.63-8.35-9.67-2.72-17.05-5.1-17.05-13.71s8.35-12.3,19.07-12.3Z"/>
        <path class="cls-2" d="M419.99,744.32c7.12,0,13.27,3.34,16.44,9.14h.88v-17.05c0-5.62-1.23-7.73-4.39-7.73v-2.81h5.8c6.86,0,10.72,.53,10.72,7.73v45c0,5.62,1.23,7.73,4.39,7.73v2.81h-5.8c-6.59,0-10.72-.44-10.72-6.59v-1.67h-.88c-3.16,5.8-9.32,9.14-16.44,9.14-11.25,0-20.65-7.91-20.65-22.85s9.4-22.85,20.65-22.85Zm4.13,41.13c8.26,0,12.3-7.29,12.3-18.28s-4.04-18.28-12.3-18.28-11.78,7.29-11.78,18.28,3.52,18.28,11.78,18.28Z"/>
        <path class="cls-2" d="M499.97,772.62c.88,9.4-6.06,17.4-19.25,17.4-17.05,0-23.91-9.4-23.91-21.71,0-14.94,10.02-23.99,24.79-23.99,10.9,0,18.63,4.66,18.63,12.92,0,13.45-19.51,14.94-31.29,11.95,.09,8.88,3.6,16.26,11.43,16.26,5.45,0,8.61-2.46,7.47-10.55l12.13-2.29Zm-30.85-8.17c12.48,2.99,18.98-.18,18.98-7.47,0-5.19-2.55-8.09-7.65-8.09-7.47,0-10.63,5.98-11.34,15.56Z"/>
        <path class="cls-2" d="M569.83,772.27l2.81,.18-.62,11.6-.26,5.1h-45.53c0-19.86,7.82-21.8,20.48-26.54,9.49-3.52,13.89-6.86,13.89-15.73,0-7.91-2.99-12.04-9.84-12.04-4.57,0-13.54,.97-10.02,14.68l-12.13,1.76c-3.52-17.14,13.01-21.01,22.94-21.01s21.18,3.78,21.18,16.35c0,15.29-15.12,17.49-23.64,20.48-10.81,3.78-14.77,6.42-14.77,14.15h27.33c5.54,0,7.82-2.64,8.17-8.96Z"/>
        <path class="cls-2" d="M631.35,790.02c-7.12,0-13.27-3.34-16.44-9.14h-.88v1.67c0,6.59-4.75,6.59-12.13,6.59v-52.73c0-5.62-1.23-7.73-4.39-7.73v-2.81h5.8c6.86,0,10.72,.53,10.72,7.73v19.86h.88c3.16-5.8,9.32-9.14,16.44-9.14,11.25,0,20.65,7.91,20.65,22.85s-9.4,22.85-20.65,22.85Zm-4.13-41.13c-8.26,0-12.3,7.29-12.3,18.28s4.04,18.28,12.3,18.28,11.78-7.29,11.78-18.28-3.52-18.28-11.78-18.28Z"/>
        <path class="cls-2" d="M681.35,744.32c16.61,0,24.08,10.99,24.08,22.85s-7.47,22.85-24.08,22.85-24.08-10.99-24.08-22.85,7.47-22.85,24.08-22.85Zm2.46,40.96c8.26-1.05,10.81-8.44,9.4-19.6-1.41-11.07-5.62-17.67-14.33-16.61-8.26,1.05-10.81,8.44-9.4,19.6,1.41,11.07,5.62,17.67,14.33,16.61Z"/>
        <path class="cls-2" d="M734.88,744.32c14.77,0,21.97,8.26,21.53,19.34l-12.13-1.76c.88-8.61-2.81-13.01-9.49-13.01-8.96,0-11.95,7.03-11.95,18.28s2.99,18.28,11.95,18.28c6.68,0,11.25-4.39,10.37-13.89l12.13-1.76c.44,11.95-7.73,20.21-22.5,20.21-17.49,0-24.08-10.99-24.08-22.85s6.68-22.85,24.17-22.85Z"/>
        <path class="cls-2" d="M813.1,786.33v2.81h-20.92v-2.81c3.16,0,4.39-2.11,4.39-7.73v-20.48c0-5.89-1.93-9.23-6.77-9.23-8.96,0-13.01,12.39-13.01,24.43v5.27c0,5.62,1.23,7.73,4.39,7.73v2.81h-20.92v-2.81c3.16,0,4.39-2.11,4.39-7.73v-42.19c0-5.62-1.23-7.73-4.39-7.73v-2.81h5.8c6.86,0,10.72,.53,10.72,7.73v24.26h.88c1.85-8.26,6.94-13.54,15.82-13.54s15.21,5.36,15.21,16.79v17.49c0,5.62,1.23,7.73,4.39,7.73Z"/>
        <path class="cls-2" d="M864.51,782.29v3.34c-1.49,2.29-4.83,3.52-8.17,3.52s-7.82-.88-8.35-5.89v-.62h-.88c-2.64,4.13-8.17,7.38-16,7.38-9.23,0-14.15-3.6-14.15-10.99,0-12.74,18.63-15.73,30.94-17.14-.35-9.05-2.02-13.01-9.05-13.01s-10.02,4.04-7.38,10.81l-11.6,2.29c-2.64-9.67,4.48-17.67,20.21-17.67,14.33,0,20.04,5.89,20.04,21.62v12.3c0,4.92,1.58,5.71,4.39,4.04Zm-16.52-11.07v-4.83c-10.37,1.14-18.9,5.01-18.9,12.13,0,4.66,1.93,6.94,6.24,6.94,7.56,0,12.66-7.38,12.66-13.18v-1.05Z"/>
        <path class="cls-2" d="M888.32,744.32c11.16,0,22.41,3.87,18.9,16.26l-12.13-1.76c2.64-8-2.11-9.93-6.5-9.93-5.36,0-7.21,2.64-7.21,5.71,0,4.04,2.02,5.62,9.84,7.82,9.32,2.55,17.84,4.83,17.84,14.06,0,10.11-9.05,13.54-19.07,13.54-12.22,0-24.52-3.87-21.01-18.72l12.13,1.76c-3.52,10.02,1.76,12.39,8.17,12.39,5.45,0,7.65-2.9,7.65-6.77,0-5.01-4.31-6.42-10.63-8.35-9.67-2.72-17.05-5.1-17.05-13.71s8.35-12.3,19.07-12.3Z"/>
      </g>
      <g>
        <path class="cls-2" d="M759.4,249.37c-.13,.12-.26,.23-.4,.35h.79c-.14-.12-.27-.23-.4-.35Zm0,0c-.13,.12-.26,.23-.4,.35h.79c-.14-.12-.27-.23-.4-.35Zm0,0c-.13,.12-.26,.23-.4,.35h.79c-.14-.12-.27-.23-.4-.35Zm0,0c-.13,.12-.26,.23-.4,.35h.79c-.14-.12-.27-.23-.4-.35Z"/>
        <g>
          <path class="cls-2" d="M759.4,249.37c-.13,.12-.26,.23-.4,.35h.79c-.14-.12-.27-.23-.4-.35Z"/>
          <path class="cls-2" d="M780.89,185.14c-7.9,0-15.28,2.31-21.48,6.28-6.2-3.97-13.58-6.28-21.48-6.28-22.02,0-39.93,17.91-39.93,39.93,0,14.11,7.35,26.53,18.43,33.64l39.7,125.75c.82,2.6,3.01,4.28,5.58,4.28h0c2.57,0,4.77-1.68,5.59-4.27l41.28-129.88c.09-.3,.15-.61,.16-.92,7.45-7.25,12.09-17.39,12.09-28.59,0-22.02-17.92-39.93-39.93-39.93Zm-63.68,64.89c-7.17-5.96-11.74-14.93-11.74-24.96,0-17.89,14.56-32.45,32.45-32.45,5.49,0,10.67,1.37,15.2,3.78,2.27,1.21,4.38,2.68,6.28,4.37,6.72,5.95,10.97,14.64,10.97,24.3s-4.25,18.35-10.97,24.3c.13,.12,.26,.23,.4,.35h-41.12c-.51,0-1.02,.12-1.47,.32Zm81.55,10.74l-37.05,116.57-36.08-114.27-1.85-5.86h33.42s19.09,0,19.09,0h9.21s14.4,0,14.4,0l-1.14,3.58Zm3.22-11.06h-32.66c5.34-6.79,8.53-15.35,8.53-24.64,0-11.24-4.67-21.4-12.16-28.67,4.53-2.41,9.71-3.78,15.2-3.78,17.89,0,32.45,14.56,32.45,32.45,0,9.85-4.41,18.68-11.36,24.64Z"/>
        </g>
      </g>
      <g>
        <path class="cls-2" d="M1160.6,249.37c-.13,.12-.26,.23-.4,.35h.79c-.14-.12-.27-.23-.4-.35Zm0,0c-.13,.12-.26,.23-.4,.35h.79c-.14-.12-.27-.23-.4-.35Zm0,0c-.13,.12-.26,.23-.4,.35h.79c-.14-.12-.27-.23-.4-.35Zm0,0c-.13,.12-.26,.23-.4,.35h.79c-.14-.12-.27-.23-.4-.35Z"/>
        <g>
          <path class="cls-2" d="M1160.6,249.37c-.13,.12-.26,.23-.4,.35h.79c-.14-.12-.27-.23-.4-.35Z"/>
          <path class="cls-2" d="M1182.09,185.14c-7.9,0-15.28,2.31-21.48,6.28-6.2-3.97-13.58-6.28-21.48-6.28-22.02,0-39.93,17.91-39.93,39.93,0,14.11,7.35,26.53,18.43,33.64l39.7,125.75c.82,2.6,3.01,4.28,5.58,4.28h0c2.57,0,4.77-1.68,5.59-4.27l41.28-129.88c.09-.3,.15-.61,.16-.92,7.45-7.25,12.09-17.39,12.09-28.59,0-22.02-17.92-39.93-39.93-39.93Zm-63.68,64.89c-7.17-5.96-11.74-14.93-11.74-24.96,0-17.89,14.56-32.45,32.45-32.45,5.49,0,10.67,1.37,15.2,3.78,2.27,1.21,4.38,2.68,6.28,4.37,6.72,5.95,10.97,14.64,10.97,24.3s-4.25,18.35-10.97,24.3c.13,.12,.26,.23,.4,.35h-41.12c-.51,0-1.02,.12-1.47,.32Zm81.55,10.74l-37.05,116.57-36.08-114.27-1.85-5.86h33.42s19.09,0,19.09,0h9.21s14.4,0,14.4,0l-1.14,3.58Zm3.22-11.06h-32.66c5.34-6.79,8.53-15.35,8.53-24.64,0-11.24-4.67-21.4-12.16-28.67,4.53-2.41,9.71-3.78,15.2-3.78,17.89,0,32.45,14.56,32.45,32.45,0,9.85-4.41,18.68-11.36,24.64Z"/>
        </g>
      </g>
    </g>
  </g>
</svg>