<svg xmlns="http://www.w3.org/2000/svg" xmlns:xlink="http://www.w3.org/1999/xlink" viewBox="0 0 1920 970" xmlns:v="https://vecta.io/nano"><style><![CDATA[.M{letter-spacing:-.01em}.J{letter-spacing:-.02em}.L{letter-spacing:-.05em}.N{letter-spacing:-.04em}.P{letter-spacing:-.02em}.Q{letter-spacing:0em}.I{letter-spacing:-.02em}.O{letter-spacing:0em}.H{letter-spacing:-.04em}.K{letter-spacing:-.05em}.G{letter-spacing:-.05em}.R{fill:#55131d}.S{font-weight:700}.T{font-family:MADETOMMY-Bold,MADE TOMMY}]]></style><path d="M0 970V0h1920v970z" fill="#f7f2ea"/><path d="M1920 606.83v238.61c0 29.43-9.94 58.26-29.24 80.36-.99 1.14-2.02 2.28-3.07 3.39l-1.44 1.53c-30.88 32.82-76.46 44.97-118.2 33.99l-1.13-.3-2.55-.73-1.58-.48-2.26-.72-2.02-.7-1.86-.66c-1.3-.48-2.59-.99-3.88-1.52-5.76-2.39-11.41-5.24-16.87-8.58l-8.84-5.4a111.64 111.64 0 0 0-3.64-2.14 128.98 128.98 0 0 0-5.56-2.95l-1.88-.92a137.89 137.89 0 0 0-5.71-2.54l-1.92-.78a119.7 119.7 0 0 0-25.73-6.95 120.02 120.02 0 0 0-34.69-.27 129.9 129.9 0 0 0-6.12 1l-2.03.41a155.24 155.24 0 0 0-4.04.91c-2.01.49-4.01 1.03-6.01 1.64l-2.48.78-2.94 1-1.04.37-3.38 1.29-3.87 1.62c-5.13 2.26-10.14 4.88-15 7.9l-6.28 3.89c-4.51 2.8-9.16 5.27-13.89 7.41-3.61 1.63-7.28 3.07-10.99 4.33-4.61 1.56-9.3 2.82-14 3.8l-2.58.51a107.23 107.23 0 0 1-3.04.52c-.34.06-.68.11-1 .16-1.17.18-2.35.33-3.53.48-4.78.57-9.6.86-14.39.85-2.23.25-4.47.43-6.7.55a119.34 119.34 0 0 1-20.69-.65c-3.36-.41-6.7-.94-10.03-1.62a140.04 140.04 0 0 1-5.99-1.38c-1.98-.52-3.95-1.08-5.91-1.7a120.58 120.58 0 0 1-16.07-6.36c-1.68-.82-3.34-1.67-5-2.56h0c-1.86-1.01-3.7-2.08-5.52-3.19l-8.83-5.4a120.74 120.74 0 0 0-5.48-3.15l-1.86-.98a126.84 126.84 0 0 0-5.63-2.74l-1.91-.85c-1.9-.83-3.83-1.6-5.76-2.33-7.11-2.66-14.4-4.61-21.79-5.89a108.8 108.8 0 0 0-4.03-.62c-5.39-.74-10.83-1.1-16.26-1.1l-2.04.02c-.6 0-1.19.02-1.79.04-1.65.05-3.3.14-4.95.26l-1.48.12a113.93 113.93 0 0 0-4.1.43c-.74.08-1.46.18-2.19.28a122 122 0 0 0-3.83.6c-1.39.24-2.78.51-4.17.8-13.5 2.82-26.63 8-38.76 15.51l-6.28 3.89c-20.43 12.66-43.38 18.52-66.04 17.99-25.88 2.95-52.74-2.46-76.3-16.87l-8.84-5.4a120.05 120.05 0 0 0-126.02.39l-6.28 3.89a119.96 119.96 0 0 1-63.43 18.04c-25.76 2.85-52.47-2.58-75.92-16.92l-8.83-5.4c-38.75-23.69-87.4-23.54-126.02.39l-6.28 3.89c-20.43 12.66-43.38 18.52-66.04 17.99-25.88 2.95-52.74-2.46-76.3-16.87l-8.84-5.4a120.05 120.05 0 0 0-126.02.39l-6.27 3.89c-19.65 12.17-41.62 18.06-63.43 18.04-25.77 2.85-52.48-2.58-75.92-16.92l-8.84-5.4c-38.75-23.69-87.4-23.54-126.02.39l-6.27 3.89c-48.88 30.3-112.24 21.76-151.46-20.42l-3.42-3.68c-8.97-9.64-16.07-20.37-21.32-31.73-7.02-15.22-10.2-31.95-10.2-48.73V606.99c0-16.79 3.18-33.51 10.2-48.73 5.25-11.37 12.35-22.1 21.32-31.74l3.42-3.67c39.22-42.18 102.58-50.72 151.46-20.42l6.27 3.89c38.62 23.93 87.26 24.08 126.02.38l8.84-5.4c23.44-14.33 50.15-19.76 75.92-16.91 21.81-.03 43.78 5.87 63.43 18.04l6.27 3.89c38.62 23.93 87.26 24.08 126.02.39l8.84-5.41c23.56-14.4 50.42-19.81 76.3-16.86 22.66-.53 45.62 5.33 66.04 17.99l6.28 3.89c38.62 23.93 87.26 24.08 126.02.38l8.83-5.4c23.45-14.33 50.16-19.76 75.92-16.91a119.87 119.87 0 0 1 63.43 18.04l6.28 3.89c38.62 23.93 87.26 24.08 126.02.39l8.84-5.41c23.56-14.4 50.42-19.81 76.3-16.86 22.66-.53 45.62 5.33 66.04 17.99l6.28 3.89c11.86 7.35 24.68 12.46 37.86 15.31 2.1.46 4.21.86 6.32 1.19l1.7.27 3.05.41c1.06.13 2.13.24 3.2.34a44.59 44.59 0 0 0 1.59.14 43.03 43.03 0 0 0 1.6.12c1.41.09 2.83.16 4.25.21l1.68.04 2.02.02c21.73.01 43.46-5.88 62.74-17.67l8.83-5.4c23.45-14.33 50.16-19.76 75.92-16.91 5.49-.01 11 .36 16.48 1.11 1.35.18 2.71.39 4.06.63a114.8 114.8 0 0 1 4.04.77 119.26 119.26 0 0 1 23.77 7.59l3.84 1.77 3.8 1.91a113.3 113.3 0 0 1 7.45 4.27l6.28 3.89c1.82 1.12 3.66 2.21 5.53 3.22l1.86 1c1.88.99 3.78 1.93 5.69 2.8 8.29 3.82 16.91 6.64 25.68 8.48l3.75.72c12.25 2.16 24.75 2.4 37.06.72l4.04-.62c7.38-1.27 14.68-3.23 21.78-5.89 1.93-.73 3.86-1.5 5.76-2.33l1.91-.85a138.96 138.96 0 0 0 5.63-2.74l1.86-.98a120.74 120.74 0 0 0 5.48-3.15l8.83-5.41c3.03-1.86 6.13-3.56 9.27-5.12a131.25 131.25 0 0 1 3.79-1.8c1.26-.58 2.54-1.12 3.82-1.65.64-.28 1.28-.54 1.94-.79a138.71 138.71 0 0 1 3.87-1.44h0c1.21-.44 2.43-.84 3.66-1.23l1.72-.52 1.92-.56 2.1-.57 1.39-.35a121.74 121.74 0 0 1 12.43-2.43c.03 0 .05 0 .08-.01 37.73-5.29 76.88 7.54 104.37 36.77l1.44 1.53c1.05 1.11 2.08 2.25 3.07 3.39 19.29 22.1 29.24 50.93 29.24 80.36z" fill="#fcc10c"/><rect x="997.24" y="628.31" width="575.44" height="182.13" rx="91.06" fill="#f7f2ea"/><text font-size="83.24" class="R S T"><tspan x="1063.96" y="754.61">$</tspan></text><text font-size="150.33" class="R S T"><tspan x="1176.72" y="774.3">900</tspan></text><g class="R"><path d="M960 351.49c-2.58 0-4.67-2.73-4.67-4.24V226.62c0-1.51 2.09-4.24 4.67-4.24s4.67 2.73 4.67 4.24v120.63c0 1.51-2.09 4.24-4.67 4.24z"/><path d="M1024.56 286.94c0 2.58-2.73 4.67-4.24 4.67H899.69c-1.51 0-4.24-2.09-4.24-4.67s2.73-4.67 4.24-4.67h120.63c1.51 0 4.24 2.09 4.24 4.67z"/><text font-family="PPWoodland-Bold,PP Woodland" font-size="87.88" class="S"><tspan x="315.31" y="701.26">2 </tspan><tspan class="G" x="387.81" y="701.26">c</tspan><tspan class="H" x="437.2" y="701.26">u</tspan><tspan class="G" x="493.54" y="701.26">c</tspan><tspan class="I" x="542.93" y="701.26">u</tspan><tspan class="J" x="601.37" y="701.26">r</tspan><tspan class="H" x="650.41" y="701.26">u</tspan><tspan class="K" x="706.75" y="701.26">c</tspan><tspan class="L" x="756.31" y="701.26">h</tspan><tspan class="M" x="811.59" y="701.26">o</tspan><tspan x="865.73" y="701.26">s</tspan><tspan class="N" x="395.82" y="789.15">d</tspan><tspan class="O" x="453.29" y="789.15">e 2 </tspan><tspan class="P" x="595.22" y="789.15">bo</tspan><tspan class="K" x="707.19" y="789.15">c</tspan><tspan class="N" x="756.75" y="789.15">h</tspan><tspan class="Q" x="813.44" y="789.15">a</tspan><tspan class="O" x="865.73" y="789.15">s</tspan></text><use xlink:href="#B"/><path d="M759.4 249.37l-.4.35h.79l-.4-.35z"/><use xlink:href="#C"/><use xlink:href="#B" x="401.2"/><path d="M1160.6 249.37l-.4.35h.79l-.4-.35z"/><use xlink:href="#C" x="401.2"/></g><defs ><path id="B" d="M759.4 249.37l-.4.35h.79l-.4-.35zm0 0l-.4.35h.79l-.4-.35zm0 0l-.4.35h.79l-.4-.35zm0 0l-.4.35h.79l-.4-.35z"/><path id="C" d="M780.89 185.14a39.73 39.73 0 0 0-21.48 6.28 39.73 39.73 0 0 0-21.48-6.28c-22.02 0-39.93 17.91-39.93 39.93 0 14.11 7.35 26.53 18.43 33.64l39.7 125.75c.82 2.6 3.01 4.28 5.58 4.28h0c2.57 0 4.77-1.68 5.59-4.27l41.28-129.88c.09-.3.15-.61.16-.92 7.45-7.25 12.09-17.39 12.09-28.59 0-22.02-17.92-39.93-39.93-39.93zm-63.68 64.89c-7.17-5.96-11.74-14.93-11.74-24.96 0-17.89 14.56-32.45 32.45-32.45 5.49 0 10.67 1.37 15.2 3.78 2.27 1.21 4.38 2.68 6.28 4.37 6.72 5.95 10.97 14.64 10.97 24.3s-4.25 18.35-10.97 24.3c.13.12.26.23.4.35h-41.12c-.51 0-1.02.12-1.47.32zm81.55 10.74l-37.05 116.57-36.08-114.27-1.85-5.86h33.42 19.09 9.21 14.4l-1.14 3.58zm3.22-11.06h-32.66c5.34-6.79 8.53-15.35 8.53-24.64 0-11.24-4.67-21.4-12.16-28.67 4.53-2.41 9.71-3.78 15.2-3.78 17.89 0 32.45 14.56 32.45 32.45 0 9.85-4.41 18.68-11.36 24.64z"/></defs></svg>