<svg xmlns="http://www.w3.org/2000/svg" xmlns:xlink="http://www.w3.org/1999/xlink" viewBox="0 0 1920 970" xmlns:v="https://vecta.io/nano"><style><![CDATA[.E{letter-spacing:0em}.J{letter-spacing:-.03em}.I{letter-spacing:-.05em}.L{letter-spacing:-.05em}.H{letter-spacing:-.02em}.M{letter-spacing:-.03em}.K{letter-spacing:0em}.N{fill:#55131d}.O{font-weight:700}.P{font-family:MADETOMMY-Bold,MADE TOMMY}]]></style><path d="M0 970V0h1920v970z" fill="#f7f2ea"/><path d="M1920 606.83v238.61c0 29.43-9.94 58.26-29.24 80.36-.99 1.14-2.02 2.28-3.07 3.39l-1.44 1.53c-30.88 32.82-76.46 44.97-118.2 33.99l-1.13-.3-2.55-.73-1.58-.48-2.26-.72-2.02-.7-1.86-.66c-1.3-.48-2.59-.99-3.88-1.52-5.76-2.39-11.41-5.24-16.87-8.58l-8.84-5.4a111.64 111.64 0 0 0-3.64-2.14 128.98 128.98 0 0 0-5.56-2.95l-1.88-.92a137.89 137.89 0 0 0-5.71-2.54l-1.92-.78a119.7 119.7 0 0 0-25.73-6.95 120.02 120.02 0 0 0-34.69-.27 129.9 129.9 0 0 0-6.12 1l-2.03.41a155.24 155.24 0 0 0-4.04.91c-2.01.49-4.01 1.03-6.01 1.64l-2.48.78-2.94 1-1.04.37-3.38 1.29-3.87 1.62c-5.13 2.26-10.14 4.88-15 7.9l-6.28 3.89c-4.51 2.8-9.16 5.27-13.89 7.41-3.61 1.63-7.28 3.07-10.99 4.33-4.61 1.56-9.3 2.82-14 3.8l-2.58.51a107.23 107.23 0 0 1-3.04.52c-.34.06-.68.11-1 .16-1.17.18-2.35.33-3.53.48-4.78.57-9.6.86-14.39.85-2.23.25-4.47.43-6.7.55a119.34 119.34 0 0 1-20.69-.65c-3.36-.41-6.7-.94-10.03-1.62a140.04 140.04 0 0 1-5.99-1.38c-1.98-.52-3.95-1.08-5.91-1.7a120.58 120.58 0 0 1-16.07-6.36c-1.68-.82-3.34-1.67-5-2.56h0c-1.86-1.01-3.7-2.08-5.52-3.19l-8.83-5.4a120.74 120.74 0 0 0-5.48-3.15l-1.86-.98a126.84 126.84 0 0 0-5.63-2.74l-1.91-.85c-1.9-.83-3.83-1.6-5.76-2.33-7.11-2.66-14.4-4.61-21.79-5.89a108.8 108.8 0 0 0-4.03-.62c-5.39-.74-10.83-1.1-16.26-1.1l-2.04.02c-.6 0-1.19.02-1.79.04-1.65.05-3.3.14-4.95.26l-1.48.12a113.93 113.93 0 0 0-4.1.43c-.74.08-1.46.18-2.19.28a122 122 0 0 0-3.83.6c-1.39.24-2.78.51-4.17.8-13.5 2.82-26.63 8-38.76 15.51l-6.28 3.89c-20.43 12.66-43.38 18.52-66.04 17.99-25.88 2.95-52.74-2.46-76.3-16.87l-8.84-5.4a120.05 120.05 0 0 0-126.02.39l-6.28 3.89a119.96 119.96 0 0 1-63.43 18.04c-25.76 2.85-52.47-2.58-75.92-16.92l-8.83-5.4c-38.75-23.69-87.4-23.54-126.02.39l-6.28 3.89c-20.43 12.66-43.38 18.52-66.04 17.99-25.88 2.95-52.74-2.46-76.3-16.87l-8.84-5.4a120.05 120.05 0 0 0-126.02.39l-6.27 3.89c-19.65 12.17-41.62 18.06-63.43 18.04-25.77 2.85-52.48-2.58-75.92-16.92l-8.84-5.4c-38.75-23.69-87.4-23.54-126.02.39l-6.27 3.89c-48.88 30.3-112.24 21.76-151.46-20.42l-3.42-3.68c-8.97-9.64-16.07-20.37-21.32-31.73-7.02-15.22-10.2-31.95-10.2-48.73V606.99c0-16.79 3.18-33.51 10.2-48.73 5.25-11.37 12.35-22.1 21.32-31.74l3.42-3.67c39.22-42.18 102.58-50.72 151.46-20.42l6.27 3.89c38.62 23.93 87.26 24.08 126.02.38l8.84-5.4c23.44-14.33 50.15-19.76 75.92-16.91 21.81-.03 43.78 5.87 63.43 18.04l6.27 3.89c38.62 23.93 87.26 24.08 126.02.39l8.84-5.41c23.56-14.4 50.42-19.81 76.3-16.86 22.66-.53 45.62 5.33 66.04 17.99l6.28 3.89c38.62 23.93 87.26 24.08 126.02.38l8.83-5.4c23.45-14.33 50.16-19.76 75.92-16.91a119.87 119.87 0 0 1 63.43 18.04l6.28 3.89c38.62 23.93 87.26 24.08 126.02.39l8.84-5.41c23.56-14.4 50.42-19.81 76.3-16.86 22.66-.53 45.62 5.33 66.04 17.99l6.28 3.89c11.86 7.35 24.68 12.46 37.86 15.31 2.1.46 4.21.86 6.32 1.19l1.7.27 3.05.41c1.06.13 2.13.24 3.2.34a44.59 44.59 0 0 0 1.59.14 43.03 43.03 0 0 0 1.6.12c1.41.09 2.83.16 4.25.21l1.68.04 2.02.02c21.73.01 43.46-5.88 62.74-17.67l8.83-5.4c23.45-14.33 50.16-19.76 75.92-16.91 5.49-.01 11 .36 16.48 1.11 1.35.18 2.71.39 4.06.63a114.8 114.8 0 0 1 4.04.77 119.26 119.26 0 0 1 23.77 7.59l3.84 1.77 3.8 1.91a113.3 113.3 0 0 1 7.45 4.27l6.28 3.89c1.82 1.12 3.66 2.21 5.53 3.22l1.86 1c1.88.99 3.78 1.93 5.69 2.8 8.29 3.82 16.91 6.64 25.68 8.48l3.75.72c12.25 2.16 24.75 2.4 37.06.72l4.04-.62c7.38-1.27 14.68-3.23 21.78-5.89 1.93-.73 3.86-1.5 5.76-2.33l1.91-.85a138.96 138.96 0 0 0 5.63-2.74l1.86-.98a120.74 120.74 0 0 0 5.48-3.15l8.83-5.41c3.03-1.86 6.13-3.56 9.27-5.12a131.25 131.25 0 0 1 3.79-1.8c1.26-.58 2.54-1.12 3.82-1.65.64-.28 1.28-.54 1.94-.79a138.71 138.71 0 0 1 3.87-1.44h0c1.21-.44 2.43-.84 3.66-1.23l1.72-.52 1.92-.56 2.1-.57 1.39-.35a121.74 121.74 0 0 1 12.43-2.43c.03 0 .05 0 .08-.01 37.73-5.29 76.88 7.54 104.37 36.77l1.44 1.53c1.05 1.11 2.08 2.25 3.07 3.39 19.29 22.1 29.24 50.93 29.24 80.36z" fill="#fcc10c"/><rect x="997.24" y="628.31" width="575.44" height="182.13" rx="91.06" fill="#f7f2ea"/><text font-size="83.24" class="N O P"><tspan x="1063.96" y="754.61">$</tspan></text><text font-size="150.33" class="N O P"><tspan class="E" x="1143.65" y="774.3">1</tspan><tspan x="1211.9" y="774.3">300</tspan></text><g class="N"><path d="M960 351.49c-2.58 0-4.67-2.73-4.67-4.24V226.62c0-1.51 2.09-4.24 4.67-4.24s4.67 2.73 4.67 4.24v120.63c0 1.51-2.09 4.24-4.67 4.24z"/><path d="M1024.56 286.94c0 2.58-2.73 4.67-4.24 4.67H899.69c-1.51 0-4.24-2.09-4.24-4.67s2.73-4.67 4.24-4.67h120.63c1.51 0 4.24 2.09 4.24 4.67z"/><text font-family="PPWoodland-Bold,PP Woodland" font-size="87.88" class="O"><tspan x="539.23" y="701.26">2 </tspan><tspan class="H" x="611.73" y="701.26">c</tspan><tspan class="I" x="663.58" y="701.26">o</tspan><tspan class="J" x="714.73" y="701.26">p</tspan><tspan class="K" x="773.44" y="701.26">a</tspan><tspan x="825.73" y="701.26">s</tspan><tspan class="L" x="537.03" y="789.15">h</tspan><tspan class="I" x="592.31" y="789.15">e</tspan><tspan class="H" x="638.71" y="789.15">l</tspan><tspan class="M" x="664.02" y="789.15">a</tspan><tspan class="H" x="714.56" y="789.15">d</tspan><tspan class="K" x="773.44" y="789.15">a</tspan><tspan x="825.73" y="789.15">s</tspan></text><use xlink:href="#B"/><use xlink:href="#C"/><use xlink:href="#D"/><use xlink:href="#E"/><path d="M758.43 356.35c-16.43 0-30.03-13.39-30.32-29.84L727 263.19a3.26 3.26 0 0 1 .94-2.36c.62-.63 1.46-.98 2.34-.98h59.03a3.28 3.28 0 0 1 2.38 1.01c.62.65.95 1.53.9 2.42l-3.07 64.15c-.78 16.2-14.08 28.91-30.29 28.92h-.8zm-24.81-89.93l1.05 59.98c.23 12.9 10.88 23.39 23.76 23.39h.79c12.7-.01 23.13-9.97 23.73-22.67l2.91-60.71h-52.25z"/><use xlink:href="#F"/><use xlink:href="#B" x="401.2"/><use xlink:href="#C" x="401.2"/><use xlink:href="#D" x="401.2"/><use xlink:href="#E" x="401.2"/><path d="M1159.63 356.35c-16.43 0-30.03-13.39-30.32-29.84l-1.11-63.32a3.26 3.26 0 0 1 .94-2.36c.62-.63 1.46-.98 2.34-.98h59.03a3.28 3.28 0 0 1 2.38 1.01c.62.65.95 1.53.9 2.42l-3.07 64.15c-.78 16.2-14.08 28.91-30.29 28.92h-.8zm-24.81-89.93l1.05 59.98c.23 12.9 10.88 23.39 23.76 23.39h.79c12.7-.01 23.13-9.97 23.73-22.67l2.91-60.71h-52.25z"/><use xlink:href="#F" x="401.2"/></g><defs ><path id="B" d="M759.4 380.17a9.09 9.09 0 0 1-9.08-9.08v-18.01c0-1.81 1.47-3.28 3.28-3.28s3.28 1.47 3.28 3.28v18.01c0 1.39 1.13 2.52 2.52 2.52s2.52-1.13 2.52-2.52v-18.01c0-1.81 1.47-3.28 3.28-3.28s3.28 1.47 3.28 3.28v18.01a9.09 9.09 0 0 1-9.08 9.08z"/><path id="C" d="M789.13 266.2c-.97 0-1.93-.43-2.58-1.24a3.28 3.28 0 0 1 .54-4.61c2.76-2.19 4.69-6.96 4.58-11.36-.12-4.92-2.57-9.37-6.25-11.34-1.46-.78-2.1-2.52-1.52-4.06.82-2.15 2.57-7.65 1.18-12.19-.82-2.7-2.58-4.59-5.37-5.78a3.29 3.29 0 0 1-1.95-2.47c-.94-5.55-4.38-9.04-8.36-13.08l-.96-.97c-5.19-5.31-15.11-9.67-20.46-11.04 1.49 3.05 2.43 6.2 1.54 9.38-.78 2.75-2.85 5.05-6.16 6.84-3.74 2.02-2.4 7.45-2.39 7.5.4 1.57-.4 3.2-1.89 3.83-2.78 1.19-4.54 3.08-5.37 5.78-1.39 4.55.37 10.04 1.19 12.19.59 1.54-.06 3.28-1.52 4.06-3.68 1.97-6.14 6.43-6.25 11.34-.11 4.29 1.64 8.89 4.25 11.2a3.28 3.28 0 0 1 .29 4.63 3.29 3.29 0 0 1-4.63.29c-4.02-3.55-6.61-10.09-6.47-16.27.15-6.3 2.9-11.97 7.34-15.43-1.09-3.69-1.99-8.96-.47-13.93 1.14-3.73 3.46-6.7 6.77-8.72-.25-3.94.81-9.43 6.03-12.25 1.69-.91 2.69-1.87 2.97-2.85.49-1.75-.96-4.61-2.6-7.44-1.62-2.79-.56-5.02.84-6.09 5.28-4.01 24.58 5.11 31.7 12.38l.94.96c4.03 4.08 8.18 8.3 9.81 14.89 3.69 2.02 6.25 5.14 7.47 9.13 1.52 4.97.62 10.24-.47 13.93 4.44 3.46 7.19 9.13 7.34 15.43.15 6.49-2.69 13.19-7.07 16.66-.6.48-1.32.71-2.04.71z"/><path id="D" d="M731.86 237.96c-.83 0-1.65-.3-2.27-.91-1.25-1.23-1.37-3.18-.2-4.48.86-.96 6.08-5.78 24.91-6.87 1.83-.07 3.36 1.28 3.47 3.09s-1.28 3.36-3.09 3.47c-16.18.94-20.46 4.76-20.5 4.8-.64.6-1.48.91-2.32.91z"/><path id="E" d="M737.8 215.87c-1.35 0-2.61-.84-3.09-2.18a3.29 3.29 0 0 1 1.98-4.2c1.17-.42 11.54-4.05 18.18-3.28 1.8.21 3.09 1.84 2.88 3.64s-1.81 3.09-3.64 2.88c-4.33-.5-12.43 1.95-15.2 2.94a3.32 3.32 0 0 1-1.11.19z"/><path id="F" d="M789.76,392.74c-1.81,0-3.28-1.47-3.28-3.28,0-3.18-4.6-5.34-7.34-6.35-5.08-1.87-12.27-2.94-19.74-2.94-14.93,0-27.08,4.17-27.08,9.29,0,1.81-1.47,3.28-3.28,3.28s-3.28-1.47-3.28-3.28c0-11.71,18.12-15.86,33.65-15.86s33.64,4.15,33.64,15.86c0,1.81-1.47,3.28-3.28,3.28Z"/></defs></svg>