<?xml version="1.0" encoding="UTF-8"?>
<svg id="Capa_2" data-name="Capa 2" xmlns="http://www.w3.org/2000/svg" viewBox="0 0 1920 970">
  <defs>
    <style>
      .cls-1 {
        letter-spacing: 0em;
      }

      .cls-2 {
        fill: #fcc10c;
      }

      .cls-3 {
        letter-spacing: -.03em;
      }

      .cls-4, .cls-5, .cls-6, .cls-7 {
        fill: #55131d;
      }

      .cls-8 {
        letter-spacing: -.05em;
      }

      .cls-9 {
        letter-spacing: -.05em;
      }

      .cls-10 {
        letter-spacing: -.02em;
      }

      .cls-5 {
        font-size: 150.33px;
      }

      .cls-5, .cls-6 {
        font-family: MADETOMMY-Bold, 'MADE TOMMY';
      }

      .cls-5, .cls-6, .cls-7 {
        font-weight: 700;
      }

      .cls-11 {
        letter-spacing: -.03em;
      }

      .cls-12 {
        letter-spacing: 0em;
      }

      .cls-13 {
        fill: #f7f2ea;
      }

      .cls-6 {
        font-size: 83.24px;
      }

      .cls-7 {
        font-family: PPWoodland-Bold, 'PP Woodland';
        font-size: 87.88px;
      }
    </style>
  </defs>
  <g id="Capa_1-2" data-name="Capa 1">
    <g>
      <rect class="cls-13" x="475" y="-475" width="970" height="1920" transform="translate(475 1445) rotate(-90)"/>
      <path class="cls-2" d="M1920,606.83v238.61c0,29.43-9.94,58.26-29.24,80.36-.99,1.14-2.02,2.28-3.07,3.39l-1.44,1.53c-30.88,32.82-76.46,44.97-118.2,33.99-.38-.1-.75-.2-1.13-.3-.85-.23-1.7-.48-2.55-.73-.53-.16-1.06-.32-1.58-.48-.75-.24-1.51-.47-2.26-.72-.68-.23-1.35-.46-2.02-.7-.62-.22-1.24-.43-1.86-.66-1.3-.48-2.59-.99-3.88-1.52,0,0,0,0,0,0-5.76-2.39-11.41-5.24-16.87-8.58l-8.84-5.4c-1.2-.74-2.42-1.45-3.64-2.14-1.84-1.03-3.69-2.02-5.56-2.95-.63-.31-1.25-.62-1.88-.92-1.89-.89-3.79-1.74-5.71-2.54-.64-.26-1.28-.52-1.92-.78-8.35-3.29-16.99-5.61-25.73-6.95-11.49-1.77-23.18-1.86-34.69-.27-2.04,.28-4.08,.62-6.12,1-.68,.13-1.35,.27-2.03,.41-1.34,.28-2.69,.59-4.04,.91-2.01,.49-4.01,1.03-6.01,1.64-.83,.25-1.65,.51-2.48,.78-.98,.32-1.97,.66-2.94,1-.35,.12-.7,.24-1.04,.37-1.13,.42-2.26,.85-3.38,1.29-1.29,.52-2.59,1.05-3.87,1.62-5.13,2.26-10.14,4.88-15,7.9l-6.28,3.89c-4.51,2.8-9.16,5.27-13.89,7.41-3.61,1.63-7.28,3.07-10.99,4.33-4.61,1.56-9.3,2.82-14,3.8-.86,.18-1.71,.35-2.58,.51-1.01,.19-2.03,.36-3.04,.52-.34,.06-.68,.11-1,.16-1.17,.18-2.35,.33-3.53,.48-4.78,.57-9.6,.86-14.39,.85-2.23,.25-4.47,.43-6.7,.55-6.88,.38-13.8,.17-20.69-.65,0,0,0,0-.02,0-3.34-.41-6.68-.94-10.01-1.62-2-.41-4-.88-5.99-1.38-1.98-.52-3.95-1.08-5.91-1.7-5.45-1.71-10.82-3.84-16.07-6.36-1.68-.82-3.34-1.67-5-2.56h0c-1.86-1.01-3.7-2.08-5.52-3.19l-8.83-5.4c-1.81-1.1-3.64-2.16-5.48-3.15-.62-.33-1.23-.66-1.86-.98-1.86-.96-3.74-1.88-5.63-2.74-.64-.28-1.27-.57-1.91-.85-1.9-.83-3.83-1.6-5.76-2.33-7.11-2.66-14.4-4.61-21.79-5.89-1.34-.23-2.68-.44-4.03-.62-5.39-.74-10.83-1.1-16.26-1.1-.68,0-1.36,0-2.04,.02-.6,0-1.19,.02-1.79,.04-1.65,.05-3.3,.14-4.95,.26-.5,.04-.99,.08-1.48,.12-1.37,.12-2.73,.26-4.1,.43-.74,.08-1.46,.18-2.19,.28-1.28,.18-2.56,.38-3.83,.6-1.39,.24-2.78,.51-4.17,.8-13.5,2.82-26.63,8-38.76,15.51l-6.28,3.89c-20.43,12.66-43.38,18.52-66.04,17.99-25.88,2.95-52.74-2.46-76.3-16.87l-8.84-5.4c-38.75-23.7-87.4-23.55-126.02,.39l-6.28,3.89c-19.64,12.17-41.62,18.06-63.43,18.04-25.76,2.85-52.47-2.58-75.92-16.92l-8.83-5.4c-38.75-23.69-87.4-23.54-126.02,.39l-6.28,3.89c-20.43,12.66-43.38,18.52-66.04,17.99-25.88,2.95-52.74-2.46-76.3-16.87l-8.84-5.4c-38.75-23.7-87.4-23.55-126.02,.39l-6.27,3.89c-19.65,12.17-41.62,18.06-63.43,18.04-25.77,2.85-52.48-2.58-75.92-16.92l-8.84-5.4c-38.75-23.69-87.4-23.54-126.02,.39l-6.27,3.89c-48.88,30.3-112.24,21.76-151.46-20.42l-3.42-3.68c-8.97-9.64-16.07-20.37-21.32-31.73-7.02-15.22-10.2-31.95-10.2-48.73v-238.37c0-16.79,3.18-33.51,10.2-48.73,5.25-11.37,12.35-22.1,21.32-31.74l3.42-3.67c39.22-42.18,102.58-50.72,151.46-20.42l6.27,3.89c38.62,23.93,87.26,24.08,126.02,.38l8.84-5.4c23.44-14.33,50.15-19.76,75.92-16.91,21.81-.03,43.78,5.87,63.43,18.04l6.27,3.89c38.62,23.93,87.26,24.08,126.02,.39l8.84-5.41c23.56-14.4,50.42-19.81,76.3-16.86,22.66-.53,45.62,5.33,66.04,17.99l6.28,3.89c38.62,23.93,87.26,24.08,126.02,.38l8.83-5.4c23.45-14.33,50.16-19.76,75.92-16.91,21.81-.03,43.79,5.87,63.43,18.04l6.28,3.89c38.62,23.93,87.26,24.08,126.02,.39l8.84-5.41c23.56-14.4,50.42-19.81,76.3-16.86,22.66-.53,45.62,5.33,66.04,17.99l6.28,3.89c11.86,7.35,24.68,12.46,37.86,15.31,2.1,.46,4.21,.86,6.32,1.19,.57,.09,1.13,.18,1.7,.27,1.01,.15,2.04,.29,3.05,.41,1.06,.13,2.13,.24,3.2,.34,.54,.06,1.06,.1,1.59,.14,.54,.05,1.06,.09,1.6,.12,1.41,.09,2.83,.16,4.25,.21,.56,.02,1.12,.03,1.68,.04,.68,.01,1.34,.02,2.02,.02,21.73,.01,43.46-5.88,62.74-17.67l8.83-5.4c23.45-14.33,50.16-19.76,75.92-16.91,5.49-.01,11,.36,16.48,1.11,1.35,.18,2.71,.39,4.06,.63,1.34,.23,2.7,.49,4.04,.77,8.08,1.67,16.04,4.2,23.77,7.59,1.28,.57,2.57,1.16,3.84,1.77,1.27,.62,2.54,1.25,3.8,1.91,2.52,1.32,5,2.74,7.45,4.27l6.28,3.89c1.82,1.12,3.66,2.21,5.53,3.22,.62,.34,1.24,.68,1.86,1,1.88,.99,3.78,1.93,5.69,2.8,8.29,3.82,16.91,6.64,25.68,8.48,1.25,.26,2.5,.5,3.75,.72,12.25,2.16,24.75,2.4,37.06,.72,1.35-.19,2.69-.39,4.04-.62,7.38-1.27,14.68-3.23,21.78-5.89,1.93-.73,3.86-1.5,5.76-2.33,.64-.28,1.27-.57,1.91-.85,1.89-.87,3.77-1.78,5.63-2.74,.63-.33,1.24-.66,1.86-.98,1.84-.99,3.67-2.05,5.48-3.15l8.83-5.41c3.03-1.86,6.13-3.56,9.27-5.12,1.25-.62,2.52-1.22,3.79-1.8,1.26-.58,2.54-1.12,3.82-1.65,.64-.28,1.28-.54,1.94-.79,1.28-.5,2.58-.98,3.87-1.44h0c1.21-.44,2.43-.84,3.66-1.23,.57-.18,1.14-.35,1.72-.52,.64-.19,1.28-.38,1.92-.56,.7-.2,1.4-.39,2.1-.57,.46-.12,.93-.24,1.39-.35,4.12-1.03,8.27-1.84,12.43-2.43,.03,0,.05,0,.08-.01,37.73-5.29,76.88,7.54,104.37,36.77l1.44,1.53c1.05,1.11,2.08,2.25,3.07,3.39,19.29,22.1,29.24,50.93,29.24,80.36Z"/>
      <rect class="cls-13" x="997.24" y="628.31" width="575.44" height="182.13" rx="91.06" ry="91.06"/>
      <g>
        <text class="cls-6" transform="translate(1063.96 754.61)"><tspan x="0" y="0">$</tspan></text>
        <text class="cls-5" transform="translate(1143.65 774.3)"><tspan class="cls-1" x="0" y="0">1</tspan><tspan x="68.25" y="0">300</tspan></text>
      </g>
      <g>
        <path class="cls-4" d="M960,351.49c-2.58,0-4.67-2.73-4.67-4.24v-120.63c0-1.51,2.09-4.24,4.67-4.24s4.67,2.73,4.67,4.24v120.63c0,1.51-2.09,4.24-4.67,4.24Z"/>
        <path class="cls-4" d="M1024.56,286.94c0,2.58-2.73,4.67-4.24,4.67h-120.63c-1.51,0-4.24-2.09-4.24-4.67s2.73-4.67,4.24-4.67h120.63c1.51,0,4.24,2.09,4.24,4.67Z"/>
      </g>
      <text class="cls-7" transform="translate(539.23 701.26)"><tspan x="0" y="0">2 </tspan><tspan class="cls-10" x="72.5" y="0">c</tspan><tspan class="cls-8" x="124.35" y="0">o</tspan><tspan class="cls-3" x="175.5" y="0">p</tspan><tspan class="cls-12" x="234.21" y="0">a</tspan><tspan x="286.5" y="0">s</tspan><tspan class="cls-9" x="-2.2" y="87.89">h</tspan><tspan class="cls-8" x="53.08" y="87.89">e</tspan><tspan class="cls-10" x="99.48" y="87.89">l</tspan><tspan class="cls-11" x="124.79" y="87.89">a</tspan><tspan class="cls-10" x="175.33" y="87.89">d</tspan><tspan class="cls-12" x="234.21" y="87.89">a</tspan><tspan x="286.5" y="87.89">s</tspan></text>
      <g>
        <path class="cls-4" d="M759.4,380.17c-5.01,0-9.08-4.07-9.08-9.08v-18.01c0-1.81,1.47-3.28,3.28-3.28s3.28,1.47,3.28,3.28v18.01c0,1.39,1.13,2.52,2.52,2.52s2.52-1.13,2.52-2.52v-18.01c0-1.81,1.47-3.28,3.28-3.28s3.28,1.47,3.28,3.28v18.01c0,5.01-4.07,9.08-9.08,9.08Z"/>
        <g>
          <path class="cls-4" d="M789.13,266.2c-.97,0-1.93-.43-2.58-1.24-1.13-1.42-.88-3.48,.54-4.61,2.76-2.19,4.69-6.96,4.58-11.36-.12-4.92-2.57-9.37-6.25-11.34-1.46-.78-2.1-2.52-1.52-4.06,.82-2.15,2.57-7.65,1.18-12.19-.82-2.7-2.58-4.59-5.37-5.78-1.03-.44-1.76-1.37-1.95-2.47-.94-5.55-4.38-9.04-8.36-13.08l-.96-.97c-5.19-5.31-15.11-9.67-20.46-11.04,1.49,3.05,2.43,6.2,1.54,9.38-.78,2.75-2.85,5.05-6.16,6.84-3.74,2.02-2.4,7.45-2.39,7.5,.4,1.57-.4,3.2-1.89,3.83-2.78,1.19-4.54,3.08-5.37,5.78-1.39,4.55,.37,10.04,1.19,12.19,.59,1.54-.06,3.28-1.52,4.06-3.68,1.97-6.14,6.43-6.25,11.34-.11,4.29,1.64,8.89,4.25,11.2,1.36,1.2,1.49,3.28,.29,4.63-1.2,1.36-3.28,1.48-4.63,.29-4.02-3.55-6.61-10.09-6.47-16.27,.15-6.3,2.9-11.97,7.34-15.43-1.09-3.69-1.99-8.96-.47-13.93,1.14-3.73,3.46-6.7,6.77-8.72-.25-3.94,.81-9.43,6.03-12.25,1.69-.91,2.69-1.87,2.97-2.85,.49-1.75-.96-4.61-2.6-7.44-1.62-2.79-.56-5.02,.84-6.09,5.28-4.01,24.58,5.11,31.7,12.38l.94,.96c4.03,4.08,8.18,8.3,9.81,14.89,3.69,2.02,6.25,5.14,7.47,9.13,1.52,4.97,.62,10.24-.47,13.93,4.44,3.46,7.19,9.13,7.34,15.43,.15,6.49-2.69,13.19-7.07,16.66-.6,.48-1.32,.71-2.04,.71Z"/>
          <path class="cls-4" d="M731.86,237.96c-.83,0-1.65-.3-2.27-.91-1.25-1.23-1.37-3.18-.2-4.48,.86-.96,6.08-5.78,24.91-6.87,1.83-.07,3.36,1.28,3.47,3.09,.11,1.81-1.28,3.36-3.09,3.47-16.18,.94-20.46,4.76-20.5,4.8-.64,.6-1.48,.91-2.32,.91Z"/>
          <path class="cls-4" d="M737.8,215.87c-1.35,0-2.61-.84-3.09-2.18-.61-1.71,.28-3.59,1.98-4.2,1.17-.42,11.54-4.05,18.18-3.28,1.8,.21,3.09,1.84,2.88,3.64s-1.81,3.09-3.64,2.88c-4.33-.5-12.43,1.95-15.2,2.94-.37,.13-.74,.19-1.11,.19Z"/>
          <path class="cls-4" d="M758.43,356.35c-16.43,0-30.03-13.39-30.32-29.84l-1.11-63.32c-.02-.88,.32-1.73,.94-2.36,.62-.63,1.46-.98,2.34-.98h59.03c.9,0,1.76,.36,2.38,1.01,.62,.65,.95,1.53,.9,2.42l-3.07,64.15c-.78,16.2-14.08,28.91-30.29,28.92h-.8Zm-24.81-89.93l1.05,59.98c.23,12.9,10.88,23.39,23.76,23.39h.79c12.7-.01,23.13-9.97,23.73-22.67l2.91-60.71h-52.25Z"/>
        </g>
        <path class="cls-4" d="M789.76,392.74c-1.81,0-3.28-1.47-3.28-3.28,0-3.18-4.6-5.34-7.34-6.35-5.08-1.87-12.27-2.94-19.74-2.94-14.93,0-27.08,4.17-27.08,9.29,0,1.81-1.47,3.28-3.28,3.28s-3.28-1.47-3.28-3.28c0-11.71,18.12-15.86,33.65-15.86s33.64,4.15,33.64,15.86c0,1.81-1.47,3.28-3.28,3.28Z"/>
      </g>
      <g>
        <path class="cls-4" d="M1160.6,380.17c-5.01,0-9.08-4.07-9.08-9.08v-18.01c0-1.81,1.47-3.28,3.28-3.28s3.28,1.47,3.28,3.28v18.01c0,1.39,1.13,2.52,2.52,2.52s2.52-1.13,2.52-2.52v-18.01c0-1.81,1.47-3.28,3.28-3.28s3.28,1.47,3.28,3.28v18.01c0,5.01-4.07,9.08-9.08,9.08Z"/>
        <g>
          <path class="cls-4" d="M1190.33,266.2c-.97,0-1.93-.43-2.58-1.24-1.13-1.42-.88-3.48,.54-4.61,2.76-2.19,4.69-6.96,4.58-11.36-.12-4.92-2.57-9.37-6.25-11.34-1.46-.78-2.1-2.52-1.52-4.06,.82-2.15,2.57-7.65,1.18-12.19-.82-2.7-2.58-4.59-5.37-5.78-1.03-.44-1.76-1.37-1.95-2.47-.94-5.55-4.38-9.04-8.36-13.08l-.96-.97c-5.19-5.31-15.11-9.67-20.46-11.04,1.49,3.05,2.43,6.2,1.54,9.38-.78,2.75-2.85,5.05-6.16,6.84-3.74,2.02-2.4,7.45-2.39,7.5,.4,1.57-.4,3.2-1.89,3.83-2.78,1.19-4.54,3.08-5.37,5.78-1.39,4.55,.37,10.04,1.19,12.19,.59,1.54-.06,3.28-1.52,4.06-3.68,1.97-6.14,6.43-6.25,11.34-.11,4.29,1.64,8.89,4.25,11.2,1.36,1.2,1.49,3.28,.29,4.63-1.2,1.36-3.28,1.48-4.63,.29-4.02-3.55-6.61-10.09-6.47-16.27,.15-6.3,2.9-11.97,7.34-15.43-1.09-3.69-1.99-8.96-.47-13.93,1.14-3.73,3.46-6.7,6.77-8.72-.25-3.94,.81-9.43,6.03-12.25,1.69-.91,2.69-1.87,2.97-2.85,.49-1.75-.96-4.61-2.6-7.44-1.62-2.79-.56-5.02,.84-6.09,5.28-4.01,24.58,5.11,31.7,12.38l.94,.96c4.03,4.08,8.18,8.3,9.81,14.89,3.69,2.02,6.25,5.14,7.47,9.13,1.52,4.97,.62,10.24-.47,13.93,4.44,3.46,7.19,9.13,7.34,15.43,.15,6.49-2.69,13.19-7.07,16.66-.6,.48-1.32,.71-2.04,.71Z"/>
          <path class="cls-4" d="M1133.06,237.96c-.83,0-1.65-.3-2.27-.91-1.25-1.23-1.37-3.18-.2-4.48,.86-.96,6.08-5.78,24.91-6.87,1.83-.07,3.36,1.28,3.47,3.09,.11,1.81-1.28,3.36-3.09,3.47-16.18,.94-20.46,4.76-20.5,4.8-.64,.6-1.48,.91-2.32,.91Z"/>
          <path class="cls-4" d="M1139,215.87c-1.35,0-2.61-.84-3.09-2.18-.61-1.71,.28-3.59,1.98-4.2,1.17-.42,11.54-4.05,18.18-3.28,1.8,.21,3.09,1.84,2.88,3.64-.21,1.8-1.81,3.09-3.64,2.88-4.33-.5-12.43,1.95-15.2,2.94-.37,.13-.74,.19-1.11,.19Z"/>
          <path class="cls-4" d="M1159.63,356.35c-16.43,0-30.03-13.39-30.32-29.84l-1.11-63.32c-.02-.88,.32-1.73,.94-2.36,.62-.63,1.46-.98,2.34-.98h59.03c.9,0,1.76,.36,2.38,1.01,.62,.65,.95,1.53,.9,2.42l-3.07,64.15c-.78,16.2-14.08,28.91-30.29,28.92h-.8Zm-24.81-89.93l1.05,59.98c.23,12.9,10.88,23.39,23.76,23.39h.79c12.7-.01,23.13-9.97,23.73-22.67l2.91-60.71h-52.25Z"/>
        </g>
        <path class="cls-4" d="M1190.96,392.74c-1.81,0-3.28-1.47-3.28-3.28,0-3.18-4.6-5.34-7.34-6.35-5.08-1.87-12.27-2.94-19.74-2.94-14.93,0-27.08,4.17-27.08,9.29,0,1.81-1.47,3.28-3.28,3.28s-3.28-1.47-3.28-3.28c0-11.71,18.12-15.86,33.65-15.86s33.64,4.15,33.64,15.86c0,1.81-1.47,3.28-3.28,3.28Z"/>
      </g>
    </g>
  </g>
</svg>