<svg xmlns="http://www.w3.org/2000/svg" xmlns:xlink="http://www.w3.org/1999/xlink" viewBox="0 0 1920 970" xmlns:v="https://vecta.io/nano"><style><![CDATA[.K{letter-spacing:-.04em}.N{letter-spacing:-.01em}.E{letter-spacing:-.02em}.M{letter-spacing:-.05em}.Q{letter-spacing:-.02em}.H{letter-spacing:-.05em}.O{letter-spacing:-.04em}.G{letter-spacing:-.02em}.R{letter-spacing:-.03em}.P{letter-spacing:0em}.L{letter-spacing:-.05em}.J{letter-spacing:-.03em}.I{letter-spacing:-.03em}.S{letter-spacing:-.03em}.V{fill:#55131d}.W{fill:#fcc10c}.X{font-weight:700}.Y{font-family:MADETOMMY-Bold,MADE TOMMY}.Z{stroke-linejoin:round}]]></style><path d="M0 970V0h1920v970z" fill="#f7f2ea"/><path d="M1920 606.83v238.61c0 29.43-9.94 58.26-29.24 80.36-.99 1.14-2.02 2.28-3.07 3.39l-1.44 1.53c-30.88 32.82-76.46 44.97-118.2 33.99l-1.13-.3-2.55-.73-1.58-.48-2.26-.72-2.02-.7-1.86-.66c-1.3-.48-2.59-.99-3.88-1.52-5.76-2.39-11.41-5.24-16.87-8.58l-8.84-5.4a111.64 111.64 0 0 0-3.64-2.14 128.98 128.98 0 0 0-5.56-2.95l-1.88-.92a137.89 137.89 0 0 0-5.71-2.54l-1.92-.78a119.7 119.7 0 0 0-25.73-6.95 120.02 120.02 0 0 0-34.69-.27 129.9 129.9 0 0 0-6.12 1l-2.03.41a155.24 155.24 0 0 0-4.04.91c-2.01.49-4.01 1.03-6.01 1.64l-2.48.78-2.94 1-1.04.37-3.38 1.29-3.87 1.62c-5.13 2.26-10.14 4.88-15 7.9l-6.28 3.89c-4.51 2.8-9.16 5.27-13.89 7.41-3.61 1.63-7.28 3.07-10.99 4.33-4.61 1.56-9.3 2.82-14 3.8l-2.58.51a107.23 107.23 0 0 1-3.04.52c-.34.06-.68.11-1 .16-1.17.18-2.35.33-3.53.48-4.78.57-9.6.86-14.39.85-2.23.25-4.47.43-6.7.55a119.34 119.34 0 0 1-20.69-.65c-3.36-.41-6.7-.94-10.03-1.62a140.04 140.04 0 0 1-5.99-1.38c-1.98-.52-3.95-1.08-5.91-1.7a120.58 120.58 0 0 1-16.07-6.36c-1.68-.82-3.34-1.67-5-2.56h0c-1.86-1.01-3.7-2.08-5.52-3.19l-8.83-5.4a120.74 120.74 0 0 0-5.48-3.15l-1.86-.98a126.84 126.84 0 0 0-5.63-2.74l-1.91-.85c-1.9-.83-3.83-1.6-5.76-2.33-7.11-2.66-14.4-4.61-21.79-5.89a108.8 108.8 0 0 0-4.03-.62c-5.39-.74-10.83-1.1-16.26-1.1l-2.04.02c-.6 0-1.19.02-1.79.04-1.65.05-3.3.14-4.95.26l-1.48.12a113.93 113.93 0 0 0-4.1.43c-.74.08-1.46.18-2.19.28a122 122 0 0 0-3.83.6c-1.39.24-2.78.51-4.17.8-13.5 2.82-26.63 8-38.76 15.51l-6.28 3.89c-20.43 12.66-43.38 18.52-66.04 17.99-25.88 2.95-52.74-2.46-76.3-16.87l-8.84-5.4a120.05 120.05 0 0 0-126.02.39l-6.28 3.89a119.96 119.96 0 0 1-63.43 18.04c-25.76 2.85-52.47-2.58-75.92-16.92l-8.83-5.4c-38.75-23.69-87.4-23.54-126.02.39l-6.28 3.89c-20.43 12.66-43.38 18.52-66.04 17.99-25.88 2.95-52.74-2.46-76.3-16.87l-8.84-5.4a120.05 120.05 0 0 0-126.02.39l-6.27 3.89c-19.65 12.17-41.62 18.06-63.43 18.04-25.77 2.85-52.48-2.58-75.92-16.92l-8.84-5.4c-38.75-23.69-87.4-23.54-126.02.39l-6.27 3.89c-48.88 30.3-112.24 21.76-151.46-20.42l-3.42-3.68c-8.97-9.64-16.07-20.37-21.32-31.73-7.02-15.22-10.2-31.95-10.2-48.73V606.99c0-16.79 3.18-33.51 10.2-48.73 5.25-11.37 12.35-22.1 21.32-31.74l3.42-3.67c39.22-42.18 102.58-50.72 151.46-20.42l6.27 3.89c38.62 23.93 87.26 24.08 126.02.38l8.84-5.4c23.44-14.33 50.15-19.76 75.92-16.91 21.81-.03 43.78 5.87 63.43 18.04l6.27 3.89c38.62 23.93 87.26 24.08 126.02.39l8.84-5.41c23.56-14.4 50.42-19.81 76.3-16.86 22.66-.53 45.62 5.33 66.04 17.99l6.28 3.89c38.62 23.93 87.26 24.08 126.02.38l8.83-5.4c23.45-14.33 50.16-19.76 75.92-16.91a119.87 119.87 0 0 1 63.43 18.04l6.28 3.89c38.62 23.93 87.26 24.08 126.02.39l8.84-5.41c23.56-14.4 50.42-19.81 76.3-16.86 22.66-.53 45.62 5.33 66.04 17.99l6.28 3.89c11.86 7.35 24.68 12.46 37.86 15.31 2.1.46 4.21.86 6.32 1.19l1.7.27 3.05.41c1.06.13 2.13.24 3.2.34a44.59 44.59 0 0 0 1.59.14 43.03 43.03 0 0 0 1.6.12c1.41.09 2.83.16 4.25.21l1.68.04 2.02.02c21.73.01 43.46-5.88 62.74-17.67l8.83-5.4c23.45-14.33 50.16-19.76 75.92-16.91 5.49-.01 11 .36 16.48 1.11 1.35.18 2.71.39 4.06.63a114.8 114.8 0 0 1 4.04.77 119.26 119.26 0 0 1 23.77 7.59l3.84 1.77 3.8 1.91a113.3 113.3 0 0 1 7.45 4.27l6.28 3.89c1.82 1.12 3.66 2.21 5.53 3.22l1.86 1c1.88.99 3.78 1.93 5.69 2.8 8.29 3.82 16.91 6.64 25.68 8.48l3.75.72c12.25 2.16 24.75 2.4 37.06.72l4.04-.62c7.38-1.27 14.68-3.23 21.78-5.89 1.93-.73 3.86-1.5 5.76-2.33l1.91-.85a138.96 138.96 0 0 0 5.63-2.74l1.86-.98a120.74 120.74 0 0 0 5.48-3.15l8.83-5.41c3.03-1.86 6.13-3.56 9.27-5.12a131.25 131.25 0 0 1 3.79-1.8c1.26-.58 2.54-1.12 3.82-1.65.64-.28 1.28-.54 1.94-.79a138.71 138.71 0 0 1 3.87-1.44h0c1.21-.44 2.43-.84 3.66-1.23l1.72-.52 1.92-.56 2.1-.57 1.39-.35a121.74 121.74 0 0 1 12.43-2.43c.03 0 .05 0 .08-.01 37.73-5.29 76.88 7.54 104.37 36.77l1.44 1.53c1.05 1.11 2.08 2.25 3.07 3.39 19.29 22.1 29.24 50.93 29.24 80.36z" class="W"/><rect x="997.24" y="628.31" width="575.44" height="182.13" rx="91.06" fill="#f7f2ea"/><text font-size="83.24" class="V X Y"><tspan x="1063.96" y="754.61">$</tspan></text><text font-size="150.33" class="V X Y"><tspan class="E" x="1137.49" y="774.3">22</tspan><tspan x="1305.86" y="774.3">00</tspan></text><text font-family="PPWoodland-Bold,PP Woodland" font-size="87.88" class="V X"><tspan x="399.51" y="701.26">6 </tspan><tspan class="G" x="475.62" y="701.26">p</tspan><tspan class="H" x="535.38" y="701.26">o</tspan><tspan class="I" x="586.53" y="701.26">r</tspan><tspan class="J" x="634.86" y="701.26">c</tspan><tspan class="K" x="685.66" y="701.26">i</tspan><tspan class="L" x="709.92" y="701.26">o</tspan><tspan class="M" x="761.06" y="701.26">n</tspan><tspan class="N" x="816.34" y="701.26">e</tspan><tspan x="865.74" y="701.26">s</tspan><tspan class="O" x="491.61" y="789.15">d</tspan><tspan class="P" x="549.09" y="789.15">e </tspan><tspan class="Q" x="618.52" y="789.15">p</tspan><tspan class="N" x="678.28" y="789.15">o</tspan><tspan class="K" x="732.42" y="789.15">s</tspan><tspan class="R" x="774.69" y="789.15">t</tspan><tspan class="S" x="812.92" y="789.15">r</tspan><tspan x="861.25" y="789.15">e</tspan></text><g fill="#fcc10a" stroke="#55131d" stroke-width="9" class="Z"><path d="M800.05 316.5l431.51-119.65-140.01-49.16-431.87 118.16 140.37 50.65z"/><path d="M659.68 386.91V265.85l140.37 50.65v121.06l-140.37-50.65z"/></g><path d="M754.05 354.49c.93-.96 1.28-2.3 1.1-3.79 0-1.2-.38-2.55-1.17-3.92l-.25-.44c-1.56-2.69-1.57-5.38-.02-6.96l.35-.36c1.93-1.98 1.38-5.64-1.32-8.77l-.1-.12-.22-.25c-1.44-1.58-3.31-2.81-5.23-3.5l-6.58-2.37-4.56-1.65-5.79-2.09-.79-.28-5.79-2.09-4.56-1.64-6.58-2.37c-1.91-.69-3.79-.82-5.23-.27l-.22.09c-.04.02-.06.03-.1.04-2.7 1.18-3.25 4.44-1.32 7.82l.35.61c1.54 2.69 1.53 5.37-.02 6.94l-.25.25c-.79.8-1.17 1.87-1.17 3.08-.19 1.35.17 2.96 1.1 4.59l.35.61c1.54 2.69 1.53 5.37-.02 6.94l-.25.26c-1.97 1.99-1.41 5.68 1.33 8.83l.24.27a13.8 13.8 0 0 0 2.06 1.92c.99.74 2.08 1.31 3.17 1.71l5.33 1.92 7.04 2.54 4.56 1.64.77.28 4.56 1.64 7.04 2.54 5.33 1.92c1.09.39 2.18.61 3.17.58.74-.02 1.44-.16 2.06-.43l.24-.1c2.74-1.17 3.3-4.47 1.33-7.88l-.25-.44c-1.56-2.69-1.57-5.38-.02-6.96l.35-.36z" class="V"/><path d="M743.73 351.95c0 4.07-3.36 5.89-11.3 3.02l-12.89-4.65c-1.27-.46-1.84-.98-1.88-1.71-.04-.63.25-.98 1.31-1.84.74-.6.78-1.72.78-4.13v-8.61c0-2.38-.04-3.53-.78-4.69-1.06-1.62-1.35-2.14-1.31-2.75.04-.71.61-.85 1.88-.39l10.81 3.9c6.26 2.26 10.85 6.02 10.85 10.08 0 2.72-1.72 4.17-4.99 3.54 4.63 1.81 7.53 5.44 7.53 8.23zm-16.21-14.8c0 1.34.49 2.14 1.76 2.6l.57.21c2.17.78 3.4-.32 3.4-2.15s-1.23-3.85-3.4-4.64c-.04-.01-.49-.18-.57-.21-1.27-.46-1.76.02-1.76 1.33v2.86zm7.74 11.75c0-2.38-1.96-4.57-4.71-5.56-.04-.01-.49-.18-.7-.25-1.88-.68-2.33-.53-2.33 1.16v3.69c0 1.72.45 2.2 2.33 2.87l.7.25c2.74.99 4.71.22 4.71-2.16z" class="W"/><path d="M1231.56 317.9V196.85L800.05 316.5v121.06l431.51-119.66z" fill="#fcc10a" stroke="#55131d" stroke-width="9" class="Z"/><g class="V"><path d="M957.24 359.3l1.68-2.96c1.75.96 2.83 2.89 2.78 5.54-.08 4.68-3.63 8.97-8.18 10.16s-7.98-1.28-7.9-5.96c.04-2.65 1.17-5.15 2.99-7.04l1.6 2.11c-1.01 1.1-1.7 2.54-1.72 4.19-.05 3.28 2.52 4.3 5.09 3.63 2.6-.68 5.22-3.05 5.27-6.33.02-1.65-.62-2.75-1.6-3.32zm7.19-16.04l-6.24 3.36c-.02.07-.04.16-.06.26l-.63 2.5h5.39l-.79 3.15c-5.99 0-8.98-.01-14.97-.02l1.42-5.65c.92-3.67 3.59-6.09 6.43-6.09 1.88 0 3.06 1.1 3.37 2.88l7-4.01-.91 3.62zm-9.43 6.11l.63-2.5c.41-1.63.03-2.85-1.47-2.85-1.35 0-2.47 1.07-2.92 2.85l-.63 2.5H955zm13.56-22.82l2.46.67-4.36 9.4-13.67-3.71 4.26-9.2 2.46.67-2.84 6.12 3.09.84 2.6-5.6 2.46.67-2.6 5.6 3.2.87 2.93-6.33zm4.17-25.79l11.24 7.77-2.08 2.79-7.45-5.15 2.24 8.06-.69.93-8.66.55 7.45 5.15-2.07 2.77-11.24-7.77 2.21-2.96 9.19-.59-2.37-8.58 2.22-2.98zm21.25-4.69l-5.57 4.73.6 3.08-2.78 2.36-2.75-15.77 3.21-2.73 12.5 7.5-2.78 2.36-2.42-1.54zm-2.11-1.34l-5.29-3.35 1.31 6.73 3.98-3.38zm19.71-11.1c.62 2.2-.44 5.28-4.36 7.43-2.81 1.54-5.63 1.83-7.02-.12l2.57-2.37c.44.69 1.64 1.25 3.74.09 1.5-.82 2.55-2.03 2.21-3.24-.4-1.41-2.13-.58-4.66.18-3.21.96-4.64.07-5.19-1.89-.75-2.66.94-5.51 4.07-7.22 2.51-1.38 4.81-1.29 6.07.52l-2.65 2.2c-.38-.65-1.39-1.06-2.89-.23-1.24.68-2.1 1.85-1.78 2.98.45 1.59 2.43.77 3.9.31 3.77-1.18 5.34-.92 5.98 1.36zm25.59-17.86l-1.64 16.14-3 .51.68-6.69-6.4 1.08-.68 6.69-3 .51 1.64-16.14 3-.51-.67 6.55 6.4-1.09.66-6.55 3-.51zm11.82 14.02l-.95 2.93-8.63-.76 5.26-16.3 8.44.74-.95 2.93-5.62-.49-1.19 3.68 5.14.45-.95 2.93-5.14-.45-1.23 3.82 5.81.51zm11.45 3.53l-1.46 2.82-7.66-2.65 8.13-15.69 2.55.88-6.67 12.87 5.1 1.77zm10.19 6.21l-4.51-3.34-2.92 2.27-2.26-1.67 14.94-11.26 2.6 1.92-7.04 17.11-2.26-1.67 1.45-3.36zm1.26-2.93l3.14-7.33-6.37 4.94 3.23 2.39zm14.39 13.89c-3.97 3.4-8.28 3.48-10.84-.38l-2.39-3.61 13.5-11.55 2.39 3.61c2.56 3.85 1.31 8.53-2.67 11.93zm-1.49-2.25c3.01-2.57 3.12-5.5 1.73-7.6l-.9-1.36-8.64 7.4.9 1.35c1.39 2.1 3.9 2.78 6.91.21zm1.12 17.4l-1.63-5.83-3.25.68-.82-2.91 16.45-3.1.94 3.36-13.6 13.3-.82-2.91 2.72-2.58zm2.37-2.25l5.92-5.63-7.09 1.47 1.17 4.17zm.46 20.61c-2.42.71-4.82-.34-4.89-4.45-.05-2.94 1.11-5.91 3.67-7.43l.96 2.67c-.88.48-2.02 1.77-1.99 3.96.02 1.57.65 2.65 1.98 2.26 1.55-.46 1.63-2.27 2.19-4.93.72-3.39 2.29-4.91 4.44-5.54 2.93-.86 4.78.87 4.84 4.14.04 2.62-1.21 5.07-3.57 6.44l-.76-2.75c.82-.42 1.72-1.5 1.69-3.07-.02-1.3-.7-2.18-1.95-1.82-1.75.51-1.96 2.58-2.27 4.14-.78 3.97-1.83 5.63-4.33 6.37z"/><use xlink:href="#B"/><path d="M1014.33 333.75v2.22l-7.18 1.99V325.6l7.02-1.95v2.23l-4.67 1.3v2.79l4.28-1.19v2.23l-4.28 1.19v2.9l4.83-1.34zm12.22-4.75c0 1.92-1.36 4.19-4.54 5.07-2.28.63-4.31.24-4.9-1.64l2.28-1.36c.17.66.9 1.37 2.61.9 1.22-.34 2.19-1.08 2.19-2.14 0-1.24-1.38-.94-3.3-.88-2.44.07-3.27-.96-3.27-2.68 0-2.33 1.76-4.27 4.29-4.97 2.03-.56 3.63.02 4.16 1.76l-2.29 1.2c-.14-.61-.77-1.16-1.98-.83-1.01.28-1.84 1.04-1.84 2.03 0 1.39 1.55 1.16 2.68 1.11 2.89-.13 3.93.43 3.93 2.42z"/><use xlink:href="#B" x="36.19" y="-10.04"/><path d="M1050.51 323.72v2.22l-7.18 1.99v-12.36l7.03-1.95v2.23l-4.68 1.3v2.79l4.28-1.19v2.23l-4.28 1.19v2.9l4.83-1.34zm-43.57 19.66v12.36l-2.37.66v-9.57l-2.14 2.06-1.01-1.4 3.75-3.62 1.76-.49zm3.57 3.14c0-2.45 1.83-4.85 4.43-5.57 2.61-.72 4.43.66 4.43 3.11 0 1.71-.91 3.22-1.36 4.01l-3.08 5.44-2.57.71 2.89-4.84c-.09.02-.19.05-.31.09-2.49.69-4.43-.31-4.43-2.95zm2.33-.65c0 1.2.85 1.9 2.1 1.55 1.16-.32 2.12-1.42 2.12-2.72s-1.04-1.86-2.12-1.57c-1.08.3-2.1 1.38-2.1 2.74zm18.25-.48c0 2.33-1.93 4.42-4.55 5.15-2.63.73-4.56-.29-4.56-2.62 0-1.34.75-2.57 1.91-3.5-.96-.33-1.46-1.13-1.46-2.15 0-1.82 1.49-3.8 4.1-4.53 2.61-.72 4.09.44 4.09 2.26 0 1.02-.49 2.09-1.44 2.96 1.15.28 1.91 1.09 1.91 2.44zm-2.45.55c0-1.06-.82-1.61-2.1-1.25-1.3.36-2.12 1.37-2.12 2.42 0 .92.64 1.62 2.12 1.21 1.46-.41 2.1-1.47 2.1-2.38zm-3.91-4.05c0 1.04.82 1.34 1.81 1.07.97-.27 1.81-1.03 1.81-2.07s-.9-1.37-1.81-1.12c-.9.25-1.81 1.05-1.81 2.13zm16.97 1.98v2.22l-7.75 2.15v-1.75l2.94-4.19c1.06-1.54 2.28-3.23 2.28-4.3 0-.88-.52-1.46-1.49-1.19-1.08.3-1.53 1.22-1.67 1.98l-2.21.1c.43-2.17 2.02-3.74 4.07-4.31 2.24-.62 3.67.73 3.67 2.67 0 1.73-1.5 3.82-4.31 7.85l4.49-1.24zm-46.12-126.1c-.47-1.05-2.14-1.97-4.58-2.64-1.82-.64-4.26-1.12-7.15-1.38l-.92-.08c-5.69-.51-9.76-1.92-10.55-3.66l-.18-.4c-.98-2.18-7.41-3.79-14.59-3.85h-.26-.57c-3.66.02-6.99.48-9.78 1.24l-9.58 2.62-6.64 1.82-8.44 2.31-1.15.31-8.44 2.31-6.64 1.82-9.58 2.62-9.83 2.77-.58.16-.27.07c-7.25 1.99 2.41 4.24 9.52 4.9l1.29.12c5.68.53 9.71 1.96 10.46 3.71.05.11.07.17.12.28.38.89 1.6 1.69 3.42 2.33 1.85.83 4.64 1.47 8.07 1.79l1.29.12c5.68.53 9.71 1.96 10.46 3.71.05.11.07.17.12.28.94 2.22 7.43 3.87 14.67 3.92h.63a42.88 42.88 0 0 0 4.65-.21 31.17 31.17 0 0 0 5.29-.98l7.74-2.15 10.23-2.84 6.62-1.84 1.12-.31 6.62-1.84 10.23-2.84 7.74-2.15 5.31-1.52 4.69-1.34.63-.18c7.31-2.03-2.32-4.26-9.53-4.9l-.92-.08c-5.69-.51-9.76-1.92-10.55-3.66l-.18-.4z"/></g><path d="M980.96 222.49c6.14 2.15 5.39 5.08-7.23 8.24l-20.5 5.13c-2.02.5-3.4.56-4.55.2-1-.31-1.22-.67-1.4-1.75-.13-.75-1.78-1.37-5.42-2.65l-13-4.57c-3.59-1.26-5.37-1.85-7.89-2.03-3.56-.24-4.65-.35-5.51-.69-1.02-.4-.64-.81 1.38-1.31.13-.03 10.66-2.65 17.17-4.27 9.95-2.47 20.41-3.17 26.55-1.03 4.11 1.44 4.5 3.21.13 4.8 7.56-1.76 16.08-1.55 20.29-.07zm-39.29 1.68c2.03.71 3.75.85 5.76.34a58.51 58.51 0 0 0 .91-.23c3.45-.86 3.06-2.17.3-3.13-2.81-.98-7.1-1.32-10.55-.46-.07.02-.78.19-.91.23-2.02.5-1.81 1.04.17 1.74.1.04 4.21 1.48 4.32 1.52zm25.82 1.68c-3.59-1.26-8.95-1.26-13.31-.18-.07.02-.78.19-1.11.28-2.99.75-3.24 1.09-.69 1.98l5.57 1.95c2.6.91 3.79.9 6.78.15l1.11-.28c4.36-1.09 5.24-2.65 1.65-3.91z" class="W"/><defs ><path id="B" d="M1003.75 332.73c0 3.64-2.42 6.85-6.47 7.97l-3.79 1.05v-12.36l3.79-1.05c4.05-1.12 6.47.75 6.47 4.38zm-2.37.66c0-2.75-1.89-3.43-4.1-2.82l-1.43.4v7.91l1.43-.4c2.21-.61 4.1-2.34 4.1-5.09z"/></defs></svg>