<?xml version="1.0" encoding="UTF-8"?>
<svg id="Capa_1" data-name="Capa 1" xmlns="http://www.w3.org/2000/svg" viewBox="0 0 830 420">
  <defs>
    <style>
      .cls-1 {
        letter-spacing: -.01em;
      }

      .cls-2 {
        font-size: 64.99px;
      }

      .cls-2, .cls-3 {
        font-family: MADETOMMY-Bold, 'MADE TOMMY';
      }

      .cls-2, .cls-3, .cls-4, .cls-5 {
        fill: #55121c;
      }

      .cls-2, .cls-3, .cls-5 {
        font-weight: 700;
      }

      .cls-6 {
        letter-spacing: -.02em;
      }

      .cls-7 {
        fill: #fcc008;
        stroke: #55121c;
        stroke-linecap: round;
        stroke-linejoin: round;
        stroke-width: 3px;
      }

      .cls-8 {
        fill: #f6f1ea;
      }

      .cls-9 {
        letter-spacing: -.04em;
      }

      .cls-10 {
        letter-spacing: 0em;
      }

      .cls-11 {
        letter-spacing: -.03em;
      }

      .cls-12 {
        letter-spacing: -.03em;
      }

      .cls-13 {
        letter-spacing: -.05em;
      }

      .cls-14 {
        fill: #fbc009;
      }

      .cls-15 {
        letter-spacing: -.03em;
      }

      .cls-16 {
        letter-spacing: -.02em;
      }

      .cls-17 {
        letter-spacing: -.03em;
      }

      .cls-18 {
        letter-spacing: -.04em;
      }

      .cls-19 {
        letter-spacing: 0em;
      }

      .cls-3 {
        font-size: 35.98px;
      }

      .cls-5 {
        font-family: PPWoodland-Bold, 'PP Woodland';
        font-size: 37.99px;
      }

      .cls-20 {
        letter-spacing: -.05em;
      }

      .cls-21 {
        letter-spacing: -.02em;
      }

      .cls-22 {
        letter-spacing: -.04em;
      }
    </style>
  </defs>
  <rect class="cls-8" x="205.34" y="-205.34" width="419.32" height="830" transform="translate(205.34 624.66) rotate(-90)"/>
  <path class="cls-14" d="M830,262.33v103.15c0,12.72-4.3,25.18-12.64,34.74-.43,.49-.87,.98-1.33,1.47l-.62,.66c-13.35,14.19-33.05,19.44-51.09,14.69-.16-.04-.33-.08-.49-.13-.37-.1-.74-.21-1.1-.32-.23-.07-.46-.14-.68-.21-.33-.1-.65-.2-.98-.31-.29-.1-.58-.2-.87-.3-.27-.1-.54-.19-.8-.29-.56-.21-1.12-.43-1.68-.66,0,0,0,0,0,0-2.49-1.03-4.93-2.27-7.29-3.71l-3.82-2.33c-.52-.32-1.04-.63-1.57-.92-.8-.45-1.59-.87-2.4-1.28-.27-.13-.54-.27-.81-.4-.82-.39-1.64-.75-2.47-1.1-.28-.11-.55-.22-.83-.34-3.61-1.42-7.34-2.42-11.12-3.01-4.97-.77-10.02-.8-14.99-.12-.88,.12-1.76,.27-2.64,.43-.29,.06-.58,.12-.88,.18-.58,.12-1.17,.25-1.75,.4-.87,.21-1.73,.45-2.6,.71-.36,.11-.71,.22-1.07,.34-.43,.14-.85,.28-1.27,.43-.15,.05-.3,.1-.45,.16-.49,.18-.98,.37-1.46,.56-.56,.22-1.12,.46-1.67,.7-2.22,.98-4.38,2.11-6.48,3.41l-2.71,1.68c-1.95,1.21-3.96,2.28-6.01,3.2-1.56,.7-3.15,1.33-4.75,1.87-1.99,.67-4.02,1.22-6.05,1.64-.37,.08-.74,.15-1.11,.22-.44,.08-.88,.15-1.32,.22-.15,.03-.29,.05-.43,.07-.51,.08-1.01,.14-1.53,.21-2.07,.24-4.15,.37-6.22,.37-.96,.11-1.93,.18-2.9,.24-2.97,.16-5.97,.07-8.94-.28,0,0,0,0,0,0-1.44-.18-2.89-.41-4.33-.7-.86-.18-1.73-.38-2.59-.6-.86-.22-1.71-.47-2.55-.74-2.36-.74-4.68-1.66-6.95-2.75-.73-.35-1.44-.72-2.16-1.1h0c-.8-.44-1.6-.9-2.39-1.38l-3.82-2.33c-.78-.48-1.57-.93-2.37-1.36-.27-.14-.53-.28-.8-.43-.8-.42-1.62-.81-2.43-1.19-.28-.12-.55-.25-.83-.37-.82-.36-1.66-.69-2.49-1.01-3.07-1.15-6.22-1.99-9.42-2.54-.58-.1-1.16-.19-1.74-.27-2.33-.32-4.68-.48-7.03-.48-.29,0-.59,0-.88,0-.26,0-.52,0-.77,.02-.71,.02-1.43,.06-2.14,.11-.21,.02-.43,.03-.64,.05-.59,.05-1.18,.11-1.77,.18-.32,.03-.63,.08-.95,.12-.55,.08-1.1,.16-1.66,.26-.6,.1-1.2,.22-1.8,.34-5.84,1.22-11.51,3.46-16.76,6.71l-2.71,1.68c-8.83,5.47-18.75,8-28.55,7.78-11.19,1.28-22.8-1.06-32.98-7.29l-3.82-2.33c-16.75-10.24-37.78-10.18-54.48,.17l-2.71,1.68c-8.49,5.26-17.99,7.81-27.42,7.8-11.13,1.23-22.68-1.11-32.82-7.31l-3.82-2.33c-16.75-10.24-37.78-10.18-54.48,.17l-2.71,1.68c-8.83,5.47-18.75,8-28.55,7.78-11.19,1.28-22.8-1.06-32.98-7.29l-3.82-2.33c-16.75-10.24-37.78-10.18-54.48,.17l-2.71,1.68c-8.49,5.26-17.99,7.81-27.42,7.8-11.14,1.23-22.69-1.11-32.82-7.31l-3.82-2.33c-16.75-10.24-37.78-10.18-54.48,.17l-2.71,1.68c-21.13,13.1-48.52,9.41-65.47-8.83l-1.48-1.59c-3.88-4.17-6.95-8.8-9.22-13.72C1.37,379.91,0,372.67,0,365.42v-103.05c0-7.26,1.38-14.49,4.41-21.07,2.27-4.91,5.34-9.55,9.22-13.72l1.48-1.59c16.96-18.23,44.34-21.92,65.47-8.83l2.71,1.68c16.69,10.34,37.72,10.41,54.48,.16l3.82-2.33c10.13-6.19,21.68-8.54,32.82-7.31,9.43-.01,18.92,2.54,27.42,7.8l2.71,1.68c16.69,10.34,37.72,10.41,54.48,.17l3.82-2.34c10.18-6.23,21.8-8.56,32.98-7.29,9.8-.23,19.72,2.3,28.55,7.78l2.71,1.68c16.69,10.34,37.72,10.41,54.48,.16l3.82-2.33c10.14-6.19,21.68-8.54,32.82-7.31,9.43-.01,18.93,2.54,27.42,7.8l2.71,1.68c16.69,10.34,37.72,10.41,54.48,.17l3.82-2.34c10.18-6.23,21.8-8.56,32.98-7.29,9.8-.23,19.72,2.3,28.55,7.78l2.71,1.68c5.13,3.18,10.67,5.39,16.37,6.62,.91,.2,1.82,.37,2.73,.52,.25,.04,.49,.08,.74,.12,.44,.06,.88,.12,1.32,.18,.46,.06,.92,.1,1.38,.15,.23,.03,.46,.04,.69,.06,.23,.02,.46,.04,.69,.05,.61,.04,1.23,.07,1.84,.09,.24,0,.49,.01,.73,.02,.29,0,.58,0,.87,0,9.39,0,18.79-2.54,27.12-7.64l3.82-2.33c10.14-6.19,21.68-8.54,32.82-7.31,2.37,0,4.75,.15,7.12,.48,.58,.08,1.17,.17,1.75,.27,.58,.1,1.17,.21,1.75,.33,3.49,.72,6.93,1.81,10.27,3.28,.55,.24,1.11,.5,1.66,.77,.55,.27,1.1,.54,1.64,.83,1.09,.57,2.16,1.19,3.22,1.84l2.71,1.68c.79,.49,1.58,.95,2.39,1.39,.27,.15,.54,.29,.8,.43,.81,.43,1.63,.83,2.46,1.21,3.59,1.65,7.31,2.87,11.1,3.67,.54,.11,1.08,.21,1.62,.31,5.3,.93,10.7,1.04,16.02,.31,.58-.08,1.17-.17,1.75-.27,3.19-.55,6.35-1.4,9.41-2.54,.83-.31,1.67-.65,2.49-1.01,.28-.12,.55-.25,.83-.37,.82-.37,1.63-.77,2.43-1.19,.27-.14,.54-.28,.8-.43,.8-.43,1.59-.89,2.37-1.36l3.82-2.34c1.31-.8,2.65-1.54,4.01-2.21,.54-.27,1.09-.53,1.64-.78,.55-.25,1.1-.49,1.65-.71,.28-.12,.55-.23,.84-.34,.55-.21,1.11-.43,1.67-.62h0c.53-.19,1.05-.36,1.58-.53,.25-.08,.49-.15,.74-.23,.28-.08,.55-.16,.83-.24,.3-.09,.6-.17,.91-.25,.2-.05,.4-.1,.6-.15,1.78-.45,3.57-.8,5.38-1.05,.01,0,.02,0,.04,0,16.31-2.29,33.23,3.26,45.12,15.89l.62,.66c.46,.48,.9,.97,1.33,1.47,8.34,9.55,12.64,22.02,12.64,34.74Z"/>
  <rect class="cls-8" x="431.09" y="271.61" width="248.76" height="78.73" rx="39.37" ry="39.37"/>
  <g>
    <text class="cls-3" transform="translate(459.94 326.21)"><tspan x="0" y="0">$</tspan></text>
    <text class="cls-2" transform="translate(492.11 334.72)"><tspan class="cls-6" x="0" y="0">2</tspan><tspan class="cls-10" x="36.39" y="0">4</tspan><tspan class="cls-19" x="77.53" y="0">50</tspan></text>
  </g>
  <text class="cls-5" transform="translate(172.7 303.15)"><tspan x="0" y="0">6 </tspan><tspan class="cls-16" x="32.9" y="0">p</tspan><tspan class="cls-20" x="58.73" y="0">o</tspan><tspan class="cls-12" x="80.85" y="0">r</tspan><tspan class="cls-11" x="101.74" y="0">c</tspan><tspan class="cls-18" x="123.7" y="0">i</tspan><tspan class="cls-20" x="134.19" y="0">o</tspan><tspan class="cls-13" x="156.3" y="0">n</tspan><tspan class="cls-1" x="180.19" y="0">e</tspan><tspan x="201.54" y="0">s</tspan><tspan class="cls-9" x="39.82" y="37.99">d</tspan><tspan x="64.66" y="37.99">e </tspan><tspan class="cls-21" x="94.67" y="37.99">p</tspan><tspan class="cls-1" x="120.51" y="37.99">o</tspan><tspan class="cls-22" x="143.91" y="37.99">s</tspan><tspan class="cls-17" x="162.19" y="37.99">t</tspan><tspan class="cls-15" x="178.71" y="37.99">r</tspan><tspan x="199.61" y="37.99">e</tspan></text>
  <g>
    <polygon class="cls-7" points="345.85 136.82 532.39 85.09 471.86 63.84 285.17 114.93 345.85 136.82"/>
    <polygon class="cls-7" points="285.17 167.26 285.17 114.93 345.85 136.82 345.85 189.15 285.17 167.26"/>
    <g>
      <path class="cls-4" d="M325.97,153.24c.4-.41,.56-1,.47-1.64,0-.52-.16-1.1-.51-1.7-.04-.08-.07-.11-.11-.19-.67-1.16-.68-2.33-.01-3.01,.06-.06,.09-.09,.15-.16,.84-.86,.6-2.44-.57-3.79-.02-.02-.03-.03-.04-.05-.03-.04-.06-.07-.1-.11-.62-.68-1.43-1.21-2.26-1.51-1.14-.41-1.71-.62-2.84-1.03-.79-.28-1.18-.43-1.97-.71-1-.36-1.5-.54-2.5-.9-.14-.05-.2-.07-.34-.12-1-.36-1.5-.54-2.5-.9-.79-.28-1.18-.43-1.97-.71-1.14-.41-1.71-.62-2.84-1.03-.83-.3-1.64-.35-2.26-.12-.03,.01-.06,.03-.1,.04-.02,0-.03,.01-.04,.02-1.17,.51-1.41,1.92-.57,3.38,.06,.11,.09,.16,.15,.27,.67,1.16,.66,2.32-.01,3-.04,.04-.07,.07-.11,.11-.34,.35-.51,.81-.51,1.33-.08,.59,.07,1.28,.48,1.98,.06,.11,.09,.16,.15,.27,.67,1.16,.66,2.32-.01,3-.04,.04-.07,.07-.11,.11-.85,.86-.61,2.46,.57,3.82,.04,.05,.06,.07,.1,.12,.27,.31,.57,.59,.89,.83,.43,.32,.9,.57,1.37,.74,.92,.33,1.38,.5,2.3,.83,1.22,.44,1.83,.66,3.04,1.1,.79,.28,1.18,.43,1.97,.71,.13,.05,.2,.07,.33,.12,.79,.28,1.18,.43,1.97,.71,1.22,.44,1.83,.66,3.05,1.1,.92,.33,1.38,.5,2.3,.83,.47,.17,.94,.26,1.37,.25,.32,0,.62-.07,.89-.19,.04-.02,.06-.03,.1-.04,1.19-.51,1.43-1.93,.57-3.41-.04-.08-.07-.11-.11-.19-.67-1.16-.68-2.33-.01-3.01,.06-.06,.09-.09,.15-.16Z"/>
      <path class="cls-14" d="M321.51,152.14c0,1.76-1.45,2.54-4.88,1.31-3.43-1.24-5.54-2-5.57-2.01-.55-.2-.8-.42-.81-.74-.02-.27,.11-.42,.57-.79,.32-.26,.34-.74,.34-1.78v-3.72c0-1.03-.02-1.53-.34-2.03-.46-.7-.58-.93-.57-1.19,.02-.3,.27-.37,.81-.17,.04,.01,2.9,1.05,4.67,1.69,2.71,.98,4.69,2.6,4.69,4.36,0,1.18-.74,1.8-2.16,1.53,2,.78,3.26,2.35,3.26,3.56Zm-7.01-6.4c0,.58,.21,.93,.76,1.12,.04,.01,.23,.08,.25,.09,.94,.34,1.47-.14,1.47-.93s-.53-1.67-1.47-2c-.02,0-.21-.08-.25-.09-.55-.2-.76,0-.76,.57v1.24Zm3.34,5.08c0-1.03-.85-1.97-2.04-2.4-.02,0-.21-.08-.3-.11-.81-.29-1.01-.23-1.01,.5v1.59c0,.74,.19,.95,1.01,1.24,.09,.03,.28,.1,.3,.11,1.18,.43,2.04,.09,2.04-.93Z"/>
    </g>
    <polygon class="cls-7" points="532.39 137.43 532.39 85.09 345.85 136.82 345.85 189.15 532.39 137.43"/>
    <g>
      <g>
        <path class="cls-4" d="M413.81,155.32c.29-.51,.44-.77,.73-1.28,.76,.42,1.22,1.25,1.2,2.39-.03,2.02-1.57,3.88-3.54,4.39-1.97,.51-3.45-.55-3.42-2.58,.02-1.14,.5-2.23,1.29-3.05,.28,.36,.42,.55,.69,.91-.44,.47-.73,1.1-.75,1.81-.02,1.42,1.09,1.86,2.2,1.57,1.12-.29,2.26-1.32,2.28-2.74,.01-.71-.27-1.19-.69-1.44Z"/>
        <path class="cls-4" d="M416.91,148.39c-1.08,.58-1.62,.87-2.7,1.45,0,.03-.02,.07-.03,.11-.11,.43-.16,.65-.27,1.08,.93,0,1.4,0,2.33,0-.14,.55-.21,.82-.34,1.36-2.59,0-3.88,0-6.47,0,.25-.98,.37-1.47,.61-2.44,.4-1.58,1.55-2.63,2.78-2.63,.81,0,1.32,.48,1.45,1.24,1.21-.69,1.81-1.04,3.02-1.73-.16,.63-.24,.94-.39,1.56Zm-4.08,2.64c.11-.43,.16-.65,.27-1.08,.18-.71,.01-1.23-.63-1.23-.58,0-1.07,.46-1.26,1.23-.11,.43-.16,.65-.27,1.08,.76,0,1.14,0,1.9,0Z"/>
        <path class="cls-4" d="M418.7,141.17c.43,.12,.64,.17,1.06,.29-.75,1.63-1.13,2.44-1.88,4.06-2.36-.64-3.55-.96-5.91-1.6,.74-1.59,1.11-2.39,1.84-3.98,.43,.12,.64,.17,1.06,.29-.49,1.06-.74,1.59-1.23,2.65,.53,.14,.8,.22,1.33,.36,.45-.97,.67-1.45,1.12-2.42,.43,.12,.64,.17,1.06,.29-.45,.97-.67,1.45-1.12,2.42,.55,.15,.83,.23,1.39,.38,.51-1.09,.76-1.64,1.27-2.74Z"/>
        <path class="cls-4" d="M420.5,130.02c1.94,1.34,2.92,2.01,4.86,3.36-.36,.48-.54,.72-.9,1.21-1.29-.89-1.93-1.34-3.22-2.23,.39,1.39,.58,2.09,.97,3.48-.12,.16-.18,.24-.3,.4-1.5,.1-2.25,.14-3.74,.24,1.29,.89,1.93,1.34,3.22,2.23-.36,.48-.54,.72-.89,1.2-1.94-1.34-2.92-2.01-4.86-3.36,.38-.51,.57-.77,.95-1.28,1.59-.1,2.38-.15,3.97-.25-.41-1.48-.61-2.22-1.02-3.71,.38-.52,.58-.77,.96-1.29Z"/>
        <path class="cls-4" d="M429.69,127.99c-.96,.82-1.45,1.23-2.41,2.04,.1,.53,.16,.8,.26,1.33-.48,.41-.72,.61-1.2,1.02-.48-2.73-.71-4.09-1.19-6.82,.55-.47,.83-.71,1.39-1.18,2.16,1.3,3.24,1.94,5.4,3.24-.48,.41-.72,.61-1.2,1.02-.42-.27-.63-.4-1.05-.67Zm-.91-.58l-2.29-1.45c.23,1.16,.34,1.74,.57,2.91,.69-.58,1.03-.88,1.72-1.46Z"/>
        <path class="cls-4" d="M437.3,122.61c.27,.95-.19,2.28-1.88,3.21-1.21,.67-2.43,.79-3.03-.05,.45-.41,.67-.61,1.11-1.02,.19,.3,.71,.54,1.62,.04,.65-.36,1.1-.88,.95-1.4-.17-.61-.92-.25-2.01,.08-1.39,.41-2.01,.03-2.25-.82-.33-1.15,.41-2.38,1.76-3.12,1.08-.59,2.08-.56,2.62,.23-.46,.38-.69,.57-1.14,.95-.17-.28-.6-.46-1.25-.1-.54,.29-.91,.8-.77,1.29,.2,.69,1.05,.33,1.69,.13,1.63-.51,2.31-.4,2.59,.59Z"/>
        <path class="cls-4" d="M448.36,114.89c-.28,2.79-.43,4.19-.71,6.98-.52,.09-.78,.13-1.3,.22,.12-1.16,.18-1.73,.29-2.89-1.11,.19-1.66,.28-2.77,.47-.12,1.16-.18,1.73-.29,2.89-.52,.09-.78,.13-1.3,.22,.28-2.79,.43-4.19,.71-6.98,.52-.09,.78-.13,1.3-.22-.12,1.13-.17,1.7-.29,2.83,1.11-.19,1.66-.28,2.77-.47,.11-1.13,.17-1.7,.29-2.83,.52-.09,.78-.13,1.3-.22Z"/>
        <path class="cls-4" d="M453.47,120.95c-.16,.51-.25,.76-.41,1.27-1.49-.13-2.24-.2-3.73-.33,.91-2.82,1.36-4.23,2.27-7.05,1.46,.13,2.19,.19,3.65,.32-.16,.51-.25,.76-.41,1.27-.97-.09-1.46-.13-2.43-.21-.21,.64-.31,.95-.51,1.59,.89,.08,1.33,.12,2.22,.2-.16,.51-.25,.76-.41,1.27-.89-.08-1.33-.12-2.22-.2-.21,.66-.32,.99-.53,1.65,1,.09,1.51,.13,2.51,.22Z"/>
        <path class="cls-4" d="M458.42,122.48c-.25,.49-.38,.73-.63,1.22-1.32-.46-1.99-.69-3.31-1.15,1.41-2.71,2.11-4.07,3.52-6.78,.44,.15,.66,.23,1.1,.38-1.15,2.23-1.73,3.34-2.88,5.56,.88,.31,1.32,.46,2.21,.76Z"/>
        <path class="cls-4" d="M462.82,125.16c-.78-.58-1.17-.87-1.95-1.44-.5,.39-.76,.59-1.26,.98-.39-.29-.59-.43-.98-.72,2.58-1.95,3.87-2.92,6.46-4.87,.45,.33,.67,.5,1.12,.83-1.22,2.96-1.82,4.44-3.04,7.39-.39-.29-.59-.43-.98-.72,.25-.58,.38-.87,.63-1.45Zm.54-1.27c.54-1.27,.81-1.9,1.36-3.17-1.1,.85-1.65,1.28-2.75,2.14,.56,.41,.84,.62,1.4,1.03Z"/>
        <path class="cls-4" d="M469.59,129.9c-1.72,1.47-3.58,1.5-4.69-.16-.41-.62-.62-.94-1.04-1.56,2.34-2,3.5-3,5.84-4.99,.41,.62,.62,.94,1.04,1.56,1.11,1.67,.57,3.69-1.15,5.16Zm-.65-.97c1.3-1.11,1.35-2.38,.75-3.29-.16-.23-.23-.35-.39-.59-1.49,1.28-2.24,1.92-3.74,3.2,.16,.23,.23,.35,.39,.59,.6,.91,1.69,1.2,2.99,.09Z"/>
        <path class="cls-4" d="M469.43,136.45c-.28-1.01-.42-1.51-.71-2.52-.56,.12-.84,.18-1.4,.29-.14-.5-.21-.76-.35-1.26,2.85-.54,4.27-.8,7.11-1.34,.16,.58,.24,.87,.41,1.45-2.35,2.3-3.53,3.45-5.88,5.75-.14-.5-.21-.76-.35-1.26,.47-.45,.7-.67,1.17-1.11Zm1.02-.97c1.02-.97,1.54-1.46,2.56-2.44-1.23,.25-1.84,.38-3.06,.63,.2,.72,.3,1.08,.51,1.8Z"/>
        <path class="cls-4" d="M470.65,144.38c-1.05,.31-2.08-.15-2.11-1.92-.02-1.27,.48-2.56,1.59-3.21,.17,.46,.25,.69,.41,1.16-.38,.21-.87,.76-.86,1.71,.01,.68,.28,1.15,.85,.98,.67-.2,.7-.98,.95-2.13,.31-1.46,.99-2.12,1.92-2.4,1.27-.37,2.07,.38,2.09,1.79,.02,1.13-.52,2.19-1.54,2.78-.13-.48-.2-.71-.33-1.19,.35-.18,.74-.65,.73-1.33,0-.56-.3-.94-.84-.79-.76,.22-.85,1.12-.98,1.79-.34,1.72-.79,2.43-1.87,2.75Z"/>
      </g>
      <g>
        <path class="cls-4" d="M433.91,143.83c0,1.57-1.04,2.96-2.8,3.45-.66,.18-.98,.27-1.64,.45v-5.34c.66-.18,.98-.27,1.64-.45,1.75-.49,2.8,.32,2.8,1.9Zm-1.02,.28c0-1.19-.82-1.48-1.77-1.22-.25,.07-.37,.1-.62,.17v3.42c.25-.07,.37-.1,.62-.17,.95-.26,1.77-1.01,1.77-2.2Z"/>
        <path class="cls-4" d="M438.48,144.28v.96c-1.24,.34-1.86,.52-3.1,.86v-5.34c1.21-.34,1.82-.51,3.04-.84v.96c-.81,.22-1.21,.34-2.02,.56v1.21c.74-.21,1.11-.31,1.85-.51v.96c-.74,.2-1.11,.31-1.85,.51v1.25c.84-.23,1.25-.35,2.09-.58Z"/>
        <path class="cls-4" d="M443.77,142.22c0,.83-.59,1.81-1.96,2.19-.99,.27-1.86,.1-2.12-.71,.39-.23,.59-.35,.98-.59,.07,.28,.39,.59,1.13,.39,.53-.15,.95-.47,.95-.93,0-.53-.6-.41-1.43-.38-1.06,.03-1.41-.42-1.41-1.16,0-1.01,.76-1.84,1.86-2.15,.88-.24,1.57,0,1.8,.76-.4,.21-.59,.31-.99,.52-.06-.27-.33-.5-.86-.36-.44,.12-.8,.45-.8,.88,0,.6,.67,.5,1.16,.48,1.25-.06,1.7,.18,1.7,1.05Z"/>
        <path class="cls-4" d="M449.55,139.5c0,1.57-1.05,2.96-2.8,3.45-.66,.18-.98,.27-1.64,.45v-5.34c.66-.18,.98-.27,1.64-.45,1.75-.49,2.8,.32,2.8,1.9Zm-1.02,.28c0-1.19-.82-1.48-1.77-1.22-.25,.07-.37,.1-.62,.17v3.42c.25-.07,.37-.1,.62-.17,.95-.26,1.77-1.01,1.77-2.2Z"/>
        <path class="cls-4" d="M454.12,139.94v.96c-1.24,.34-1.86,.52-3.1,.86v-5.34c1.21-.34,1.82-.51,3.04-.84v.96c-.81,.22-1.21,.34-2.02,.56v1.21c.74-.21,1.11-.31,1.85-.51v.96c-.74,.21-1.11,.31-1.85,.51v1.25c.84-.23,1.25-.35,2.09-.58Z"/>
        <path class="cls-4" d="M435.29,148.44v5.34c-.41,.11-.61,.17-1.02,.28v-4.14c-.37,.36-.55,.53-.92,.89-.17-.24-.26-.36-.44-.6,.65-.63,.97-.94,1.62-1.56,.3-.08,.46-.13,.76-.21Z"/>
        <path class="cls-4" d="M436.83,149.8c0-1.06,.79-2.1,1.92-2.41,1.13-.31,1.92,.29,1.92,1.35,0,.74-.39,1.39-.59,1.73-.53,.94-.8,1.41-1.33,2.35-.45,.12-.67,.19-1.11,.31,.5-.84,.75-1.26,1.25-2.09-.04,.01-.08,.02-.14,.04-1.07,.3-1.92-.13-1.92-1.28Zm1.01-.28c0,.52,.37,.82,.91,.67,.5-.14,.92-.61,.92-1.18s-.45-.81-.92-.68c-.47,.13-.91,.6-.91,1.18Z"/>
        <path class="cls-4" d="M445.73,149.31c0,1.01-.83,1.91-1.97,2.22-1.13,.31-1.97-.13-1.97-1.13,0-.58,.32-1.11,.83-1.51-.41-.14-.63-.49-.63-.93,0-.79,.65-1.64,1.77-1.96,1.13-.31,1.77,.19,1.77,.98,0,.44-.21,.91-.62,1.28,.5,.12,.83,.47,.83,1.05Zm-1.06,.24c0-.46-.35-.7-.91-.54-.56,.16-.92,.59-.92,1.05,0,.4,.28,.7,.92,.52,.63-.18,.91-.63,.91-1.03Zm-1.69-1.75c0,.45,.35,.58,.78,.46,.42-.12,.78-.45,.78-.9s-.39-.59-.78-.49c-.39,.11-.78,.45-.78,.92Z"/>
        <path class="cls-4" d="M450.32,148.65v.96c-1.34,.37-2.01,.56-3.35,.93v-.76c.5-.69,.79-1.11,1.27-1.81,.46-.66,.98-1.39,.98-1.86,0-.38-.22-.63-.65-.52-.47,.13-.66,.53-.72,.86-.38,.02-.57,.03-.95,.04,.19-.94,.87-1.62,1.76-1.86,.97-.27,1.59,.32,1.59,1.16,0,.75-.65,1.65-1.86,3.39,.78-.22,1.16-.32,1.94-.54Z"/>
      </g>
    </g>
    <g>
      <path class="cls-4" d="M430.38,94.14c-.2-.45-.93-.85-1.98-1.14-.79-.27-1.84-.49-3.09-.6-.16-.01-.24-.02-.4-.04-2.46-.22-4.22-.83-4.56-1.58-.03-.07-.05-.1-.08-.17-.43-.94-3.2-1.64-6.31-1.67-.05,0-.07,0-.11,0-.08,0-.17,0-.25,0-1.58,0-3.02,.21-4.23,.54-1.66,.45-2.49,.68-4.14,1.13-1.15,.31-1.72,.47-2.87,.79-1.46,.4-2.19,.6-3.65,1-.2,.05-.3,.08-.5,.14-1.46,.4-2.19,.6-3.65,1-1.15,.31-1.72,.47-2.87,.79-1.66,.45-2.49,.68-4.14,1.13-1.21,.33-2.65,.76-4.25,1.2-.08,.02-.17,.05-.25,.07-.05,.01-.07,.02-.11,.03-3.13,.86,1.04,1.83,4.12,2.12,.22,.02,.34,.03,.56,.05,2.45,.23,4.2,.85,4.52,1.6,.02,.05,.03,.07,.05,.12,.16,.38,.69,.73,1.48,1.01,.8,.36,2,.64,3.49,.78,.22,.02,.34,.03,.56,.05,2.45,.23,4.2,.85,4.52,1.6,.02,.05,.03,.07,.05,.12,.41,.96,3.21,1.67,6.34,1.69,.11,0,.16,0,.27,0,.71,0,1.38-.03,2.01-.09,.84-.08,1.6-.23,2.29-.42,1.34-.37,2.01-.56,3.35-.93,1.77-.49,2.65-.74,4.42-1.23,1.14-.32,1.72-.48,2.86-.79,.19-.05,.29-.08,.48-.13,1.14-.32,1.72-.48,2.86-.79,1.77-.49,2.65-.74,4.42-1.23,1.34-.37,2.01-.56,3.35-.93,.69-.19,1.45-.41,2.29-.66,.63-.18,1.31-.38,2.03-.58,.11-.03,.16-.05,.27-.08,3.16-.88-1-1.84-4.12-2.12-.16-.01-.24-.02-.4-.04-2.46-.22-4.22-.83-4.56-1.58-.03-.07-.05-.1-.08-.17Z"/>
      <path class="cls-14" d="M424.06,96.18c2.66,.93,2.33,2.2-3.13,3.56-5.46,1.36-8.8,2.2-8.86,2.22-.87,.22-1.47,.24-1.97,.09-.43-.14-.53-.29-.61-.75-.06-.32-.77-.59-2.34-1.15-2.25-.79-3.37-1.19-5.62-1.98-1.55-.55-2.32-.8-3.41-.88-1.54-.1-2.01-.15-2.38-.3-.44-.17-.27-.35,.6-.57,.06-.01,4.61-1.15,7.42-1.85,4.3-1.07,8.82-1.37,11.48-.44,1.78,.62,1.95,1.39,.06,2.08,3.27-.76,6.95-.67,8.77-.03Zm-16.98,.73c.88,.31,1.62,.37,2.49,.15,.06-.01,.37-.09,.39-.1,1.49-.37,1.32-.94,.13-1.35-1.21-.43-3.07-.57-4.56-.2-.03,0-.34,.08-.39,.1-.87,.22-.78,.45,.07,.75,.04,.02,1.82,.64,1.87,.66Zm11.16,.73c-1.55-.54-3.87-.55-5.75-.08-.03,0-.34,.08-.48,.12-1.29,.32-1.4,.47-.3,.86,.16,.06,2.27,.8,2.41,.84,1.12,.39,1.64,.39,2.93,.07,.14-.04,.45-.11,.48-.12,1.88-.47,2.27-1.15,.71-1.69Z"/>
    </g>
  </g>
</svg>