<?xml version="1.0" encoding="UTF-8"?>
<svg id="Capa_2" data-name="Capa 2" xmlns="http://www.w3.org/2000/svg" viewBox="0 0 1080 256.93">
  <defs>
    <style>
      .cls-1 {
        fill: #fcc10c;
      }

      .cls-2 {
        fill: #55131d;
      }

      .cls-3 {
        fill: #f7f2ea;
      }
    </style>
  </defs>
  <g id="Capa_1-2" data-name="Capa 1">
    <g>
      <rect class="cls-3" y="0" width="1080" height="144.27" transform="translate(1080 144.27) rotate(180)"/>
      <g>
        <path class="cls-1" d="M766.2,251.82c6.87,4.17,14.7,5.73,22.24,4.88,6.61,.15,13.3-1.54,19.25-5.2l1.83-1.12c11.26-6.92,25.44-6.96,36.74-.11l2.58,1.56c6.84,4.15,14.62,5.72,22.13,4.89,6.36,0,12.77-1.7,18.49-5.22l1.83-1.12c11.26-6.92,25.44-6.96,36.74-.11l2.58,1.56c14.17,8.6,32.44,6.15,43.84-5.87l.42-.44c.31-.32,.61-.65,.9-.98,5.62-6.39,8.52-14.73,8.52-23.24V67.25c0-8.51-2.9-16.85-8.52-23.24-.29-.33-.59-.66-.9-.98l-.42-.44c-11.4-12.02-29.67-14.46-43.84-5.87l-2.58,1.56c-11.3,6.85-25.48,6.81-36.74-.11l-1.83-1.12c-5.73-3.52-12.13-5.22-18.49-5.22-7.51-.83-15.3,.74-22.13,4.89l-2.58,1.56c-11.3,6.85-25.48,6.81-36.74-.11l-1.83-1.12c-5.96-3.66-12.65-5.35-19.25-5.2-7.54-.85-15.37,.71-22.24,4.88l-2.58,1.56c-11.3,6.85-25.48,6.81-36.74-.11l-1.83-1.12c-5.73-3.52-12.13-5.22-18.49-5.22-7.51-.83-15.3,.74-22.13,4.89l-2.58,1.56c-11.3,6.85-25.48,6.81-36.74-.11l-1.83-1.12c-5.96-3.66-12.65-5.35-19.25-5.2-7.54-.85-15.37,.71-22.24,4.88l-2.58,1.56c-11.3,6.85-25.48,6.81-36.74-.11l-1.83-1.12c-5.73-3.52-12.13-5.22-18.49-5.22-7.51-.83-15.3,.74-22.13,4.89l-2.58,1.56c-11.3,6.85-25.48,6.81-36.74-.11l-1.83-1.12c-5.96-3.66-12.65-5.35-19.25-5.2-7.54-.85-15.37,.71-22.24,4.88l-2.58,1.56c-11.3,6.85-25.48,6.81-36.74-.11l-1.83-1.12c-5.73-3.52-12.13-5.22-18.49-5.22-7.51-.83-15.3,.74-22.13,4.89l-2.58,1.56c-11.3,6.85-25.48,6.81-36.74-.11l-1.83-1.12c-5.96-3.66-12.65-5.35-19.25-5.2-7.54-.85-15.37,.71-22.24,4.88l-2.58,1.56c-11.3,6.85-25.48,6.81-36.74-.11l-1.83-1.12c-5.73-3.52-12.13-5.22-18.49-5.22-7.51-.83-15.3,.74-22.13,4.89l-2.58,1.56c-11.3,6.85-25.48,6.81-36.74-.11l-1.83-1.12c-14.25-8.76-32.72-6.29-44.16,5.9l-1,1.06c-2.61,2.79-4.68,5.89-6.21,9.18-2.05,4.4-2.97,9.24-2.97,14.09V221.26c0,4.85,.93,9.69,2.97,14.09,1.53,3.29,3.6,6.39,6.21,9.18l1,1.06c11.44,12.2,29.9,14.67,44.16,5.9l1.83-1.12c11.26-6.92,25.44-6.96,36.74-.11l2.58,1.56c6.84,4.15,14.62,5.72,22.13,4.89,6.36,0,12.77-1.7,18.49-5.22l1.83-1.12c11.26-6.92,25.44-6.96,36.74-.11l2.58,1.56c6.87,4.17,14.7,5.73,22.24,4.88,6.61,.15,13.3-1.54,19.25-5.2l1.83-1.12c11.26-6.92,25.44-6.96,36.74-.11l2.58,1.56c6.84,4.15,14.62,5.72,22.13,4.89,6.36,0,12.77-1.7,18.49-5.22l1.83-1.12c11.26-6.92,25.44-6.96,36.74-.11l2.58,1.56c6.87,4.17,14.7,5.73,22.24,4.88,6.61,.15,13.3-1.54,19.25-5.2l1.83-1.12c11.26-6.92,25.44-6.96,36.74-.11l2.58,1.56c6.84,4.15,14.62,5.72,22.13,4.89,6.36,0,12.77-1.7,18.49-5.22l1.83-1.12c11.26-6.92,25.44-6.96,36.74-.11l2.58,1.56c6.87,4.17,14.7,5.73,22.24,4.88,6.61,.15,13.3-1.54,19.25-5.2l1.83-1.12c11.26-6.92,25.44-6.96,36.74-.11l2.58,1.56c6.84,4.15,14.62,5.72,22.13,4.89,6.36,0,12.77-1.7,18.49-5.22l1.83-1.12c11.26-6.92,25.44-6.96,36.74-.11l2.58,1.56Z"/>
        <g>
          <path class="cls-2" d="M486.57,170.02v2.81h-26.63v-2.81c6.33,0,6.94-1.76,4.83-6.94l-6.5-16.17h-20.74l-6.5,16.17c-2.11,5.19-1.49,6.94,4.83,6.94v2.81h-18.46v-2.81c3.43,0,6.59-1.76,8.7-6.94l17.93-44.74-.09,.09-2.29,5.71c1.93-4.83,1.23-6.5-4.66-6.5v-2.81h21.53l19.34,48.25c2.11,5.19,5.27,6.94,8.7,6.94Zm-30.15-27.69l-8.53-21.27-8.53,21.27h17.05Zm-14.94-17.75l.18-.44-.18,.44Z"/>
          <path class="cls-2" d="M517.42,166.24c-1.76,5.01-5.89,7.47-13.1,7.47s-14.94-2.55-14.94-14.24v-26.02h-6.33v-4.57c6.77-.88,10.72-2.81,10.72-14.06h7.73v14.06h13.27c0,2.81,0,4.57-4.22,4.57h-9.05v24.43c0,6.94,.09,11.25,3.6,11.25,2.2,0,3.16-1.14,3.34-4.66l8.96,1.76Z"/>
          <path class="cls-2" d="M564.61,148.31l-12.13-1.76c4.57-10.28,2.99-13.97-1.23-13.97-7.65,0-13.45,12.39-13.45,24.43v5.27c0,5.62,1.23,7.73,4.39,7.73v2.81h-20.92v-2.81c3.16,0,4.39-2.11,4.39-7.73v-22.85c0-5.62-1.23-7.73-4.39-7.73v-2.81h5.8c6.86,0,10.72,.44,10.72,7.29v5.36h.88c1.76-5.62,7.12-13.54,16.88-13.54s12.57,7.12,9.05,20.3Z"/>
          <path class="cls-2" d="M616.29,165.98v3.34c-1.49,2.29-4.83,3.52-8.17,3.52s-7.82-.88-8.35-5.89v-.62h-.88c-2.64,4.13-8.17,7.38-16,7.38-9.23,0-14.15-3.6-14.15-10.99,0-12.74,18.63-15.73,30.94-17.14-.35-9.05-2.02-13.01-9.05-13.01s-10.02,4.04-7.38,10.81l-11.6,2.29c-2.64-9.67,4.48-17.67,20.21-17.67,14.33,0,20.04,5.89,20.04,21.62v12.3c0,4.92,1.58,5.71,4.39,4.04Zm-16.52-11.07v-4.83c-10.37,1.14-18.9,5.01-18.9,12.13,0,4.66,1.93,6.94,6.24,6.94,7.56,0,12.66-7.38,12.66-13.18v-1.05Z"/>
          <path class="cls-2" d="M640.11,128.01c11.16,0,22.41,3.87,18.9,16.26l-12.13-1.76c2.64-8-2.11-9.93-6.5-9.93-5.36,0-7.21,2.64-7.21,5.71,0,4.04,2.02,5.62,9.84,7.82,9.32,2.55,17.84,4.83,17.84,14.06,0,10.11-9.05,13.54-19.07,13.54-12.22,0-24.52-3.87-21.01-18.72l12.13,1.76c-3.52,10.02,1.76,12.39,8.17,12.39,5.45,0,7.65-2.9,7.65-6.77,0-5.01-4.31-6.42-10.63-8.35-9.67-2.72-17.05-5.1-17.05-13.71s8.35-12.3,19.07-12.3Z"/>
        </g>
      </g>
    </g>
  </g>
</svg>