<?xml version="1.0" encoding="UTF-8"?>
<svg id="Capa_2" data-name="Capa 2" xmlns="http://www.w3.org/2000/svg" viewBox="0 0 888.57 225.32">
  <defs>
    <style>
      .cls-1 {
        fill: #fcc10c;
      }

      .cls-2 {
        letter-spacing: -.02em;
      }

      .cls-3 {
        letter-spacing: -.08em;
      }

      .cls-4 {
        letter-spacing: -.05em;
      }

      .cls-5 {
        letter-spacing: -.05em;
      }

      .cls-6 {
        letter-spacing: -.02em;
      }

      .cls-7 {
        letter-spacing: -.04em;
      }

      .cls-8 {
        fill: #55131d;
        font-family: PPWoodland-Bold, 'PP Woodland';
        font-size: 87.88px;
        font-weight: 700;
      }
    </style>
  </defs>
  <g id="Capa_1-2" data-name="Capa 1">
    <g>
      <path class="cls-1" d="M670.49,220.21c6.87,4.17,14.7,5.73,22.24,4.88,6.61,.15,13.3-1.54,19.25-5.2l1.83-1.12c11.26-6.92,25.44-6.96,36.74-.11l2.58,1.56c6.84,4.15,14.62,5.72,22.13,4.89,6.36,0,12.77-1.7,18.49-5.22l1.83-1.12c11.26-6.92,25.44-6.96,36.74-.11l2.58,1.56c14.17,8.6,32.44,6.15,43.84-5.87l.42-.44c.31-.32,.61-.65,.9-.98,5.62-6.39,8.52-14.73,8.52-23.24V35.64c0-8.51-2.9-16.85-8.52-23.24-.29-.33-.59-.66-.9-.98l-.42-.44c-11.4-12.02-29.67-14.46-43.84-5.87l-2.58,1.56c-11.3,6.85-25.48,6.81-36.74-.11l-1.83-1.12c-5.73-3.52-12.13-5.22-18.49-5.22-7.51-.83-15.3,.74-22.13,4.89l-2.58,1.56c-11.3,6.85-25.48,6.81-36.74-.11l-1.83-1.12c-5.96-3.66-12.65-5.35-19.25-5.2-7.54-.85-15.37,.71-22.24,4.88l-2.58,1.56c-11.3,6.85-25.48,6.81-36.74-.11l-1.83-1.12c-5.73-3.52-12.13-5.22-18.49-5.22-7.51-.83-15.3,.74-22.13,4.89l-2.58,1.56c-11.3,6.85-25.48,6.81-36.74-.11l-1.83-1.12c-5.96-3.66-12.65-5.35-19.25-5.2-7.54-.85-15.37,.71-22.24,4.88l-2.58,1.56c-11.3,6.85-25.48,6.81-36.74-.11l-1.83-1.12c-5.73-3.52-12.13-5.22-18.49-5.22-7.51-.83-15.3,.74-22.13,4.89l-2.58,1.56c-11.3,6.85-25.48,6.81-36.74-.11l-1.83-1.12c-5.96-3.66-12.65-5.35-19.25-5.2-7.54-.85-15.37,.71-22.24,4.88l-2.58,1.56c-11.3,6.85-25.48,6.81-36.74-.11l-1.83-1.12c-5.73-3.52-12.13-5.22-18.49-5.22-7.51-.83-15.3,.74-22.13,4.89l-2.58,1.56c-11.3,6.85-25.48,6.81-36.74-.11l-1.83-1.12C212.8,1.77,206.11,.08,199.5,.23c-7.54-.85-15.37,.71-22.24,4.88l-2.58,1.56c-11.3,6.85-25.48,6.81-36.74-.11l-1.83-1.12C130.39,1.91,123.98,.21,117.62,.22c-7.51-.83-15.3,.74-22.13,4.89l-2.58,1.56c-11.3,6.85-25.48,6.81-36.74-.11l-1.83-1.12C40.09-3.33,21.62-.86,10.19,11.34l-1,1.06c-2.61,2.79-4.68,5.89-6.21,9.18C.93,25.98,0,30.82,0,35.67V189.65c0,4.85,.93,9.69,2.97,14.09,1.53,3.29,3.6,6.39,6.21,9.18l1,1.06c11.44,12.2,29.9,14.67,44.16,5.9l1.83-1.12c11.26-6.92,25.44-6.96,36.74-.11l2.58,1.56c6.84,4.15,14.62,5.72,22.13,4.89,6.36,0,12.77-1.7,18.49-5.22l1.83-1.12c11.26-6.92,25.44-6.96,36.74-.11l2.58,1.56c6.87,4.17,14.7,5.73,22.24,4.88,6.61,.15,13.3-1.54,19.25-5.2l1.83-1.12c11.26-6.92,25.44-6.96,36.74-.11l2.58,1.56c6.84,4.15,14.62,5.72,22.13,4.89,6.36,0,12.77-1.7,18.49-5.22l1.83-1.12c11.26-6.92,25.44-6.96,36.74-.11l2.58,1.56c6.87,4.17,14.7,5.73,22.24,4.88,6.61,.15,13.3-1.54,19.25-5.2l1.83-1.12c11.26-6.92,25.44-6.96,36.74-.11l2.58,1.56c6.84,4.15,14.62,5.72,22.13,4.89,6.36,0,12.77-1.7,18.49-5.22l1.83-1.12c11.26-6.92,25.44-6.96,36.74-.11l2.58,1.56c6.87,4.17,14.7,5.73,22.24,4.88,6.61,.15,13.3-1.54,19.25-5.2l1.83-1.12c11.26-6.92,25.44-6.96,36.74-.11l2.58,1.56c6.84,4.15,14.62,5.72,22.13,4.89,6.36,0,12.77-1.7,18.49-5.22l1.83-1.12c11.26-6.92,25.44-6.96,36.74-.11l2.58,1.56Z"/>
      <text class="cls-8" transform="translate(259.16 143.86)"><tspan class="cls-2" x="0" y="0">D</tspan><tspan class="cls-5" x="62.22" y="0">e</tspan><tspan class="cls-6" x="108.63" y="0">l</tspan><tspan class="cls-4" x="134.29" y="0">i</tspan><tspan class="cls-3" x="157.67" y="0">v</tspan><tspan class="cls-7" x="211.1" y="0">e</tspan><tspan class="cls-6" x="258.38" y="0">r</tspan><tspan x="307.95" y="0">y</tspan></text>
    </g>
  </g>
</svg>