<?xml version="1.0" encoding="UTF-8"?>
<svg id="Capa_2" data-name="Capa 2" xmlns="http://www.w3.org/2000/svg" viewBox="0 0 1080 173.34">
  <defs>
    <style>
      .cls-1 {
        fill: #fcc10c;
      }

      .cls-2 {
        fill: #55131d;
      }

      .cls-3 {
        fill: #f7f2ea;
      }
    </style>
  </defs>
  <g id="Capa_1-2" data-name="Capa 1">
    <g>
      <rect class="cls-3" width="1080" height="173.34"/>
      <path class="cls-1" d="M1080,19.74V173.34H0V19.49c8.02-1.75,16.23-2.15,24.29-1.24,13.92-.32,28.02,3.25,40.56,10.96l3.86,2.37c23.71,14.58,53.59,14.67,77.4,.23l5.42-3.29c14.41-8.73,30.81-12.04,46.63-10.3,13.4,0,26.9,3.57,38.96,10.99l3.85,2.37c23.72,14.58,53.6,14.67,77.4,.24l5.43-3.3c14.47-8.77,30.97-12.07,46.86-10.27,13.93-.32,28.02,3.25,40.57,10.96l3.85,2.37c23.72,14.58,53.6,14.67,77.4,.23l5.43-3.29c14.4-8.73,30.81-12.04,46.63-10.3,13.39,0,26.89,3.57,38.96,10.99l3.85,2.37c23.71,14.58,53.6,14.67,77.4,.24l5.43-3.3c14.47-8.77,30.96-12.07,46.86-10.27,13.92-.32,28.02,3.25,40.57,10.96l3.85,2.37c23.71,14.58,53.59,14.67,77.4,.23l5.43-3.29c14.4-8.73,30.8-12.04,46.62-10.3,13.4,0,26.9,3.57,38.96,10.99l3.85,2.37c23.72,14.58,53.6,14.67,77.4,.24l5.43-3.3c14.47-8.77,30.97-12.07,46.86-10.27,5.54-.13,11.11,.36,16.59,1.49Z"/>
      <g>
        <path class="cls-2" d="M444.16,110.22c0,7.49-5.2,13.07-17.52,13.07-12.31,0-19.87,0-19.99,0-1.97,0-2.86-.57-2.92-1.9-.06-1.14,.38-1.97,2.03-4.25,1.14-1.59,1.21-3.68,1.21-8.12v-15.87c0-4.38-.06-6.47-1.21-8.12-1.65-2.28-2.09-3.05-2.03-4.19,.06-1.33,.95-1.97,2.92-1.97,.13,0,10.41,0,16.76,0,9.71,0,16.82,3.87,16.82,11.36,0,5.01-2.67,8.82-7.74,9.84,7.17,.25,11.68,5.01,11.68,10.16Zm-25.13-16.5c0,2.48,.76,3.62,2.73,3.62h.89c3.36,0,5.27-2.86,5.27-6.22,0-3.43-1.9-6.28-5.27-6.28h-.89c-1.97,0-2.73,1.21-2.73,3.62,0,.13,0,5.14,0,5.27Zm12,16.5c0-4.38-3.05-7.11-7.3-7.11-.06,0-.76,0-1.08,0-2.92,0-3.62,.57-3.62,3.68,0,.44,0,6.41,0,6.79,0,3.17,.7,3.74,3.62,3.74h1.08c4.25,0,7.3-2.73,7.3-7.11Z"/>
        <path class="cls-2" d="M481.73,119.04c-.13,2.73-3.62,4.82-7.17,4.82-4.7,0-7.11-1.33-8.12-4.06-1.71,2.67-4.32,4.06-8.38,4.06-6.85,0-10.92-3.55-10.92-8.76,0-8.44,7.74-10.92,18.85-10.92,0-.51,0-.89,0-.89,0-3.55-.19-6.35-2.73-6.73-1.84-.25-3.62,.25-4.38,2.67-1.21,3.87-3.68,4.76-6.47,3.81-1.71-.63-3.3-2.67-2.22-5.39,1.84-4.82,8.31-5.97,13.71-5.97,8.76,0,13.65,3.94,13.65,13.2v1.27c0,4.38-.19,8.12,1.21,9.58,1.59,1.65,3.11,1.4,2.98,3.3Zm-15.3-8.95c0-2.03-.83-2.09-2.98-1.71-2.41,.38-4.38,2.22-4.57,5.01-.13,2.67,1.08,4.57,3.87,4.57,2.54,0,3.68-2.03,3.68-5.33,0-1.27,0-1.78,0-2.54Z"/>
        <path class="cls-2" d="M513.33,101.84c-1.71,2.98-6.35,3.74-8.76,.51-1.71-2.28-1.33-4.38-3.49-4.38-1.59,0-1.97,1.21-2.03,3.24,0,2.28,0,5.01,0,7.81,0,4.44,.06,6.85,1.21,8.12,1.78,1.84,2.67,3.05,2.48,4.25-.19,1.27-.95,1.9-2.92,1.9-.32,0-12.57,0-12.63,0-1.97,0-2.86-.57-2.98-1.9-.06-1.14,.38-1.97,2.03-4.25,1.14-1.59,1.21-3.68,1.21-7.93,0-4.32-.06-6.66-1.21-8.25-1.65-2.28-2.09-3.11-2.03-4.25,.13-1.33,1.02-2.16,2.98-2.79,1.9-.63,5.65-1.78,6.35-1.97,3.17-.89,5.01,.32,5.39,3.05,1.71-1.84,4.13-3.3,7.62-3.3,6.79,0,9.33,5.59,6.79,10.16Z"/>
        <path class="cls-2" d="M535.15,121.39c-.13,1.33-1.02,1.9-2.92,1.9-.13,0-12.12,0-12.25,0-1.97,0-2.86-.57-2.92-1.9-.13-1.14,.38-1.97,2.03-4.25,1.14-1.59,1.21-3.68,1.21-8.12,0-4.38-.06-6.47-1.21-8.06-1.65-2.28-2.16-3.11-2.03-4.25,.06-1.33,1.02-2.16,2.92-2.79,1.97-.63,5.71-1.78,6.41-1.97,3.62-1.02,5.52,.7,5.52,4.25,0,1.52,0,7.11,0,12.82,0,4.44,.06,6.54,1.21,8.12,1.65,2.28,2.09,3.11,2.03,4.25Z"/>
        <path class="cls-2" d="M516.51,82.85c0-3.62,3.24-6.54,7.17-6.54,4,0,7.24,2.92,7.24,6.54,0,3.68-3.24,6.6-7.24,6.6-3.94,0-7.17-2.92-7.17-6.6Z"/>
        <path class="cls-2" d="M555.39,121.39c-.06,1.33-.95,1.9-2.92,1.9-.13,0-12.12,0-12.19,0-1.97,0-2.86-.57-2.98-1.9-.06-1.14,.38-1.97,2.03-4.25,1.14-1.59,1.21-3.68,1.21-8.12v-13.27c0-4.44-.06-6.54-1.21-8.12-1.65-2.28-2.09-3.11-2.03-4.25,.13-1.33,1.02-2.16,2.98-2.79,1.9-.63,5.65-1.71,6.35-1.97,3.62-1.02,5.52,.7,5.52,4.32,0,1.9,0,15.3,0,26.09,0,4.44,.06,6.54,1.21,8.12,1.65,2.28,2.16,3.11,2.03,4.25Z"/>
        <path class="cls-2" d="M592.38,119.04c-.13,2.73-3.62,4.82-7.17,4.82-4.7,0-7.11-1.33-8.12-4.06-1.71,2.67-4.32,4.06-8.38,4.06-6.85,0-10.92-3.55-10.92-8.76,0-8.44,7.74-10.92,18.85-10.92,0-.51,0-.89,0-.89,0-3.55-.19-6.35-2.73-6.73-1.84-.25-3.62,.25-4.38,2.67-1.21,3.87-3.68,4.76-6.47,3.81-1.71-.63-3.3-2.67-2.22-5.39,1.84-4.82,8.31-5.97,13.71-5.97,8.76,0,13.65,3.94,13.65,13.2v1.27c0,4.38-.19,8.12,1.21,9.58,1.59,1.65,3.11,1.4,2.98,3.3Zm-15.3-8.95c0-2.03-.83-2.09-2.98-1.71-2.41,.38-4.38,2.22-4.57,5.01-.13,2.67,1.08,4.57,3.87,4.57,2.54,0,3.68-2.03,3.68-5.33,0-1.27,0-1.78,0-2.54Z"/>
        <path class="cls-2" d="M607.22,123.86c-5.01,0-10.35-2.48-10.35-10.73,0-4.7,0-12.44,0-15.42h-2.16c-1.4,0-2.48-1.08-2.48-2.48v-.57c0-1.33,1.08-2.48,2.48-2.48h1.27c5.59,0,2.92-7.68,7.36-7.68,.89,0,2.28,0,2.54,0,2.09,0,2.54,1.02,2.54,2.98,0,.57,0,2.41,0,4.7h5.27c1.33,0,2.48,1.14,2.48,2.48v.57c0,1.4-1.14,2.48-2.48,2.48h-5.27c0,3.68,0,14.98,0,14.98,0,3.43,2.73,4.32,5.71,2.67,1.08-.57,2.22-.7,2.92,.13,2.16,2.54-2.79,8.38-9.84,8.38Z"/>
        <path class="cls-2" d="M633.36,123.86c-5.01,0-10.35-2.48-10.35-10.73,0-4.7,0-12.44,0-15.42h-2.16c-1.4,0-2.48-1.08-2.48-2.48v-.57c0-1.33,1.08-2.48,2.48-2.48h1.27c5.59,0,2.92-7.68,7.36-7.68h2.54c2.09,0,2.54,1.02,2.54,2.98,0,.57,0,2.41,0,4.7h5.27c1.33,0,2.48,1.14,2.48,2.48v.57c0,1.4-1.14,2.48-2.48,2.48h-5.27c0,3.68,0,14.98,0,14.98,0,3.43,2.73,4.32,5.71,2.67,1.08-.57,2.22-.7,2.92,.13,2.16,2.54-2.79,8.38-9.84,8.38Z"/>
        <path class="cls-2" d="M677.53,115.87c-1.9,4.32-6.22,8-13.71,8-8.82,0-17.58-5.01-17.96-15.68-.32-10.92,8.12-16.88,17.64-16.5,9.33,.25,13.77,6.73,14.28,11.93,.44,4.25-.32,5.9-4.38,5.9-3.11,0-15.68,0-15.68,0,1.52,8.12,12.12,9.39,17.26,4.38,1.84-1.78,3.62-.38,2.54,1.97Zm-19.74-13.26c-.19,.7,.13,1.33,.7,1.33h7.43c1.52,0,2.22-1.08,1.71-2.98-.44-1.84-1.52-4.44-5.08-4.13-2.86,.19-4.19,3.11-4.76,5.78Z"/>
        <path class="cls-2" d="M680.49,119.72c0-2.36,1.8-4.1,4.07-4.1,2.27,0,4.05,1.75,4.05,4.1,0,2.36-1.78,4.1-4.05,4.1-2.27,0-4.07-1.75-4.07-4.1Zm7.1-.02c0-1.97-1.15-3.25-3.03-3.25-1.88,0-3.05,1.29-3.05,3.25,0,1.98,1.17,3.27,3.05,3.27,1.88,0,3.03-1.29,3.03-3.27Zm-4.81-2.2h2.08c.97,0,1.56,.44,1.56,1.27,0,.59-.34,.97-.88,1.08v.02c1.1,.19,.7,1.9,.95,1.97v.07s-1.15,0-1.15,0c-.22-.19,.19-1.54-.76-1.54h-.69v1.54s-1.1,0-1.1,0v-4.41Zm1.1,1.97h.76c.44,0,.68-.17,.68-.53,0-.37-.24-.54-.68-.54h-.76v1.07Z"/>
      </g>
    </g>
  </g>
</svg>