<svg xmlns="http://www.w3.org/2000/svg" viewBox="0 0 1080 380" xmlns:v="https://vecta.io/nano"><path d="M1080 380H0V0h1080z" fill="#f7f2ea"/><path d="M1080 0v360.61c-8.02 1.75-16.23 2.15-24.29 1.24-13.92.32-28.02-3.25-40.56-10.96l-3.86-2.37c-23.71-14.58-53.59-14.67-77.4-.23l-5.42 3.29c-14.41 8.73-30.81 12.04-46.63 10.3-13.4 0-26.9-3.57-38.96-10.99l-3.85-2.37c-23.72-14.58-53.6-14.67-77.4-.24l-5.43 3.3c-14.47 8.77-30.97 12.07-46.86 10.27-13.93.32-28.02-3.25-40.57-10.96l-3.85-2.37c-23.72-14.58-53.6-14.67-77.4-.23l-5.43 3.29c-14.4 8.73-30.81 12.04-46.63 10.3-13.39 0-26.89-3.57-38.96-10.99l-3.85-2.37a74.28 74.28 0 0 0-77.4-.24l-5.43 3.3c-14.47 8.77-30.96 12.07-46.86 10.27a74.1 74.1 0 0 1-40.57-10.96l-3.85-2.37c-23.71-14.58-53.59-14.67-77.4-.23l-5.43 3.29c-14.4 8.73-30.8 12.04-46.62 10.3-13.4 0-26.9-3.57-38.96-10.99l-3.85-2.37c-23.72-14.58-53.6-14.67-77.4-.24l-5.43 3.3c-14.47 8.77-30.97 12.07-46.86 10.27-5.54.13-11.11-.36-16.59-1.49V0h1080z" fill="#fcc10c"/><path d="M639.03 189c3.82-6.29 5.26-13.46 4.5-20.38a32.49 32.49 0 0 0-4.8-17.03l-1.04-1.68c-6.37-10.37-6.41-23.42-.1-33.83l1.44-2.37c7.91-13.05 5.66-29.87-5.4-40.36l-.41-.39-.9-.83c-5.88-5.18-13.56-7.85-21.4-7.85h-26.93-18.67-23.71-3.22-23.71-18.67-26.93c-7.84 0-15.52 2.67-21.4 7.85-.31.27-.61.54-.9.83l-.41.39c-11.07 10.5-13.32 27.32-5.4 40.36l1.44 2.37c6.31 10.4 6.27 23.46-.1 33.83l-1.04 1.68c-3.24 5.27-4.81 11.17-4.8 17.03-.76 6.92.69 14.09 4.5 20.38l1.44 2.37c6.31 10.4 6.27 23.46-.1 33.83l-1.04 1.68a32.46 32.46 0 0 0 5.44 40.66l.98.92a32.32 32.32 0 0 0 8.45 5.72c4.05 1.89 8.51 2.74 12.97 2.74h21.82 28.84 18.65 3.16 18.65 28.84 21.82c4.47 0 8.92-.85 12.97-2.74 3.03-1.41 5.88-3.32 8.45-5.72l.98-.92c11.23-10.53 13.5-27.54 5.44-40.66l-1.04-1.68c-6.37-10.37-6.41-23.43-.1-33.83l1.44-2.37z" fill="#55141d"/><path d="M596.77 194.75c0 19.78-13.74 34.53-46.26 34.53h-52.8c-5.2 0-7.54-1.51-7.71-5.03-.17-3.02 1.01-5.2 5.36-11.23 3.02-4.19 3.18-9.72 3.18-21.45v-41.9c0-11.57-.17-17.1-3.18-21.45-4.36-6.03-5.53-8.05-5.36-11.06.17-3.52 2.51-5.2 7.71-5.2h44.25c25.64 0 44.42 10.22 44.42 30 0 13.24-7.04 23.3-20.45 25.98 18.94.67 30.84 13.24 30.84 26.82zm-66.37-43.58c0 6.54 2.01 9.55 7.21 9.55h2.35c8.88 0 13.91-7.54 13.91-16.43 0-9.05-5.03-16.59-13.91-16.59h-2.35c-5.2 0-7.21 3.18-7.21 9.55v13.91zm31.68 43.58c0-11.57-8.05-18.77-19.28-18.77h-2.85c-7.71 0-9.55 1.51-9.55 9.72v17.93c0 8.38 1.84 9.89 9.55 9.89h2.85c11.23 0 19.28-7.21 19.28-18.77z" fill="#fac00f"/></svg>