<?xml version="1.0" encoding="UTF-8"?>
<svg id="Capa_2" data-name="Capa 2" xmlns="http://www.w3.org/2000/svg" viewBox="0 0 1080 380">
  <defs>
    <style>
      .cls-1 {
        fill: #fcc10c;
      }

      .cls-2 {
        fill: #55131c;
      }

      .cls-3 {
        fill: #f7f2ea;
      }
    </style>
  </defs>
  <g id="Capa_1-2" data-name="Capa 1">
    <g>
      <g>
        <rect class="cls-3" width="1080" height="380" transform="translate(1080 380) rotate(180)"/>
        <path class="cls-1" d="M1080,0V360.61c-8.02,1.75-16.23,2.15-24.29,1.24-13.92,.32-28.02-3.25-40.56-10.96l-3.86-2.37c-23.71-14.58-53.59-14.67-77.4-.23l-5.42,3.29c-14.41,8.73-30.81,12.04-46.63,10.3-13.4,0-26.9-3.57-38.96-10.99l-3.85-2.37c-23.72-14.58-53.6-14.67-77.4-.24l-5.43,3.3c-14.47,8.77-30.97,12.07-46.86,10.27-13.93,.32-28.02-3.25-40.57-10.96l-3.85-2.37c-23.72-14.58-53.6-14.67-77.4-.23l-5.43,3.29c-14.4,8.73-30.81,12.04-46.63,10.3-13.39,0-26.89-3.57-38.96-10.99l-3.85-2.37c-23.71-14.58-53.6-14.67-77.4-.24l-5.43,3.3c-14.47,8.77-30.96,12.07-46.86,10.27-13.92,.32-28.02-3.25-40.57-10.96l-3.85-2.37c-23.71-14.58-53.59-14.67-77.4-.23l-5.43,3.29c-14.4,8.73-30.8,12.04-46.62,10.3-13.4,0-26.9-3.57-38.96-10.99l-3.85-2.37c-23.72-14.58-53.6-14.67-77.4-.24l-5.43,3.3c-14.47,8.77-30.97,12.07-46.86,10.27-5.54,.13-11.11-.36-16.59-1.49V0H1080Z"/>
      </g>
      <g>
        <g>
          <g>
            <path class="cls-2" d="M202.35,222.27c-.48-.24-1.05-.41-1.72-.51-.67-.1-1.32-.15-1.95-.15-2.29,0-4.01,.76-5.14,2.29-1.14,1.53-1.7,3.61-1.7,6.26,0,1.83,.42,3.17,1.24,4.01,.83,.84,2.03,1.27,3.6,1.3,.83,.02,1.67-.1,2.51-.36,.84-.26,1.65-.61,2.44-1.05,.17,.07,.31,.17,.39,.31,.09,.14,.13,.29,.13,.44,0,.66-.51,1.2-1.54,1.62-1.03,.43-2.53,.64-4.52,.64s-3.46-.55-4.62-1.65c-1.16-1.1-1.74-2.75-1.74-4.93,0-1.53,.19-2.94,.56-4.24,.37-1.3,.94-2.42,1.7-3.36,.76-.94,1.72-1.67,2.87-2.21,1.15-.54,2.5-.8,4.05-.8,2.64,0,3.96,.48,3.96,1.44,0,.43-.17,.75-.52,.95Z"/>
            <path class="cls-2" d="M213.97,225.38c-.09,.16-.19,.27-.3,.36-.22-.04-.5-.08-.85-.1-.35-.02-.71-.03-1.08-.03-.46,0-1.04,.38-1.75,1.13-.71,.75-1.45,1.86-2.21,3.32l-.16,1.47c-.06,.55-.14,1.1-.23,1.65-.09,.56-.16,1.09-.23,1.59-.06,.5-.12,.93-.16,1.29-.04,.36-.07,.61-.07,.74-.09,.05-.2,.09-.33,.12-.13,.04-.32,.05-.56,.05-.44,0-.72-.09-.83-.26-.12-.17-.18-.41-.18-.72,0-.46,.04-.92,.12-1.38,.08-.46,.15-.91,.21-1.34l1.08-7.77-2.03,.07c-.15-.15-.23-.33-.23-.53,0-.39,.21-.67,.64-.84,.43-.16,1.16-.24,2.21-.24,.63,0,1.05,.08,1.26,.24,.21,.16,.27,.49,.18,.97l-.69,3.57c.46-1.07,.87-1.92,1.23-2.57,.36-.64,.72-1.14,1.08-1.49,.36-.35,.73-.58,1.1-.69,.37-.1,.79-.16,1.25-.16,.68,0,1.12,.1,1.34,.29,.22,.19,.33,.45,.33,.75,0,.18-.04,.34-.13,.49Z"/>
            <path class="cls-2" d="M219.71,230.75c-.5,0-1.03-.02-1.57-.05-.55-.03-1.1-.09-1.67-.18-.02,.13-.03,.26-.03,.39v.33c0,2.84,1.17,4.26,3.51,4.26,.72,0,1.44-.08,2.16-.23,.72-.15,1.43-.39,2.13-.72,.26,.2,.39,.45,.39,.75,0,.44-.38,.85-1.15,1.23-.76,.38-2.02,.57-3.77,.57-3.48,0-5.22-1.81-5.22-5.44,0-1.18,.15-2.26,.46-3.24,.31-.98,.75-1.82,1.34-2.52,.59-.7,1.32-1.24,2.2-1.62,.87-.38,1.89-.57,3.05-.57,.74,0,1.36,.08,1.85,.24,.49,.17,.89,.38,1.18,.66,.3,.27,.51,.6,.64,.98,.13,.38,.2,.79,.2,1.23,0,2.62-1.9,3.93-5.7,3.93Zm3.4-5.08c-.36-.34-1-.51-1.92-.51-.42,0-.85,.07-1.31,.2-.46,.13-.9,.35-1.31,.65-.42,.31-.79,.72-1.13,1.24-.34,.52-.6,1.18-.77,1.96,.37,.06,.84,.11,1.39,.14,.56,.03,1.07,.05,1.53,.05,1.51,0,2.57-.2,3.17-.6,.6-.4,.9-.99,.9-1.75,0-.59-.18-1.05-.54-1.39Z"/>
            <path class="cls-2" d="M247.03,235.41c.17,0,.4-.03,.67-.08,.27-.06,.49-.1,.64-.15,.17,.13,.26,.37,.26,.72,0,.31-.21,.56-.62,.77-.42,.21-1.11,.31-2.1,.31-.61,0-1.07-.12-1.38-.36-.31-.24-.46-.68-.46-1.31,0-.24,.01-.53,.03-.87,.02-.34,.08-.73,.16-1.16,.2-1.16,.36-2.11,.49-2.85,.13-.75,.25-1.45,.36-2.12s.16-1.09,.16-1.26c.05-.53-.07-.93-.34-1.23-.27-.29-.79-.44-1.56-.44-.7,0-1.44,.26-2.23,.79-.79,.52-1.47,1.3-2.06,2.32l-1.08,8.32c-.17,.12-.48,.18-.92,.18s-.71-.09-.82-.26c-.11-.17-.16-.41-.16-.72,0-.46,.04-.92,.12-1.38,.08-.46,.15-.91,.21-1.34l.85-5.93c.11-.61,.04-1.09-.21-1.44-.25-.35-.79-.52-1.62-.52-.7,0-1.45,.26-2.24,.79-.8,.52-1.49,1.3-2.08,2.32l-.23,1.77c-.06,.52-.15,1.13-.24,1.83-.1,.7-.19,1.37-.28,2.01-.09,.65-.16,1.22-.21,1.72-.05,.5-.08,.83-.08,.98-.11,.05-.24,.09-.38,.12-.14,.04-.33,.05-.57,.05-.44,0-.7-.09-.8-.26-.1-.17-.15-.41-.15-.72,0-.46,.04-.92,.11-1.38,.08-.46,.15-.91,.21-1.34l1.08-7.76-2.03,.06c-.15-.15-.23-.34-.23-.56,0-.37,.21-.65,.64-.81,.43-.17,1.16-.25,2.21-.25,.63,0,1.05,.08,1.26,.24,.21,.16,.26,.49,.15,.97l-.43,2.03c.15-.5,.39-.96,.72-1.38,.33-.41,.72-.77,1.16-1.07,.45-.29,.94-.52,1.49-.68,.55-.16,1.11-.24,1.7-.24,1.05,0,1.82,.25,2.33,.74,.5,.49,.75,1.12,.75,1.89,0,.11,0,.23-.02,.36-.01,.13-.03,.26-.05,.39,.31-1,.91-1.82,1.8-2.44,.9-.62,1.93-.93,3.11-.93s2.06,.32,2.57,.95c.51,.63,.68,1.47,.51,2.52l-.82,5.08c-.07,.37-.13,.75-.2,1.15-.07,.39-.1,.79-.1,1.18,0,.3,.05,.5,.16,.57,.11,.08,.36,.11,.75,.11Z"/>
            <path class="cls-2" d="M259.28,234.3c-.37,.88-.95,1.55-1.72,2.02-.78,.47-1.75,.7-2.93,.7-1.25,0-2.22-.38-2.92-1.13-.7-.75-1.05-1.98-1.05-3.69,0-1.4,.18-2.63,.54-3.69,.36-1.06,.84-1.95,1.44-2.66,.6-.71,1.3-1.25,2.1-1.61,.8-.36,1.62-.54,2.47-.54,.94,0,1.64,.12,2.11,.36,.47,.24,.78,.63,.93,1.18,.09-.57,.21-.96,.36-1.18,.15-.22,.43-.33,.82-.33,.22,0,.39,.03,.52,.08,.13,.06,.27,.13,.43,.24l-1.05,7.61c-.11,.83-.2,1.47-.26,1.94-.07,.46-.1,.83-.1,1.12,0,.3,.06,.5,.16,.57,.11,.08,.37,.11,.79,.11,.15,0,.37-.03,.64-.08,.27-.06,.49-.1,.64-.15,.2,.16,.29,.39,.29,.72,0,.31-.21,.56-.62,.77-.42,.21-1.11,.31-2.1,.31-.55,0-.96-.11-1.23-.34-.27-.23-.41-.64-.41-1.23,0-.31,.04-.68,.13-1.11Zm-1.74-9.14c-1.53,0-2.72,.58-3.57,1.74-.85,1.16-1.28,2.71-1.28,4.65,0,1.38,.2,2.4,.61,3.06,.4,.67,1.14,1,2.21,1,.29,0,.59-.05,.92-.15,.33-.1,.66-.23,.98-.41,.33-.18,.64-.39,.93-.66,.3-.26,.55-.56,.77-.88l1.08-7.77c-.72-.39-1.61-.59-2.65-.59Z"/>
            <path class="cls-2" d="M274.79,225.86c-.12,.14-.3,.26-.54,.34-.44-.35-.92-.58-1.44-.7-.52-.12-1.11-.18-1.77-.18-.94,0-1.65,.21-2.14,.62-.49,.41-.73,.87-.73,1.38,0,.33,.04,.61,.13,.84,.09,.23,.25,.44,.49,.64,.24,.2,.57,.39,1,.57,.43,.19,.97,.4,1.62,.64,.59,.24,1.07,.47,1.46,.69,.38,.22,.68,.45,.9,.7,.22,.25,.37,.53,.46,.82,.09,.29,.13,.62,.13,.97,0,.46-.09,.92-.28,1.38-.19,.46-.47,.87-.85,1.23-.38,.36-.87,.65-1.46,.87-.59,.22-1.29,.33-2.1,.33-.3,0-.73-.01-1.26-.03-.54-.02-1.07-.09-1.6-.21-.54-.12-1-.3-1.39-.55-.39-.25-.59-.59-.59-1.03,0-.31,.1-.54,.29-.72,.2-.18,.45-.31,.75-.39,.46,.52,1.07,.9,1.83,1.13,.76,.23,1.49,.34,2.16,.34,.83,0,1.48-.18,1.95-.54,.47-.36,.71-.84,.71-1.43,0-.48-.19-.89-.56-1.21-.37-.33-1.07-.68-2.09-1.05-.66-.22-1.21-.45-1.67-.69-.46-.24-.82-.5-1.1-.79-.27-.28-.48-.61-.61-.98-.13-.37-.2-.81-.2-1.31,0-.55,.13-1.05,.38-1.51,.25-.46,.6-.86,1.05-1.2,.45-.34,.98-.61,1.6-.8,.62-.2,1.3-.29,2.04-.29,1.13,0,2.02,.13,2.65,.41,.63,.27,.95,.63,.95,1.06,0,.31-.06,.53-.18,.67Z"/>
            <path class="cls-2" d="M291.85,233.28c.2-1.16,.36-2.11,.49-2.85,.13-.74,.25-1.45,.36-2.11,.11-.67,.17-1.09,.2-1.26,.04-.52-.08-.93-.36-1.21-.28-.28-.81-.43-1.57-.43-.7,0-1.47,.26-2.33,.79-.85,.52-1.57,1.3-2.16,2.32l-.23,1.74c-.07,.52-.15,1.14-.25,1.83-.1,.7-.19,1.37-.28,2.01-.09,.65-.16,1.22-.23,1.72-.07,.5-.1,.83-.1,.98-.09,.05-.19,.09-.31,.12-.12,.04-.3,.05-.54,.05-.44,0-.71-.09-.83-.26-.12-.17-.18-.41-.18-.72,0-.46,.04-.95,.11-1.49,.08-.53,.15-1.02,.21-1.46l1.84-13.4c.11-.74,.25-1.24,.41-1.49,.16-.25,.46-.38,.9-.38,.22,0,.39,.02,.51,.05,.12,.03,.24,.09,.38,.18l-1.18,8.75c.37-.81,1.01-1.49,1.92-2.05,.91-.56,1.95-.84,3.13-.84s2.09,.32,2.59,.95c.5,.63,.67,1.46,.49,2.49l-.82,5.08c-.09,.52-.16,1-.21,1.43s-.08,.73-.08,.9c0,.3,.06,.5,.16,.57,.11,.08,.37,.11,.79,.11,.15,0,.37-.03,.64-.08,.27-.06,.48-.1,.64-.15,.17,.13,.26,.37,.26,.72,0,.31-.21,.56-.62,.77-.42,.21-1.12,.31-2.1,.31-.61,0-1.07-.12-1.38-.36-.31-.24-.46-.68-.46-1.31,0-.46,.07-1.14,.2-2.03Z"/>
            <path class="cls-2" d="M303.56,230.75c-.5,0-1.03-.02-1.57-.05-.55-.03-1.1-.09-1.67-.18-.03,.13-.04,.26-.04,.39v.33c0,2.84,1.17,4.26,3.51,4.26,.72,0,1.44-.08,2.16-.23,.72-.15,1.43-.39,2.13-.72,.26,.2,.39,.45,.39,.75,0,.44-.38,.85-1.14,1.23-.77,.38-2.02,.57-3.77,.57-3.48,0-5.22-1.81-5.22-5.44,0-1.18,.15-2.26,.46-3.24,.31-.98,.75-1.82,1.34-2.52,.59-.7,1.32-1.24,2.2-1.62,.87-.38,1.89-.57,3.05-.57,.74,0,1.36,.08,1.85,.24,.49,.17,.89,.38,1.18,.66,.3,.27,.51,.6,.64,.98,.13,.38,.2,.79,.2,1.23,0,2.62-1.9,3.93-5.7,3.93Zm3.39-5.08c-.36-.34-1-.51-1.92-.51-.42,0-.85,.07-1.31,.2-.46,.13-.9,.35-1.31,.65-.42,.31-.79,.72-1.13,1.24-.34,.52-.6,1.18-.77,1.96,.37,.06,.83,.11,1.39,.14,.56,.03,1.07,.05,1.53,.05,1.51,0,2.56-.2,3.17-.6,.6-.4,.9-.99,.9-1.75,0-.59-.18-1.05-.54-1.39Z"/>
            <path class="cls-2" d="M311.97,233.28l1.84-13.63c.11-.74,.24-1.24,.39-1.49,.15-.25,.45-.38,.89-.38,.39,0,.71,.08,.95,.23l-1.64,12.26c-.15,1.09-.28,2.05-.39,2.85-.11,.81-.16,1.34-.16,1.6,0,.31,.05,.5,.16,.57,.11,.08,.37,.11,.79,.11,.15,0,.37-.03,.64-.08,.27-.06,.49-.1,.64-.15,.17,.13,.26,.37,.26,.72,0,.31-.21,.56-.62,.77-.41,.21-1.11,.31-2.1,.31-.61,0-1.07-.12-1.38-.36-.31-.24-.46-.68-.46-1.31,0-.46,.07-1.14,.2-2.03Z"/>
            <path class="cls-2" d="M327.23,234.3c-.37,.88-.95,1.55-1.72,2.02-.77,.47-1.75,.7-2.93,.7-1.24,0-2.22-.38-2.92-1.13-.7-.75-1.05-1.98-1.05-3.69,0-1.4,.18-2.63,.54-3.69,.36-1.06,.84-1.95,1.44-2.66,.6-.71,1.3-1.25,2.1-1.61,.8-.36,1.62-.54,2.47-.54,.94,0,1.65,.12,2.12,.36,.47,.24,.78,.63,.94,1.18,.09-.57,.2-.96,.36-1.18,.15-.22,.42-.33,.82-.33,.22,0,.39,.03,.52,.08,.13,.06,.27,.13,.43,.24l-1.05,7.61c-.11,.83-.2,1.47-.26,1.94-.06,.46-.1,.83-.1,1.12,0,.3,.05,.5,.16,.57,.11,.08,.37,.11,.79,.11,.15,0,.37-.03,.64-.08,.27-.06,.49-.1,.64-.15,.19,.16,.29,.39,.29,.72,0,.31-.21,.56-.62,.77-.41,.21-1.11,.31-2.1,.31-.55,0-.96-.11-1.23-.34-.27-.23-.41-.64-.41-1.23,0-.31,.04-.68,.13-1.11Zm-1.74-9.14c-1.53,0-2.72,.58-3.57,1.74-.85,1.16-1.28,2.71-1.28,4.65,0,1.38,.2,2.4,.61,3.06,.4,.67,1.14,1,2.21,1,.28,0,.59-.05,.92-.15,.33-.1,.65-.23,.98-.41,.33-.18,.64-.39,.93-.66,.29-.26,.55-.56,.77-.88l1.08-7.77c-.72-.39-1.6-.59-2.65-.59Z"/>
            <path class="cls-2" d="M345.6,236.68c-.42,.21-1.13,.31-2.11,.31-.55,0-.94-.11-1.19-.34-.25-.23-.38-.64-.38-1.23,0-.17,.02-.42,.06-.74,.05-.32,.09-.59,.13-.83-.22,1.07-.76,1.87-1.64,2.39-.88,.53-1.89,.79-3.05,.79-1.24,0-2.22-.38-2.93-1.13-.71-.75-1.06-1.98-1.06-3.69,0-1.4,.18-2.63,.54-3.69,.36-1.06,.84-1.95,1.44-2.66,.6-.71,1.3-1.25,2.1-1.61,.8-.36,1.62-.54,2.47-.54,.9,0,1.58,.11,2.05,.33,.47,.22,.79,.56,.97,1.04l.72-5.43c.11-.74,.24-1.24,.39-1.49,.15-.25,.45-.38,.88-.38,.39,0,.7,.08,.92,.23l-1.64,12.26c-.13,1.09-.25,2.05-.36,2.85-.11,.81-.17,1.34-.17,1.61,0,.3,.06,.5,.17,.57,.11,.08,.36,.11,.75,.11,.17,0,.4-.03,.67-.08,.27-.06,.49-.1,.64-.15,.17,.13,.26,.37,.26,.72,0,.31-.21,.56-.64,.77Zm-5.3-11.5c-1.53,0-2.72,.58-3.57,1.74-.85,1.16-1.28,2.7-1.28,4.63,0,1.38,.2,2.4,.61,3.07,.4,.67,1.14,1,2.21,1,.57,0,1.19-.18,1.88-.56,.69-.37,1.25-.87,1.69-1.51l1.05-7.84c-.76-.35-1.63-.52-2.59-.52Z"/>
            <path class="cls-2" d="M356.92,234.3c-.37,.88-.94,1.55-1.72,2.02-.77,.47-1.75,.7-2.93,.7-1.24,0-2.22-.38-2.92-1.13-.7-.75-1.05-1.98-1.05-3.69,0-1.4,.18-2.63,.54-3.69,.36-1.06,.84-1.95,1.44-2.66,.6-.71,1.3-1.25,2.1-1.61,.8-.36,1.62-.54,2.47-.54,.94,0,1.64,.12,2.11,.36,.47,.24,.78,.63,.93,1.18,.09-.57,.21-.96,.36-1.18,.15-.22,.42-.33,.82-.33,.22,0,.39,.03,.52,.08,.13,.06,.27,.13,.42,.24l-1.05,7.61c-.11,.83-.2,1.47-.26,1.94-.07,.46-.1,.83-.1,1.12,0,.3,.05,.5,.16,.57,.11,.08,.37,.11,.79,.11,.15,0,.36-.03,.64-.08,.27-.06,.49-.1,.64-.15,.2,.16,.3,.39,.3,.72,0,.31-.21,.56-.62,.77-.41,.21-1.11,.31-2.09,.31-.55,0-.96-.11-1.23-.34-.27-.23-.41-.64-.41-1.23,0-.31,.04-.68,.13-1.11Zm-1.74-9.14c-1.53,0-2.72,.58-3.57,1.74-.85,1.16-1.28,2.71-1.28,4.65,0,1.38,.21,2.4,.61,3.06,.4,.67,1.14,1,2.21,1,.28,0,.59-.05,.92-.15,.33-.1,.65-.23,.98-.41,.33-.18,.64-.39,.93-.66,.3-.26,.55-.56,.77-.88l1.08-7.77c-.72-.39-1.61-.59-2.66-.59Z"/>
            <path class="cls-2" d="M372.43,225.86c-.12,.14-.3,.26-.54,.34-.44-.35-.92-.58-1.44-.7-.53-.12-1.11-.18-1.77-.18-.94,0-1.65,.21-2.14,.62-.49,.41-.74,.87-.74,1.38,0,.33,.04,.61,.13,.84,.09,.23,.25,.44,.49,.64,.24,.2,.57,.39,1,.57,.42,.19,.96,.4,1.62,.64,.59,.24,1.08,.47,1.46,.69,.38,.22,.68,.45,.9,.7,.22,.25,.37,.53,.46,.82,.09,.29,.13,.62,.13,.97,0,.46-.09,.92-.28,1.38-.18,.46-.47,.87-.85,1.23-.38,.36-.87,.65-1.46,.87-.59,.22-1.29,.33-2.1,.33-.31,0-.73-.01-1.26-.03-.54-.02-1.07-.09-1.6-.21-.54-.12-1-.3-1.39-.55-.39-.25-.59-.59-.59-1.03,0-.31,.1-.54,.29-.72,.2-.18,.45-.31,.76-.39,.46,.52,1.07,.9,1.83,1.13,.76,.23,1.48,.34,2.16,.34,.83,0,1.48-.18,1.95-.54,.47-.36,.71-.84,.71-1.43,0-.48-.19-.89-.56-1.21-.37-.33-1.07-.68-2.1-1.05-.65-.22-1.21-.45-1.67-.69-.46-.24-.82-.5-1.1-.79-.27-.28-.47-.61-.6-.98-.13-.37-.19-.81-.19-1.31,0-.55,.12-1.05,.37-1.51,.25-.46,.6-.86,1.05-1.2,.45-.34,.98-.61,1.6-.8,.62-.2,1.31-.29,2.05-.29,1.13,0,2.02,.13,2.65,.41,.63,.27,.95,.63,.95,1.06,0,.31-.06,.53-.18,.67Z"/>
          </g>
          <path class="cls-2" d="M138.16,195.21c0,9.74-6.87,14.6-20.62,14.6h-17.18c-5.19,0-8.81-1.66-10.85-4.97-1.02-1.68-1.53-3.44-1.53-5.28v-31.49c0-1.84,.51-3.6,1.53-5.28,2.04-3.31,5.65-4.97,10.85-4.97h17.18c13.75,0,20.62,4.86,20.62,14.6,0,6.12-3.02,9.91-9.06,11.39,6.04,1.48,9.06,5.28,9.06,11.39Zm-18.69-20.79c0-2.44-1.46-3.67-4.38-3.67h-5.76v7.72h6c2.77,0,4.15-1.35,4.15-4.05Zm0,18.8c0-2.7-1.39-4.05-4.15-4.05h-6v7.71h5.76c2.92,0,4.38-1.22,4.38-3.66Z"/>
          <path class="cls-2" d="M183.54,201.33c0,3.41-1.61,5.83-4.82,7.26-1.89,.82-4.13,1.22-6.73,1.22-5.97,0-9.31-1.76-10.02-5.28-1.63,3.52-4.97,5.28-10.02,5.28-3.67,0-6.43-.97-8.26-2.9-1.84-1.94-2.75-4.55-2.75-7.87s1.32-5.74,3.97-7.76c2.65-2.01,6.04-3.02,10.16-3.02,2.55,0,4.84,.28,6.88,.84,0-1.84-.71-3.31-2.14-4.4-1.43-1.1-3.34-1.64-5.73-1.64-.92,0-2.18,.22-3.78,.65-1.6,.44-2.81,.65-3.63,.65-2.6,0-3.9-1.53-3.9-4.58,0-3.21,2.65-5.55,7.95-7.02,3.47-.97,7.22-1.45,11.24-1.45,14.38,0,21.57,5.65,21.57,16.96v13.06Zm-20.43-4.24c0-2.59-1.21-3.9-3.61-3.9s-3.69,1.3-3.69,3.9,1.23,3.82,3.69,3.82,3.61-1.27,3.61-3.82Z"/>
          <path class="cls-2" d="M229.69,180.65c0,2.55-.79,4.72-2.38,6.5-1.74,1.99-4.06,2.98-6.98,2.98-3.07,0-5.72-1.29-7.97-3.87-1.94,.97-2.91,3.34-2.91,7.11v8.4c0,1.43-.46,2.81-1.37,4.13-1.78,2.6-4.9,3.9-9.37,3.9s-7.57-1.3-9.3-3.9c-.87-1.27-1.3-2.65-1.3-4.12v-22.53c0-1.48,.43-2.85,1.3-4.12,1.73-2.6,4.83-3.9,9.3-3.9s7.59,1.3,9.37,3.89c.91,1.32,1.37,2.7,1.37,4.12v.91c2.25-5.95,5.88-8.92,10.88-8.92,2.96,0,5.32,.97,7.05,2.91,1.53,1.79,2.3,3.96,2.3,6.51Z"/>
          <path class="cls-2" d="M254.16,201.78c0,1.43-.46,2.81-1.37,4.13-1.78,2.6-4.9,3.9-9.37,3.9s-7.57-1.3-9.3-3.9c-.86-1.27-1.3-2.65-1.3-4.13v-22.54c0-1.48,.43-2.85,1.3-4.13,1.73-2.6,4.83-3.9,9.3-3.9s7.59,1.3,9.37,3.9c.91,1.32,1.37,2.7,1.37,4.13v22.54Zm-2.09-39.24c0,2.24-.81,3.97-2.44,5.19-1.63,1.22-3.69,1.83-6.18,1.83s-4.48-.64-6.1-1.91c-1.63-1.27-2.44-2.98-2.44-5.11s.81-3.83,2.44-5.07c1.63-1.25,3.66-1.87,6.1-1.87s4.49,.62,6.14,1.87c1.65,1.24,2.48,2.94,2.48,5.07Z"/>
          <path class="cls-2" d="M281.34,201.78c0,1.43-.46,2.8-1.37,4.13-1.78,2.6-4.9,3.9-9.37,3.9s-7.57-1.3-9.3-3.9c-.86-1.27-1.3-2.65-1.3-4.13v-37.46c0-1.48,.43-2.85,1.3-4.13,1.73-2.6,4.83-3.9,9.3-3.9s7.59,1.3,9.37,3.9c.91,1.32,1.37,2.7,1.37,4.13v37.46Z"/>
          <path class="cls-2" d="M329.5,190.92c0,5.81-2.03,10.55-6.07,14.22-4.05,3.67-9.33,5.5-15.85,5.5s-11.51-1.76-15.58-5.27c-4.28-3.67-6.42-8.48-6.42-14.45s2.05-10.81,6.15-14.56c4.1-3.75,9.38-5.62,15.85-5.62s11.87,1.86,15.89,5.58c4.02,3.72,6.04,8.59,6.04,14.6Zm-16.61-.05c0-1.84-.45-3.36-1.37-4.56-.91-1.2-2.23-1.8-3.95-1.8s-3.04,.6-3.95,1.8c-.91,1.2-1.37,2.72-1.37,4.56s.47,3.27,1.41,4.45c.94,1.18,2.24,1.76,3.91,1.76s2.98-.59,3.91-1.76c.93-1.18,1.4-2.66,1.4-4.45Z"/>
          <path class="cls-2" d="M374.23,180c0,1.48-.49,2.74-1.45,3.78-.97,1.05-2.17,1.57-3.59,1.57-1.02,0-2.44-.29-4.25-.87-1.81-.58-3.2-.88-4.17-.88-2.24,0-3.98,.82-5.2,2.45-.92,1.28-1.38,2.71-1.38,4.29,0,1.73,.54,3.26,1.61,4.59,1.28,1.58,3,2.37,5.2,2.37,1.02,0,2.44-.26,4.24-.77,1.81-.52,3.17-.78,4.09-.78,1.48,0,2.65,.53,3.52,1.57,.87,1.04,1.3,2.25,1.3,3.63,0,2.34-1.1,4.28-3.29,5.8-3.72,2.6-8.61,3.89-14.67,3.89-6.57,0-11.95-1.68-16.13-5.04-4.48-3.62-6.73-8.54-6.73-14.75,0-6.67,2.24-11.79,6.73-15.36,4.03-3.16,9.4-4.74,16.13-4.74,6.11,0,11,1.27,14.67,3.82,2.24,1.53,3.37,3.34,3.37,5.43Z"/>
          <path class="cls-2" d="M478.19,189.66c0,2.45-1.76,3.68-5.28,3.68h-17.98c1.07,4.68,4.66,7.02,10.78,7.02,1.43,0,3.01-.23,4.74-.74,2.84-.84,4.92-1.17,5.98,.27,1.98,2.71-2.36,7.07-7.27,8.93-3.17,1.19-6.78,1.83-10.85,1.83-7.44,0-13.3-1.65-17.58-4.96-4.54-3.52-6.81-8.59-6.81-15.21,0-5.76,2.09-10.48,6.27-14.17,4.18-3.69,9.46-5.54,15.83-5.54,6.83,0,12.39,2.17,16.67,6.51,3.67,3.72,5.51,7.86,5.51,12.4Zm-12.72-3.06c0-1.84-.51-3.32-1.53-4.44-1.01-1.12-2.26-1.68-3.74-1.68-1.27,0-2.41,.59-3.4,1.76-.99,1.17-1.49,2.63-1.49,4.36h10.16Z"/>
          <path class="cls-2" d="M433.21,207.05c-2.56-.28-3.51-2.68-3.56-5.92v-17.67c0-3.67-1.25-6.63-3.75-8.9-2.5-2.26-5.82-3.4-9.95-3.4s-7.86,.91-11.48,2.74c-.41,.2-2.07,1.27-4.98,3.19v-12.77c0-1.43-.43-2.81-1.29-4.13-1.78-2.6-4.9-3.9-9.37-3.9s-7.6,1.3-9.37,3.9c-.86,1.28-1.29,2.65-1.29,4.13v37.46c0,1.48,.43,2.86,1.29,4.13,1.78,2.6,4.9,3.9,9.37,3.9s7.59-1.3,9.37-3.89c.87-1.32,1.29-2.7,1.29-4.12v-12.74c0-3.36,1.47-5.03,4.42-5.03s4.41,1.68,4.41,5.03v12.82c0,.18,0,.33,.02,.5,.5,8.02,8.21,14.75,17.23,14.77,6.59,.01,11.93-1.58,12.23-5.71,.2-2.75-1.76-4.07-4.58-4.38Z"/>
        </g>
        <g>
          <path class="cls-2" d="M517.38,197.18v9.13h-4.69v-1.36c-.78,1.13-2.52,1.74-4.03,1.74-1.97,0-5.01-.75-5.01-4.32,0-4.87,6.32-4.87,7.3-4.87h1.74v-.06c0-1.39-.7-2.38-2.4-2.38-1.19,0-2.2,.46-2.78,.93l-3.07-2.09c1.59-1.68,3.8-2.64,6.61-2.64,4.69,0,6.35,2.41,6.35,5.91Zm-4.69,2.67h-.38c-2.35,0-3.91,.43-3.91,1.91,0,1.07,.87,1.48,1.88,1.48s2-.49,2.4-1.04v-2.35Z"/>
          <path class="cls-2" d="M534.68,197.12v9.19h-4.72v-7.91c0-1.68-1.04-2.52-2.35-2.52s-2.35,.9-2.35,2.52v7.91h-4.69v-20.28h4.69v6.95c.84-.96,2.12-1.71,4.03-1.71,3.68,0,5.39,2.9,5.39,5.85Z"/>
          <path class="cls-2" d="M552.76,198.98c0,4.35-3.27,7.71-7.88,7.71s-7.88-3.36-7.88-7.71,3.3-7.71,7.88-7.71,7.88,3.33,7.88,7.71Zm-4.72,0c0-1.71-1.25-3.16-3.16-3.16s-3.13,1.45-3.13,3.16,1.25,3.13,3.13,3.13,3.16-1.42,3.16-3.13Z"/>
          <path class="cls-2" d="M564.41,191.27v5.04c-4.17-.64-4.64,1.74-4.64,4.2v5.79h-4.69v-14.69h4.69v2.23c1.04-1.65,2.9-2.58,4.64-2.58Z"/>
          <path class="cls-2" d="M579.01,197.18v9.13h-4.69v-1.36c-.78,1.13-2.52,1.74-4.03,1.74-1.97,0-5.01-.75-5.01-4.32,0-4.87,6.32-4.87,7.3-4.87h1.74v-.06c0-1.39-.7-2.38-2.4-2.38-1.19,0-2.2,.46-2.78,.93l-3.07-2.09c1.59-1.68,3.8-2.64,6.61-2.64,4.69,0,6.35,2.41,6.35,5.91Zm-4.69,2.67h-.38c-2.35,0-3.91,.43-3.91,1.91,0,1.07,.87,1.48,1.88,1.48s2-.49,2.4-1.04v-2.35Z"/>
          <path class="cls-2" d="M604.05,200.4h-10.61c.49,1.71,1.88,2.49,3.68,2.49,1.51,0,2.55-.72,3.01-1.28l3.3,1.97c-1.19,1.83-3.45,3.1-6.32,3.1-4.96,0-8.26-3.13-8.26-7.71s3.39-7.71,7.59-7.71,8.17,2.96,7.59,9.13Zm-4.26-2.84c-.35-1.71-1.56-2.49-3.19-2.49-1.48,0-2.72,.87-3.16,2.49h6.35Z"/>
          <path class="cls-2" d="M618.27,201.76c0,3.1-2.29,4.93-6.58,4.93-2.96,0-5.8-.96-6.4-3.54l4.26-1.33c.17,.58,.75,1.19,2.09,1.19,.99,0,1.77-.29,1.77-1.04,0-1.01-1.54-.96-3.27-1.33-2.81-.64-4.35-1.65-4.35-4.52,0-3.07,2.64-4.84,6.32-4.84,2.52,0,5.01,1.25,5.65,3.74l-3.94,.96c-.17-.7-.81-1.07-1.68-1.07-.93,0-1.8,.26-1.8,1.07,0,.96,1.59,1.01,2.75,1.25,3.71,.78,5.19,1.85,5.19,4.55Z"/>
        </g>
        <g>
          <path class="cls-2" d="M787.28,173.75c0-4.74,4.25-8.57,9.41-8.57s9.49,3.83,9.49,8.57-4.25,8.66-9.49,8.66-9.41-3.83-9.41-8.66Z"/>
          <path class="cls-2" d="M693.39,209.64c0,9.82-6.83,17.15-22.97,17.15h-26.22c-2.58,0-3.75-.75-3.83-2.5-.08-1.5,.5-2.58,2.66-5.58,1.5-2.08,1.58-4.83,1.58-10.65v-20.81c0-5.74-.08-8.49-1.58-10.65-2.16-3-2.75-4-2.66-5.49,.08-1.75,1.25-2.58,3.83-2.58h21.97c12.74,0,22.06,5.08,22.06,14.9,0,6.58-3.5,11.57-10.16,12.9,9.41,.33,15.32,6.58,15.32,13.32Zm-32.96-21.64c0,3.25,1,4.74,3.58,4.74h1.17c4.41,0,6.91-3.75,6.91-8.16s-2.5-8.24-6.91-8.24h-1.17c-2.58,0-3.58,1.58-3.58,4.74v6.91Zm15.73,21.64c0-5.74-4-9.32-9.57-9.32h-1.42c-3.83,0-4.74,.75-4.74,4.83v8.91c0,4.16,.92,4.91,4.74,4.91h1.42c5.58,0,9.57-3.58,9.57-9.32Z"/>
          <path class="cls-2" d="M741.67,221.21c-.17,3.58-4.74,6.33-9.41,6.33-6.16,0-9.32-1.75-10.65-5.33-2.25,3.5-5.66,5.33-10.99,5.33-8.99,0-14.32-4.66-14.32-11.49,0-11.07,10.16-14.32,24.72-14.32v-1.17c0-4.66-.25-8.32-3.58-8.82-2.41-.33-4.74,.33-5.74,3.5-1.58,5.08-4.83,6.24-8.49,4.99-2.25-.83-4.33-3.5-2.91-7.08,2.41-6.33,10.9-7.82,17.98-7.82,11.49,0,17.9,5.16,17.9,17.31v1.66c0,5.74-.25,10.65,1.58,12.57,2.08,2.16,4.08,1.83,3.91,4.33Zm-20.06-11.74c0-2.66-1.08-2.75-3.91-2.25-3.16,.5-5.74,2.91-5.99,6.58-.17,3.5,1.42,5.99,5.08,5.99,3.33,0,4.83-2.66,4.83-6.99v-3.33Z"/>
          <path class="cls-2" d="M782.12,198.65c-2.25,3.91-8.32,4.91-11.49,.67-2.25-3-1.75-5.74-4.58-5.74-2.08,0-2.58,1.58-2.66,4.25v10.24c0,5.83,.08,8.99,1.58,10.65,2.33,2.41,3.5,4,3.25,5.58-.25,1.66-1.25,2.5-3.83,2.5h-16.56c-2.58,0-3.75-.75-3.91-2.5-.08-1.5,.5-2.58,2.66-5.58,1.5-2.08,1.58-4.83,1.58-10.4s-.08-8.74-1.58-10.82c-2.16-3-2.75-4.08-2.66-5.58,.17-1.75,1.33-2.83,3.91-3.66,2.5-.83,7.41-2.33,8.32-2.58,4.16-1.17,6.58,.42,7.08,4,2.25-2.41,5.41-4.33,9.99-4.33,8.91,0,12.24,7.32,8.91,13.32Z"/>
          <path class="cls-2" d="M809.75,224.29c-.17,1.75-1.33,2.5-3.83,2.5h-16.07c-2.58,0-3.75-.75-3.83-2.5-.17-1.5,.5-2.58,2.66-5.58,1.5-2.08,1.58-4.83,1.58-10.65s-.08-8.49-1.58-10.57c-2.16-3-2.83-4.08-2.66-5.58,.08-1.75,1.33-2.83,3.83-3.66,2.58-.83,7.49-2.33,8.41-2.58,4.74-1.33,7.24,.92,7.24,5.58v16.81c0,5.83,.08,8.57,1.58,10.65,2.16,3,2.75,4.08,2.66,5.58Z"/>
          <path class="cls-2" d="M835.31,224.29c-.08,1.75-1.25,2.5-3.83,2.5h-15.98c-2.58,0-3.75-.75-3.91-2.5-.08-1.5,.5-2.58,2.66-5.58,1.5-2.08,1.58-4.83,1.58-10.65v-17.4c0-5.83-.08-8.57-1.58-10.65-2.16-3-2.75-4.08-2.66-5.58,.17-1.75,1.33-2.83,3.91-3.66,2.5-.83,7.41-2.25,8.32-2.58,4.74-1.33,7.24,.92,7.24,5.66v34.21c0,5.83,.08,8.57,1.58,10.65,2.16,3,2.83,4.08,2.66,5.58Z"/>
          <path class="cls-2" d="M882.83,221.21c-.17,3.58-4.74,6.33-9.41,6.33-6.16,0-9.32-1.75-10.65-5.33-2.25,3.5-5.66,5.33-10.99,5.33-8.99,0-14.32-4.66-14.32-11.49,0-11.07,10.16-14.32,24.72-14.32v-1.17c0-4.66-.25-8.32-3.58-8.82-2.41-.33-4.74,.33-5.74,3.5-1.58,5.08-4.83,6.24-8.49,4.99-2.25-.83-4.33-3.5-2.91-7.08,2.41-6.33,10.9-7.82,17.98-7.82,11.49,0,17.9,5.16,17.9,17.31v1.66c0,5.74-.25,10.65,1.58,12.57,2.08,2.16,4.08,1.83,3.91,4.33Zm-20.06-11.74c0-2.66-1.08-2.75-3.91-2.25-3.16,.5-5.74,2.91-5.99,6.58-.17,3.5,1.42,5.99,5.08,5.99,3.33,0,4.83-2.66,4.83-6.99v-3.33Z"/>
          <path class="cls-2" d="M901.31,227.53c-6.58,0-13.57-3.25-13.57-14.07v-20.23h-2.83c-1.83,0-3.25-1.42-3.25-3.25v-.75c0-1.75,1.42-3.25,3.25-3.25h1.66c7.32,0,3.83-10.07,9.66-10.07h3.33c2.75,0,3.33,1.33,3.33,3.91v6.16h6.91c1.75,0,3.25,1.5,3.25,3.25v.75c0,1.83-1.5,3.25-3.25,3.25h-6.91v19.64c0,4.49,3.58,5.66,7.49,3.5,1.42-.75,2.91-.92,3.83,.17,2.83,3.33-3.66,10.99-12.9,10.99Z"/>
          <path class="cls-2" d="M934.61,227.53c-6.58,0-13.57-3.25-13.57-14.07v-20.23h-2.83c-1.83,0-3.25-1.42-3.25-3.25v-.75c0-1.75,1.42-3.25,3.25-3.25h1.66c7.32,0,3.83-10.07,9.66-10.07h3.33c2.75,0,3.33,1.33,3.33,3.91v6.16h6.91c1.75,0,3.25,1.5,3.25,3.25v.75c0,1.83-1.5,3.25-3.25,3.25h-6.91v19.64c0,4.49,3.58,5.66,7.49,3.5,1.42-.75,2.91-.92,3.83,.17,2.83,3.33-3.66,10.99-12.9,10.99Z"/>
          <path class="cls-2" d="M991.54,217.05c-2.5,5.66-8.16,10.49-17.98,10.49-11.57,0-23.06-6.58-23.56-20.56-.42-14.32,10.65-22.14,23.14-21.64,12.24,.33,18.06,8.82,18.73,15.65,.58,5.58-.42,7.74-5.74,7.74h-20.56c2,10.65,15.9,12.32,22.64,5.74,2.41-2.33,4.74-.5,3.33,2.58Zm-25.89-17.4c-.25,.92,.17,1.75,.92,1.75h9.74c2,0,2.91-1.42,2.25-3.91-.58-2.41-2-5.83-6.66-5.41-3.75,.25-5.49,4.08-6.24,7.57Z"/>
        </g>
      </g>
    </g>
  </g>
</svg>