<?xml version="1.0" encoding="UTF-8"?>
<svg id="Capa_2" data-name="Capa 2" xmlns="http://www.w3.org/2000/svg" viewBox="0 0 296.19 112.66">
  <defs>
    <style>
      .cls-1 {
        fill: #fcc10c;
      }

      .cls-2 {
        letter-spacing: -.04em;
      }

      .cls-3, .cls-4 {
        fill: #55131d;
      }

      .cls-4 {
        font-family: PPWoodland-Bold, 'PP Woodland';
        font-size: 26.24px;
        font-weight: 700;
      }

      .cls-5 {
        letter-spacing: -.03em;
      }

      .cls-6 {
        letter-spacing: -.02em;
      }

      .cls-7 {
        letter-spacing: -.04em;
      }

      .cls-8 {
        letter-spacing: -.03em;
      }

      .cls-9 {
        letter-spacing: -.02em;
      }

      .cls-10 {
        letter-spacing: -.05em;
      }
    </style>
  </defs>
  <g id="Capa_1-2" data-name="Capa 1">
    <g>
      <g>
        <path class="cls-1" d="M1,19V111.66H265.26c.55,0,1,.45,1,1h0s29.93,0,29.93,0V35.64c0-8.51-2.9-16.85-8.52-23.24-.29-.33-.59-.66-.9-.98l-.42-.44c-11.4-12.02-29.67-14.46-43.84-5.87l-2.58,1.56c-11.3,6.85-25.48,6.81-36.74-.11l-1.83-1.12c-5.73-3.52-12.13-5.22-18.49-5.22-7.51-.83-15.3,.74-22.13,4.89l-2.58,1.56c-11.3,6.85-25.48,6.81-36.74-.11l-1.83-1.12C113.65,1.77,106.96,.08,100.35,.23c-7.54-.85-15.37,.71-22.24,4.88l-2.58,1.56c-11.3,6.85-25.48,6.81-36.74-.11l-1.83-1.12C31.23,1.91,24.83,.21,18.47,.22,12.27-.46,5.88,.49,0,3.18v14.82c.55,0,1,.45,1,1Z"/>
        <path class="cls-3" d="M265.26,111.66H1V19c0-.55-.45-1-1-1V112.66H266.26c0-.55-.45-1-1-1Z"/>
      </g>
      <g>
        <path class="cls-1" d="M215.62,88.44c2.05,1.24,4.39,1.71,6.64,1.46,1.97,.05,3.97-.46,5.75-1.55l.55-.34c3.36-2.07,7.59-2.08,10.97-.03l.77,.47c2.04,1.24,4.37,1.71,6.61,1.46,1.9,0,3.81-.51,5.52-1.56l.55-.34c3.36-2.07,7.59-2.08,10.97-.03l.77,.47c4.23,2.57,9.68,1.84,13.09-1.75l.13-.13c.09-.1,.18-.19,.27-.29,1.68-1.91,2.54-4.4,2.54-6.94V33.34c0-2.54-.87-5.03-2.54-6.94-.09-.1-.18-.2-.27-.29l-.13-.13c-3.4-3.59-8.86-4.32-13.09-1.75l-.77,.47c-3.37,2.05-7.61,2.03-10.97-.03l-.55-.34c-1.71-1.05-3.62-1.56-5.52-1.56-2.24-.25-4.57,.22-6.61,1.46l-.77,.47c-3.37,2.05-7.61,2.03-10.97-.03l-.55-.34c-1.78-1.09-3.78-1.6-5.75-1.55-2.25-.25-4.59,.21-6.64,1.46l-.77,.47c-3.37,2.05-7.61,2.03-10.97-.03l-.55-.34c-1.71-1.05-3.62-1.56-5.52-1.56-2.24-.25-4.57,.22-6.61,1.46l-.77,.47c-3.37,2.05-7.61,2.03-10.97-.03l-.55-.34c-1.78-1.09-3.78-1.6-5.75-1.55-2.25-.25-4.59,.21-6.64,1.46l-.77,.47c-3.37,2.05-7.61,2.03-10.97-.03l-.55-.34c-1.71-1.05-3.62-1.56-5.52-1.56-2.24-.25-4.57,.22-6.61,1.46l-.77,.47c-3.37,2.05-7.61,2.03-10.97-.03l-.55-.34c-1.78-1.09-3.78-1.6-5.75-1.55-2.25-.25-4.59,.21-6.64,1.46l-.77,.47c-3.37,2.05-7.61,2.03-10.97-.03l-.55-.34c-1.71-1.05-3.62-1.56-5.52-1.56-2.24-.25-4.57,.22-6.61,1.46l-.77,.47c-3.37,2.05-7.61,2.03-10.97-.03l-.55-.34c-1.78-1.09-3.78-1.6-5.75-1.55-2.25-.25-4.59,.21-6.64,1.46l-.77,.47c-3.37,2.05-7.61,2.03-10.97-.03l-.55-.34c-1.71-1.05-3.62-1.56-5.52-1.56-2.24-.25-4.57,.22-6.61,1.46l-.77,.47c-3.37,2.05-7.61,2.03-10.97-.03l-.55-.34c-4.25-2.62-9.77-1.88-13.18,1.76l-.3,.32c-.78,.83-1.4,1.76-1.86,2.74-.61,1.31-.89,2.76-.89,4.21v45.97c0,1.45,.28,2.89,.89,4.21,.46,.98,1.07,1.91,1.86,2.74l.3,.32c3.41,3.64,8.93,4.38,13.18,1.76l.55-.34c3.36-2.07,7.59-2.08,10.97-.03l.77,.47c2.04,1.24,4.37,1.71,6.61,1.46,1.9,0,3.81-.51,5.52-1.56l.55-.34c3.36-2.07,7.59-2.08,10.97-.03l.77,.47c2.05,1.24,4.39,1.71,6.64,1.46,1.97,.05,3.97-.46,5.75-1.55l.55-.34c3.36-2.07,7.59-2.08,10.97-.03l.77,.47c2.04,1.24,4.37,1.71,6.61,1.46,1.9,0,3.81-.51,5.52-1.56l.55-.34c3.36-2.07,7.59-2.08,10.97-.03l.77,.47c2.05,1.24,4.39,1.71,6.64,1.46,1.97,.05,3.97-.46,5.75-1.55l.55-.34c3.36-2.07,7.59-2.08,10.97-.03l.77,.47c2.04,1.24,4.37,1.71,6.61,1.46,1.9,0,3.81-.51,5.52-1.56l.55-.34c3.36-2.07,7.59-2.08,10.97-.03l.77,.47c2.05,1.24,4.39,1.71,6.64,1.46,1.97,.05,3.97-.46,5.75-1.55l.55-.34c3.36-2.07,7.59-2.08,10.97-.03l.77,.47c2.04,1.24,4.37,1.71,6.61,1.46,1.9,0,3.81-.51,5.52-1.56l.55-.34c3.36-2.07,7.59-2.08,10.97-.03l.77,.47Z"/>
        <text class="cls-4" transform="translate(85.24 65.64)"><tspan class="cls-7" x="0" y="0">H</tspan><tspan class="cls-10" x="19.52" y="0">e</tspan><tspan class="cls-9" x="33.37" y="0">l</tspan><tspan class="cls-5" x="40.93" y="0">a</tspan><tspan class="cls-2" x="56.01" y="0">de</tspan><tspan class="cls-6" x="87.29" y="0">r</tspan><tspan class="cls-8" x="101.92" y="0">í</tspan><tspan x="109.43" y="0">a</tspan></text>
      </g>
    </g>
  </g>
</svg>