<svg xmlns="http://www.w3.org/2000/svg" viewBox="0 0 296.19 112.66" xmlns:v="https://vecta.io/nano"><style><![CDATA[.H{letter-spacing:-.04em}.G{letter-spacing:-.03em}.I{letter-spacing:-.02em}.D{letter-spacing:-.04em}.J{letter-spacing:-.03em}.F{letter-spacing:-.02em}.E{letter-spacing:-.05em}]]></style><path d="M295.19 93.66V1H30.93c-.55 0-1-.45-1-1H0v76.99c0 4.85.93 9.69 2.98 14.09a35.07 35.07 0 0 0 6.21 9.18l1 1.06c11.44 12.2 29.9 14.67 44.16 5.9l1.83-1.12a35.26 35.26 0 0 1 36.74-.11l2.58 1.56c6.84 4.14 14.62 5.71 22.13 4.89a35.21 35.21 0 0 0 18.49-5.22l1.83-1.12a35.26 35.26 0 0 1 36.74-.11l2.58 1.56a35.18 35.18 0 0 0 22.24 4.88c6.61.15 13.3-1.54 19.25-5.2l1.83-1.12a35.26 35.26 0 0 1 36.74-.11l2.58 1.56c6.84 4.14 14.62 5.71 22.13 4.89a35.39 35.39 0 0 0 14.16-2.95V94.67c-.55 0-1-.45-1-1z" fill="#fcc10c"/><path d="M29.93 0c0 .55.45 1 1 1h264.26v92.66c0 .55.45 1 1 1V0H29.93z" fill="#55131d"/><path d="M215.62 88.43c2.05 1.24 4.39 1.71 6.64 1.46a10.49 10.49 0 0 0 5.75-1.55l.55-.34a10.51 10.51 0 0 1 10.97-.03l.77.47c2.04 1.24 4.37 1.71 6.61 1.46 1.9 0 3.81-.51 5.52-1.56l.55-.34a10.51 10.51 0 0 1 10.97-.03l.77.47a10.52 10.52 0 0 0 13.09-1.75l.13-.13.27-.29c1.68-1.91 2.54-4.4 2.54-6.94v-46c0-2.54-.87-5.03-2.54-6.94l-.27-.29-.13-.13a10.52 10.52 0 0 0-13.09-1.75l-.77.47a10.53 10.53 0 0 1-10.97-.03l-.55-.34c-1.71-1.05-3.62-1.56-5.52-1.56-2.24-.25-4.57.22-6.61 1.46l-.77.47a10.53 10.53 0 0 1-10.97-.03l-.55-.34a10.49 10.49 0 0 0-5.75-1.55c-2.25-.25-4.59.21-6.64 1.46l-.77.47a10.53 10.53 0 0 1-10.97-.03l-.55-.34c-1.71-1.05-3.62-1.56-5.52-1.56-2.24-.25-4.57.22-6.61 1.46l-.77.47a10.53 10.53 0 0 1-10.97-.03l-.55-.34a10.49 10.49 0 0 0-5.75-1.55c-2.25-.25-4.59.21-6.64 1.46l-.77.47a10.53 10.53 0 0 1-10.97-.03l-.55-.34c-1.71-1.05-3.62-1.56-5.52-1.56-2.24-.25-4.57.22-6.61 1.46l-.77.47a10.53 10.53 0 0 1-10.97-.03l-.55-.34a10.49 10.49 0 0 0-5.75-1.55c-2.25-.25-4.59.21-6.64 1.46l-.77.47a10.53 10.53 0 0 1-10.97-.03l-.55-.34c-1.71-1.05-3.62-1.56-5.52-1.56-2.24-.25-4.57.22-6.61 1.46l-.77.47a10.53 10.53 0 0 1-10.97-.03l-.55-.34a10.49 10.49 0 0 0-5.75-1.55c-2.25-.25-4.59.21-6.64 1.46l-.77.47a10.53 10.53 0 0 1-10.97-.03l-.55-.34c-1.71-1.05-3.62-1.56-5.52-1.56-2.24-.25-4.57.22-6.61 1.46l-.77.47a10.53 10.53 0 0 1-10.97-.03l-.55-.34c-4.25-2.62-9.77-1.88-13.18 1.76l-.3.32a10.54 10.54 0 0 0-1.86 2.74c-.61 1.31-.89 2.76-.89 4.21v45.97c0 1.45.28 2.89.89 4.21.46.98 1.07 1.91 1.86 2.74l.3.32c3.41 3.64 8.93 4.38 13.18 1.76l.55-.34a10.51 10.51 0 0 1 10.97-.03l.77.47c2.04 1.24 4.37 1.71 6.61 1.46 1.9 0 3.81-.51 5.52-1.56l.55-.34a10.51 10.51 0 0 1 10.97-.03l.77.47c2.05 1.24 4.39 1.71 6.64 1.46a10.49 10.49 0 0 0 5.75-1.55l.55-.34a10.51 10.51 0 0 1 10.97-.03l.77.47c2.04 1.24 4.37 1.71 6.61 1.46 1.9 0 3.81-.51 5.52-1.56l.55-.34a10.51 10.51 0 0 1 10.97-.03l.77.47c2.05 1.24 4.39 1.71 6.64 1.46a10.49 10.49 0 0 0 5.75-1.55l.55-.34a10.51 10.51 0 0 1 10.97-.03l.77.47c2.04 1.24 4.37 1.71 6.61 1.46 1.9 0 3.81-.51 5.52-1.56l.55-.34a10.51 10.51 0 0 1 10.97-.03l.77.47c2.05 1.24 4.39 1.71 6.64 1.46a10.49 10.49 0 0 0 5.75-1.55l.55-.34a10.51 10.51 0 0 1 10.97-.03l.77.47c2.04 1.24 4.37 1.71 6.61 1.46 1.9 0 3.81-.51 5.52-1.56l.55-.34a10.51 10.51 0 0 1 10.97-.03l.77.47z" fill="#fcc10c"/><text fill="#55131d" font-family="PPWoodland-Bold,PP Woodland" font-size="26.24" font-weight="700"><tspan class="D" x="85.24" y="65.64">H</tspan><tspan class="E" x="104.76" y="65.64">e</tspan><tspan class="F" x="118.61" y="65.64">l</tspan><tspan class="G" x="126.17" y="65.64">a</tspan><tspan class="H" x="141.25" y="65.64">de</tspan><tspan class="I" x="172.53" y="65.64">r</tspan><tspan class="J" x="187.16" y="65.64">í</tspan><tspan x="194.67" y="65.64">a</tspan></text></svg>