<svg xmlns="http://www.w3.org/2000/svg" viewBox="0 0 296.19 112.66" xmlns:v="https://vecta.io/nano"><style><![CDATA[.F{letter-spacing:-.05em}.D{letter-spacing:-.04em}.E{letter-spacing:-.05em}]]></style><path d="M29.93 112.65c0-.55.45-1 1-1h264.26V18.99c0-.55.45-1 1-1V3.17A35.05 35.05 0 0 0 282.03.22c-7.51-.83-15.3.74-22.13 4.89l-2.58 1.56a35.26 35.26 0 0 1-36.74-.11l-1.83-1.12A34.98 34.98 0 0 0 199.5.23a35.18 35.18 0 0 0-22.24 4.88l-2.58 1.56a35.26 35.26 0 0 1-36.74-.11l-1.83-1.12A35.04 35.04 0 0 0 117.62.21c-7.51-.83-15.3.74-22.13 4.89l-2.58 1.56a35.26 35.26 0 0 1-36.74-.11l-1.83-1.12c-14.25-8.76-32.72-6.29-44.15 5.9l-1 1.06a35.07 35.07 0 0 0-6.21 9.18C.93 25.98 0 30.81 0 35.67v76.99h29.93z" fill="#fcc10c"/><path d="M296.19 17.99c-.55 0-1 .45-1 1v92.66H30.93c-.55 0-1 .45-1 1h0 266.26V17.99z" fill="#55131d"/><path d="M215.62 88.43c2.05 1.24 4.39 1.71 6.64 1.46a10.49 10.49 0 0 0 5.75-1.55l.55-.34a10.51 10.51 0 0 1 10.97-.03l.77.47c2.04 1.24 4.37 1.71 6.61 1.46 1.9 0 3.81-.51 5.52-1.56l.55-.34a10.51 10.51 0 0 1 10.97-.03l.77.47a10.52 10.52 0 0 0 13.09-1.75l.13-.13.27-.29c1.68-1.91 2.54-4.4 2.54-6.94v-46c0-2.54-.87-5.03-2.54-6.94l-.27-.29-.13-.13a10.52 10.52 0 0 0-13.09-1.75l-.77.47a10.53 10.53 0 0 1-10.97-.03l-.55-.34c-1.71-1.05-3.62-1.56-5.52-1.56-2.24-.25-4.57.22-6.61 1.46l-.77.47a10.53 10.53 0 0 1-10.97-.03l-.55-.34a10.49 10.49 0 0 0-5.75-1.55c-2.25-.25-4.59.21-6.64 1.46l-.77.47a10.53 10.53 0 0 1-10.97-.03l-.55-.34c-1.71-1.05-3.62-1.56-5.52-1.56-2.24-.25-4.57.22-6.61 1.46l-.77.47a10.53 10.53 0 0 1-10.97-.03l-.55-.34a10.49 10.49 0 0 0-5.75-1.55c-2.25-.25-4.59.21-6.64 1.46l-.77.47a10.53 10.53 0 0 1-10.97-.03l-.55-.34c-1.71-1.05-3.62-1.56-5.52-1.56-2.24-.25-4.57.22-6.61 1.46l-.77.47a10.53 10.53 0 0 1-10.97-.03l-.55-.34a10.49 10.49 0 0 0-5.75-1.55c-2.25-.25-4.59.21-6.64 1.46l-.77.47a10.53 10.53 0 0 1-10.97-.03l-.55-.34c-1.71-1.05-3.62-1.56-5.52-1.56-2.24-.25-4.57.22-6.61 1.46l-.77.47a10.53 10.53 0 0 1-10.97-.03l-.55-.34a10.49 10.49 0 0 0-5.75-1.55c-2.25-.25-4.59.21-6.64 1.46l-.77.47a10.53 10.53 0 0 1-10.97-.03l-.55-.34c-1.71-1.05-3.62-1.56-5.52-1.56-2.24-.25-4.57.22-6.61 1.46l-.77.47a10.53 10.53 0 0 1-10.97-.03l-.55-.34c-4.25-2.62-9.77-1.88-13.18 1.76l-.3.32a10.54 10.54 0 0 0-1.86 2.74c-.61 1.31-.89 2.76-.89 4.21v45.97c0 1.45.28 2.89.89 4.21.46.98 1.07 1.91 1.86 2.74l.3.32c3.41 3.64 8.93 4.38 13.18 1.76l.55-.34a10.51 10.51 0 0 1 10.97-.03l.77.47c2.04 1.24 4.37 1.71 6.61 1.46 1.9 0 3.81-.51 5.52-1.56l.55-.34a10.51 10.51 0 0 1 10.97-.03l.77.47c2.05 1.24 4.39 1.71 6.64 1.46a10.49 10.49 0 0 0 5.75-1.55l.55-.34a10.51 10.51 0 0 1 10.97-.03l.77.47c2.04 1.24 4.37 1.71 6.61 1.46 1.9 0 3.81-.51 5.52-1.56l.55-.34a10.51 10.51 0 0 1 10.97-.03l.77.47c2.05 1.24 4.39 1.71 6.64 1.46a10.49 10.49 0 0 0 5.75-1.55l.55-.34a10.51 10.51 0 0 1 10.97-.03l.77.47c2.04 1.24 4.37 1.71 6.61 1.46 1.9 0 3.81-.51 5.52-1.56l.55-.34a10.51 10.51 0 0 1 10.97-.03l.77.47c2.05 1.24 4.39 1.71 6.64 1.46a10.49 10.49 0 0 0 5.75-1.55l.55-.34a10.51 10.51 0 0 1 10.97-.03l.77.47c2.04 1.24 4.37 1.71 6.61 1.46 1.9 0 3.81-.51 5.52-1.56l.55-.34a10.51 10.51 0 0 1 10.97-.03l.77.47z" fill="#fcc10c"/><text fill="#55131d" font-family="PPWoodland-Bold,PP Woodland" font-size="26.24" font-weight="700"><tspan class="D" x="111.08" y="65.64">H</tspan><tspan class="E" x="130.6" y="65.64">o</tspan><tspan class="F" x="145.87" y="65.64">m</tspan><tspan x="169.79" y="65.64">e</tspan></text></svg>