<svg xmlns="http://www.w3.org/2000/svg" viewBox="0 0 296.19 112.66" xmlns:v="https://vecta.io/nano"><style><![CDATA[.H{letter-spacing:-.03em}.K{letter-spacing:-.03em}.G{letter-spacing:-.03em}.F{letter-spacing:-.04em}.E{letter-spacing:-.01em}.I{letter-spacing:-.02em}.D{letter-spacing:-.04em}.J{letter-spacing:-.05em}]]></style><path d="M0 17.99c.55 0 1 .45 1 1v92.66h294.19V18.99c0-.55.45-1 1-1h0V3.17a35.55 35.55 0 0 0-3.66 1.93l-2.58 1.56a35.26 35.26 0 0 1-36.74-.11l-1.83-1.12c-5.95-3.66-12.64-5.36-19.25-5.2-7.54-.85-15.38.71-22.24 4.88l-2.58 1.56a35.26 35.26 0 0 1-36.74-.11l-1.83-1.12C163.01 1.92 156.61.22 150.25.22c-7.51-.83-15.3.74-22.13 4.89l-2.58 1.56a35.26 35.26 0 0 1-36.74-.11l-1.83-1.12A34.98 34.98 0 0 0 67.72.23a35.18 35.18 0 0 0-22.24 4.88L42.9 6.67a35.26 35.26 0 0 1-36.74-.11L4.33 5.44C2.92 4.58 1.48 3.82 0 3.18v14.83h0z" fill="#fcc10c"/><path d="M296.19 112.66V17.99h0c-.55 0-1 .45-1 1v92.66H1V18.99c0-.55-.45-1-1-1h0v94.67h296.19z" fill="#55131d"/><path d="M215.62 88.43c2.05 1.24 4.39 1.71 6.64 1.46a10.49 10.49 0 0 0 5.75-1.55l.55-.34a10.51 10.51 0 0 1 10.97-.03l.77.47c2.04 1.24 4.37 1.71 6.61 1.46 1.9 0 3.81-.51 5.52-1.56l.55-.34a10.51 10.51 0 0 1 10.97-.03l.77.47a10.52 10.52 0 0 0 13.09-1.75l.13-.13.27-.29c1.68-1.91 2.54-4.4 2.54-6.94v-46c0-2.54-.87-5.03-2.54-6.94l-.27-.29-.13-.13a10.52 10.52 0 0 0-13.09-1.75l-.77.47a10.53 10.53 0 0 1-10.97-.03l-.55-.34c-1.71-1.05-3.62-1.56-5.52-1.56-2.24-.25-4.57.22-6.61 1.46l-.77.47a10.53 10.53 0 0 1-10.97-.03l-.55-.34a10.49 10.49 0 0 0-5.75-1.55c-2.25-.25-4.59.21-6.64 1.46l-.77.47a10.53 10.53 0 0 1-10.97-.03l-.55-.34c-1.71-1.05-3.62-1.56-5.52-1.56-2.24-.25-4.57.22-6.61 1.46l-.77.47a10.53 10.53 0 0 1-10.97-.03l-.55-.34a10.49 10.49 0 0 0-5.75-1.55c-2.25-.25-4.59.21-6.64 1.46l-.77.47a10.53 10.53 0 0 1-10.97-.03l-.55-.34c-1.71-1.05-3.62-1.56-5.52-1.56-2.24-.25-4.57.22-6.61 1.46l-.77.47a10.53 10.53 0 0 1-10.97-.03l-.55-.34a10.49 10.49 0 0 0-5.75-1.55c-2.25-.25-4.59.21-6.64 1.46l-.77.47a10.53 10.53 0 0 1-10.97-.03l-.55-.34c-1.71-1.05-3.62-1.56-5.52-1.56-2.24-.25-4.57.22-6.61 1.46l-.77.47a10.53 10.53 0 0 1-10.97-.03l-.55-.34a10.49 10.49 0 0 0-5.75-1.55c-2.25-.25-4.59.21-6.64 1.46l-.77.47a10.53 10.53 0 0 1-10.97-.03l-.55-.34c-1.71-1.05-3.62-1.56-5.52-1.56-2.24-.25-4.57.22-6.61 1.46l-.77.47a10.53 10.53 0 0 1-10.97-.03l-.55-.34c-4.25-2.62-9.77-1.88-13.18 1.76l-.3.32a10.54 10.54 0 0 0-1.86 2.74c-.61 1.31-.89 2.76-.89 4.21v45.97c0 1.45.28 2.89.89 4.21.46.98 1.07 1.91 1.86 2.74l.3.32c3.41 3.64 8.93 4.38 13.18 1.76l.55-.34a10.51 10.51 0 0 1 10.97-.03l.77.47c2.04 1.24 4.37 1.71 6.61 1.46 1.9 0 3.81-.51 5.52-1.56l.55-.34a10.51 10.51 0 0 1 10.97-.03l.77.47c2.05 1.24 4.39 1.71 6.64 1.46a10.49 10.49 0 0 0 5.75-1.55l.55-.34a10.51 10.51 0 0 1 10.97-.03l.77.47c2.04 1.24 4.37 1.71 6.61 1.46 1.9 0 3.81-.51 5.52-1.56l.55-.34a10.51 10.51 0 0 1 10.97-.03l.77.47c2.05 1.24 4.39 1.71 6.64 1.46a10.49 10.49 0 0 0 5.75-1.55l.55-.34a10.51 10.51 0 0 1 10.97-.03l.77.47c2.04 1.24 4.37 1.71 6.61 1.46 1.9 0 3.81-.51 5.52-1.56l.55-.34a10.51 10.51 0 0 1 10.97-.03l.77.47c2.05 1.24 4.39 1.71 6.64 1.46a10.49 10.49 0 0 0 5.75-1.55l.55-.34a10.51 10.51 0 0 1 10.97-.03l.77.47c2.04 1.24 4.37 1.71 6.61 1.46 1.9 0 3.81-.51 5.52-1.56l.55-.34a10.51 10.51 0 0 1 10.97-.03l.77.47z" fill="#fcc10c"/><text fill="#55131d" font-family="PPWoodland-Bold,PP Woodland" font-size="26.24" font-weight="700"><tspan class="D" x="31.52" y="65.64">Nu</tspan><tspan class="E" x="67.67" y="65.64">e</tspan><tspan class="F" x="82.42" y="65.64">s</tspan><tspan class="G" x="95.04" y="65.64">t</tspan><tspan class="H" x="106.45" y="65.64">r</tspan><tspan class="E" x="120.88" y="65.64">o</tspan><tspan x="137.04" y="65.64">s </tspan><tspan class="E" x="156.43" y="65.64">S</tspan><tspan class="G" x="173.69" y="65.64">a</tspan><tspan class="I" x="188.77" y="65.64">b</tspan><tspan class="J" x="206.25" y="65.64">o</tspan><tspan class="K" x="221.52" y="65.64">r</tspan><tspan class="E" x="235.95" y="65.64">e</tspan><tspan x="250.69" y="65.64">s</tspan></text></svg>