<?xml version="1.0" encoding="UTF-8"?>
<svg id="Capa_2" data-name="Capa 2" xmlns="http://www.w3.org/2000/svg" viewBox="0 0 888.57 225.32">
  <defs>
    <style>
      .cls-1 {
        fill: #fcc10c;
      }

      .cls-2 {
        fill: #55131d;
      }
    </style>
  </defs>
  <g id="Capa_1-2" data-name="Capa 1">
    <g>
      <path class="cls-1" d="M670.49,220.21c6.87,4.17,14.7,5.73,22.24,4.88,6.61,.15,13.3-1.54,19.25-5.2l1.83-1.12c11.26-6.92,25.44-6.96,36.74-.11l2.58,1.56c6.84,4.15,14.62,5.72,22.13,4.89,6.36,0,12.77-1.7,18.49-5.22l1.83-1.12c11.26-6.92,25.44-6.96,36.74-.11l2.58,1.56c14.17,8.6,32.44,6.15,43.84-5.87l.42-.44c.31-.32,.61-.65,.9-.98,5.62-6.39,8.52-14.73,8.52-23.24V35.64c0-8.51-2.9-16.85-8.52-23.24-.29-.33-.59-.66-.9-.98l-.42-.44c-11.4-12.02-29.67-14.46-43.84-5.87l-2.58,1.56c-11.3,6.85-25.48,6.81-36.74-.11l-1.83-1.12c-5.73-3.52-12.13-5.22-18.49-5.22-7.51-.83-15.3,.74-22.13,4.89l-2.58,1.56c-11.3,6.85-25.48,6.81-36.74-.11l-1.83-1.12c-5.96-3.66-12.65-5.35-19.25-5.2-7.54-.85-15.37,.71-22.24,4.88l-2.58,1.56c-11.3,6.85-25.48,6.81-36.74-.11l-1.83-1.12c-5.73-3.52-12.13-5.22-18.49-5.22-7.51-.83-15.3,.74-22.13,4.89l-2.58,1.56c-11.3,6.85-25.48,6.81-36.74-.11l-1.83-1.12c-5.96-3.66-12.65-5.35-19.25-5.2-7.54-.85-15.37,.71-22.24,4.88l-2.58,1.56c-11.3,6.85-25.48,6.81-36.74-.11l-1.83-1.12c-5.73-3.52-12.13-5.22-18.49-5.22-7.51-.83-15.3,.74-22.13,4.89l-2.58,1.56c-11.3,6.85-25.48,6.81-36.74-.11l-1.83-1.12c-5.96-3.66-12.65-5.35-19.25-5.2-7.54-.85-15.37,.71-22.24,4.88l-2.58,1.56c-11.3,6.85-25.48,6.81-36.74-.11l-1.83-1.12c-5.73-3.52-12.13-5.22-18.49-5.22-7.51-.83-15.3,.74-22.13,4.89l-2.58,1.56c-11.3,6.85-25.48,6.81-36.74-.11l-1.83-1.12C212.8,1.77,206.11,.08,199.5,.23c-7.54-.85-15.37,.71-22.24,4.88l-2.58,1.56c-11.3,6.85-25.48,6.81-36.74-.11l-1.83-1.12C130.39,1.91,123.98,.21,117.62,.22c-7.51-.83-15.3,.74-22.13,4.89l-2.58,1.56c-11.3,6.85-25.48,6.81-36.74-.11l-1.83-1.12C40.09-3.33,21.62-.86,10.19,11.34l-1,1.06c-2.61,2.79-4.68,5.89-6.21,9.18C.93,25.98,0,30.82,0,35.67V189.65c0,4.85,.93,9.69,2.97,14.09,1.53,3.29,3.6,6.39,6.21,9.18l1,1.06c11.44,12.2,29.9,14.67,44.16,5.9l1.83-1.12c11.26-6.92,25.44-6.96,36.74-.11l2.58,1.56c6.84,4.15,14.62,5.72,22.13,4.89,6.36,0,12.77-1.7,18.49-5.22l1.83-1.12c11.26-6.92,25.44-6.96,36.74-.11l2.58,1.56c6.87,4.17,14.7,5.73,22.24,4.88,6.61,.15,13.3-1.54,19.25-5.2l1.83-1.12c11.26-6.92,25.44-6.96,36.74-.11l2.58,1.56c6.84,4.15,14.62,5.72,22.13,4.89,6.36,0,12.77-1.7,18.49-5.22l1.83-1.12c11.26-6.92,25.44-6.96,36.74-.11l2.58,1.56c6.87,4.17,14.7,5.73,22.24,4.88,6.61,.15,13.3-1.54,19.25-5.2l1.83-1.12c11.26-6.92,25.44-6.96,36.74-.11l2.58,1.56c6.84,4.15,14.62,5.72,22.13,4.89,6.36,0,12.77-1.7,18.49-5.22l1.83-1.12c11.26-6.92,25.44-6.96,36.74-.11l2.58,1.56c6.87,4.17,14.7,5.73,22.24,4.88,6.61,.15,13.3-1.54,19.25-5.2l1.83-1.12c11.26-6.92,25.44-6.96,36.74-.11l2.58,1.56c6.84,4.15,14.62,5.72,22.13,4.89,6.36,0,12.77-1.7,18.49-5.22l1.83-1.12c11.26-6.92,25.44-6.96,36.74-.11l2.58,1.56Z"/>
      <g>
        <path class="cls-2" d="M215.79,102.2c0,19.07-16.17,18.98-27.07,18.98h-9.32v9.49c0,5.62,1.23,7.73,4.39,7.73v2.81h-20.92v-2.81c3.16,0,4.39-2.11,4.39-7.73v-36.91c0-5.62-1.23-7.73-4.39-7.73v-2.81h25.84c10.9,0,27.07,0,27.07,18.98Zm-12.13,0c0-11.25-5.27-14.41-15.12-14.41h-9.14v28.83h9.14c9.84,0,15.12-3.16,15.12-14.41Z"/>
        <path class="cls-2" d="M265.27,116.7l-12.13-1.76c4.57-10.28,2.99-13.97-1.23-13.97-7.65,0-13.45,12.39-13.45,24.43v5.27c0,5.62,1.23,7.73,4.39,7.73v2.81h-20.92v-2.81c3.16,0,4.39-2.11,4.39-7.73v-22.85c0-5.62-1.23-7.73-4.39-7.73v-2.81h5.8c6.86,0,10.72,.44,10.72,7.29v5.36h.88c1.76-5.62,7.12-13.54,16.88-13.54s12.57,7.12,9.05,20.3Z"/>
        <path class="cls-2" d="M294.36,96.4c16.61,0,24.08,10.99,24.08,22.85s-7.47,22.85-24.08,22.85-24.08-10.99-24.08-22.85,7.47-22.85,24.08-22.85Zm2.46,40.96c8.26-1.05,10.81-8.44,9.4-19.6-1.41-11.07-5.62-17.67-14.33-16.61-8.26,1.05-10.81,8.44-9.4,19.6,1.41,11.07,5.62,17.67,14.33,16.61Z"/>
        <path class="cls-2" d="M399.12,138.41v2.81h-20.92v-2.81c3.16,0,4.39-2.11,4.39-7.73v-22.41c0-4.83-1.76-7.29-4.92-7.29-6.59,0-11.34,11.69-11.34,24.43v5.27c0,5.62,1.23,7.73,4.39,7.73v2.81h-20.92v-2.81c3.16,0,4.39-2.11,4.39-7.73v-22.41c0-4.83-1.76-7.29-4.92-7.29-6.59,0-11.34,11.69-11.34,24.43v5.27c0,5.62,1.23,7.73,4.39,7.73v2.81h-20.92v-2.81c3.16,0,4.39-2.11,4.39-7.73v-22.85c0-5.62-1.23-7.73-4.39-7.73v-2.81h5.8c6.86,0,10.72,.44,10.72,7.29v5.36h.88c2.2-8.61,6.94-13.54,14.94-13.54,7.29,0,11.95,4.31,12.48,13.54h.79c2.37-8.61,7.12-13.54,15.12-13.54s12.57,4.83,12.57,15.38v18.9c0,5.62,1.23,7.73,4.39,7.73Z"/>
        <path class="cls-2" d="M425.66,96.4c16.61,0,24.08,10.99,24.08,22.85s-7.47,22.85-24.08,22.85-24.08-10.99-24.08-22.85,7.47-22.85,24.08-22.85Zm2.46,40.96c8.26-1.05,10.81-8.44,9.4-19.6-1.41-11.07-5.62-17.67-14.33-16.61-8.26,1.05-10.81,8.44-9.4,19.6,1.41,11.07,5.62,17.67,14.33,16.61Z"/>
        <path class="cls-2" d="M479.18,96.4c14.77,0,21.97,8.26,21.53,19.34l-12.13-1.76c.88-8.61-2.81-13.01-9.49-13.01-8.96,0-11.95,7.03-11.95,18.28s2.99,18.28,11.95,18.28c6.68,0,11.25-4.39,10.37-13.89l12.13-1.76c.44,11.95-7.73,20.21-22.5,20.21-17.49,0-24.08-10.99-24.08-22.85s6.68-22.85,24.17-22.85Z"/>
        <path class="cls-2" d="M522.33,130.68c0,5.62,1.23,7.73,4.39,7.73v2.81h-20.92v-2.81c3.16,0,4.39-2.11,4.39-7.73v-22.85c0-5.62-1.23-7.73-4.39-7.73v-2.81h5.8c7.12,0,10.72,.44,10.72,7.65v25.75Zm-13.36-43.07c0-2.9,2.37-5.27,6.42-5.27s6.42,2.37,6.42,5.27c0,3.16-2.46,5.45-6.42,5.45s-6.42-2.29-6.42-5.45Z"/>
        <path class="cls-2" d="M554.14,96.4c16.61,0,24.08,10.99,24.08,22.85s-7.47,22.85-24.08,22.85-24.08-10.99-24.08-22.85,7.47-22.85,24.08-22.85Zm2.46,40.96c8.26-1.05,10.81-8.44,9.4-19.6-1.41-11.07-5.62-17.67-14.33-16.61-8.26,1.05-10.81,8.44-9.4,19.6,1.41,11.07,5.62,17.67,14.33,16.61Z"/>
        <path class="cls-2" d="M634.03,138.41v2.81h-20.92v-2.81c3.16,0,4.39-2.11,4.39-7.73v-20.48c0-5.89-1.93-9.23-6.77-9.23-8.96,0-13.01,12.39-13.01,24.43v5.27c0,5.62,1.23,7.73,4.39,7.73v2.81h-20.92v-2.81c3.16,0,4.39-2.11,4.39-7.73v-22.85c0-5.62-1.23-7.73-4.39-7.73v-2.81h5.8c6.86,0,10.72,.44,10.72,7.29v5.36h.88c1.85-8.26,6.94-13.54,15.82-13.54s15.21,5.36,15.21,16.79v17.49c0,5.62,1.23,7.73,4.39,7.73Z"/>
        <path class="cls-2" d="M679.64,124.7c.88,9.4-6.06,17.4-19.25,17.4-17.05,0-23.91-9.4-23.91-21.71,0-14.94,10.02-23.99,24.79-23.99,10.9,0,18.63,4.66,18.63,12.92,0,13.45-19.51,14.94-31.29,11.95,.09,8.88,3.6,16.26,11.43,16.26,5.45,0,8.61-2.46,7.47-10.55l12.13-2.29Zm-30.85-8.17c12.48,2.99,18.98-.18,18.98-7.47,0-5.19-2.55-8.09-7.65-8.09-7.47,0-10.63,5.98-11.34,15.56Z"/>
        <path class="cls-2" d="M704.95,96.4c11.16,0,22.41,3.87,18.9,16.26l-12.13-1.76c2.64-8-2.11-9.93-6.5-9.93-5.36,0-7.21,2.64-7.21,5.71,0,4.04,2.02,5.62,9.84,7.82,9.32,2.55,17.84,4.83,17.84,14.06,0,10.11-9.05,13.54-19.07,13.54-12.22,0-24.52-3.87-21.01-18.72l12.13,1.76c-3.52,10.02,1.76,12.39,8.17,12.39,5.45,0,7.65-2.9,7.65-6.77,0-5.01-4.31-6.42-10.63-8.35-9.67-2.72-17.05-5.1-17.05-13.71s8.35-12.3,19.07-12.3Z"/>
      </g>
    </g>
  </g>
</svg>