<?xml version="1.0" encoding="UTF-8"?>
<svg id="Capa_2" data-name="Capa 2" xmlns="http://www.w3.org/2000/svg" viewBox="0 0 296.19 112.66">
  <defs>
    <style>
      .cls-1 {
        letter-spacing: -.07em;
      }

      .cls-2 {
        fill: #fcc10c;
      }

      .cls-3, .cls-4 {
        fill: #55131d;
      }

      .cls-4 {
        font-family: PPWoodland-Bold, 'PP Woodland';
        font-size: 26.24px;
        font-weight: 700;
      }

      .cls-5 {
        letter-spacing: -.08em;
      }

      .cls-6 {
        letter-spacing: -.03em;
      }

      .cls-7 {
        letter-spacing: -.07em;
      }

      .cls-8 {
        letter-spacing: -.01em;
      }

      .cls-9 {
        letter-spacing: -.05em;
      }

      .cls-10 {
        letter-spacing: -.04em;
      }
    </style>
  </defs>
  <g id="Capa_1-2" data-name="Capa 1">
    <g>
      <g>
        <path class="cls-2" d="M266.26,0c0,.55-.45,1-1,1H1V93.66c0,.55-.45,1-1,1v14.82c5.88,2.68,12.27,3.64,18.47,2.96,6.36,0,12.77-1.7,18.49-5.22l1.83-1.12c11.26-6.92,25.44-6.96,36.74-.11l2.58,1.56c6.87,4.17,14.7,5.73,22.24,4.88,6.61,.15,13.3-1.54,19.25-5.2l1.83-1.12c11.26-6.92,25.44-6.96,36.74-.11l2.58,1.56c6.84,4.14,14.62,5.71,22.13,4.89,6.36,0,12.77-1.7,18.49-5.22l1.83-1.12c11.26-6.92,25.44-6.96,36.74-.11l2.58,1.56c14.17,8.59,32.44,6.15,43.84-5.87l.42-.44c.31-.32,.6-.65,.9-.98,5.62-6.39,8.52-14.73,8.52-23.24V0h-29.93Z"/>
        <path class="cls-3" d="M0,94.66c.55,0,1-.45,1-1V1H265.26c.55,0,1-.45,1-1H0V94.66Z"/>
      </g>
      <g>
        <path class="cls-2" d="M215.62,88.44c2.05,1.24,4.39,1.71,6.64,1.46,1.97,.05,3.97-.46,5.75-1.55l.55-.34c3.36-2.07,7.59-2.08,10.97-.03l.77,.47c2.04,1.24,4.37,1.71,6.61,1.46,1.9,0,3.81-.51,5.52-1.56l.55-.34c3.36-2.07,7.59-2.08,10.97-.03l.77,.47c4.23,2.57,9.68,1.84,13.09-1.75l.13-.13c.09-.1,.18-.19,.27-.29,1.68-1.91,2.54-4.4,2.54-6.94V33.34c0-2.54-.87-5.03-2.54-6.94-.09-.1-.18-.2-.27-.29l-.13-.13c-3.4-3.59-8.86-4.32-13.09-1.75l-.77,.47c-3.37,2.05-7.61,2.03-10.97-.03l-.55-.34c-1.71-1.05-3.62-1.56-5.52-1.56-2.24-.25-4.57,.22-6.61,1.46l-.77,.47c-3.37,2.05-7.61,2.03-10.97-.03l-.55-.34c-1.78-1.09-3.78-1.6-5.75-1.55-2.25-.25-4.59,.21-6.64,1.46l-.77,.47c-3.37,2.05-7.61,2.03-10.97-.03l-.55-.34c-1.71-1.05-3.62-1.56-5.52-1.56-2.24-.25-4.57,.22-6.61,1.46l-.77,.47c-3.37,2.05-7.61,2.03-10.97-.03l-.55-.34c-1.78-1.09-3.78-1.6-5.75-1.55-2.25-.25-4.59,.21-6.64,1.46l-.77,.47c-3.37,2.05-7.61,2.03-10.97-.03l-.55-.34c-1.71-1.05-3.62-1.56-5.52-1.56-2.24-.25-4.57,.22-6.61,1.46l-.77,.47c-3.37,2.05-7.61,2.03-10.97-.03l-.55-.34c-1.78-1.09-3.78-1.6-5.75-1.55-2.25-.25-4.59,.21-6.64,1.46l-.77,.47c-3.37,2.05-7.61,2.03-10.97-.03l-.55-.34c-1.71-1.05-3.62-1.56-5.52-1.56-2.24-.25-4.57,.22-6.61,1.46l-.77,.47c-3.37,2.05-7.61,2.03-10.97-.03l-.55-.34c-1.78-1.09-3.78-1.6-5.75-1.55-2.25-.25-4.59,.21-6.64,1.46l-.77,.47c-3.37,2.05-7.61,2.03-10.97-.03l-.55-.34c-1.71-1.05-3.62-1.56-5.52-1.56-2.24-.25-4.57,.22-6.61,1.46l-.77,.47c-3.37,2.05-7.61,2.03-10.97-.03l-.55-.34c-4.25-2.62-9.77-1.88-13.18,1.76l-.3,.32c-.78,.83-1.4,1.76-1.86,2.74-.61,1.31-.89,2.76-.89,4.21v45.97c0,1.45,.28,2.89,.89,4.21,.46,.98,1.07,1.91,1.86,2.74l.3,.32c3.41,3.64,8.93,4.38,13.18,1.76l.55-.34c3.36-2.07,7.59-2.08,10.97-.03l.77,.47c2.04,1.24,4.37,1.71,6.61,1.46,1.9,0,3.81-.51,5.52-1.56l.55-.34c3.36-2.07,7.59-2.08,10.97-.03l.77,.47c2.05,1.24,4.39,1.71,6.64,1.46,1.97,.05,3.97-.46,5.75-1.55l.55-.34c3.36-2.07,7.59-2.08,10.97-.03l.77,.47c2.04,1.24,4.37,1.71,6.61,1.46,1.9,0,3.81-.51,5.52-1.56l.55-.34c3.36-2.07,7.59-2.08,10.97-.03l.77,.47c2.05,1.24,4.39,1.71,6.64,1.46,1.97,.05,3.97-.46,5.75-1.55l.55-.34c3.36-2.07,7.59-2.08,10.97-.03l.77,.47c2.04,1.24,4.37,1.71,6.61,1.46,1.9,0,3.81-.51,5.52-1.56l.55-.34c3.36-2.07,7.59-2.08,10.97-.03l.77,.47c2.05,1.24,4.39,1.71,6.64,1.46,1.97,.05,3.97-.46,5.75-1.55l.55-.34c3.36-2.07,7.59-2.08,10.97-.03l.77,.47c2.04,1.24,4.37,1.71,6.61,1.46,1.9,0,3.81-.51,5.52-1.56l.55-.34c3.36-2.07,7.59-2.08,10.97-.03l.77,.47Z"/>
        <text class="cls-4" transform="translate(46.95 64.86)"><tspan class="cls-10" x="0" y="0">N</tspan><tspan class="cls-8" x="19.44" y="0">o</tspan><tspan x="35.6" y="0">s </tspan><tspan class="cls-1" x="54.99" y="0">R</tspan><tspan class="cls-10" x="71.83" y="0">e</tspan><tspan class="cls-9" x="85.95" y="0">n</tspan><tspan class="cls-5" x="102.45" y="0">o</tspan><tspan class="cls-7" x="116.93" y="0">v</tspan><tspan class="cls-6" x="133.14" y="0">a</tspan><tspan class="cls-9" x="148.23" y="0">m</tspan><tspan class="cls-8" x="172.16" y="0">o</tspan><tspan x="188.32" y="0">s</tspan></text>
      </g>
    </g>
  </g>
</svg>