<svg xmlns="http://www.w3.org/2000/svg" viewBox="0 0 296.19 112.66" xmlns:v="https://vecta.io/nano"><style><![CDATA[.F{letter-spacing:-.07em}.H{letter-spacing:-.08em}.J{letter-spacing:-.03em}.I{letter-spacing:-.07em}.E{letter-spacing:-.01em}.G{letter-spacing:-.05em}.D{letter-spacing:-.04em}]]></style><path d="M296.19 94.66c-.55 0-1-.45-1-1V1H1v92.66c0 .55-.45 1-1 1h0v14.83a35.67 35.67 0 0 0 4.33-2.26l1.83-1.12A35.26 35.26 0 0 1 42.9 106l2.58 1.56a35.18 35.18 0 0 0 22.24 4.88c6.61.15 13.3-1.54 19.25-5.2l1.83-1.12a35.26 35.26 0 0 1 36.74-.11l2.58 1.56c6.84 4.14 14.62 5.71 22.13 4.89a35.21 35.21 0 0 0 18.49-5.22l1.83-1.12a35.26 35.26 0 0 1 36.74-.11l2.58 1.56a35.18 35.18 0 0 0 22.24 4.88c6.61.15 13.3-1.54 19.25-5.2l1.83-1.12a35.26 35.26 0 0 1 36.74-.11l2.58 1.56a36.61 36.61 0 0 0 3.66 1.93V94.69h0z" fill="#fcc10c"/><path d="M0 0v94.66h0c.55 0 1-.45 1-1V1h294.19v92.66c0 .55.45 1 1 1h0V0H0z" fill="#55131d"/><path d="M215.62 88.43c2.05 1.24 4.39 1.71 6.64 1.46a10.49 10.49 0 0 0 5.75-1.55l.55-.34a10.51 10.51 0 0 1 10.97-.03l.77.47c2.04 1.24 4.37 1.71 6.61 1.46 1.9 0 3.81-.51 5.52-1.56l.55-.34a10.51 10.51 0 0 1 10.97-.03l.77.47a10.52 10.52 0 0 0 13.09-1.75l.13-.13.27-.29c1.68-1.91 2.54-4.4 2.54-6.94v-46c0-2.54-.87-5.03-2.54-6.94l-.27-.29-.13-.13a10.52 10.52 0 0 0-13.09-1.75l-.77.47a10.53 10.53 0 0 1-10.97-.03l-.55-.34c-1.71-1.05-3.62-1.56-5.52-1.56-2.24-.25-4.57.22-6.61 1.46l-.77.47a10.53 10.53 0 0 1-10.97-.03l-.55-.34a10.49 10.49 0 0 0-5.75-1.55c-2.25-.25-4.59.21-6.64 1.46l-.77.47a10.53 10.53 0 0 1-10.97-.03l-.55-.34c-1.71-1.05-3.62-1.56-5.52-1.56-2.24-.25-4.57.22-6.61 1.46l-.77.47a10.53 10.53 0 0 1-10.97-.03l-.55-.34a10.49 10.49 0 0 0-5.75-1.55c-2.25-.25-4.59.21-6.64 1.46l-.77.47a10.53 10.53 0 0 1-10.97-.03l-.55-.34c-1.71-1.05-3.62-1.56-5.52-1.56-2.24-.25-4.57.22-6.61 1.46l-.77.47a10.53 10.53 0 0 1-10.97-.03l-.55-.34a10.49 10.49 0 0 0-5.75-1.55c-2.25-.25-4.59.21-6.64 1.46l-.77.47a10.53 10.53 0 0 1-10.97-.03l-.55-.34c-1.71-1.05-3.62-1.56-5.52-1.56-2.24-.25-4.57.22-6.61 1.46l-.77.47a10.53 10.53 0 0 1-10.97-.03l-.55-.34a10.49 10.49 0 0 0-5.75-1.55c-2.25-.25-4.59.21-6.64 1.46l-.77.47a10.53 10.53 0 0 1-10.97-.03l-.55-.34c-1.71-1.05-3.62-1.56-5.52-1.56-2.24-.25-4.57.22-6.61 1.46l-.77.47a10.53 10.53 0 0 1-10.97-.03l-.55-.34c-4.25-2.62-9.77-1.88-13.18 1.76l-.3.32a10.54 10.54 0 0 0-1.86 2.74c-.61 1.31-.89 2.76-.89 4.21v45.97c0 1.45.28 2.89.89 4.21.46.98 1.07 1.91 1.86 2.74l.3.32c3.41 3.64 8.93 4.38 13.18 1.76l.55-.34a10.51 10.51 0 0 1 10.97-.03l.77.47c2.04 1.24 4.37 1.71 6.61 1.46 1.9 0 3.81-.51 5.52-1.56l.55-.34a10.51 10.51 0 0 1 10.97-.03l.77.47c2.05 1.24 4.39 1.71 6.64 1.46a10.49 10.49 0 0 0 5.75-1.55l.55-.34a10.51 10.51 0 0 1 10.97-.03l.77.47c2.04 1.24 4.37 1.71 6.61 1.46 1.9 0 3.81-.51 5.52-1.56l.55-.34a10.51 10.51 0 0 1 10.97-.03l.77.47c2.05 1.24 4.39 1.71 6.64 1.46a10.49 10.49 0 0 0 5.75-1.55l.55-.34a10.51 10.51 0 0 1 10.97-.03l.77.47c2.04 1.24 4.37 1.71 6.61 1.46 1.9 0 3.81-.51 5.52-1.56l.55-.34a10.51 10.51 0 0 1 10.97-.03l.77.47c2.05 1.24 4.39 1.71 6.64 1.46a10.49 10.49 0 0 0 5.75-1.55l.55-.34a10.51 10.51 0 0 1 10.97-.03l.77.47c2.04 1.24 4.37 1.71 6.61 1.46 1.9 0 3.81-.51 5.52-1.56l.55-.34a10.51 10.51 0 0 1 10.97-.03l.77.47z" fill="#fcc10c"/><text fill="#55131d" font-family="PPWoodland-Bold,PP Woodland" font-size="26.24" font-weight="700"><tspan class="D" x="46.95" y="64.85">N</tspan><tspan class="E" x="66.39" y="64.85">o</tspan><tspan x="82.55" y="64.85">s </tspan><tspan class="F" x="101.94" y="64.85">R</tspan><tspan class="D" x="118.78" y="64.85">e</tspan><tspan class="G" x="132.9" y="64.85">n</tspan><tspan class="H" x="149.4" y="64.85">o</tspan><tspan class="I" x="163.88" y="64.85">v</tspan><tspan class="J" x="180.09" y="64.85">a</tspan><tspan class="G" x="195.18" y="64.85">m</tspan><tspan class="E" x="219.11" y="64.85">o</tspan><tspan x="235.27" y="64.85">s</tspan></text></svg>