<svg xmlns="http://www.w3.org/2000/svg" viewBox="0 0 888.57 225.32" xmlns:v="https://vecta.io/nano"><style><![CDATA[.E{letter-spacing:-.04em}.D{letter-spacing:-.01em}.I{letter-spacing:-.02em}.C{letter-spacing:-.04em}.J{letter-spacing:-.05em}.F{letter-spacing:-.03em}.K{letter-spacing:-.01em}.H{letter-spacing:-.01em}.G{letter-spacing:-.03em}]]></style><path d="M670.49 220.21a35.18 35.18 0 0 0 22.24 4.88c6.61.15 13.3-1.54 19.25-5.2l1.83-1.12a35.26 35.26 0 0 1 36.74-.11l2.58 1.56c6.84 4.15 14.62 5.72 22.13 4.89a35.21 35.21 0 0 0 18.49-5.22l1.83-1.12a35.26 35.26 0 0 1 36.74-.11l2.58 1.56a35.25 35.25 0 0 0 43.84-5.87l.42-.44a27.46 27.46 0 0 0 .9-.98c5.62-6.39 8.52-14.73 8.52-23.24V35.64c0-8.51-2.9-16.85-8.52-23.24a27.46 27.46 0 0 0-.9-.98l-.42-.44c-11.4-12.02-29.67-14.46-43.84-5.87l-2.58 1.56a35.26 35.26 0 0 1-36.74-.11l-1.83-1.12C788.02 1.92 781.62.22 775.26.22c-7.51-.83-15.3.74-22.13 4.89l-2.58 1.56a35.26 35.26 0 0 1-36.74-.11l-1.83-1.12c-5.96-3.66-12.65-5.35-19.25-5.2a35.18 35.18 0 0 0-22.24 4.88l-2.58 1.56a35.26 35.26 0 0 1-36.74-.11l-1.83-1.12C623.61 1.93 617.21.23 610.85.23c-7.51-.83-15.3.74-22.13 4.89l-2.58 1.56a35.26 35.26 0 0 1-36.74-.11l-1.83-1.12C541.61 1.79 534.92.1 528.32.25a35.18 35.18 0 0 0-22.24 4.88l-2.58 1.56a35.26 35.26 0 0 1-36.74-.11l-1.83-1.12C459.2 1.94 452.8.24 446.44.24c-7.51-.83-15.3.74-22.13 4.89l-2.58 1.56a35.26 35.26 0 0 1-36.74-.11l-1.83-1.12C377.2 1.8 370.51.11 363.91.26a35.18 35.18 0 0 0-22.24 4.88l-2.58 1.56a35.26 35.26 0 0 1-36.74-.11l-1.83-1.12C294.79 1.95 288.39.25 282.03.25c-7.51-.83-15.3.74-22.13 4.89l-2.58 1.56a35.26 35.26 0 0 1-36.74-.11l-1.83-1.12C212.8 1.77 206.11.08 199.5.23a35.18 35.18 0 0 0-22.24 4.88l-2.58 1.56a35.26 35.26 0 0 1-36.74-.11l-1.83-1.12C130.39 1.91 123.98.21 117.62.22c-7.51-.83-15.3.74-22.13 4.89l-2.58 1.56a35.26 35.26 0 0 1-36.74-.11l-1.83-1.12c-14.25-8.77-32.72-6.3-44.15 5.9l-1 1.06a35.07 35.07 0 0 0-6.21 9.18C.93 25.98 0 30.82 0 35.67v153.98c0 4.85.93 9.69 2.97 14.09a35.07 35.07 0 0 0 6.21 9.18l1 1.06c11.44 12.2 29.9 14.67 44.16 5.9l1.83-1.12a35.26 35.26 0 0 1 36.74-.11l2.58 1.56c6.84 4.15 14.62 5.72 22.13 4.89a35.21 35.21 0 0 0 18.49-5.22l1.83-1.12a35.26 35.26 0 0 1 36.74-.11l2.58 1.56a35.18 35.18 0 0 0 22.24 4.88c6.61.15 13.3-1.54 19.25-5.2l1.83-1.12a35.26 35.26 0 0 1 36.74-.11l2.58 1.56c6.84 4.15 14.62 5.72 22.13 4.89a35.21 35.21 0 0 0 18.49-5.22l1.83-1.12a35.26 35.26 0 0 1 36.74-.11l2.58 1.56a35.18 35.18 0 0 0 22.24 4.88c6.61.15 13.3-1.54 19.25-5.2l1.83-1.12a35.26 35.26 0 0 1 36.74-.11l2.58 1.56c6.84 4.15 14.62 5.72 22.13 4.89a35.21 35.21 0 0 0 18.49-5.22l1.83-1.12a35.26 35.26 0 0 1 36.74-.11l2.58 1.56a35.18 35.18 0 0 0 22.24 4.88c6.61.15 13.3-1.54 19.25-5.2l1.83-1.12a35.26 35.26 0 0 1 36.74-.11l2.58 1.56c6.84 4.15 14.62 5.72 22.13 4.89a35.21 35.21 0 0 0 18.49-5.22l1.83-1.12a35.26 35.26 0 0 1 36.74-.11l2.58 1.56z" fill="#fcc10c"/><text fill="#55131d" font-family="PPWoodland-Bold,PP Woodland" font-size="87.88" font-weight="700"><tspan class="C" x="53.77" y="143.86">Nu</tspan><tspan class="D" x="174.88" y="143.86">e</tspan><tspan class="E" x="224.27" y="143.86">s</tspan><tspan class="F" x="266.54" y="143.86">t</tspan><tspan class="G" x="304.77" y="143.86">r</tspan><tspan class="D" x="353.1" y="143.86">o</tspan><tspan x="407.24" y="143.86">s </tspan><tspan class="H" x="472.19" y="143.86">S</tspan><tspan class="F" x="530.02" y="143.86">a</tspan><tspan class="I" x="580.55" y="143.86">b</tspan><tspan class="J" x="639.08" y="143.86">o</tspan><tspan class="G" x="690.23" y="143.86">r</tspan><tspan class="K" x="738.56" y="143.86">e</tspan><tspan x="787.96" y="143.86">s</tspan></text></svg>