<?xml version="1.0" encoding="UTF-8"?>
<svg id="Capa_2" data-name="Capa 2" xmlns="http://www.w3.org/2000/svg" viewBox="0 0 1920 970">
  <defs>
    <style>
      .cls-1 {
        fill: #fcc10c;
      }

      .cls-2 {
        fill: #55131d;
      }

      .cls-3 {
        fill: #fcc10a;
        stroke: #55131d;
        stroke-linecap: round;
        stroke-linejoin: round;
        stroke-width: 9px;
      }

      .cls-4 {
        fill: #f7f2ea;
      }
    </style>
  </defs>
  <g id="Capa_1-2" data-name="Capa 1">
    <g>
      <rect class="cls-4" x="475" y="-475" width="970" height="1920" transform="translate(475 1445) rotate(-90)"/>
      <path class="cls-1" d="M1920,606.83v238.61c0,29.43-9.94,58.26-29.24,80.36-.99,1.14-2.02,2.28-3.07,3.39l-1.44,1.53c-30.88,32.82-76.46,44.97-118.2,33.99-.38-.1-.75-.2-1.13-.3-.85-.23-1.7-.48-2.55-.73-.53-.16-1.06-.32-1.58-.48-.75-.24-1.51-.47-2.26-.72-.68-.23-1.35-.46-2.02-.7-.62-.22-1.24-.43-1.86-.66-1.3-.48-2.59-.99-3.88-1.52,0,0,0,0,0,0-5.76-2.39-11.41-5.24-16.87-8.58l-8.84-5.4c-1.2-.74-2.42-1.45-3.64-2.14-1.84-1.03-3.69-2.02-5.56-2.95-.63-.31-1.25-.62-1.88-.92-1.89-.89-3.79-1.74-5.71-2.54-.64-.26-1.28-.52-1.92-.78-8.35-3.29-16.99-5.61-25.73-6.95-11.49-1.77-23.18-1.86-34.69-.27-2.04,.28-4.08,.62-6.12,1-.68,.13-1.35,.27-2.03,.41-1.34,.28-2.69,.59-4.04,.91-2.01,.49-4.01,1.03-6.01,1.64-.83,.25-1.65,.51-2.48,.78-.98,.32-1.97,.66-2.94,1-.35,.12-.7,.24-1.04,.37-1.13,.42-2.26,.85-3.38,1.29-1.29,.52-2.59,1.05-3.87,1.62-5.13,2.26-10.14,4.88-15,7.9l-6.28,3.89c-4.51,2.8-9.16,5.27-13.89,7.41-3.61,1.63-7.28,3.07-10.99,4.33-4.61,1.56-9.3,2.82-14,3.8-.86,.18-1.71,.35-2.58,.51-1.01,.19-2.03,.36-3.04,.52-.34,.06-.68,.11-1,.16-1.17,.18-2.35,.33-3.53,.48-4.78,.57-9.6,.86-14.39,.85-2.23,.25-4.47,.43-6.7,.55-6.88,.38-13.8,.17-20.69-.65,0,0,0,0-.02,0-3.34-.41-6.68-.94-10.01-1.62-2-.41-4-.88-5.99-1.38-1.98-.52-3.95-1.08-5.91-1.7-5.45-1.71-10.82-3.84-16.07-6.36-1.68-.82-3.34-1.67-5-2.56h0c-1.86-1.01-3.7-2.08-5.52-3.19l-8.83-5.4c-1.81-1.1-3.64-2.16-5.48-3.15-.62-.33-1.23-.66-1.86-.98-1.86-.96-3.74-1.88-5.63-2.74-.64-.28-1.27-.57-1.91-.85-1.9-.83-3.83-1.6-5.76-2.33-7.11-2.66-14.4-4.61-21.79-5.89-1.34-.23-2.68-.44-4.03-.62-5.39-.74-10.83-1.1-16.26-1.1-.68,0-1.36,0-2.04,.02-.6,0-1.19,.02-1.79,.04-1.65,.05-3.3,.14-4.95,.26-.5,.04-.99,.08-1.48,.12-1.37,.12-2.73,.26-4.1,.43-.74,.08-1.46,.18-2.19,.28-1.28,.18-2.56,.38-3.83,.6-1.39,.24-2.78,.51-4.17,.8-13.5,2.82-26.63,8-38.76,15.51l-6.28,3.89c-20.43,12.66-43.38,18.52-66.04,17.99-25.88,2.95-52.74-2.46-76.3-16.87l-8.84-5.4c-38.75-23.7-87.4-23.55-126.02,.39l-6.28,3.89c-19.64,12.17-41.62,18.06-63.43,18.04-25.76,2.85-52.47-2.58-75.92-16.92l-8.83-5.4c-38.75-23.69-87.4-23.54-126.02,.39l-6.28,3.89c-20.43,12.66-43.38,18.52-66.04,17.99-25.88,2.95-52.74-2.46-76.3-16.87l-8.84-5.4c-38.75-23.7-87.4-23.55-126.02,.39l-6.27,3.89c-19.65,12.17-41.62,18.06-63.43,18.04-25.77,2.85-52.48-2.58-75.92-16.92l-8.84-5.4c-38.75-23.69-87.4-23.54-126.02,.39l-6.27,3.89c-48.88,30.3-112.24,21.76-151.46-20.42l-3.42-3.68c-8.97-9.64-16.07-20.37-21.32-31.73-7.02-15.22-10.2-31.95-10.2-48.73v-238.37c0-16.79,3.18-33.51,10.2-48.73,5.25-11.37,12.35-22.1,21.32-31.74l3.42-3.67c39.22-42.18,102.58-50.72,151.46-20.42l6.27,3.89c38.62,23.93,87.26,24.08,126.02,.38l8.84-5.4c23.44-14.33,50.15-19.76,75.92-16.91,21.81-.03,43.78,5.87,63.43,18.04l6.27,3.89c38.62,23.93,87.26,24.08,126.02,.39l8.84-5.41c23.56-14.4,50.42-19.81,76.3-16.86,22.66-.53,45.62,5.33,66.04,17.99l6.28,3.89c38.62,23.93,87.26,24.08,126.02,.38l8.83-5.4c23.45-14.33,50.16-19.76,75.92-16.91,21.81-.03,43.79,5.87,63.43,18.04l6.28,3.89c38.62,23.93,87.26,24.08,126.02,.39l8.84-5.41c23.56-14.4,50.42-19.81,76.3-16.86,22.66-.53,45.62,5.33,66.04,17.99l6.28,3.89c11.86,7.35,24.68,12.46,37.86,15.31,2.1,.46,4.21,.86,6.32,1.19,.57,.09,1.13,.18,1.7,.27,1.01,.15,2.04,.29,3.05,.41,1.06,.13,2.13,.24,3.2,.34,.54,.06,1.06,.1,1.59,.14,.54,.05,1.06,.09,1.6,.12,1.41,.09,2.83,.16,4.25,.21,.56,.02,1.12,.03,1.68,.04,.68,.01,1.34,.02,2.02,.02,21.73,.01,43.46-5.88,62.74-17.67l8.83-5.4c23.45-14.33,50.16-19.76,75.92-16.91,5.49-.01,11,.36,16.48,1.11,1.35,.18,2.71,.39,4.06,.63,1.34,.23,2.7,.49,4.04,.77,8.08,1.67,16.04,4.2,23.77,7.59,1.28,.57,2.57,1.16,3.84,1.77,1.27,.62,2.54,1.25,3.8,1.91,2.52,1.32,5,2.74,7.45,4.27l6.28,3.89c1.82,1.12,3.66,2.21,5.53,3.22,.62,.34,1.24,.68,1.86,1,1.88,.99,3.78,1.93,5.69,2.8,8.29,3.82,16.91,6.64,25.68,8.48,1.25,.26,2.5,.5,3.75,.72,12.25,2.16,24.75,2.4,37.06,.72,1.35-.19,2.69-.39,4.04-.62,7.38-1.27,14.68-3.23,21.78-5.89,1.93-.73,3.86-1.5,5.76-2.33,.64-.28,1.27-.57,1.91-.85,1.89-.87,3.77-1.78,5.63-2.74,.63-.33,1.24-.66,1.86-.98,1.84-.99,3.67-2.05,5.48-3.15l8.83-5.41c3.03-1.86,6.13-3.56,9.27-5.12,1.25-.62,2.52-1.22,3.79-1.8,1.26-.58,2.54-1.12,3.82-1.65,.64-.28,1.28-.54,1.94-.79,1.28-.5,2.58-.98,3.87-1.44h0c1.21-.44,2.43-.84,3.66-1.23,.57-.18,1.14-.35,1.72-.52,.64-.19,1.28-.38,1.92-.56,.7-.2,1.4-.39,2.1-.57,.46-.12,.93-.24,1.39-.35,4.12-1.03,8.27-1.84,12.43-2.43,.03,0,.05,0,.08-.01,37.73-5.29,76.88,7.54,104.37,36.77l1.44,1.53c1.05,1.11,2.08,2.25,3.07,3.39,19.29,22.1,29.24,50.93,29.24,80.36Z"/>
      <rect class="cls-4" x="997.24" y="628.31" width="575.44" height="182.13" rx="91.06" ry="91.06"/>
      <g>
        <path class="cls-2" d="M1092.76,755.44v8.41h-6.66v-8.32c-9.57-.75-18.14-4.99-20.47-14.82l13.15-4.08c.75,3.33,3.83,6.91,10.15,6.91,4.91,0,8.49-1.92,8.49-5.74,0-4.33-5.66-4.99-12.23-6.66-11.65-2.83-16.98-8.24-16.98-17.98s7.49-16.48,17.89-17.65v-8.32h6.66v8.32c8.66,1,15.65,6.08,17.65,14.4l-13.15,3.25c-.75-2.83-3.25-5.66-8.24-5.66-4.16,0-6.99,2.25-6.99,5.58,0,4.58,6.99,5.66,11.49,6.91,14.23,4,18.4,8.49,18.4,17.56s-6.91,16.65-19.14,17.9Z"/>
        <g>
          <path class="cls-2" d="M1217.16,750.09v24.2h-72.31v-20.29c6.92-6.61,18.64-18.49,28.41-29.31,8.12-9.02,16.08-17.14,16.08-23.3,0-4.66-3.01-9.77-10.07-9.77s-10.67,5.26-11.28,10.97l-24.5-5.56c3.46-20.14,18.64-29.76,37.28-29.76,21.35,0,34.88,12.63,34.88,32.77,0,15.33-10.52,26.91-33.37,50.06h34.88Z"/>
          <path class="cls-2" d="M1301.35,750.09v24.2h-72.31v-20.29c6.92-6.61,18.64-18.49,28.41-29.31,8.12-9.02,16.08-17.14,16.08-23.3,0-4.66-3.01-9.77-10.07-9.77s-10.67,5.26-11.28,10.97l-24.5-5.56c3.46-20.14,18.64-29.76,37.28-29.76,21.35,0,34.88,12.63,34.88,32.77,0,15.33-10.52,26.91-33.37,50.06h34.88Z"/>
          <path class="cls-2" d="M1401.17,721.68c0,29.31-13.53,54.57-45.1,54.57s-44.95-25.25-44.95-54.57,13.53-54.42,44.95-54.42,45.1,25.1,45.1,54.42Zm-25.71,0c0-15.33-5.11-29.62-19.39-29.62s-19.24,14.28-19.24,29.62,5.11,29.76,19.24,29.76,19.39-14.28,19.39-29.76Z"/>
          <path class="cls-2" d="M1501.73,721.68c0,29.31-13.53,54.57-45.1,54.57s-44.95-25.25-44.95-54.57,13.53-54.42,44.95-54.42,45.1,25.1,45.1,54.42Zm-25.71,0c0-15.33-5.11-29.62-19.39-29.62s-19.24,14.28-19.24,29.62,5.11,29.76,19.24,29.76,19.39-14.28,19.39-29.76Z"/>
        </g>
      </g>
      <g>
        <path class="cls-2" d="M453.12,683.24c0,8.88-6.68,18.9-24.26,18.9-20.48,0-25.84-14.15-25.84-29.62,0-14.59,6.77-30.15,26.63-30.15,15.12,0,22.06,8.96,21.18,17.93l-12.13-1.76c.88-8.17-2.46-11.6-9.4-11.6-10.99,0-14.15,9.67-14.15,24.08v.62c10.55-10.02,37.97-10.2,37.97,11.6Zm-12.13,.79c0-14.59-13.01-17.75-25.75-7.82,.26,11.69,2.11,21.36,13.54,21.36,10.11,0,12.22-7.56,12.22-13.54Z"/>
        <path class="cls-2" d="M512.97,702.14c-7.12,0-13.27-3.34-16.44-9.14h-.88v17.05c0,5.62,1.23,7.73,4.39,7.73v2.81h-20.92v-2.81c3.16,0,4.39-2.11,4.39-7.73v-42.19c0-5.62-1.23-7.73-4.39-7.73v-2.81h5.8c6.86,0,10.72,.44,10.72,6.59v1.67h.88c3.16-5.8,9.32-9.14,16.44-9.14,11.25,0,20.65,7.91,20.65,22.85s-9.4,22.85-20.65,22.85Zm-4.13-41.13c-8.26,0-12.3,7.29-12.3,18.28s4.04,18.28,12.3,18.28,11.78-7.29,11.78-18.28-3.52-18.28-11.78-18.28Z"/>
        <path class="cls-2" d="M562.98,656.43c16.61,0,24.08,10.99,24.08,22.85s-7.47,22.85-24.08,22.85-24.08-10.99-24.08-22.85,7.47-22.85,24.08-22.85Zm2.46,40.96c8.26-1.05,10.81-8.44,9.4-19.6-1.41-11.07-5.62-17.67-14.33-16.61-8.26,1.05-10.81,8.44-9.4,19.6,1.41,11.07,5.62,17.67,14.33,16.61Z"/>
        <path class="cls-2" d="M633.37,676.74l-12.13-1.76c4.57-10.28,2.99-13.97-1.23-13.97-7.65,0-13.45,12.39-13.45,24.43v5.27c0,5.62,1.23,7.73,4.39,7.73v2.81h-20.92v-2.81c3.16,0,4.39-2.11,4.39-7.73v-22.85c0-5.62-1.23-7.73-4.39-7.73v-2.81h5.8c6.86,0,10.72,.44,10.72,7.29v5.36h.88c1.76-5.62,7.12-13.54,16.88-13.54s12.57,7.12,9.05,20.3Z"/>
        <path class="cls-2" d="M662.55,656.43c14.77,0,21.97,8.26,21.53,19.34l-12.13-1.76c.88-8.61-2.81-13.01-9.49-13.01-8.96,0-11.95,7.03-11.95,18.28s2.99,18.28,11.95,18.28c6.68,0,11.25-4.39,10.37-13.89l12.13-1.76c.44,11.95-7.73,20.21-22.5,20.21-17.49,0-24.08-10.99-24.08-22.85s6.68-22.85,24.17-22.85Z"/>
        <path class="cls-2" d="M705.7,690.71c0,5.62,1.23,7.73,4.39,7.73v2.81h-20.92v-2.81c3.16,0,4.39-2.11,4.39-7.73v-22.85c0-5.62-1.23-7.73-4.39-7.73v-2.81h5.8c7.12,0,10.72,.44,10.72,7.65v25.75Zm-13.36-43.07c0-2.9,2.37-5.27,6.42-5.27s6.42,2.37,6.42,5.27c0,3.16-2.46,5.45-6.42,5.45s-6.42-2.29-6.42-5.45Z"/>
        <path class="cls-2" d="M737.51,656.43c16.61,0,24.08,10.99,24.08,22.85s-7.47,22.85-24.08,22.85-24.08-10.99-24.08-22.85,7.47-22.85,24.08-22.85Zm2.46,40.96c8.26-1.05,10.81-8.44,9.4-19.6-1.41-11.07-5.62-17.67-14.33-16.61-8.26,1.05-10.81,8.44-9.4,19.6,1.41,11.07,5.62,17.67,14.33,16.61Z"/>
        <path class="cls-2" d="M817.4,698.45v2.81h-20.92v-2.81c3.16,0,4.39-2.11,4.39-7.73v-20.48c0-5.89-1.93-9.23-6.77-9.23-8.96,0-13.01,12.39-13.01,24.43v5.27c0,5.62,1.23,7.73,4.39,7.73v2.81h-20.92v-2.81c3.16,0,4.39-2.11,4.39-7.73v-22.85c0-5.62-1.23-7.73-4.39-7.73v-2.81h5.8c6.86,0,10.72,.44,10.72,7.29v5.36h.88c1.85-8.26,6.94-13.54,15.82-13.54s15.21,5.36,15.21,16.79v17.49c0,5.62,1.23,7.73,4.39,7.73Z"/>
        <path class="cls-2" d="M863.02,684.73c.88,9.4-6.06,17.4-19.25,17.4-17.05,0-23.91-9.4-23.91-21.71,0-14.94,10.02-23.99,24.79-23.99,10.9,0,18.63,4.66,18.63,12.92,0,13.45-19.51,14.94-31.29,11.95,.09,8.88,3.6,16.26,11.43,16.26,5.45,0,8.61-2.46,7.47-10.55l12.13-2.29Zm-30.85-8.17c12.48,2.99,18.98-.18,18.98-7.47,0-5.19-2.55-8.09-7.65-8.09-7.47,0-10.63,5.98-11.34,15.56Z"/>
        <path class="cls-2" d="M888.32,656.43c11.16,0,22.41,3.87,18.9,16.26l-12.13-1.76c2.64-8-2.11-9.93-6.5-9.93-5.36,0-7.21,2.64-7.21,5.71,0,4.04,2.02,5.62,9.84,7.82,9.32,2.55,17.84,4.83,17.84,14.06,0,10.11-9.05,13.54-19.07,13.54-12.22,0-24.52-3.87-21.01-18.72l12.13,1.76c-3.52,10.02,1.76,12.39,8.17,12.39,5.45,0,7.65-2.9,7.65-6.77,0-5.01-4.31-6.42-10.63-8.35-9.67-2.72-17.05-5.1-17.05-13.71s8.35-12.3,19.07-12.3Z"/>
        <path class="cls-2" d="M515.78,744.32c7.12,0,13.27,3.34,16.44,9.14h.88v-17.05c0-5.62-1.23-7.73-4.39-7.73v-2.81h5.8c6.86,0,10.72,.53,10.72,7.73v45c0,5.62,1.23,7.73,4.39,7.73v2.81h-5.8c-6.59,0-10.72-.44-10.72-6.59v-1.67h-.88c-3.16,5.8-9.32,9.14-16.44,9.14-11.25,0-20.65-7.91-20.65-22.85s9.4-22.85,20.65-22.85Zm4.13,41.13c8.26,0,12.3-7.29,12.3-18.28s-4.04-18.28-12.3-18.28-11.78,7.29-11.78,18.28,3.52,18.28,11.78,18.28Z"/>
        <path class="cls-2" d="M595.76,772.62c.88,9.4-6.06,17.4-19.25,17.4-17.05,0-23.91-9.4-23.91-21.71,0-14.94,10.02-23.99,24.79-23.99,10.9,0,18.63,4.66,18.63,12.92,0,13.45-19.51,14.94-31.29,11.95,.09,8.88,3.6,16.26,11.43,16.26,5.45,0,8.61-2.46,7.47-10.55l12.13-2.29Zm-30.85-8.17c12.48,2.99,18.98-.18,18.98-7.47,0-5.19-2.55-8.09-7.65-8.09-7.47,0-10.63,5.98-11.34,15.56Z"/>
        <path class="cls-2" d="M655.87,790.02c-7.12,0-13.27-3.34-16.44-9.14h-.88v17.05c0,5.62,1.23,7.73,4.39,7.73v2.81h-20.92v-2.81c3.16,0,4.39-2.11,4.39-7.73v-42.19c0-5.62-1.23-7.73-4.39-7.73v-2.81h5.8c6.86,0,10.72,.44,10.72,6.59v1.67h.88c3.16-5.8,9.32-9.14,16.44-9.14,11.25,0,20.65,7.91,20.65,22.85s-9.4,22.85-20.65,22.85Zm-4.13-41.13c-8.26,0-12.3,7.29-12.3,18.28s4.04,18.28,12.3,18.28,11.78-7.29,11.78-18.28-3.52-18.28-11.78-18.28Z"/>
        <path class="cls-2" d="M705.88,744.32c16.61,0,24.08,10.99,24.08,22.85s-7.47,22.85-24.08,22.85-24.08-10.99-24.08-22.85,7.47-22.85,24.08-22.85Zm2.46,40.96c8.26-1.05,10.81-8.44,9.4-19.6-1.41-11.07-5.62-17.67-14.33-16.61-8.26,1.05-10.81,8.44-9.4,19.6,1.41,11.07,5.62,17.67,14.33,16.61Z"/>
        <path class="cls-2" d="M755,744.32c11.16,0,22.41,3.87,18.9,16.26l-12.13-1.76c2.64-8-2.11-9.93-6.5-9.93-5.36,0-7.21,2.64-7.21,5.71,0,4.04,2.02,5.62,9.84,7.82,9.32,2.55,17.84,4.83,17.84,14.06,0,10.11-9.05,13.54-19.07,13.54-12.22,0-24.52-3.87-21.01-18.72l12.13,1.76c-3.52,10.02,1.76,12.39,8.17,12.39,5.45,0,7.65-2.9,7.65-6.77,0-5.01-4.31-6.42-10.63-8.35-9.67-2.72-17.05-5.1-17.05-13.71s8.35-12.3,19.07-12.3Z"/>
        <path class="cls-2" d="M812.57,782.55c-1.76,5.01-5.89,7.47-13.1,7.47s-14.94-2.55-14.94-14.24v-26.02h-6.33v-4.57c6.77-.88,10.72-2.81,10.72-14.06h7.73v14.06h13.27c0,2.81,0,4.57-4.22,4.57h-9.05v24.43c0,6.94,.09,11.25,3.6,11.25,2.2,0,3.16-1.14,3.34-4.66l8.96,1.76Z"/>
        <path class="cls-2" d="M859.76,764.62l-12.13-1.76c4.57-10.28,2.99-13.97-1.23-13.97-7.65,0-13.45,12.39-13.45,24.43v5.27c0,5.62,1.23,7.73,4.39,7.73v2.81h-20.92v-2.81c3.16,0,4.39-2.11,4.39-7.73v-22.85c0-5.62-1.23-7.73-4.39-7.73v-2.81h5.8c6.86,0,10.72,.44,10.72,7.29v5.36h.88c1.76-5.62,7.12-13.54,16.88-13.54s12.57,7.12,9.05,20.3Z"/>
        <path class="cls-2" d="M907.92,772.62c.88,9.4-6.06,17.4-19.25,17.4-17.05,0-23.91-9.4-23.91-21.71,0-14.94,10.02-23.99,24.79-23.99,10.9,0,18.63,4.66,18.63,12.92,0,13.45-19.51,14.94-31.29,11.95,.09,8.88,3.6,16.26,11.43,16.26,5.45,0,8.61-2.46,7.47-10.55l12.13-2.29Zm-30.85-8.17c12.48,2.99,18.98-.18,18.98-7.47,0-5.19-2.55-8.09-7.65-8.09-7.47,0-10.63,5.98-11.34,15.56Z"/>
      </g>
      <g>
        <polygon class="cls-3" points="800.05 316.5 1231.56 196.85 1091.55 147.69 659.68 265.85 800.05 316.5"/>
        <polygon class="cls-3" points="659.68 386.91 659.68 265.85 800.05 316.5 800.05 437.56 659.68 386.91"/>
        <g>
          <path class="cls-2" d="M754.05,354.49c.93-.96,1.28-2.3,1.1-3.79,0-1.2-.38-2.55-1.17-3.92-.1-.17-.15-.26-.25-.44-1.56-2.69-1.57-5.38-.02-6.96,.14-.14,.21-.22,.35-.36,1.93-1.98,1.38-5.64-1.32-8.77-.04-.05-.06-.07-.1-.12-.07-.08-.15-.17-.22-.25-1.44-1.58-3.31-2.81-5.23-3.5-2.63-.95-3.95-1.42-6.58-2.37-1.82-.66-2.74-.99-4.56-1.65-2.32-.84-3.47-1.25-5.79-2.09-.31-.11-.47-.17-.79-.28-2.32-.84-3.47-1.25-5.79-2.09-1.82-.66-2.74-.99-4.56-1.64-2.63-.95-3.95-1.42-6.58-2.37-1.91-.69-3.79-.82-5.23-.27-.07,.03-.15,.06-.22,.09-.04,.02-.06,.03-.1,.04-2.7,1.18-3.25,4.44-1.32,7.82,.14,.25,.21,.37,.35,.61,1.54,2.69,1.53,5.37-.02,6.94-.1,.1-.15,.15-.25,.25-.79,.8-1.17,1.87-1.17,3.08-.19,1.35,.17,2.96,1.1,4.59,.14,.25,.21,.37,.35,.61,1.54,2.69,1.53,5.37-.02,6.94-.1,.1-.15,.15-.25,.26-1.97,1.99-1.41,5.68,1.33,8.83,.1,.11,.14,.16,.24,.27,.63,.72,1.32,1.36,2.06,1.92,.99,.74,2.08,1.31,3.17,1.71,2.13,.77,3.2,1.15,5.33,1.92,2.82,1.02,4.23,1.52,7.04,2.54,1.82,.66,2.73,.99,4.56,1.64,.31,.11,.46,.17,.77,.28,1.82,.66,2.73,.99,4.56,1.64,2.82,1.02,4.23,1.53,7.04,2.54,2.13,.77,3.2,1.15,5.33,1.92,1.09,.39,2.18,.61,3.17,.58,.74-.02,1.44-.16,2.06-.43,.1-.04,.14-.06,.24-.1,2.74-1.17,3.3-4.47,1.33-7.88-.1-.17-.15-.26-.25-.44-1.56-2.69-1.57-5.38-.02-6.96,.14-.14,.21-.22,.35-.36Z"/>
          <path class="cls-1" d="M743.73,351.95c0,4.07-3.36,5.89-11.3,3.02-7.94-2.87-12.81-4.62-12.89-4.65-1.27-.46-1.84-.98-1.88-1.71-.04-.63,.25-.98,1.31-1.84,.74-.6,.78-1.72,.78-4.13v-8.61c0-2.38-.04-3.53-.78-4.69-1.06-1.62-1.35-2.14-1.31-2.75,.04-.71,.61-.85,1.88-.39,.08,.03,6.71,2.42,10.81,3.9,6.26,2.26,10.85,6.02,10.85,10.08,0,2.72-1.72,4.17-4.99,3.54,4.63,1.81,7.53,5.44,7.53,8.23Zm-16.21-14.8c0,1.34,.49,2.14,1.76,2.6,.08,.03,.53,.19,.57,.21,2.17,.78,3.4-.32,3.4-2.15s-1.23-3.85-3.4-4.64c-.04-.01-.49-.18-.57-.21-1.27-.46-1.76,.02-1.76,1.33v2.86Zm7.74,11.75c0-2.38-1.96-4.57-4.71-5.56-.04-.01-.49-.18-.7-.25-1.88-.68-2.33-.53-2.33,1.16v3.69c0,1.72,.45,2.2,2.33,2.87,.2,.07,.66,.24,.7,.25,2.74,.99,4.71,.22,4.71-2.16Z"/>
        </g>
        <polygon class="cls-3" points="1231.56 317.9 1231.56 196.85 800.05 316.5 800.05 437.56 1231.56 317.9"/>
        <g>
          <g>
            <path class="cls-2" d="M957.24,359.3c.67-1.19,1.01-1.78,1.68-2.96,1.75,.96,2.83,2.89,2.78,5.54-.08,4.68-3.63,8.97-8.18,10.16-4.55,1.19-7.98-1.28-7.9-5.96,.04-2.65,1.17-5.15,2.99-7.04,.64,.84,.96,1.26,1.6,2.11-1.01,1.1-1.7,2.54-1.72,4.19-.05,3.28,2.52,4.3,5.09,3.63,2.6-.68,5.22-3.05,5.27-6.33,.02-1.65-.62-2.75-1.6-3.32Z"/>
            <path class="cls-2" d="M964.43,343.26c-2.49,1.34-3.74,2.01-6.24,3.36-.02,.07-.04,.16-.06,.26-.25,1-.38,1.5-.63,2.5,2.16,0,3.23,0,5.39,0-.32,1.26-.48,1.89-.79,3.15-5.99,0-8.98-.01-14.97-.02,.57-2.26,.85-3.39,1.42-5.65,.92-3.67,3.59-6.09,6.43-6.09,1.88,0,3.06,1.1,3.37,2.88,2.8-1.6,4.2-2.4,7-4.01-.36,1.45-.55,2.17-.91,3.62Zm-9.43,6.11c.25-1,.38-1.5,.63-2.5,.41-1.63,.03-2.85-1.47-2.85-1.35,0-2.47,1.07-2.92,2.85-.25,1-.38,1.5-.63,2.5,1.75,0,2.63,0,4.39,0Z"/>
            <path class="cls-2" d="M968.56,326.55c.98,.27,1.48,.4,2.46,.67-1.74,3.76-2.61,5.64-4.36,9.4-5.47-1.48-8.2-2.23-13.67-3.71,1.7-3.68,2.56-5.52,4.26-9.2,.98,.27,1.48,.4,2.46,.67-1.14,2.45-1.7,3.67-2.84,6.12,1.23,.33,1.85,.5,3.09,.84,1.04-2.24,1.56-3.36,2.6-5.6,.98,.27,1.48,.4,2.46,.67-1.04,2.24-1.56,3.36-2.6,5.6,1.28,.35,1.92,.52,3.2,.87,1.17-2.53,1.76-3.8,2.93-6.33Z"/>
            <path class="cls-2" d="M972.73,300.76c4.5,3.11,6.74,4.66,11.24,7.77-.83,1.12-1.25,1.68-2.08,2.79-2.98-2.06-4.47-3.09-7.45-5.15,.9,3.22,1.35,4.83,2.24,8.06-.28,.37-.41,.56-.69,.93-3.46,.22-5.19,.33-8.66,.55,2.98,2.06,4.47,3.09,7.45,5.15-.83,1.11-1.24,1.67-2.07,2.77-4.5-3.11-6.74-4.66-11.24-7.77,.88-1.18,1.32-1.78,2.21-2.96,3.68-.24,5.51-.35,9.19-.59-.95-3.43-1.42-5.15-2.37-8.58,.89-1.19,1.33-1.79,2.22-2.98Z"/>
            <path class="cls-2" d="M993.98,296.07c-2.23,1.89-3.34,2.84-5.57,4.73,.24,1.23,.36,1.85,.6,3.08-1.11,.94-1.67,1.42-2.78,2.36-1.1-6.31-1.65-9.46-2.75-15.77,1.28-1.09,1.93-1.64,3.21-2.73,5,3,7.5,4.5,12.5,7.5-1.11,.95-1.67,1.42-2.78,2.36-.97-.62-1.45-.92-2.42-1.54Zm-2.11-1.34c-2.12-1.34-3.17-2.01-5.29-3.35,.52,2.69,.78,4.04,1.31,6.73,1.59-1.35,2.39-2.03,3.98-3.38Z"/>
            <path class="cls-2" d="M1011.58,283.63c.62,2.2-.44,5.28-4.36,7.43-2.81,1.54-5.63,1.83-7.02-.12,1.03-.95,1.54-1.42,2.57-2.37,.44,.69,1.64,1.25,3.74,.09,1.5-.82,2.55-2.03,2.21-3.24-.4-1.41-2.13-.58-4.66,.18-3.21,.96-4.64,.07-5.19-1.89-.75-2.66,.94-5.51,4.07-7.22,2.51-1.38,4.81-1.29,6.07,.52-1.06,.88-1.59,1.32-2.65,2.2-.38-.65-1.39-1.06-2.89-.23-1.24,.68-2.1,1.85-1.78,2.98,.45,1.59,2.43,.77,3.9,.31,3.77-1.18,5.34-.92,5.98,1.36Z"/>
            <path class="cls-2" d="M1037.17,265.77c-.66,6.46-.98,9.68-1.64,16.14-1.2,.2-1.8,.31-3,.51,.27-2.67,.41-4.01,.68-6.69-2.56,.43-3.84,.65-6.4,1.08-.27,2.68-.41,4.01-.68,6.69-1.2,.2-1.8,.31-3,.51,.65-6.46,.98-9.68,1.64-16.14,1.2-.2,1.8-.31,3-.51-.27,2.62-.4,3.93-.67,6.55,2.56-.43,3.84-.65,6.4-1.09,.27-2.62,.4-3.93,.66-6.55,1.2-.2,1.8-.31,3-.51Z"/>
            <path class="cls-2" d="M1048.99,279.79c-.38,1.17-.57,1.76-.95,2.93-3.45-.3-5.18-.45-8.63-.76,2.1-6.52,3.15-9.78,5.26-16.3,3.38,.3,5.06,.44,8.44,.74-.38,1.17-.57,1.76-.95,2.93-2.25-.2-3.37-.3-5.62-.49-.47,1.47-.71,2.21-1.19,3.68,2.05,.18,3.08,.27,5.14,.45-.38,1.17-.57,1.76-.95,2.93-2.05-.18-3.08-.27-5.14-.45-.49,1.53-.74,2.29-1.23,3.82,2.32,.2,3.49,.31,5.81,.51Z"/>
            <path class="cls-2" d="M1060.44,283.32c-.58,1.13-.88,1.69-1.46,2.82-3.06-1.06-4.6-1.59-7.66-2.65,3.25-6.28,4.88-9.42,8.13-15.69,1.02,.35,1.53,.53,2.55,.88-2.67,5.15-4,7.72-6.67,12.87,2.04,.71,3.06,1.06,5.1,1.77Z"/>
            <path class="cls-2" d="M1070.63,289.53c-1.81-1.34-2.71-2-4.51-3.34-1.17,.91-1.75,1.36-2.92,2.27-.9-.67-1.35-1-2.26-1.67,5.97-4.51,8.96-6.76,14.94-11.26,1.04,.77,1.56,1.16,2.6,1.92-2.81,6.84-4.22,10.26-7.04,17.11-.9-.67-1.35-1-2.26-1.67,.58-1.34,.87-2.02,1.45-3.36Zm1.26-2.93c1.26-2.93,1.88-4.4,3.14-7.33-2.55,1.98-3.82,2.97-6.37,4.94,1.29,.96,1.94,1.43,3.23,2.39Z"/>
            <path class="cls-2" d="M1086.28,300.49c-3.97,3.4-8.28,3.48-10.84-.38-.96-1.44-1.44-2.16-2.39-3.61,5.4-4.62,8.1-6.93,13.5-11.55,.96,1.44,1.44,2.16,2.39,3.61,2.56,3.85,1.31,8.53-2.67,11.93Zm-1.49-2.25c3.01-2.57,3.12-5.5,1.73-7.6-.36-.54-.54-.81-.9-1.36-3.46,2.96-5.19,4.44-8.64,7.4,.36,.54,.54,.81,.9,1.35,1.39,2.1,3.9,2.78,6.91,.21Z"/>
            <path class="cls-2" d="M1085.91,315.64c-.65-2.33-.98-3.49-1.63-5.83-1.3,.27-1.95,.41-3.25,.68-.33-1.16-.49-1.75-.82-2.91,6.58-1.24,9.87-1.86,16.45-3.1,.38,1.34,.57,2.01,.94,3.36-5.44,5.32-8.16,7.98-13.6,13.3-.33-1.16-.49-1.75-.82-2.91,1.09-1.03,1.63-1.55,2.72-2.58Zm2.37-2.25c2.37-2.25,3.55-3.38,5.92-5.63-2.84,.59-4.25,.88-7.09,1.47,.47,1.67,.7,2.5,1.17,4.17Z"/>
            <path class="cls-2" d="M1088.74,334c-2.42,.71-4.82-.34-4.89-4.45-.05-2.94,1.11-5.91,3.67-7.43,.38,1.07,.57,1.6,.96,2.67-.88,.48-2.02,1.77-1.99,3.96,.02,1.57,.65,2.65,1.98,2.26,1.55-.46,1.63-2.27,2.19-4.93,.72-3.39,2.29-4.91,4.44-5.54,2.93-.86,4.78,.87,4.84,4.14,.04,2.62-1.21,5.07-3.57,6.44-.3-1.1-.46-1.65-.76-2.75,.82-.42,1.72-1.5,1.69-3.07-.02-1.3-.7-2.18-1.95-1.82-1.75,.51-1.96,2.58-2.27,4.14-.78,3.97-1.83,5.63-4.33,6.37Z"/>
          </g>
          <g>
            <path class="cls-2" d="M1003.75,332.73c0,3.64-2.42,6.85-6.47,7.97-1.52,.42-2.27,.63-3.79,1.05v-12.36c1.52-.42,2.27-.63,3.79-1.05,4.05-1.12,6.47,.75,6.47,4.38Zm-2.37,.66c0-2.75-1.89-3.43-4.1-2.82-.57,.16-.86,.24-1.43,.4v7.91c.57-.16,.86-.24,1.43-.4,2.21-.61,4.1-2.34,4.1-5.09Z"/>
            <path class="cls-2" d="M1014.33,333.75v2.22c-2.87,.8-4.31,1.19-7.18,1.99v-12.36c2.81-.78,4.21-1.17,7.02-1.95v2.23c-1.87,.52-2.81,.78-4.67,1.3v2.79c1.71-.47,2.56-.71,4.28-1.19v2.23c-1.71,.47-2.56,.71-4.28,1.19v2.9c1.93-.54,2.9-.8,4.83-1.34Z"/>
            <path class="cls-2" d="M1026.55,329c0,1.92-1.36,4.19-4.54,5.07-2.28,.63-4.31,.24-4.9-1.64,.91-.54,1.37-.81,2.28-1.36,.17,.66,.9,1.37,2.61,.9,1.22-.34,2.19-1.08,2.19-2.14,0-1.24-1.38-.94-3.3-.88-2.44,.07-3.27-.96-3.27-2.68,0-2.33,1.76-4.27,4.29-4.97,2.03-.56,3.63,.02,4.16,1.76-.92,.48-1.38,.72-2.29,1.2-.14-.61-.77-1.16-1.98-.83-1.01,.28-1.84,1.04-1.84,2.03,0,1.39,1.55,1.16,2.68,1.11,2.89-.13,3.93,.43,3.93,2.42Z"/>
            <path class="cls-2" d="M1039.94,322.69c0,3.64-2.42,6.85-6.47,7.97-1.52,.42-2.27,.63-3.79,1.05v-12.36c1.52-.42,2.27-.63,3.79-1.05,4.05-1.12,6.47,.75,6.47,4.38Zm-2.37,.66c0-2.75-1.89-3.43-4.1-2.82-.57,.16-.86,.24-1.43,.4v7.91c.57-.16,.86-.24,1.43-.4,2.21-.61,4.1-2.34,4.1-5.09Z"/>
            <path class="cls-2" d="M1050.51,323.72v2.22c-2.87,.8-4.31,1.19-7.18,1.99v-12.36c2.81-.78,4.21-1.17,7.03-1.95v2.23c-1.87,.52-2.81,.78-4.68,1.3v2.79c1.71-.47,2.57-.71,4.28-1.19v2.23c-1.71,.47-2.57,.71-4.28,1.19v2.9c1.93-.54,2.9-.8,4.83-1.34Z"/>
            <path class="cls-2" d="M1006.94,343.38v12.36c-.95,.26-1.42,.39-2.37,.66v-9.57c-.86,.82-1.28,1.23-2.14,2.06-.4-.56-.6-.84-1.01-1.4,1.5-1.45,2.25-2.17,3.75-3.62,.7-.19,1.05-.29,1.76-.49Z"/>
            <path class="cls-2" d="M1010.51,346.52c0-2.45,1.83-4.85,4.43-5.57,2.61-.72,4.43,.66,4.43,3.11,0,1.71-.91,3.22-1.36,4.01-1.23,2.18-1.85,3.27-3.08,5.44-1.03,.29-1.54,.43-2.57,.71,1.15-1.94,1.73-2.91,2.89-4.84-.09,.02-.19,.05-.31,.09-2.49,.69-4.43-.31-4.43-2.95Zm2.33-.65c0,1.2,.85,1.9,2.1,1.55,1.16-.32,2.12-1.42,2.12-2.72s-1.04-1.86-2.12-1.57c-1.08,.3-2.1,1.38-2.1,2.74Z"/>
            <path class="cls-2" d="M1031.09,345.39c0,2.33-1.93,4.42-4.55,5.15-2.63,.73-4.56-.29-4.56-2.62,0-1.34,.75-2.57,1.91-3.5-.96-.33-1.46-1.13-1.46-2.15,0-1.82,1.49-3.8,4.1-4.53,2.61-.72,4.09,.44,4.09,2.26,0,1.02-.49,2.09-1.44,2.96,1.15,.28,1.91,1.09,1.91,2.44Zm-2.45,.55c0-1.06-.82-1.61-2.1-1.25-1.3,.36-2.12,1.37-2.12,2.42,0,.92,.64,1.62,2.12,1.21,1.46-.41,2.1-1.47,2.1-2.38Zm-3.91-4.05c0,1.04,.82,1.34,1.81,1.07,.97-.27,1.81-1.03,1.81-2.07s-.9-1.37-1.81-1.12c-.9,.25-1.81,1.05-1.81,2.13Z"/>
            <path class="cls-2" d="M1041.7,343.87v2.22c-3.1,.86-4.65,1.29-7.75,2.15v-1.75c1.15-1.61,1.82-2.57,2.94-4.19,1.06-1.54,2.28-3.23,2.28-4.3,0-.88-.52-1.46-1.49-1.19-1.08,.3-1.53,1.22-1.67,1.98-.88,.04-1.33,.06-2.21,.1,.43-2.17,2.02-3.74,4.07-4.31,2.24-.62,3.67,.73,3.67,2.67,0,1.73-1.5,3.82-4.31,7.85,1.79-.5,2.69-.75,4.49-1.24Z"/>
          </g>
        </g>
        <g>
          <path class="cls-2" d="M995.58,217.77c-.47-1.05-2.14-1.97-4.58-2.64-1.82-.64-4.26-1.12-7.15-1.38-.37-.03-.55-.05-.92-.08-5.69-.51-9.76-1.92-10.55-3.66-.07-.16-.11-.24-.18-.4-.98-2.18-7.41-3.79-14.59-3.85-.1,0-.16,0-.26,0-.19,0-.38,0-.57,0-3.66,.02-6.99,.48-9.78,1.24-3.83,1.05-5.75,1.57-9.58,2.62-2.66,.73-3.99,1.09-6.64,1.82-3.37,.92-5.06,1.39-8.44,2.31-.46,.13-.69,.19-1.15,.31-3.37,.92-5.06,1.39-8.44,2.31-2.66,.73-3.99,1.09-6.64,1.82-3.83,1.05-5.75,1.57-9.58,2.62-2.79,.76-6.14,1.75-9.83,2.77-.19,.05-.38,.11-.58,.16-.11,.03-.16,.04-.27,.07-7.25,1.99,2.41,4.24,9.52,4.9,.52,.05,.78,.07,1.29,.12,5.68,.53,9.71,1.96,10.46,3.71,.05,.11,.07,.17,.12,.28,.38,.89,1.6,1.69,3.42,2.33,1.85,.83,4.64,1.47,8.07,1.79,.52,.05,.78,.07,1.29,.12,5.68,.53,9.71,1.96,10.46,3.71,.05,.11,.07,.17,.12,.28,.94,2.22,7.43,3.87,14.67,3.92,.25,0,.38,0,.63,0,1.64,.01,3.2-.06,4.65-.21,1.94-.19,3.7-.54,5.29-.98,3.1-.86,4.64-1.29,7.74-2.15,4.09-1.14,6.14-1.7,10.23-2.84,2.65-.73,3.97-1.1,6.62-1.84,.45-.12,.67-.19,1.12-.31,2.65-.73,3.97-1.1,6.62-1.84,4.09-1.14,6.14-1.7,10.23-2.84,3.1-.86,4.65-1.29,7.74-2.15,1.59-.44,3.35-.96,5.31-1.52,1.46-.42,3.03-.87,4.69-1.34,.25-.07,.38-.11,.63-.18,7.31-2.03-2.32-4.26-9.53-4.9-.37-.03-.56-.05-.92-.08-5.69-.51-9.76-1.92-10.55-3.66-.07-.16-.11-.24-.18-.4Z"/>
          <path class="cls-1" d="M980.96,222.49c6.14,2.15,5.39,5.08-7.23,8.24-12.62,3.16-20.36,5.09-20.5,5.13-2.02,.5-3.4,.56-4.55,.2-1-.31-1.22-.67-1.4-1.75-.13-.75-1.78-1.37-5.42-2.65-5.2-1.83-7.8-2.74-13-4.57-3.59-1.26-5.37-1.85-7.89-2.03-3.56-.24-4.65-.35-5.51-.69-1.02-.4-.64-.81,1.38-1.31,.13-.03,10.66-2.65,17.17-4.27,9.95-2.47,20.41-3.17,26.55-1.03,4.11,1.44,4.5,3.21,.13,4.8,7.56-1.76,16.08-1.55,20.29-.07Zm-39.29,1.68c2.03,.71,3.75,.85,5.76,.34,.13-.03,.84-.21,.91-.23,3.45-.86,3.06-2.17,.3-3.13-2.81-.98-7.1-1.32-10.55-.46-.07,.02-.78,.19-.91,.23-2.02,.5-1.81,1.04,.17,1.74,.1,.04,4.21,1.48,4.32,1.52Zm25.82,1.68c-3.59-1.26-8.95-1.26-13.31-.18-.07,.02-.78,.19-1.11,.28-2.99,.75-3.24,1.09-.69,1.98,.36,.13,5.25,1.84,5.57,1.95,2.6,.91,3.79,.9,6.78,.15,.33-.08,1.04-.26,1.11-.28,4.36-1.09,5.24-2.65,1.65-3.91Z"/>
        </g>
      </g>
    </g>
  </g>
</svg>