<?xml version="1.0" encoding="UTF-8"?>
<svg id="Capa_2" data-name="Capa 2" xmlns="http://www.w3.org/2000/svg" viewBox="0 0 888.57 225.32">
  <defs>
    <style>
      .cls-1 {
        fill: #fcc10c;
      }

      .cls-2 {
        fill: #55131d;
      }
    </style>
  </defs>
  <g id="Capa_1-2" data-name="Capa 1">
    <g>
      <path class="cls-1" d="M670.49,220.21c6.87,4.17,14.7,5.73,22.24,4.88,6.61,.15,13.3-1.54,19.25-5.2l1.83-1.12c11.26-6.92,25.44-6.96,36.74-.11l2.58,1.56c6.84,4.15,14.62,5.72,22.13,4.89,6.36,0,12.77-1.7,18.49-5.22l1.83-1.12c11.26-6.92,25.44-6.96,36.74-.11l2.58,1.56c14.17,8.6,32.44,6.15,43.84-5.87l.42-.44c.31-.32,.61-.65,.9-.98,5.62-6.39,8.52-14.73,8.52-23.24V35.64c0-8.51-2.9-16.85-8.52-23.24-.29-.33-.59-.66-.9-.98l-.42-.44c-11.4-12.02-29.67-14.46-43.84-5.87l-2.58,1.56c-11.3,6.85-25.48,6.81-36.74-.11l-1.83-1.12c-5.73-3.52-12.13-5.22-18.49-5.22-7.51-.83-15.3,.74-22.13,4.89l-2.58,1.56c-11.3,6.85-25.48,6.81-36.74-.11l-1.83-1.12c-5.96-3.66-12.65-5.35-19.25-5.2-7.54-.85-15.37,.71-22.24,4.88l-2.58,1.56c-11.3,6.85-25.48,6.81-36.74-.11l-1.83-1.12c-5.73-3.52-12.13-5.22-18.49-5.22-7.51-.83-15.3,.74-22.13,4.89l-2.58,1.56c-11.3,6.85-25.48,6.81-36.74-.11l-1.83-1.12c-5.96-3.66-12.65-5.35-19.25-5.2-7.54-.85-15.37,.71-22.24,4.88l-2.58,1.56c-11.3,6.85-25.48,6.81-36.74-.11l-1.83-1.12c-5.73-3.52-12.13-5.22-18.49-5.22-7.51-.83-15.3,.74-22.13,4.89l-2.58,1.56c-11.3,6.85-25.48,6.81-36.74-.11l-1.83-1.12c-5.96-3.66-12.65-5.35-19.25-5.2-7.54-.85-15.37,.71-22.24,4.88l-2.58,1.56c-11.3,6.85-25.48,6.81-36.74-.11l-1.83-1.12c-5.73-3.52-12.13-5.22-18.49-5.22-7.51-.83-15.3,.74-22.13,4.89l-2.58,1.56c-11.3,6.85-25.48,6.81-36.74-.11l-1.83-1.12C212.8,1.77,206.11,.08,199.5,.23c-7.54-.85-15.37,.71-22.24,4.88l-2.58,1.56c-11.3,6.85-25.48,6.81-36.74-.11l-1.83-1.12C130.39,1.91,123.98,.21,117.62,.22c-7.51-.83-15.3,.74-22.13,4.89l-2.58,1.56c-11.3,6.85-25.48,6.81-36.74-.11l-1.83-1.12C40.09-3.33,21.62-.86,10.19,11.34l-1,1.06c-2.61,2.79-4.68,5.89-6.21,9.18C.93,25.98,0,30.82,0,35.67V189.65c0,4.85,.93,9.69,2.97,14.09,1.53,3.29,3.6,6.39,6.21,9.18l1,1.06c11.44,12.2,29.9,14.67,44.16,5.9l1.83-1.12c11.26-6.92,25.44-6.96,36.74-.11l2.58,1.56c6.84,4.15,14.62,5.72,22.13,4.89,6.36,0,12.77-1.7,18.49-5.22l1.83-1.12c11.26-6.92,25.44-6.96,36.74-.11l2.58,1.56c6.87,4.17,14.7,5.73,22.24,4.88,6.61,.15,13.3-1.54,19.25-5.2l1.83-1.12c11.26-6.92,25.44-6.96,36.74-.11l2.58,1.56c6.84,4.15,14.62,5.72,22.13,4.89,6.36,0,12.77-1.7,18.49-5.22l1.83-1.12c11.26-6.92,25.44-6.96,36.74-.11l2.58,1.56c6.87,4.17,14.7,5.73,22.24,4.88,6.61,.15,13.3-1.54,19.25-5.2l1.83-1.12c11.26-6.92,25.44-6.96,36.74-.11l2.58,1.56c6.84,4.15,14.62,5.72,22.13,4.89,6.36,0,12.77-1.7,18.49-5.22l1.83-1.12c11.26-6.92,25.44-6.96,36.74-.11l2.58,1.56c6.87,4.17,14.7,5.73,22.24,4.88,6.61,.15,13.3-1.54,19.25-5.2l1.83-1.12c11.26-6.92,25.44-6.96,36.74-.11l2.58,1.56c6.84,4.15,14.62,5.72,22.13,4.89,6.36,0,12.77-1.7,18.49-5.22l1.83-1.12c11.26-6.92,25.44-6.96,36.74-.11l2.58,1.56Z"/>
      <g>
        <path class="cls-2" d="M324.46,96.58l-2.81,.26c-.62-6.33-2.99-9.05-8.61-9.05h-10.37v42.89c0,5.62,1.23,7.73,4.39,7.73v2.81h-20.92v-2.81c3.16,0,4.39-2.11,4.39-7.73v-42.89h-10.37c-5.62,0-8,2.72-8.61,9.05l-2.81-.26,1.14-11.6,.18-1.76h53.09l.18,1.76,1.14,11.6Z"/>
        <path class="cls-2" d="M361.46,124.7c.88,9.4-6.06,17.4-19.25,17.4-17.05,0-23.91-9.4-23.91-21.71,0-14.94,10.02-23.99,24.79-23.99,10.9,0,18.63,4.66,18.63,12.92,0,13.45-19.51,14.94-31.29,11.95,.09,8.88,3.6,16.26,11.43,16.26,5.45,0,8.61-2.46,7.47-10.55l12.13-2.29Zm-30.85-8.17c12.48,2.99,18.98-.18,18.98-7.47,0-5.19-2.55-8.09-7.65-8.09-7.47,0-10.63,5.98-11.34,15.56Z"/>
        <path class="cls-2" d="M418.41,138.41v2.81h-20.92v-2.81c3.16,0,4.39-2.11,4.39-7.73v-20.48c0-5.89-1.93-9.23-6.77-9.23-8.96,0-13.01,12.39-13.01,24.43v5.27c0,5.62,1.23,7.73,4.39,7.73v2.81h-20.92v-2.81c3.16,0,4.39-2.11,4.39-7.73v-22.85c0-5.62-1.23-7.73-4.39-7.73v-2.81h5.8c6.86,0,10.72,.44,10.72,7.29v5.36h.88c1.85-8.26,6.94-13.54,15.82-13.54s15.21,5.36,15.21,16.79v17.49c0,5.62,1.23,7.73,4.39,7.73Z"/>
        <path class="cls-2" d="M453.47,134.63c-1.76,5.01-5.89,7.47-13.1,7.47s-14.94-2.55-14.94-14.24v-26.02h-6.33v-4.57c6.77-.88,10.72-2.81,10.72-14.06h7.73v14.06h13.27c0,2.81,0,4.57-4.22,4.57h-9.05v24.43c0,6.94,.09,11.25,3.6,11.25,2.2,0,3.16-1.14,3.34-4.66l8.96,1.76Z"/>
        <path class="cls-2" d="M505.41,134.37v3.34c-1.49,2.29-4.83,3.52-8.17,3.52s-7.82-.88-8.35-5.89v-.62h-.88c-2.64,4.13-8.17,7.38-16,7.38-9.23,0-14.15-3.6-14.15-10.99,0-12.74,18.63-15.73,30.94-17.14-.35-9.05-2.02-13.01-9.05-13.01s-10.02,4.04-7.38,10.81l-11.6,2.29c-2.64-9.67,4.48-17.67,20.21-17.67,14.33,0,20.04,5.89,20.04,21.62v12.3c0,4.92,1.58,5.71,4.39,4.04Zm-16.52-11.07v-4.83c-10.37,1.14-18.9,5.01-18.9,12.13,0,4.66,1.93,6.94,6.24,6.94,7.56,0,12.66-7.38,12.66-13.18v-1.05Z"/>
        <path class="cls-2" d="M539.07,134.63c-1.76,5.01-5.89,7.47-13.1,7.47s-14.94-2.55-14.94-14.24v-26.02h-6.33v-4.57c6.77-.88,10.72-2.81,10.72-14.06h7.73v14.06h13.27c0,2.81,0,4.57-4.22,4.57h-9.05v24.43c0,6.94,.09,11.25,3.6,11.25,2.2,0,3.16-1.14,3.34-4.66l8.96,1.76Z"/>
        <path class="cls-2" d="M573.44,134.63c-1.76,5.01-5.89,7.47-13.1,7.47s-14.94-2.55-14.94-14.24v-26.02h-6.33v-4.57c6.77-.88,10.72-2.81,10.72-14.06h7.73v14.06h13.27c0,2.81,0,4.57-4.22,4.57h-9.05v24.43c0,6.94,.09,11.25,3.6,11.25,2.2,0,3.16-1.14,3.34-4.66l8.96,1.76Z"/>
        <path class="cls-2" d="M617.82,124.7c.88,9.4-6.06,17.4-19.25,17.4-17.05,0-23.91-9.4-23.91-21.71,0-14.94,10.02-23.99,24.79-23.99,10.9,0,18.63,4.66,18.63,12.92,0,13.45-19.51,14.94-31.29,11.95,.09,8.88,3.6,16.26,11.43,16.26,5.45,0,8.61-2.46,7.47-10.55l12.13-2.29Zm-30.85-8.17c12.48,2.99,18.98-.18,18.98-7.47,0-5.19-2.55-8.09-7.65-8.09-7.47,0-10.63,5.98-11.34,15.56Z"/>
      </g>
    </g>
  </g>
</svg>