<?xml version="1.0" encoding="UTF-8"?>
<svg id="Capa_2" data-name="Capa 2" xmlns="http://www.w3.org/2000/svg" viewBox="0 0 830 2700.52">
  <defs>
    <style>
      .cls-1 {
        fill: #fbc009;
      }

      .cls-2 {
        fill: #f7f2ea;
      }

      .cls-3 {
        fill: #55111b;
      }
    </style>
  </defs>
  <g id="Capa_1-2" data-name="Capa 1">
    <g>
      <path class="cls-1" d="M830,33.29V2667.22c0,7.95-2.71,15.74-7.96,21.71-.27,.31-.55,.62-.84,.92l-.39,.41c-10.65,11.23-27.71,13.51-40.95,5.48l-2.4-1.46c-10.56-6.4-23.81-6.36-34.32,.1l-1.71,1.05c-5.35,3.29-11.33,4.88-17.27,4.88-7.02,.77-14.29-.7-20.68-4.57l-2.4-1.46c-10.56-6.4-23.8-6.36-34.32,.1l-1.71,1.05c-5.56,3.43-11.81,5.01-17.98,4.87-7.05,.79-14.36-.67-20.78-4.56l-2.41-1.46c-10.55-6.4-23.8-6.36-34.31,.1l-1.71,1.05c-5.35,3.29-11.34,4.88-17.28,4.88-7.01,.77-14.28-.7-20.67-4.57l-2.4-1.46c-10.56-6.4-23.81-6.36-34.32,.1l-1.71,1.05c-5.56,3.43-11.81,5.01-17.99,4.87-7.04,.79-14.36-.67-20.77-4.56l-2.41-1.46c-10.55-6.4-23.8-6.36-34.32,.1l-1.71,1.05c-5.34,3.29-11.33,4.88-17.27,4.88-7.01,.77-14.29-.7-20.67-4.57l-2.41-1.46c-10.55-6.4-23.8-6.36-34.32,.1l-1.7,1.05c-5.57,3.43-11.82,5.01-17.99,4.87-7.05,.79-14.36-.67-20.78-4.56l-2.4-1.46c-10.56-6.4-23.81-6.36-34.32,.1l-1.71,1.05c-5.35,3.29-11.33,4.88-17.27,4.88-7.02,.77-14.29-.7-20.68-4.57l-2.4-1.46c-10.55-6.4-23.8-6.36-34.32,.1l-1.71,1.05c-5.56,3.43-11.81,5.01-17.98,4.87-7.05,.79-14.36-.67-20.78-4.56l-2.41-1.46c-10.55-6.4-23.8-6.36-34.31,.1l-1.71,1.05c-5.35,3.29-11.34,4.88-17.27,4.88-7.02,.77-14.29-.7-20.68-4.57l-2.4-1.46c-10.56-6.4-23.81-6.36-34.32,.1l-1.71,1.05c-13.31,8.19-30.56,5.88-41.25-5.51l-.93-.99c-2.44-2.61-4.37-5.51-5.8-8.58-1.92-4.11-2.78-8.63-2.78-13.16V33.32c0-4.53,.86-9.05,2.78-13.16,1.43-3.07,3.36-5.97,5.8-8.58l.93-.99C20.2-.8,37.45-3.11,50.76,5.08l1.71,1.05c10.51,6.46,23.76,6.5,34.32,.1l2.4-1.46C95.58,.9,102.85-.57,109.87,.2c5.93,0,11.92,1.59,17.27,4.88l1.71,1.05c10.51,6.46,23.76,6.5,34.31,.1l2.41-1.46c6.42-3.89,13.73-5.35,20.78-4.56,6.17-.14,12.42,1.45,17.98,4.87l1.71,1.05c10.52,6.46,23.77,6.5,34.32,.1l2.4-1.46c6.39-3.87,13.66-5.34,20.68-4.57,5.94,0,11.92,1.59,17.27,4.88l1.71,1.05c10.51,6.46,23.76,6.5,34.32,.1l2.4-1.46c6.42-3.89,13.73-5.35,20.78-4.56,6.17-.14,12.42,1.45,17.99,4.87l1.7,1.05c10.52,6.46,23.77,6.5,34.32,.1l2.41-1.46c6.38-3.87,13.66-5.34,20.67-4.57,5.94,0,11.93,1.59,17.27,4.88l1.71,1.05c10.52,6.46,23.77,6.5,34.32,.1l2.41-1.46c6.41-3.89,13.73-5.35,20.77-4.56,6.18-.14,12.43,1.45,17.99,4.87l1.71,1.05c10.51,6.46,23.76,6.5,34.32,.1l2.4-1.46c6.39-3.87,13.66-5.34,20.67-4.57,5.94,0,11.93,1.59,17.28,4.88l1.71,1.05c10.51,6.46,23.76,6.5,34.31,.1l2.41-1.46c6.42-3.89,13.73-5.35,20.78-4.56,6.17-.14,12.42,1.45,17.98,4.87l1.71,1.05c10.52,6.46,23.76,6.5,34.32,.1l2.4-1.46c6.39-3.87,13.66-5.34,20.68-4.57,5.94,0,11.92,1.59,17.27,4.88l1.71,1.05c10.51,6.46,23.76,6.5,34.32,.1l2.4-1.46c13.24-8.03,30.3-5.74,40.95,5.48l.39,.41c.29,.3,.57,.61,.84,.92,5.25,5.97,7.96,13.76,7.96,21.71Z"/>
      <g>
        <path class="cls-3" d="M126.59,140.57l13.58,8.93c-5.98,7.98-15.49,12.92-26.88,12.92-19.67,0-33.82-14.72-33.82-34.49s14.16-34.39,33.82-34.39c11.4,0,20.9,4.94,26.88,12.82l-13.58,8.93c-2.85-3.61-7.32-6.08-13.3-6.08-11.59,0-17.48,9.31-17.48,18.71s5.89,18.81,17.48,18.81c5.98,0,10.45-2.47,13.3-6.17Z"/>
        <path class="cls-3" d="M197.17,148.84h-25.17l-3.9,12.35h-17.1l23.94-66.5h19.19l23.94,66.5h-17l-3.9-12.35Zm-3.89-12.35l-8.74-27.65-8.74,27.65h17.48Z"/>
        <path class="cls-3" d="M273.36,145.89v15.3h-41.13V94.69h16.34v51.21h24.79Z"/>
        <path class="cls-3" d="M305.66,94.69v66.5h-16.25V94.69h16.25Z"/>
        <path class="cls-3" d="M366.36,145.89v15.3h-41.8V94.69h40.95v15.39h-24.7v10.26h21.66v14.54h-21.66v11.02h25.56Z"/>
        <path class="cls-3" d="M439.89,94.69v66.5h-14.25l-25.94-38.76v38.76h-16.34V94.69h14.25l25.94,38.76v-38.76h16.34Z"/>
        <path class="cls-3" d="M503.35,110.08h-15.58v51.11h-16.25v-51.11h-15.58v-15.39h47.41v15.39Z"/>
        <path class="cls-3" d="M561.21,145.89v15.3h-41.8V94.69h40.95v15.39h-24.7v10.26h21.66v14.54h-21.66v11.02h25.56Z"/>
        <path class="cls-3" d="M627.23,141.71c0,10.83-9.41,20.71-26.03,20.71-12.25,0-23.84-4.75-26.79-17.1l15.01-4.66c.86,3.8,4.37,7.88,11.59,7.88,5.6,0,9.79-2.18,9.79-6.55,0-4.94-6.56-5.7-14.06-7.6-13.3-3.23-19.29-9.4-19.29-20.52,0-12.73,10.54-20.33,24.42-20.33,11.4,0,21.09,6.08,23.66,16.62l-15.01,3.71c-.86-3.23-3.61-6.46-9.41-6.46-4.75,0-7.88,2.56-7.88,6.36,0,5.23,7.88,6.46,13.01,7.89,16.25,4.56,21,9.69,21,20.04Z"/>
      </g>
      <rect class="cls-2" x="45.64" y="208.9" width="546.27" height="384.99"/>
      <rect class="cls-2" x="596.91" y="208.9" width="178.77" height="384.99"/>
      <g>
        <path class="cls-3" d="M127.58,290.53v4.51h-12.32v-19.6h12.07v4.54h-7.28v3.02h6.38v4.28h-6.38v3.25h7.53Z"/>
        <path class="cls-3" d="M146.23,289.3c0,3.19-2.77,6.1-7.67,6.1-3.61,0-7.03-1.4-7.9-5.04l4.42-1.37c.25,1.12,1.29,2.32,3.42,2.32,1.65,0,2.88-.64,2.88-1.93,0-1.46-1.93-1.68-4.14-2.24-3.92-.95-5.68-2.77-5.68-6.05,0-3.75,3.11-5.99,7.2-5.99,3.36,0,6.22,1.79,6.97,4.9l-4.42,1.09c-.25-.95-1.06-1.9-2.77-1.9-1.4,0-2.32,.76-2.32,1.88,0,1.54,2.32,1.9,3.84,2.32,4.79,1.34,6.19,2.86,6.19,5.91Z"/>
        <path class="cls-3" d="M164.96,282.47c0,4.62-3.53,6.78-7.79,6.78h-2.52v5.8h-4.79v-19.6h7.31c4.87,0,7.79,2.8,7.79,7.03Zm-4.87,0c0-1.51-1.06-2.49-2.91-2.49h-2.52v4.98h2.52c1.74,0,2.91-.78,2.91-2.49Z"/>
        <path class="cls-3" d="M180,295.04l-3.3-6.55h-3.02v6.55h-4.79v-19.6h7.53c4.98,0,7.53,2.86,7.53,6.78,0,2.35-1.15,4.12-3.02,5.18l4.17,7.64h-5.1Zm-6.33-10.58h2.74c1.4,0,2.69-.56,2.69-2.24,0-1.46-1.09-2.24-2.69-2.24h-2.74v4.48Z"/>
        <path class="cls-3" d="M200.77,290.53v4.51h-12.32v-19.6h12.07v4.54h-7.28v3.02h6.38v4.28h-6.38v3.25h7.53Z"/>
        <path class="cls-3" d="M219.42,289.3c0,3.19-2.77,6.1-7.67,6.1-3.61,0-7.03-1.4-7.9-5.04l4.42-1.37c.25,1.12,1.29,2.32,3.42,2.32,1.65,0,2.88-.64,2.88-1.93,0-1.46-1.93-1.68-4.14-2.24-3.92-.95-5.68-2.77-5.68-6.05,0-3.75,3.11-5.99,7.2-5.99,3.36,0,6.22,1.79,6.97,4.9l-4.42,1.09c-.25-.95-1.06-1.9-2.77-1.9-1.4,0-2.32,.76-2.32,1.88,0,1.54,2.32,1.9,3.84,2.32,4.79,1.34,6.19,2.86,6.19,5.91Z"/>
        <path class="cls-3" d="M237.51,289.3c0,3.19-2.77,6.1-7.67,6.1-3.61,0-7.03-1.4-7.9-5.04l4.42-1.37c.25,1.12,1.29,2.32,3.42,2.32,1.65,0,2.88-.64,2.88-1.93,0-1.46-1.93-1.68-4.14-2.24-3.92-.95-5.68-2.77-5.68-6.05,0-3.75,3.11-5.99,7.2-5.99,3.36,0,6.22,1.79,6.97,4.9l-4.42,1.09c-.25-.95-1.06-1.9-2.77-1.9-1.4,0-2.32,.76-2.32,1.88,0,1.54,2.32,1.9,3.84,2.32,4.79,1.34,6.19,2.86,6.19,5.91Z"/>
        <path class="cls-3" d="M260.38,285.24c0,5.82-4.17,10.16-9.97,10.16s-9.97-4.34-9.97-10.16,4.17-10.14,9.97-10.14,9.97,4.34,9.97,10.14Zm-4.82,0c0-2.77-1.74-5.52-5.15-5.52s-5.15,2.74-5.15,5.52,1.74,5.54,5.15,5.54,5.15-2.77,5.15-5.54Z"/>
        <path class="cls-3" d="M127.39,337.53v4.51h-12.12v-19.6h4.82v15.09h7.31Z"/>
        <path class="cls-3" d="M147.41,322.44v11.98c0,5.38-3.05,7.98-8.18,7.98s-8.2-2.6-8.2-7.98v-11.98h4.82v11.51c0,2.6,1.23,3.84,3.39,3.84s3.39-1.23,3.39-3.84v-11.51h4.79Z"/>
        <path class="cls-3" d="M168.83,322.44v19.6h-4.2l-7.64-11.42v11.42h-4.82v-19.6h4.2l7.64,11.42v-11.42h4.82Z"/>
        <path class="cls-3" d="M192.09,330.7v11.34h-2.29l-.64-2.44c-1.4,1.76-3.47,2.8-6.3,2.8-5.82,0-9.97-4.34-9.97-10.16s4.14-10.14,9.97-10.14c3.33,0,6.13,1.43,7.9,3.78l-3.98,2.63c-.87-1.09-2.18-1.82-3.92-1.82-3.42,0-5.18,2.77-5.18,5.54s1.76,5.54,5.18,5.54c2.66,0,4.17-1.43,4.79-3.28h-4.79v-3.81h9.24Z"/>
        <path class="cls-3" d="M215.81,332.24c0,5.82-4.17,10.16-9.97,10.16s-9.97-4.34-9.97-10.16,4.17-10.14,9.97-10.14,9.97,4.34,9.97,10.14Zm-4.82,0c0-2.77-1.74-5.52-5.15-5.52s-5.15,2.74-5.15,5.52,1.74,5.54,5.15,5.54,5.15-2.77,5.15-5.54Z"/>
        <path class="cls-3" d="M128.45,382.96l4,2.63c-1.76,2.35-4.56,3.81-7.92,3.81-5.8,0-9.97-4.34-9.97-10.16s4.17-10.14,9.97-10.14c3.36,0,6.16,1.46,7.92,3.78l-4,2.63c-.84-1.06-2.16-1.79-3.92-1.79-3.42,0-5.15,2.74-5.15,5.52s1.74,5.54,5.15,5.54c1.76,0,3.08-.73,3.92-1.82Z"/>
        <path class="cls-3" d="M154.63,379.24c0,5.82-4.17,10.16-9.97,10.16s-9.97-4.34-9.97-10.16,4.17-10.14,9.97-10.14,9.97,4.34,9.97,10.14Zm-4.82,0c0-2.77-1.74-5.52-5.15-5.52s-5.15,2.74-5.15,5.52,1.74,5.54,5.15,5.54,5.15-2.77,5.15-5.54Z"/>
        <path class="cls-3" d="M169.81,389.04l-3.3-6.55h-3.02v6.55h-4.79v-19.6h7.53c4.98,0,7.53,2.86,7.53,6.78,0,2.35-1.15,4.12-3.02,5.18l4.17,7.64h-5.1Zm-6.33-10.58h2.74c1.4,0,2.69-.56,2.69-2.24,0-1.46-1.09-2.24-2.69-2.24h-2.74v4.48Z"/>
        <path class="cls-3" d="M191.12,373.97h-4.59v15.06h-4.79v-15.06h-4.59v-4.54h13.97v4.54Z"/>
        <path class="cls-3" d="M205.84,385.4h-7.42l-1.15,3.64h-5.04l7.06-19.6h5.66l7.06,19.6h-5.01l-1.15-3.64Zm-1.15-3.64l-2.58-8.15-2.58,8.15h5.15Z"/>
        <path class="cls-3" d="M232.64,379.24c0,5.99-3.86,9.8-10.42,9.8h-6.86v-19.6h6.86c6.55,0,10.42,3.84,10.42,9.8Zm-4.79,0c0-3.47-2.41-5.26-5.63-5.26h-2.04v10.56h2.04c3.22,0,5.63-1.82,5.63-5.29Z"/>
        <path class="cls-3" d="M255.93,379.24c0,5.82-4.17,10.16-9.97,10.16s-9.97-4.34-9.97-10.16,4.17-10.14,9.97-10.14,9.97,4.34,9.97,10.14Zm-4.82,0c0-2.77-1.74-5.52-5.15-5.52s-5.15,2.74-5.15,5.52,1.74,5.54,5.15,5.54,5.15-2.77,5.15-5.54Z"/>
        <path class="cls-3" d="M128.45,429.96l4,2.63c-1.76,2.35-4.56,3.81-7.92,3.81-5.8,0-9.97-4.34-9.97-10.16s4.17-10.14,9.97-10.14c3.36,0,6.16,1.46,7.92,3.78l-4,2.63c-.84-1.06-2.16-1.79-3.92-1.79-3.42,0-5.15,2.74-5.15,5.52s1.74,5.54,5.15,5.54c1.76,0,3.08-.73,3.92-1.82Z"/>
        <path class="cls-3" d="M148.44,432.4h-7.42l-1.15,3.64h-5.04l7.06-19.6h5.66l7.06,19.6h-5.01l-1.15-3.64Zm-1.15-3.64l-2.58-8.15-2.58,8.15h5.15Z"/>
        <path class="cls-3" d="M173.05,423.47c0,4.62-3.53,6.78-7.79,6.78h-2.52v5.8h-4.79v-19.6h7.31c4.87,0,7.79,2.8,7.79,7.03Zm-4.87,0c0-1.51-1.06-2.49-2.91-2.49h-2.52v4.98h2.52c1.74,0,2.91-.78,2.91-2.49Z"/>
        <path class="cls-3" d="M192.07,423.47c0,4.62-3.53,6.78-7.78,6.78h-2.52v5.8h-4.79v-19.6h7.31c4.87,0,7.78,2.8,7.78,7.03Zm-4.87,0c0-1.51-1.06-2.49-2.91-2.49h-2.52v4.98h2.52c1.74,0,2.91-.78,2.91-2.49Z"/>
        <path class="cls-3" d="M212.37,416.44v11.98c0,5.38-3.05,7.98-8.18,7.98s-8.2-2.6-8.2-7.98v-11.98h4.82v11.51c0,2.6,1.23,3.84,3.39,3.84s3.39-1.23,3.39-3.84v-11.51h4.79Z"/>
        <path class="cls-3" d="M230.31,429.96l4,2.63c-1.76,2.35-4.56,3.81-7.92,3.81-5.8,0-9.97-4.34-9.97-10.16s4.17-10.14,9.97-10.14c3.36,0,6.16,1.46,7.92,3.78l-4,2.63c-.84-1.06-2.16-1.79-3.92-1.79-3.42,0-5.15,2.74-5.15,5.52s1.74,5.54,5.15,5.54c1.76,0,3.08-.73,3.92-1.82Z"/>
        <path class="cls-3" d="M250.45,429.96l4,2.63c-1.76,2.35-4.56,3.81-7.92,3.81-5.79,0-9.97-4.34-9.97-10.16s4.17-10.14,9.97-10.14c3.36,0,6.16,1.46,7.92,3.78l-4,2.63c-.84-1.06-2.16-1.79-3.92-1.79-3.42,0-5.15,2.74-5.15,5.52s1.74,5.54,5.15,5.54c1.76,0,3.08-.73,3.92-1.82Z"/>
        <path class="cls-3" d="M262.74,416.44v19.6h-4.79v-19.6h4.79Z"/>
        <path class="cls-3" d="M284.16,416.44v19.6h-4.2l-7.64-11.42v11.42h-4.82v-19.6h4.2l7.64,11.42v-11.42h4.82Z"/>
        <path class="cls-3" d="M308.15,426.24c0,5.82-4.17,10.16-9.97,10.16s-9.97-4.34-9.97-10.16,4.17-10.14,9.97-10.14,9.97,4.34,9.97,10.14Zm-4.82,0c0-2.77-1.74-5.52-5.15-5.52s-5.15,2.74-5.15,5.52,1.74,5.54,5.15,5.54,5.15-2.77,5.15-5.54Z"/>
        <path class="cls-3" d="M127.39,478.53v4.51h-12.12v-19.6h4.82v15.09h7.31Z"/>
        <path class="cls-3" d="M143.51,479.4h-7.42l-1.15,3.64h-5.04l7.06-19.6h5.66l7.06,19.6h-5.01l-1.15-3.64Zm-1.15-3.64l-2.58-8.15-2.58,8.15h5.15Z"/>
        <path class="cls-3" d="M164.77,467.97h-4.59v15.06h-4.79v-15.06h-4.59v-4.54h13.97v4.54Z"/>
        <path class="cls-3" d="M181.54,467.97h-4.59v15.06h-4.79v-15.06h-4.59v-4.54h13.97v4.54Z"/>
        <path class="cls-3" d="M197.78,478.53v4.51h-12.32v-19.6h12.07v4.54h-7.28v3.02h6.38v4.28h-6.38v3.25h7.53Z"/>
        <path class="cls-3" d="M128.39,514.97h-4.59v15.06h-4.79v-15.06h-4.59v-4.54h13.97v4.54Z"/>
        <path class="cls-3" d="M144.63,525.53v4.51h-12.32v-19.6h12.07v4.54h-7.28v3.02h6.38v4.28h-6.38v3.25h7.53Z"/>
      </g>
      <g>
        <path class="cls-3" d="M662.32,295.42v3.47h-2.78v-3.47c-3.92-.38-7.26-2.22-8.3-5.83l4.55-1.42c.35,1.39,1.81,3.2,5.21,3.2,2.43,0,4.38-.94,4.38-3.02,0-2.43-2.78-2.61-6.6-3.54-4.9-1.21-6.53-3.68-6.53-7.05,0-4.2,2.92-6.95,7.29-7.36v-3.47h2.78v3.51c3.33,.42,5.9,2.4,6.81,5.63l-4.58,1.11c-.28-1.29-1.53-2.71-3.96-2.71-2.01,0-3.68,1.04-3.68,2.99,0,2.74,3.09,3.13,5.35,3.65,5.76,1.32,7.85,2.99,7.85,6.91,0,3.51-2.33,6.95-7.78,7.43Z"/>
        <path class="cls-3" d="M691.07,288.16c0,4.06-3.12,7.33-8.61,7.33-4.48,0-8.09-2.33-8.72-5.59l4.52-1.04c.24,1.08,1.42,2.36,4.2,2.36s3.82-1.67,3.82-3.54c0-2.74-2.57-3.09-4.27-3.09h-2.05v-3.99h2.05c1.84,0,3.96-.62,3.96-3.02,0-1.98-1.32-3.06-3.44-3.06s-3.13,1.15-3.51,2.33l-4.31-1.01c.97-3.26,3.99-5.52,7.81-5.52,5,0,7.95,2.88,7.95,6.67,0,2.47-1.15,4.41-3.54,5.49,2.64,.9,4.13,2.74,4.13,5.7Z"/>
        <path class="cls-3" d="M715.14,282.88c0,6.46-2.64,12.61-9.79,12.61s-9.76-6.15-9.76-12.61,2.64-12.57,9.76-12.57,9.79,6.15,9.79,12.57Zm-4.69,0c0-3.92-1.15-8.09-5.11-8.09s-5.07,4.17-5.07,8.09,1.15,8.13,5.07,8.13,5.11-4.17,5.11-8.13Z"/>
        <path class="cls-3" d="M739.21,282.88c0,6.46-2.64,12.61-9.79,12.61s-9.76-6.15-9.76-12.61,2.64-12.57,9.76-12.57,9.79,6.15,9.79,12.57Zm-4.69,0c0-3.92-1.15-8.09-5.1-8.09s-5.07,4.17-5.07,8.09,1.15,8.13,5.07,8.13,5.1-4.17,5.1-8.13Z"/>
        <path class="cls-3" d="M665.2,342.42v3.47h-2.78v-3.47c-3.92-.38-7.26-2.22-8.3-5.83l4.55-1.42c.35,1.39,1.81,3.2,5.21,3.2,2.43,0,4.38-.94,4.38-3.02,0-2.43-2.78-2.61-6.6-3.54-4.9-1.21-6.53-3.68-6.53-7.05,0-4.2,2.92-6.95,7.29-7.36v-3.47h2.78v3.51c3.33,.42,5.9,2.4,6.81,5.63l-4.58,1.11c-.28-1.29-1.53-2.71-3.96-2.71-2.02,0-3.68,1.04-3.68,2.99,0,2.74,3.09,3.13,5.35,3.65,5.77,1.32,7.85,2.99,7.85,6.91,0,3.51-2.33,6.95-7.78,7.43Z"/>
        <path class="cls-3" d="M693.96,335.16c0,4.06-3.13,7.33-8.61,7.33-4.48,0-8.09-2.33-8.72-5.59l4.51-1.04c.24,1.08,1.42,2.36,4.2,2.36s3.82-1.67,3.82-3.54c0-2.74-2.57-3.09-4.27-3.09h-2.05v-3.99h2.05c1.84,0,3.96-.62,3.96-3.02,0-1.98-1.32-3.06-3.44-3.06s-3.13,1.15-3.51,2.33l-4.31-1.01c.97-3.26,3.99-5.52,7.81-5.52,5,0,7.95,2.88,7.95,6.67,0,2.47-1.15,4.41-3.54,5.49,2.64,.9,4.13,2.74,4.13,5.7Z"/>
        <path class="cls-3" d="M715.14,333.98c0,4.51-3.09,8.51-8.65,8.51-4.1,0-7.78-2.43-8.37-5.59l4.55-1.04c.28,1.08,1.35,2.36,3.82,2.36,2.85,0,4.03-2.05,4.03-4.17,0-2.29-1.56-3.86-3.99-3.86-1.81,0-3.33,.97-3.96,1.7l-3.61-1.04,1.53-13.13h13.13v4.38h-9.55l-.62,5.35c1.15-.66,2.54-1.11,3.96-1.11,4.65,0,7.74,3.16,7.74,7.64Z"/>
        <path class="cls-3" d="M739.21,329.88c0,6.46-2.64,12.61-9.79,12.61s-9.76-6.15-9.76-12.61,2.64-12.57,9.76-12.57,9.79,6.15,9.79,12.57Zm-4.69,0c0-3.92-1.15-8.09-5.1-8.09s-5.07,4.17-5.07,8.09,1.15,8.13,5.07,8.13,5.1-4.17,5.1-8.13Z"/>
        <path class="cls-3" d="M665.2,389.42v3.47h-2.78v-3.47c-3.92-.38-7.26-2.22-8.3-5.83l4.55-1.42c.35,1.39,1.81,3.2,5.21,3.2,2.43,0,4.38-.94,4.38-3.02,0-2.43-2.78-2.61-6.6-3.54-4.9-1.21-6.53-3.68-6.53-7.05,0-4.2,2.92-6.95,7.29-7.36v-3.47h2.78v3.51c3.33,.42,5.9,2.4,6.81,5.63l-4.58,1.11c-.28-1.29-1.53-2.71-3.96-2.71-2.02,0-3.68,1.04-3.68,2.99,0,2.74,3.09,3.13,5.35,3.65,5.77,1.32,7.85,2.99,7.85,6.91,0,3.51-2.33,6.95-7.78,7.43Z"/>
        <path class="cls-3" d="M693.96,382.16c0,4.06-3.13,7.33-8.61,7.33-4.48,0-8.09-2.33-8.72-5.59l4.51-1.04c.24,1.08,1.42,2.36,4.2,2.36s3.82-1.67,3.82-3.54c0-2.74-2.57-3.09-4.27-3.09h-2.05v-3.99h2.05c1.84,0,3.96-.62,3.96-3.02,0-1.98-1.32-3.06-3.44-3.06s-3.13,1.15-3.51,2.33l-4.31-1.01c.97-3.26,3.99-5.52,7.81-5.52,5,0,7.95,2.88,7.95,6.67,0,2.47-1.15,4.41-3.54,5.49,2.64,.9,4.13,2.74,4.13,5.7Z"/>
        <path class="cls-3" d="M715.14,380.98c0,4.51-3.09,8.51-8.65,8.51-4.1,0-7.78-2.43-8.37-5.59l4.55-1.04c.28,1.08,1.35,2.36,3.82,2.36,2.85,0,4.03-2.05,4.03-4.17,0-2.29-1.56-3.86-3.99-3.86-1.81,0-3.33,.97-3.96,1.7l-3.61-1.04,1.53-13.13h13.13v4.38h-9.55l-.62,5.35c1.15-.66,2.54-1.11,3.96-1.11,4.65,0,7.74,3.16,7.74,7.64Z"/>
        <path class="cls-3" d="M739.21,376.88c0,6.46-2.64,12.61-9.79,12.61s-9.76-6.15-9.76-12.61,2.64-12.57,9.76-12.57,9.79,6.15,9.79,12.57Zm-4.69,0c0-3.92-1.15-8.09-5.1-8.09s-5.07,4.17-5.07,8.09,1.15,8.13,5.07,8.13,5.1-4.17,5.1-8.13Z"/>
        <path class="cls-3" d="M660.34,436.42v3.47h-2.78v-3.47c-3.92-.38-7.26-2.22-8.3-5.83l4.55-1.42c.35,1.39,1.81,3.2,5.21,3.2,2.43,0,4.38-.94,4.38-3.02,0-2.43-2.78-2.61-6.6-3.54-4.9-1.21-6.53-3.68-6.53-7.05,0-4.2,2.92-6.95,7.29-7.36v-3.47h2.78v3.51c3.33,.42,5.9,2.4,6.81,5.63l-4.58,1.11c-.28-1.29-1.53-2.71-3.96-2.71-2.01,0-3.68,1.04-3.68,2.99,0,2.74,3.09,3.13,5.35,3.65,5.76,1.32,7.85,2.99,7.85,6.91,0,3.51-2.33,6.95-7.78,7.43Z"/>
        <path class="cls-3" d="M691.25,431.21h-2.88v4.83h-4.72v-4.83h-11.36v-3.72l9.86-15.77h6.22v15.46h2.88v4.03Zm-7.61-4.03v-10.52l-6.56,10.52h6.56Z"/>
        <path class="cls-3" d="M715.14,423.88c0,6.46-2.64,12.61-9.79,12.61s-9.76-6.15-9.76-12.61,2.64-12.57,9.76-12.57,9.79,6.15,9.79,12.57Zm-4.69,0c0-3.92-1.15-8.09-5.11-8.09s-5.07,4.17-5.07,8.09,1.15,8.13,5.07,8.13,5.11-4.17,5.11-8.13Z"/>
        <path class="cls-3" d="M739.21,423.88c0,6.46-2.64,12.61-9.79,12.61s-9.76-6.15-9.76-12.61,2.64-12.57,9.76-12.57,9.79,6.15,9.79,12.57Zm-4.69,0c0-3.92-1.15-8.09-5.1-8.09s-5.07,4.17-5.07,8.09,1.15,8.13,5.07,8.13,5.1-4.17,5.1-8.13Z"/>
        <path class="cls-3" d="M660.34,483.42v3.47h-2.78v-3.47c-3.92-.38-7.26-2.22-8.3-5.83l4.55-1.42c.35,1.39,1.81,3.2,5.21,3.2,2.43,0,4.38-.94,4.38-3.02,0-2.43-2.78-2.61-6.6-3.54-4.9-1.21-6.53-3.68-6.53-7.05,0-4.2,2.92-6.95,7.29-7.36v-3.47h2.78v3.51c3.33,.42,5.9,2.4,6.81,5.63l-4.58,1.11c-.28-1.29-1.53-2.71-3.96-2.71-2.01,0-3.68,1.04-3.68,2.99,0,2.74,3.09,3.13,5.35,3.65,5.76,1.32,7.85,2.99,7.85,6.91,0,3.51-2.33,6.95-7.78,7.43Z"/>
        <path class="cls-3" d="M691.25,478.21h-2.88v4.83h-4.72v-4.83h-11.36v-3.72l9.86-15.77h6.22v15.46h2.88v4.03Zm-7.61-4.03v-10.52l-6.56,10.52h6.56Z"/>
        <path class="cls-3" d="M715.14,470.88c0,6.46-2.64,12.61-9.79,12.61s-9.76-6.15-9.76-12.61,2.64-12.57,9.76-12.57,9.79,6.15,9.79,12.57Zm-4.69,0c0-3.92-1.15-8.09-5.11-8.09s-5.07,4.17-5.07,8.09,1.15,8.13,5.07,8.13,5.11-4.17,5.11-8.13Z"/>
        <path class="cls-3" d="M739.21,470.88c0,6.46-2.64,12.61-9.79,12.61s-9.76-6.15-9.76-12.61,2.64-12.57,9.76-12.57,9.79,6.15,9.79,12.57Zm-4.69,0c0-3.92-1.15-8.09-5.1-8.09s-5.07,4.17-5.07,8.09,1.15,8.13,5.07,8.13,5.1-4.17,5.1-8.13Z"/>
        <path class="cls-3" d="M665.68,530.42v3.47h-2.78v-3.47c-3.92-.38-7.26-2.22-8.3-5.83l4.55-1.42c.35,1.39,1.8,3.2,5.21,3.2,2.43,0,4.38-.94,4.38-3.02,0-2.43-2.78-2.61-6.6-3.54-4.9-1.21-6.53-3.68-6.53-7.05,0-4.2,2.92-6.95,7.29-7.36v-3.47h2.78v3.51c3.33,.42,5.9,2.4,6.81,5.63l-4.58,1.11c-.28-1.29-1.53-2.71-3.96-2.71-2.01,0-3.68,1.04-3.68,2.99,0,2.74,3.09,3.13,5.35,3.65,5.77,1.32,7.85,2.99,7.85,6.91,0,3.51-2.33,6.95-7.78,7.43Z"/>
        <path class="cls-3" d="M693.43,525.66v4.38h-15.49v-3.44c2.29-2.54,3.61-4.06,5.87-6.63,2.12-2.47,4.55-5.11,4.55-7.22,0-1.74-1.04-3.16-2.99-3.16-2.15,0-3.06,1.56-3.33,2.99l-4.41-1.01c.87-4.03,4.03-6.25,8.13-6.25,4.48,0,7.33,3.44,7.33,7.26,0,3.4-2.99,6.7-8.61,13.09h8.96Z"/>
        <path class="cls-3" d="M715.14,521.98c0,4.51-3.09,8.51-8.65,8.51-4.1,0-7.78-2.43-8.37-5.59l4.55-1.04c.28,1.08,1.35,2.36,3.82,2.36,2.85,0,4.03-2.05,4.03-4.17,0-2.29-1.56-3.86-3.99-3.86-1.81,0-3.33,.97-3.96,1.7l-3.61-1.04,1.53-13.13h13.13v4.38h-9.55l-.62,5.35c1.15-.66,2.54-1.11,3.96-1.11,4.65,0,7.74,3.16,7.74,7.64Z"/>
        <path class="cls-3" d="M739.21,517.88c0,6.46-2.64,12.61-9.79,12.61s-9.76-6.15-9.76-12.61,2.64-12.57,9.76-12.57,9.79,6.15,9.79,12.57Zm-4.69,0c0-3.92-1.15-8.09-5.1-8.09s-5.07,4.17-5.07,8.09,1.15,8.13,5.07,8.13,5.1-4.17,5.1-8.13Z"/>
      </g>
      <g>
        <path class="cls-3" d="M98.09,675.81v12.63h22.42v15.29h-22.42v23.18h-16.25v-66.5h41.42v15.39h-25.17Z"/>
        <path class="cls-3" d="M177.98,726.92l-11.21-22.23h-10.26v22.23h-16.25v-66.5h25.55c16.91,0,25.56,9.69,25.56,22.99,0,7.98-3.9,13.96-10.26,17.58l14.15,25.94h-17.29Zm-21.47-35.91h9.31c4.75,0,9.12-1.9,9.12-7.6,0-4.94-3.71-7.6-9.12-7.6h-9.31v15.2Z"/>
        <path class="cls-3" d="M225.67,660.41v66.5h-16.25v-66.5h16.25Z"/>
        <path class="cls-3" d="M309.84,693.66c0,19.76-14.16,34.49-33.82,34.49s-33.82-14.73-33.82-34.49,14.16-34.39,33.82-34.39,33.82,14.73,33.82,34.39Zm-16.34,0c0-9.4-5.89-18.71-17.48-18.71s-17.48,9.31-17.48,18.71,5.89,18.81,17.48,18.81,17.48-9.4,17.48-18.81Z"/>
        <path class="cls-3" d="M373.49,707.44c0,10.83-9.41,20.71-26.03,20.71-12.26,0-23.85-4.75-26.79-17.1l15.01-4.66c.85,3.8,4.37,7.88,11.59,7.88,5.61,0,9.79-2.18,9.79-6.55,0-4.94-6.55-5.7-14.06-7.6-13.3-3.23-19.29-9.41-19.29-20.52,0-12.73,10.55-20.33,24.42-20.33,11.4,0,21.09,6.08,23.66,16.62l-15.01,3.71c-.85-3.23-3.61-6.46-9.41-6.46-4.75,0-7.88,2.56-7.88,6.37,0,5.22,7.88,6.46,13.02,7.88,16.25,4.56,21,9.69,21,20.04Z"/>
      </g>
      <g>
        <path class="cls-3" d="M155.09,1085.94v66.5h-16.34v-39.52l-17.29,28.6h-5.99l-17.38-28.6v39.52h-16.25v-66.5h17.1l19.48,32.21,19.48-32.21h17.19Z"/>
        <path class="cls-3" d="M190.24,1085.94v66.5h-16.25v-66.5h16.25Z"/>
        <path class="cls-3" d="M265.67,1085.94v66.5h-14.25l-25.94-38.76v38.76h-16.34v-66.5h14.25l25.94,38.76v-38.76h16.34Z"/>
        <path class="cls-3" d="M300.81,1085.94v66.5h-16.25v-66.5h16.25Z"/>
        <path class="cls-3" d="M396.48,1101.33h-15.58v51.11h-16.25v-51.11h-15.58v-15.39h47.41v15.39Z"/>
        <path class="cls-3" d="M475.9,1119.19c0,19.76-14.16,34.49-33.82,34.49s-33.82-14.73-33.82-34.49,14.16-34.39,33.82-34.39,33.82,14.73,33.82,34.39Zm-16.34,0c0-9.4-5.89-18.71-17.48-18.71s-17.48,9.31-17.48,18.71,5.89,18.81,17.48,18.81,17.48-9.4,17.48-18.81Z"/>
        <path class="cls-3" d="M530.14,1152.44l-11.21-22.23h-10.26v22.23h-16.25v-66.5h25.56c16.91,0,25.55,9.69,25.55,22.99,0,7.98-3.89,13.96-10.26,17.58l14.16,25.94h-17.29Zm-21.47-35.91h9.31c4.75,0,9.12-1.9,9.12-7.6,0-4.94-3.71-7.6-9.12-7.6h-9.31v15.2Z"/>
        <path class="cls-3" d="M605.19,1101.33h-15.58v51.11h-16.25v-51.11h-15.58v-15.39h47.41v15.39Z"/>
        <path class="cls-3" d="M657.92,1140.09h-25.18l-3.89,12.35h-17.1l23.94-66.5h19.19l23.94,66.5h-17.01l-3.89-12.35Zm-3.9-12.35l-8.74-27.65-8.74,27.65h17.48Z"/>
        <path class="cls-3" d="M741.99,1132.96c0,10.83-9.41,20.71-26.03,20.71-12.26,0-23.85-4.75-26.79-17.1l15.01-4.66c.85,3.8,4.37,7.88,11.59,7.88,5.61,0,9.79-2.18,9.79-6.55,0-4.94-6.55-5.7-14.06-7.6-13.3-3.23-19.29-9.41-19.29-20.52,0-12.73,10.55-20.33,24.42-20.33,11.4,0,21.09,6.08,23.66,16.62l-15.01,3.71c-.85-3.23-3.61-6.46-9.41-6.46-4.75,0-7.88,2.56-7.88,6.37,0,5.22,7.88,6.46,13.02,7.88,16.25,4.56,21,9.69,21,20.04Z"/>
      </g>
      <g>
        <path class="cls-3" d="M126.59,1659.14l13.58,8.93c-5.98,7.98-15.49,12.92-26.88,12.92-19.67,0-33.82-14.73-33.82-34.49s14.15-34.39,33.82-34.39c11.4,0,20.9,4.94,26.88,12.83l-13.58,8.93c-2.85-3.61-7.32-6.08-13.3-6.08-11.59,0-17.48,9.31-17.48,18.71s5.89,18.81,17.48,18.81c5.98,0,10.45-2.47,13.3-6.18Z"/>
        <path class="cls-3" d="M218.17,1646.5c0,19.76-14.16,34.49-33.82,34.49s-33.82-14.73-33.82-34.49,14.15-34.39,33.82-34.39,33.82,14.73,33.82,34.39Zm-16.34,0c0-9.41-5.89-18.71-17.48-18.71s-17.48,9.31-17.48,18.71,5.89,18.81,17.48,18.81,17.48-9.41,17.48-18.81Z"/>
        <path class="cls-3" d="M275.83,1664.46v15.29h-41.13v-66.5h16.34v51.21h24.79Z"/>
        <path class="cls-3" d="M333.31,1667.4h-25.18l-3.89,12.35h-17.1l23.94-66.5h19.19l23.94,66.5h-17.01l-3.89-12.35Zm-3.89-12.35l-8.74-27.65-8.74,27.65h17.48Z"/>
        <path class="cls-3" d="M410.26,1659.14l13.58,8.93c-5.98,7.98-15.49,12.92-26.88,12.92-19.67,0-33.82-14.73-33.82-34.49s14.15-34.39,33.82-34.39c11.4,0,20.9,4.94,26.88,12.83l-13.58,8.93c-2.85-3.61-7.32-6.08-13.3-6.08-11.59,0-17.48,9.31-17.48,18.71s5.89,18.81,17.48,18.81c5.98,0,10.45-2.47,13.3-6.18Z"/>
        <path class="cls-3" d="M454.72,1613.25v66.5h-16.25v-66.5h16.25Z"/>
        <path class="cls-3" d="M538.88,1646.5c0,19.76-14.16,34.49-33.82,34.49s-33.82-14.73-33.82-34.49,14.15-34.39,33.82-34.39,33.82,14.73,33.82,34.39Zm-16.34,0c0-9.41-5.89-18.71-17.48-18.71s-17.48,9.31-17.48,18.71,5.89,18.81,17.48,18.81,17.48-9.41,17.48-18.81Z"/>
        <path class="cls-3" d="M611.94,1613.25v66.5h-14.25l-25.94-38.76v38.76h-16.34v-66.5h14.25l25.94,38.76v-38.76h16.34Z"/>
        <path class="cls-3" d="M672.64,1664.46v15.29h-41.8v-66.5h40.95v15.39h-24.7v10.26h21.66v14.54h-21.66v11.02h25.56Z"/>
        <path class="cls-3" d="M738.67,1660.28c0,10.83-9.4,20.71-26.03,20.71-12.26,0-23.85-4.75-26.79-17.1l15.01-4.65c.86,3.8,4.37,7.88,11.59,7.88,5.6,0,9.79-2.19,9.79-6.55,0-4.94-6.56-5.7-14.06-7.6-13.3-3.23-19.29-9.41-19.29-20.52,0-12.73,10.55-20.33,24.42-20.33,11.4,0,21.09,6.08,23.66,16.62l-15.01,3.71c-.85-3.23-3.61-6.46-9.41-6.46-4.75,0-7.88,2.56-7.88,6.36,0,5.23,7.88,6.46,13.02,7.89,16.24,4.56,20.99,9.69,20.99,20.04Z"/>
      </g>
      <g>
        <path class="cls-3" d="M140.46,2177.21c0,20.33-13.11,33.25-35.34,33.25h-23.28v-66.5h23.28c22.23,0,35.34,13.01,35.34,33.25Zm-16.25,0c0-11.78-8.17-17.86-19.09-17.86h-6.94v35.82h6.94c10.92,0,19.09-6.18,19.09-17.96Z"/>
        <path class="cls-3" d="M198.79,2195.16v15.29h-41.8v-66.5h40.95v15.39h-24.7v10.26h21.66v14.54h-21.66v11.02h25.56Z"/>
        <path class="cls-3" d="M264.81,2190.98c0,10.83-9.41,20.71-26.03,20.71-12.26,0-23.85-4.75-26.79-17.1l15.01-4.66c.85,3.8,4.37,7.89,11.59,7.89,5.61,0,9.79-2.19,9.79-6.56,0-4.94-6.55-5.7-14.06-7.6-13.3-3.23-19.29-9.4-19.29-20.52,0-12.73,10.55-20.33,24.42-20.33,11.4,0,21.09,6.08,23.66,16.62l-15.01,3.71c-.85-3.23-3.61-6.46-9.41-6.46-4.75,0-7.88,2.57-7.88,6.36,0,5.23,7.88,6.46,13.02,7.89,16.25,4.56,21,9.69,21,20.05Z"/>
        <path class="cls-3" d="M321.33,2198.11h-25.18l-3.89,12.35h-17.1l23.94-66.5h19.19l23.94,66.5h-17.01l-3.89-12.35Zm-3.9-12.35l-8.74-27.65-8.74,27.65h17.48Z"/>
        <path class="cls-3" d="M381.47,2185.47v24.99h-16.34v-24.99l-23.94-41.52h17.48l14.63,28.31,14.63-28.31h17.48l-23.94,41.52Z"/>
        <path class="cls-3" d="M475.14,2143.95v40.66c0,18.24-10.36,27.07-27.74,27.07s-27.84-8.83-27.84-27.07v-40.66h16.34v39.05c0,8.83,4.18,13.01,11.5,13.01s11.5-4.18,11.5-13.01v-39.05h16.25Z"/>
        <path class="cls-3" d="M550.57,2143.95v66.5h-14.25l-25.93-38.76v38.76h-16.34v-66.5h14.25l25.94,38.76v-38.76h16.34Z"/>
        <path class="cls-3" d="M634.74,2177.21c0,19.76-14.16,34.48-33.82,34.48s-33.82-14.72-33.82-34.48,14.16-34.39,33.82-34.39,33.82,14.72,33.82,34.39Zm-16.34,0c0-9.41-5.89-18.72-17.48-18.72s-17.48,9.31-17.48,18.72,5.89,18.81,17.48,18.81,17.48-9.41,17.48-18.81Z"/>
        <path class="cls-3" d="M698.39,2190.98c0,10.83-9.41,20.71-26.03,20.71-12.26,0-23.85-4.75-26.79-17.1l15.01-4.66c.85,3.8,4.37,7.89,11.59,7.89,5.61,0,9.79-2.19,9.79-6.56,0-4.94-6.55-5.7-14.06-7.6-13.3-3.23-19.29-9.4-19.29-20.52,0-12.73,10.55-20.33,24.42-20.33,11.4,0,21.09,6.08,23.66,16.62l-15.01,3.71c-.85-3.23-3.61-6.46-9.41-6.46-4.75,0-7.88,2.57-7.88,6.36,0,5.23,7.88,6.46,13.02,7.89,16.25,4.56,21,9.69,21,20.05Z"/>
        <path class="cls-3" d="M117.37,2279.32v24.99h-16.34v-24.99l-23.94-41.52h17.48l14.63,28.31,14.63-28.31h17.48l-23.94,41.52Z"/>
        <path class="cls-3" d="M260.92,2237.8v66.5h-16.34v-39.52l-17.29,28.6h-5.98l-17.39-28.6v39.52h-16.25v-66.5h17.1l19.47,32.21,19.48-32.21h17.2Z"/>
        <path class="cls-3" d="M321.62,2289.01v15.3h-41.8v-66.5h40.95v15.39h-24.7v10.26h21.66v14.54h-21.66v11.02h25.55Z"/>
        <path class="cls-3" d="M376.34,2304.3l-11.21-22.23h-10.26v22.23h-16.25v-66.5h25.56c16.91,0,25.55,9.69,25.55,22.99,0,7.98-3.89,13.96-10.26,17.58l14.16,25.94h-17.29Zm-21.47-35.91h9.31c4.75,0,9.12-1.9,9.12-7.6,0-4.94-3.71-7.6-9.12-7.6h-9.31v15.2Z"/>
        <path class="cls-3" d="M424.03,2237.8v66.5h-16.25v-66.5h16.25Z"/>
        <path class="cls-3" d="M484.73,2289.01v15.3h-41.8v-66.5h40.95v15.39h-24.7v10.26h21.66v14.54h-21.66v11.02h25.56Z"/>
        <path class="cls-3" d="M558.26,2237.8v66.5h-14.25l-25.94-38.76v38.76h-16.34v-66.5h14.25l25.94,38.76v-38.76h16.34Z"/>
        <path class="cls-3" d="M635.78,2271.05c0,20.33-13.11,33.25-35.34,33.25h-23.28v-66.5h23.28c22.23,0,35.34,13.02,35.34,33.25Zm-16.25,0c0-11.78-8.17-17.86-19.09-17.86h-6.94v35.81h6.94c10.92,0,19.09-6.17,19.09-17.96Z"/>
        <path class="cls-3" d="M690.88,2291.95h-25.18l-3.89,12.35h-17.1l23.94-66.5h19.19l23.94,66.5h-17.01l-3.89-12.35Zm-3.9-12.35l-8.74-27.65-8.74,27.65h17.48Z"/>
        <path class="cls-3" d="M774.96,2284.83c0,10.83-9.41,20.71-26.03,20.71-12.25,0-23.84-4.75-26.79-17.1l15.01-4.66c.86,3.8,4.37,7.88,11.59,7.88,5.6,0,9.79-2.18,9.79-6.55,0-4.94-6.56-5.7-14.06-7.6-13.3-3.23-19.29-9.41-19.29-20.52,0-12.73,10.54-20.33,24.42-20.33,11.4,0,21.09,6.08,23.66,16.62l-15.01,3.71c-.86-3.23-3.61-6.46-9.41-6.46-4.75,0-7.88,2.56-7.88,6.37,0,5.22,7.88,6.46,13.01,7.88,16.25,4.56,21,9.69,21,20.04Z"/>
      </g>
      <rect class="cls-2" x="45.64" y="769.73" width="546.27" height="248.03"/>
      <rect class="cls-2" x="596.91" y="769.73" width="178.77" height="248.03"/>
      <g>
        <path class="cls-3" d="M128.54,836.27v12.63c0,4.65-2.32,7.34-7.22,7.34-4.23,0-7.11-2.55-7.31-6.05l4.73-.87c.08,1.09,.78,2.3,2.55,2.3,2.02,0,2.46-1.57,2.46-2.72v-12.63h4.79Z"/>
        <path class="cls-3" d="M149.67,836.27v11.98c0,5.38-3.05,7.98-8.18,7.98s-8.2-2.6-8.2-7.98v-11.98h4.82v11.51c0,2.6,1.23,3.84,3.39,3.84s3.39-1.23,3.39-3.84v-11.51h4.79Z"/>
        <path class="cls-3" d="M172.94,844.53v11.34h-2.29l-.64-2.44c-1.4,1.76-3.47,2.8-6.3,2.8-5.82,0-9.97-4.34-9.97-10.16s4.14-10.14,9.97-10.14c3.33,0,6.13,1.43,7.9,3.78l-3.98,2.63c-.87-1.09-2.18-1.82-3.92-1.82-3.42,0-5.18,2.77-5.18,5.54s1.76,5.54,5.18,5.54c2.66,0,4.17-1.43,4.79-3.28h-4.79v-3.81h9.24Z"/>
        <path class="cls-3" d="M196.66,846.07c0,5.82-4.17,10.16-9.97,10.16s-9.97-4.34-9.97-10.16,4.17-10.14,9.97-10.14,9.97,4.34,9.97,10.14Zm-4.82,0c0-2.77-1.74-5.52-5.15-5.52s-5.15,2.74-5.15,5.52,1.74,5.54,5.15,5.54,5.15-2.77,5.15-5.54Z"/>
        <path class="cls-3" d="M214.61,850.13c0,3.19-2.77,6.1-7.67,6.1-3.61,0-7.03-1.4-7.9-5.04l4.42-1.37c.25,1.12,1.29,2.32,3.42,2.32,1.65,0,2.88-.64,2.88-1.93,0-1.46-1.93-1.68-4.14-2.24-3.92-.95-5.68-2.77-5.68-6.05,0-3.75,3.11-5.99,7.2-5.99,3.36,0,6.22,1.79,6.97,4.9l-4.42,1.09c-.25-.95-1.06-1.9-2.77-1.9-1.4,0-2.32,.76-2.32,1.88,0,1.54,2.32,1.9,3.84,2.32,4.79,1.34,6.19,2.86,6.19,5.91Z"/>
        <path class="cls-3" d="M133.77,891.53v11.34h-2.3l-.64-2.44c-1.4,1.76-3.47,2.8-6.3,2.8-5.82,0-9.97-4.34-9.97-10.16s4.14-10.14,9.97-10.14c3.33,0,6.13,1.43,7.9,3.78l-3.97,2.63c-.87-1.09-2.18-1.82-3.92-1.82-3.42,0-5.18,2.77-5.18,5.54s1.76,5.54,5.18,5.54c2.66,0,4.17-1.43,4.79-3.28h-4.79v-3.81h9.24Z"/>
        <path class="cls-3" d="M150.46,899.23h-7.42l-1.15,3.64h-5.04l7.06-19.6h5.66l7.06,19.6h-5.01l-1.15-3.64Zm-1.15-3.64l-2.58-8.15-2.58,8.15h5.15Z"/>
        <path class="cls-3" d="M174.43,897.13c0,3.19-2.77,6.1-7.67,6.1-3.61,0-7.03-1.4-7.9-5.04l4.42-1.37c.25,1.12,1.29,2.32,3.42,2.32,1.65,0,2.88-.64,2.88-1.93,0-1.46-1.93-1.68-4.14-2.24-3.92-.95-5.68-2.77-5.68-6.05,0-3.75,3.11-5.99,7.2-5.99,3.36,0,6.22,1.79,6.97,4.9l-4.42,1.09c-.25-.95-1.06-1.9-2.77-1.9-1.4,0-2.32,.76-2.32,1.88,0,1.54,2.32,1.9,3.84,2.32,4.79,1.34,6.19,2.86,6.19,5.91Z"/>
        <path class="cls-3" d="M190.39,898.36v4.51h-12.32v-19.6h12.07v4.54h-7.28v3.02h6.38v4.28h-6.38v3.25h7.53Z"/>
        <path class="cls-3" d="M213.54,893.07c0,5.82-4.17,10.16-9.97,10.16s-9.97-4.34-9.97-10.16,4.17-10.14,9.97-10.14,9.97,4.34,9.97,10.14Zm-4.82,0c0-2.77-1.74-5.52-5.15-5.52s-5.15,2.74-5.15,5.52,1.74,5.54,5.15,5.54,5.15-2.77,5.15-5.54Z"/>
        <path class="cls-3" d="M231.49,897.13c0,3.19-2.77,6.1-7.67,6.1-3.61,0-7.03-1.4-7.9-5.04l4.42-1.37c.25,1.12,1.29,2.32,3.42,2.32,1.65,0,2.88-.64,2.88-1.93,0-1.46-1.93-1.68-4.14-2.24-3.92-.95-5.68-2.77-5.68-6.05,0-3.75,3.11-5.99,7.2-5.99,3.36,0,6.22,1.79,6.97,4.9l-4.42,1.09c-.25-.95-1.06-1.9-2.77-1.9-1.4,0-2.32,.76-2.32,1.88,0,1.54,2.32,1.9,3.84,2.32,4.79,1.34,6.19,2.86,6.19,5.91Z"/>
        <path class="cls-3" d="M247.34,899.23h-7.42l-1.15,3.64h-5.04l7.06-19.6h5.66l7.06,19.6h-5.01l-1.15-3.64Zm-1.15-3.64l-2.58-8.15-2.58,8.15h5.15Z"/>
        <path class="cls-3" d="M271.31,897.13c0,3.19-2.77,6.1-7.67,6.1-3.61,0-7.03-1.4-7.9-5.04l4.42-1.37c.25,1.12,1.29,2.32,3.42,2.32,1.65,0,2.88-.64,2.88-1.93,0-1.46-1.93-1.68-4.14-2.24-3.92-.95-5.68-2.77-5.68-6.05,0-3.75,3.11-5.99,7.2-5.99,3.36,0,6.22,1.79,6.97,4.9l-4.42,1.09c-.25-.95-1.06-1.9-2.77-1.9-1.4,0-2.32,.76-2.32,1.88,0,1.54,2.32,1.9,3.84,2.32,4.79,1.34,6.19,2.86,6.19,5.91Z"/>
        <path class="cls-3" d="M127.47,946.23h-7.42l-1.15,3.64h-5.04l7.06-19.6h5.66l7.06,19.6h-5.01l-1.15-3.64Zm-1.15-3.64l-2.58-8.15-2.58,8.15h5.15Z"/>
        <path class="cls-3" d="M154.66,938.53v11.34h-2.29l-.64-2.44c-1.4,1.76-3.47,2.8-6.3,2.8-5.82,0-9.97-4.34-9.97-10.16s4.14-10.14,9.97-10.14c3.33,0,6.13,1.43,7.9,3.78l-3.98,2.63c-.87-1.09-2.18-1.82-3.92-1.82-3.42,0-5.18,2.77-5.18,5.54s1.76,5.54,5.18,5.54c2.66,0,4.17-1.43,4.79-3.28h-4.79v-3.81h9.24Z"/>
        <path class="cls-3" d="M175.52,930.27v11.98c0,5.38-3.05,7.98-8.18,7.98s-8.2-2.6-8.2-7.98v-11.98h4.82v11.51c0,2.6,1.23,3.84,3.39,3.84s3.39-1.23,3.39-3.84v-11.51h4.79Z"/>
        <path class="cls-3" d="M191.65,946.23h-7.42l-1.15,3.64h-5.04l7.06-19.6h5.66l7.06,19.6h-5.01l-1.15-3.64Zm-1.15-3.64l-2.58-8.15-2.58,8.15h5.15Z"/>
      </g>
      <g>
        <path class="cls-3" d="M660.34,856.25v3.47h-2.78v-3.47c-3.92-.38-7.26-2.22-8.3-5.83l4.55-1.42c.35,1.39,1.81,3.2,5.21,3.2,2.43,0,4.38-.94,4.38-3.02,0-2.43-2.78-2.6-6.6-3.54-4.9-1.22-6.53-3.68-6.53-7.05,0-4.2,2.92-6.95,7.29-7.36v-3.47h2.78v3.51c3.33,.42,5.9,2.4,6.81,5.63l-4.58,1.11c-.28-1.29-1.53-2.71-3.96-2.71-2.01,0-3.68,1.04-3.68,2.99,0,2.74,3.09,3.12,5.35,3.65,5.76,1.32,7.85,2.99,7.85,6.91,0,3.51-2.33,6.95-7.78,7.43Z"/>
        <path class="cls-3" d="M691.25,851.04h-2.88v4.83h-4.72v-4.83h-11.36v-3.72l9.86-15.77h6.22v15.46h2.88v4.03Zm-7.61-4.03v-10.52l-6.56,10.52h6.56Z"/>
        <path class="cls-3" d="M715.14,843.71c0,6.46-2.64,12.61-9.79,12.61s-9.76-6.15-9.76-12.61,2.64-12.57,9.76-12.57,9.79,6.15,9.79,12.57Zm-4.69,0c0-3.92-1.15-8.09-5.11-8.09s-5.07,4.17-5.07,8.09,1.15,8.13,5.07,8.13,5.11-4.17,5.11-8.13Z"/>
        <path class="cls-3" d="M739.21,843.71c0,6.46-2.64,12.61-9.79,12.61s-9.76-6.15-9.76-12.61,2.64-12.57,9.76-12.57,9.79,6.15,9.79,12.57Zm-4.69,0c0-3.92-1.15-8.09-5.1-8.09s-5.07,4.17-5.07,8.09,1.15,8.13,5.07,8.13,5.1-4.17,5.1-8.13Z"/>
        <path class="cls-3" d="M662.32,903.25v3.47h-2.78v-3.47c-3.92-.38-7.26-2.22-8.3-5.83l4.55-1.42c.35,1.39,1.81,3.2,5.21,3.2,2.43,0,4.38-.94,4.38-3.02,0-2.43-2.78-2.6-6.6-3.54-4.9-1.22-6.53-3.68-6.53-7.05,0-4.2,2.92-6.95,7.29-7.36v-3.47h2.78v3.51c3.33,.42,5.9,2.4,6.81,5.63l-4.58,1.11c-.28-1.29-1.53-2.71-3.96-2.71-2.01,0-3.68,1.04-3.68,2.99,0,2.74,3.09,3.12,5.35,3.65,5.76,1.32,7.85,2.99,7.85,6.91,0,3.51-2.33,6.95-7.78,7.43Z"/>
        <path class="cls-3" d="M691.07,895.99c0,4.06-3.12,7.33-8.61,7.33-4.48,0-8.09-2.33-8.72-5.59l4.52-1.04c.24,1.08,1.42,2.36,4.2,2.36s3.82-1.67,3.82-3.54c0-2.74-2.57-3.09-4.27-3.09h-2.05v-3.99h2.05c1.84,0,3.96-.62,3.96-3.02,0-1.98-1.32-3.06-3.44-3.06s-3.13,1.15-3.51,2.33l-4.31-1.01c.97-3.26,3.99-5.52,7.81-5.52,5,0,7.95,2.88,7.95,6.67,0,2.46-1.15,4.41-3.54,5.49,2.64,.9,4.13,2.74,4.13,5.7Z"/>
        <path class="cls-3" d="M715.14,890.71c0,6.46-2.64,12.61-9.79,12.61s-9.76-6.15-9.76-12.61,2.64-12.57,9.76-12.57,9.79,6.15,9.79,12.57Zm-4.69,0c0-3.92-1.15-8.09-5.11-8.09s-5.07,4.17-5.07,8.09,1.15,8.13,5.07,8.13,5.11-4.17,5.11-8.13Z"/>
        <path class="cls-3" d="M739.21,890.71c0,6.46-2.64,12.61-9.79,12.61s-9.76-6.15-9.76-12.61,2.64-12.57,9.76-12.57,9.79,6.15,9.79,12.57Zm-4.69,0c0-3.92-1.15-8.09-5.1-8.09s-5.07,4.17-5.07,8.09,1.15,8.13,5.07,8.13,5.1-4.17,5.1-8.13Z"/>
        <path class="cls-3" d="M662.32,950.25v3.47h-2.78v-3.47c-3.92-.38-7.26-2.22-8.3-5.83l4.55-1.42c.35,1.39,1.81,3.2,5.21,3.2,2.43,0,4.38-.94,4.38-3.02,0-2.43-2.78-2.6-6.6-3.54-4.9-1.22-6.53-3.68-6.53-7.05,0-4.2,2.92-6.95,7.29-7.36v-3.47h2.78v3.51c3.33,.42,5.9,2.4,6.81,5.63l-4.58,1.11c-.28-1.29-1.53-2.71-3.96-2.71-2.01,0-3.68,1.04-3.68,2.99,0,2.74,3.09,3.12,5.35,3.65,5.76,1.32,7.85,2.99,7.85,6.91,0,3.51-2.33,6.95-7.78,7.43Z"/>
        <path class="cls-3" d="M691.07,942.99c0,4.06-3.12,7.33-8.61,7.33-4.48,0-8.09-2.33-8.72-5.59l4.52-1.04c.24,1.08,1.42,2.36,4.2,2.36s3.82-1.67,3.82-3.54c0-2.74-2.57-3.09-4.27-3.09h-2.05v-3.99h2.05c1.84,0,3.96-.62,3.96-3.02,0-1.98-1.32-3.06-3.44-3.06s-3.13,1.15-3.51,2.33l-4.31-1.01c.97-3.26,3.99-5.52,7.81-5.52,5,0,7.95,2.88,7.95,6.67,0,2.46-1.15,4.41-3.54,5.49,2.64,.9,4.13,2.74,4.13,5.7Z"/>
        <path class="cls-3" d="M715.14,937.71c0,6.46-2.64,12.61-9.79,12.61s-9.76-6.15-9.76-12.61,2.64-12.57,9.76-12.57,9.79,6.15,9.79,12.57Zm-4.69,0c0-3.92-1.15-8.09-5.11-8.09s-5.07,4.17-5.07,8.09,1.15,8.13,5.07,8.13,5.11-4.17,5.11-8.13Z"/>
        <path class="cls-3" d="M739.21,937.71c0,6.46-2.64,12.61-9.79,12.61s-9.76-6.15-9.76-12.61,2.64-12.57,9.76-12.57,9.79,6.15,9.79,12.57Zm-4.69,0c0-3.92-1.15-8.09-5.1-8.09s-5.07,4.17-5.07,8.09,1.15,8.13,5.07,8.13,5.1-4.17,5.1-8.13Z"/>
      </g>
      <rect class="cls-2" x="45.64" y="1202.76" width="546.27" height="341.75"/>
      <rect class="cls-2" x="596.91" y="1202.76" width="178.77" height="341.75"/>
      <g>
        <path class="cls-3" d="M128.45,1282.83l4,2.63c-1.76,2.35-4.56,3.81-7.92,3.81-5.8,0-9.97-4.34-9.97-10.16s4.17-10.14,9.97-10.14c3.36,0,6.16,1.46,7.92,3.78l-4,2.63c-.84-1.06-2.16-1.79-3.92-1.79-3.42,0-5.15,2.74-5.15,5.52s1.74,5.54,5.15,5.54c1.76,0,3.08-.73,3.92-1.82Z"/>
        <path class="cls-3" d="M152.64,1269.3v19.6h-4.79v-7.62h-7.11v7.62h-4.79v-19.6h4.79v7.45h7.11v-7.45h4.79Z"/>
        <path class="cls-3" d="M169.72,1284.39v4.51h-12.32v-19.6h12.07v4.54h-7.28v3.02h6.38v4.29h-6.38v3.25h7.53Z"/>
        <path class="cls-3" d="M186.24,1284.39v4.51h-12.32v-19.6h12.07v4.54h-7.28v3.02h6.38v4.29h-6.38v3.25h7.53Z"/>
        <path class="cls-3" d="M204.89,1283.16c0,3.19-2.77,6.1-7.67,6.1-3.61,0-7.03-1.4-7.9-5.04l4.42-1.37c.25,1.12,1.29,2.32,3.42,2.32,1.65,0,2.88-.64,2.88-1.93,0-1.46-1.93-1.68-4.14-2.24-3.92-.95-5.68-2.77-5.68-6.05,0-3.75,3.11-5.99,7.2-5.99,3.36,0,6.22,1.79,6.97,4.9l-4.42,1.09c-.25-.95-1.06-1.9-2.77-1.9-1.4,0-2.32,.76-2.32,1.88,0,1.54,2.32,1.9,3.84,2.32,4.79,1.34,6.19,2.86,6.19,5.91Z"/>
        <path class="cls-3" d="M220.85,1284.39v4.51h-12.32v-19.6h12.07v4.54h-7.28v3.02h6.38v4.29h-6.38v3.25h7.53Z"/>
        <path class="cls-3" d="M246.92,1282.83l4,2.63c-1.76,2.35-4.56,3.81-7.92,3.81-5.8,0-9.97-4.34-9.97-10.16s4.17-10.14,9.97-10.14c3.36,0,6.16,1.46,7.92,3.78l-4,2.63c-.84-1.06-2.16-1.79-3.92-1.79-3.42,0-5.15,2.74-5.15,5.52s1.74,5.54,5.15,5.54c1.76,0,3.08-.73,3.92-1.82Z"/>
        <path class="cls-3" d="M266.91,1285.26h-7.42l-1.15,3.64h-5.04l7.06-19.6h5.66l7.06,19.6h-5.01l-1.15-3.64Zm-1.15-3.64l-2.58-8.15-2.58,8.15h5.15Z"/>
        <path class="cls-3" d="M287.43,1288.9l-6.22-8.96v8.96h-4.79v-19.6h4.79v8.71l5.99-8.71h5.35l-6.78,9.49,7.25,10.11h-5.6Z"/>
        <path class="cls-3" d="M308.71,1284.39v4.51h-12.32v-19.6h12.07v4.54h-7.28v3.02h6.38v4.29h-6.38v3.25h7.53Z"/>
        <path class="cls-3" d="M325.85,1279.1c0,4.82,1.46,8.74,2.74,10.75l-2.94,2.18c-1.71-2.3-4.06-7.14-4.06-12.94s2.35-10.64,4.06-12.94l2.94,2.21c-1.29,2.02-2.74,5.91-2.74,10.72Z"/>
        <path class="cls-3" d="M337.86,1273.84v3.72h6.61v4.51h-6.61v6.83h-4.79v-19.6h12.21v4.54h-7.42Z"/>
        <path class="cls-3" d="M360.6,1288.9l-3.3-6.55h-3.02v6.55h-4.79v-19.6h7.53c4.98,0,7.53,2.86,7.53,6.78,0,2.35-1.15,4.12-3.02,5.18l4.17,7.64h-5.1Zm-6.33-10.58h2.74c1.4,0,2.69-.56,2.69-2.24,0-1.46-1.09-2.24-2.69-2.24h-2.74v4.48Z"/>
        <path class="cls-3" d="M385.15,1269.3v11.98c0,5.38-3.05,7.98-8.18,7.98s-8.2-2.6-8.2-7.98v-11.98h4.82v11.51c0,2.6,1.23,3.84,3.39,3.84s3.39-1.23,3.39-3.84v-11.51h4.79Z"/>
        <path class="cls-3" d="M403.04,1273.84h-4.59v15.06h-4.79v-15.06h-4.59v-4.54h13.97v4.54Z"/>
        <path class="cls-3" d="M425.64,1279.1c0,5.82-4.17,10.16-9.97,10.16s-9.97-4.34-9.97-10.16,4.17-10.14,9.97-10.14,9.97,4.34,9.97,10.14Zm-4.82,0c0-2.77-1.74-5.52-5.15-5.52s-5.15,2.74-5.15,5.52,1.74,5.54,5.15,5.54,5.15-2.77,5.15-5.54Z"/>
        <path class="cls-3" d="M443.59,1283.16c0,3.19-2.77,6.1-7.67,6.1-3.61,0-7.03-1.4-7.9-5.04l4.42-1.37c.25,1.12,1.29,2.32,3.42,2.32,1.65,0,2.88-.64,2.88-1.93,0-1.46-1.93-1.68-4.14-2.24-3.92-.95-5.68-2.77-5.68-6.05,0-3.75,3.11-5.99,7.2-5.99,3.36,0,6.22,1.79,6.97,4.9l-4.42,1.09c-.25-.95-1.06-1.9-2.77-1.9-1.4,0-2.32,.76-2.32,1.88,0,1.54,2.32,1.9,3.84,2.32,4.79,1.34,6.19,2.86,6.19,5.91Z"/>
        <path class="cls-3" d="M467.02,1288.9l-3.3-6.55h-3.02v6.55h-4.79v-19.6h7.53c4.98,0,7.53,2.86,7.53,6.78,0,2.35-1.15,4.12-3.02,5.18l4.17,7.64h-5.1Zm-6.33-10.58h2.74c1.4,0,2.69-.56,2.69-2.24,0-1.46-1.09-2.24-2.69-2.24h-2.74v4.48Z"/>
        <path class="cls-3" d="M494.16,1279.1c0,5.82-4.17,10.16-9.97,10.16s-9.97-4.34-9.97-10.16,4.17-10.14,9.97-10.14,9.97,4.34,9.97,10.14Zm-4.82,0c0-2.77-1.74-5.52-5.15-5.52s-5.15,2.74-5.15,5.52,1.74,5.54,5.15,5.54,5.15-2.77,5.15-5.54Z"/>
        <path class="cls-3" d="M511.21,1269.3v12.63c0,4.65-2.32,7.34-7.22,7.34-4.23,0-7.11-2.55-7.31-6.05l4.73-.87c.08,1.09,.78,2.3,2.55,2.3,2.02,0,2.46-1.57,2.46-2.72v-12.63h4.79Z"/>
        <path class="cls-3" d="M535.2,1279.1c0,5.82-4.17,10.16-9.97,10.16s-9.97-4.34-9.97-10.16,4.17-10.14,9.97-10.14,9.97,4.34,9.97,10.14Zm-4.82,0c0-2.77-1.74-5.52-5.15-5.52s-5.15,2.74-5.15,5.52,1.74,5.54,5.15,5.54,5.15-2.77,5.15-5.54Z"/>
        <path class="cls-3" d="M553.15,1283.16c0,3.19-2.77,6.1-7.67,6.1-3.61,0-7.03-1.4-7.9-5.04l4.42-1.37c.25,1.12,1.29,2.32,3.42,2.32,1.65,0,2.88-.64,2.88-1.93,0-1.46-1.93-1.68-4.14-2.24-3.92-.95-5.68-2.77-5.68-6.05,0-3.75,3.11-5.99,7.2-5.99,3.36,0,6.22,1.79,6.97,4.9l-4.42,1.09c-.25-.95-1.06-1.9-2.77-1.9-1.4,0-2.32,.76-2.32,1.88,0,1.54,2.32,1.9,3.84,2.32,4.79,1.34,6.19,2.86,6.19,5.91Z"/>
        <path class="cls-3" d="M563.51,1279.1c0,5.8-2.35,10.64-4.06,12.94l-2.94-2.18c1.29-2.02,2.77-5.94,2.77-10.75s-1.48-8.71-2.77-10.72l2.94-2.21c1.71,2.3,4.06,7.14,4.06,12.94Z"/>
        <path class="cls-3" d="M128.45,1329.83l4,2.63c-1.76,2.35-4.56,3.81-7.92,3.81-5.8,0-9.97-4.34-9.97-10.16s4.17-10.14,9.97-10.14c3.36,0,6.16,1.46,7.92,3.78l-4,2.63c-.84-1.06-2.16-1.79-3.92-1.79-3.42,0-5.15,2.74-5.15,5.52s1.74,5.54,5.15,5.54c1.76,0,3.08-.73,3.92-1.82Z"/>
        <path class="cls-3" d="M148.44,1332.26h-7.42l-1.15,3.64h-5.04l7.06-19.6h5.66l7.06,19.6h-5.01l-1.15-3.64Zm-1.15-3.64l-2.58-8.15-2.58,8.15h5.15Z"/>
        <path class="cls-3" d="M169.08,1335.9l-3.3-6.55h-3.02v6.55h-4.79v-19.6h7.53c4.98,0,7.53,2.86,7.53,6.78,0,2.35-1.15,4.12-3.02,5.18l4.17,7.64h-5.1Zm-6.33-10.58h2.74c1.4,0,2.69-.56,2.69-2.24,0-1.46-1.09-2.24-2.69-2.24h-2.74v4.48Z"/>
        <path class="cls-3" d="M188.65,1335.9l-3.3-6.55h-3.02v6.55h-4.79v-19.6h7.53c4.98,0,7.53,2.86,7.53,6.78,0,2.35-1.15,4.12-3.02,5.18l4.17,7.64h-5.1Zm-6.33-10.58h2.74c1.4,0,2.69-.56,2.69-2.24,0-1.46-1.09-2.24-2.69-2.24h-2.74v4.48Z"/>
        <path class="cls-3" d="M215.78,1326.1c0,5.82-4.17,10.16-9.97,10.16s-9.97-4.34-9.97-10.16,4.17-10.14,9.97-10.14,9.97,4.34,9.97,10.14Zm-4.82,0c0-2.77-1.74-5.52-5.15-5.52s-5.15,2.74-5.15,5.52,1.74,5.54,5.15,5.54,5.15-2.77,5.15-5.54Z"/>
        <path class="cls-3" d="M232.41,1320.84h-4.59v15.06h-4.79v-15.06h-4.59v-4.54h13.97v4.54Z"/>
        <path class="cls-3" d="M258.2,1329.83l4,2.63c-1.76,2.35-4.56,3.81-7.92,3.81-5.8,0-9.97-4.34-9.97-10.16s4.17-10.14,9.97-10.14c3.36,0,6.16,1.46,7.92,3.78l-4,2.63c-.84-1.06-2.16-1.79-3.92-1.79-3.42,0-5.15,2.74-5.15,5.52s1.74,5.54,5.15,5.54c1.76,0,3.08-.73,3.92-1.82Z"/>
        <path class="cls-3" d="M278.19,1332.26h-7.42l-1.15,3.64h-5.04l7.06-19.6h5.66l7.06,19.6h-5.01l-1.15-3.64Zm-1.15-3.64l-2.58-8.15-2.58,8.15h5.15Z"/>
        <path class="cls-3" d="M298.72,1335.9l-6.22-8.96v8.96h-4.79v-19.6h4.79v8.71l5.99-8.71h5.35l-6.78,9.49,7.25,10.11h-5.6Z"/>
        <path class="cls-3" d="M320,1331.39v4.51h-12.32v-19.6h12.07v4.54h-7.28v3.02h6.38v4.29h-6.38v3.25h7.53Z"/>
        <path class="cls-3" d="M126.27,1382.9l-6.22-8.96v8.96h-4.79v-19.6h4.79v8.71l5.99-8.71h5.35l-6.78,9.49,7.25,10.11h-5.6Z"/>
        <path class="cls-3" d="M147.55,1378.39v4.51h-12.32v-19.6h12.07v4.54h-7.28v3.02h6.38v4.29h-6.38v3.25h7.53Z"/>
        <path class="cls-3" d="M162.22,1375.54v7.36h-4.82v-7.36l-7.06-12.24h5.15l4.31,8.34,4.31-8.34h5.15l-7.06,12.24Z"/>
        <path class="cls-3" d="M193.44,1378.39v4.51h-12.12v-19.6h4.82v15.09h7.31Z"/>
        <path class="cls-3" d="M202.15,1363.3v19.6h-4.79v-19.6h4.79Z"/>
        <path class="cls-3" d="M228.49,1363.3v19.6h-4.82v-11.65l-5.1,8.43h-1.76l-5.12-8.43v11.65h-4.79v-19.6h5.04l5.74,9.49,5.74-9.49h5.07Z"/>
        <path class="cls-3" d="M245.57,1378.39v4.51h-12.32v-19.6h12.07v4.54h-7.28v3.02h6.38v4.29h-6.38v3.25h7.53Z"/>
        <path class="cls-3" d="M273.54,1370.33c0,4.62-3.53,6.78-7.78,6.78h-2.52v5.8h-4.79v-19.6h7.31c4.87,0,7.78,2.8,7.78,7.03Zm-4.87,0c0-1.51-1.06-2.49-2.91-2.49h-2.52v4.98h2.52c1.74,0,2.91-.78,2.91-2.49Z"/>
        <path class="cls-3" d="M282.25,1363.3v19.6h-4.79v-19.6h4.79Z"/>
        <path class="cls-3" d="M299.33,1378.39v4.51h-12.32v-19.6h12.07v4.54h-7.28v3.02h6.38v4.29h-6.38v3.25h7.53Z"/>
        <path class="cls-3" d="M136.85,1410.3v19.6h-4.82v-11.65l-5.1,8.43h-1.76l-5.12-8.43v11.65h-4.79v-19.6h5.04l5.74,9.49,5.74-9.49h5.07Z"/>
        <path class="cls-3" d="M153.82,1426.26h-7.42l-1.15,3.64h-5.04l7.06-19.6h5.66l7.06,19.6h-5.01l-1.15-3.64Zm-1.15-3.64l-2.58-8.15-2.58,8.15h5.15Z"/>
        <path class="cls-3" d="M174.45,1429.9l-3.3-6.55h-3.02v6.55h-4.79v-19.6h7.53c4.98,0,7.53,2.86,7.53,6.78,0,2.35-1.15,4.12-3.02,5.18l4.17,7.64h-5.1Zm-6.33-10.58h2.74c1.4,0,2.69-.56,2.69-2.24,0-1.46-1.09-2.24-2.69-2.24h-2.74v4.48Z"/>
        <path class="cls-3" d="M199.71,1426.26l1.74,1.74-2.55,2.52-1.79-1.82c-1.54,1.01-3.42,1.57-5.49,1.57-5.8,0-9.97-4.34-9.97-10.16s4.17-10.14,9.97-10.14,9.97,4.34,9.97,10.14c0,2.35-.7,4.48-1.88,6.16Zm-6.02-1.01l-2.44-2.44,2.55-2.52,2.41,2.44c.36-.81,.56-1.71,.56-2.63,0-2.77-1.74-5.52-5.15-5.52s-5.15,2.74-5.15,5.52,1.74,5.54,5.15,5.54c.78,0,1.46-.14,2.07-.39Z"/>
        <path class="cls-3" d="M222.03,1410.3v11.98c0,5.38-3.05,7.98-8.18,7.98s-8.2-2.6-8.2-7.98v-11.98h4.82v11.51c0,2.6,1.23,3.84,3.39,3.84s3.39-1.23,3.39-3.84v-11.51h4.79Z"/>
        <path class="cls-3" d="M231.57,1410.3v19.6h-4.79v-19.6h4.79Z"/>
        <path class="cls-3" d="M250.78,1424.16c0,3.19-2.77,6.1-7.67,6.1-3.61,0-7.03-1.4-7.9-5.04l4.42-1.37c.25,1.12,1.29,2.32,3.42,2.32,1.65,0,2.88-.64,2.88-1.93,0-1.46-1.93-1.68-4.14-2.24-3.92-.95-5.68-2.77-5.68-6.05,0-3.75,3.11-5.99,7.2-5.99,3.36,0,6.22,1.79,6.97,4.9l-4.42,1.09c-.25-.95-1.06-1.9-2.77-1.9-1.4,0-2.32,.76-2.32,1.88,0,1.54,2.32,1.9,3.84,2.32,4.79,1.34,6.19,2.86,6.19,5.91Z"/>
        <path class="cls-3" d="M266.74,1425.39v4.51h-12.32v-19.6h12.07v4.54h-7.28v3.02h6.38v4.29h-6.38v3.25h7.53Z"/>
        <path class="cls-3" d="M128.45,1470.83l4,2.63c-1.76,2.35-4.56,3.81-7.92,3.81-5.8,0-9.97-4.34-9.97-10.16s4.17-10.14,9.97-10.14c3.36,0,6.16,1.46,7.92,3.78l-4,2.63c-.84-1.06-2.16-1.79-3.92-1.79-3.42,0-5.15,2.74-5.15,5.52s1.74,5.54,5.15,5.54c1.76,0,3.08-.73,3.92-1.82Z"/>
        <path class="cls-3" d="M152.64,1457.3v19.6h-4.79v-7.62h-7.11v7.62h-4.79v-19.6h4.79v7.45h7.11v-7.45h4.79Z"/>
        <path class="cls-3" d="M176.64,1467.1c0,5.82-4.17,10.16-9.97,10.16s-9.97-4.34-9.97-10.16,4.17-10.14,9.97-10.14,9.97,4.34,9.97,10.14Zm-4.82,0c0-2.77-1.74-5.52-5.15-5.52s-5.15,2.74-5.15,5.52,1.74,5.54,5.15,5.54,5.15-2.77,5.15-5.54Z"/>
        <path class="cls-3" d="M193.89,1470.83l4,2.63c-1.76,2.35-4.56,3.81-7.92,3.81-5.8,0-9.97-4.34-9.97-10.16s4.17-10.14,9.97-10.14c3.36,0,6.16,1.46,7.92,3.78l-4,2.63c-.84-1.06-2.16-1.79-3.92-1.79-3.42,0-5.15,2.74-5.15,5.52s1.74,5.54,5.15,5.54c1.76,0,3.08-.73,3.92-1.82Z"/>
        <path class="cls-3" d="M220.07,1467.1c0,5.82-4.17,10.16-9.97,10.16s-9.97-4.34-9.97-10.16,4.17-10.14,9.97-10.14,9.97,4.34,9.97,10.14Zm-4.82,0c0-2.77-1.74-5.52-5.15-5.52s-5.15,2.74-5.15,5.52,1.74,5.54,5.15,5.54,5.15-2.77,5.15-5.54Z"/>
        <path class="cls-3" d="M252.04,1467.1c0,5.82-4.17,10.16-9.97,10.16s-9.97-4.34-9.97-10.16,4.17-10.14,9.97-10.14,9.97,4.34,9.97,10.14Zm-4.82,0c0-2.77-1.74-5.52-5.15-5.52s-5.15,2.74-5.15,5.52,1.74,5.54,5.15,5.54,5.15-2.77,5.15-5.54Z"/>
        <path class="cls-3" d="M267.22,1476.9l-3.3-6.55h-3.02v6.55h-4.79v-19.6h7.53c4.98,0,7.53,2.86,7.53,6.78,0,2.35-1.15,4.12-3.02,5.18l4.17,7.64h-5.1Zm-6.33-10.58h2.74c1.4,0,2.69-.56,2.69-2.24,0-1.46-1.09-2.24-2.69-2.24h-2.74v4.48Z"/>
        <path class="cls-3" d="M287.99,1472.39v4.51h-12.32v-19.6h12.07v4.54h-7.28v3.02h6.38v4.29h-6.38v3.25h7.53Z"/>
        <path class="cls-3" d="M311.15,1467.1c0,5.82-4.17,10.16-9.97,10.16s-9.97-4.34-9.97-10.16,4.17-10.14,9.97-10.14,9.97,4.34,9.97,10.14Zm-4.82,0c0-2.77-1.74-5.52-5.15-5.52s-5.15,2.74-5.15,5.52,1.74,5.54,5.15,5.54,5.15-2.77,5.15-5.54Z"/>
      </g>
      <g>
        <path class="cls-3" d="M661.1,1289.28v3.47h-2.78v-3.47c-3.92-.38-7.26-2.22-8.3-5.83l4.55-1.42c.35,1.39,1.8,3.2,5.21,3.2,2.43,0,4.38-.94,4.38-3.02,0-2.43-2.78-2.6-6.6-3.54-4.9-1.22-6.53-3.68-6.53-7.05,0-4.2,2.92-6.95,7.29-7.36v-3.47h2.78v3.51c3.33,.42,5.9,2.4,6.81,5.63l-4.58,1.11c-.28-1.29-1.53-2.71-3.96-2.71-2.01,0-3.68,1.04-3.68,2.99,0,2.74,3.09,3.12,5.35,3.65,5.77,1.32,7.85,2.99,7.85,6.91,0,3.51-2.33,6.95-7.78,7.43Z"/>
        <path class="cls-3" d="M691.07,1281.71c0,4.58-3.86,7.64-9.1,7.64s-9.1-3.06-9.1-7.64c0-2.64,1.49-4.65,3.82-5.83-1.91-1.18-2.92-3.02-2.92-5.04,0-3.58,2.99-6.67,8.2-6.67s8.16,3.09,8.16,6.67c0,2.01-.97,3.86-2.88,5.04,2.29,1.18,3.82,3.2,3.82,5.83Zm-4.9-.24c0-2.08-1.63-3.61-4.2-3.61s-4.24,1.53-4.24,3.61c0,1.81,1.29,3.54,4.24,3.54s4.2-1.74,4.2-3.54Zm-7.81-10.11c0,2.05,1.63,3.09,3.61,3.09s3.61-1.04,3.61-3.09-1.81-3.2-3.61-3.2-3.61,1.08-3.61,3.2Z"/>
        <path class="cls-3" d="M715.14,1276.75c0,6.46-2.64,12.61-9.79,12.61s-9.76-6.15-9.76-12.61,2.64-12.57,9.76-12.57,9.79,6.15,9.79,12.57Zm-4.69,0c0-3.92-1.15-8.09-5.11-8.09s-5.07,4.17-5.07,8.09,1.15,8.13,5.07,8.13,5.11-4.17,5.11-8.13Z"/>
        <path class="cls-3" d="M739.21,1276.75c0,6.46-2.64,12.61-9.79,12.61s-9.76-6.15-9.76-12.61,2.64-12.57,9.76-12.57,9.79,6.15,9.79,12.57Zm-4.69,0c0-3.92-1.15-8.09-5.1-8.09s-5.07,4.17-5.07,8.09,1.15,8.13,5.07,8.13,5.1-4.17,5.1-8.13Z"/>
        <path class="cls-3" d="M661.1,1336.28v3.47h-2.78v-3.47c-3.92-.38-7.26-2.22-8.3-5.83l4.55-1.42c.35,1.39,1.8,3.2,5.21,3.2,2.43,0,4.38-.94,4.38-3.02,0-2.43-2.78-2.6-6.6-3.54-4.9-1.22-6.53-3.68-6.53-7.05,0-4.2,2.92-6.95,7.29-7.36v-3.47h2.78v3.51c3.33,.42,5.9,2.4,6.81,5.63l-4.58,1.11c-.28-1.29-1.53-2.71-3.96-2.71-2.01,0-3.68,1.04-3.68,2.99,0,2.74,3.09,3.12,5.35,3.65,5.77,1.32,7.85,2.99,7.85,6.91,0,3.51-2.33,6.95-7.78,7.43Z"/>
        <path class="cls-3" d="M691.07,1328.71c0,4.58-3.86,7.64-9.1,7.64s-9.1-3.06-9.1-7.64c0-2.64,1.49-4.65,3.82-5.83-1.91-1.18-2.92-3.02-2.92-5.04,0-3.58,2.99-6.67,8.2-6.67s8.16,3.09,8.16,6.67c0,2.01-.97,3.86-2.88,5.04,2.29,1.18,3.82,3.2,3.82,5.83Zm-4.9-.24c0-2.08-1.63-3.61-4.2-3.61s-4.24,1.53-4.24,3.61c0,1.81,1.29,3.54,4.24,3.54s4.2-1.74,4.2-3.54Zm-7.81-10.11c0,2.05,1.63,3.09,3.61,3.09s3.61-1.04,3.61-3.09-1.81-3.2-3.61-3.2-3.61,1.08-3.61,3.2Z"/>
        <path class="cls-3" d="M715.14,1323.75c0,6.46-2.64,12.61-9.79,12.61s-9.76-6.15-9.76-12.61,2.64-12.57,9.76-12.57,9.79,6.15,9.79,12.57Zm-4.69,0c0-3.92-1.15-8.09-5.11-8.09s-5.07,4.17-5.07,8.09,1.15,8.13,5.07,8.13,5.11-4.17,5.11-8.13Z"/>
        <path class="cls-3" d="M739.21,1323.75c0,6.46-2.64,12.61-9.79,12.61s-9.76-6.15-9.76-12.61,2.64-12.57,9.76-12.57,9.79,6.15,9.79,12.57Zm-4.69,0c0-3.92-1.15-8.09-5.1-8.09s-5.07,4.17-5.07,8.09,1.15,8.13,5.07,8.13,5.1-4.17,5.1-8.13Z"/>
        <path class="cls-3" d="M661.1,1383.28v3.47h-2.78v-3.47c-3.92-.38-7.26-2.22-8.3-5.83l4.55-1.42c.35,1.39,1.8,3.2,5.21,3.2,2.43,0,4.38-.94,4.38-3.02,0-2.43-2.78-2.6-6.6-3.54-4.9-1.22-6.53-3.68-6.53-7.05,0-4.2,2.92-6.95,7.29-7.36v-3.47h2.78v3.51c3.33,.42,5.9,2.4,6.81,5.63l-4.58,1.11c-.28-1.29-1.53-2.71-3.96-2.71-2.01,0-3.68,1.04-3.68,2.99,0,2.74,3.09,3.12,5.35,3.65,5.77,1.32,7.85,2.99,7.85,6.91,0,3.51-2.33,6.95-7.78,7.43Z"/>
        <path class="cls-3" d="M691.07,1375.71c0,4.58-3.86,7.64-9.1,7.64s-9.1-3.06-9.1-7.64c0-2.64,1.49-4.65,3.82-5.83-1.91-1.18-2.92-3.02-2.92-5.04,0-3.58,2.99-6.67,8.2-6.67s8.16,3.09,8.16,6.67c0,2.01-.97,3.86-2.88,5.04,2.29,1.18,3.82,3.2,3.82,5.83Zm-4.9-.24c0-2.08-1.63-3.61-4.2-3.61s-4.24,1.53-4.24,3.61c0,1.81,1.29,3.54,4.24,3.54s4.2-1.74,4.2-3.54Zm-7.81-10.11c0,2.05,1.63,3.09,3.61,3.09s3.61-1.04,3.61-3.09-1.81-3.2-3.61-3.2-3.61,1.08-3.61,3.2Z"/>
        <path class="cls-3" d="M715.14,1370.75c0,6.46-2.64,12.61-9.79,12.61s-9.76-6.15-9.76-12.61,2.64-12.57,9.76-12.57,9.79,6.15,9.79,12.57Zm-4.69,0c0-3.92-1.15-8.09-5.11-8.09s-5.07,4.17-5.07,8.09,1.15,8.13,5.07,8.13,5.11-4.17,5.11-8.13Z"/>
        <path class="cls-3" d="M739.21,1370.75c0,6.46-2.64,12.61-9.79,12.61s-9.76-6.15-9.76-12.61,2.64-12.57,9.76-12.57,9.79,6.15,9.79,12.57Zm-4.69,0c0-3.92-1.15-8.09-5.1-8.09s-5.07,4.17-5.07,8.09,1.15,8.13,5.07,8.13,5.1-4.17,5.1-8.13Z"/>
        <path class="cls-3" d="M661.1,1430.28v3.47h-2.78v-3.47c-3.92-.38-7.26-2.22-8.3-5.83l4.55-1.42c.35,1.39,1.8,3.2,5.21,3.2,2.43,0,4.38-.94,4.38-3.02,0-2.43-2.78-2.6-6.6-3.54-4.9-1.22-6.53-3.68-6.53-7.05,0-4.2,2.92-6.95,7.29-7.36v-3.47h2.78v3.51c3.33,.42,5.9,2.4,6.81,5.63l-4.58,1.11c-.28-1.29-1.53-2.71-3.96-2.71-2.01,0-3.68,1.04-3.68,2.99,0,2.74,3.09,3.12,5.35,3.65,5.77,1.32,7.85,2.99,7.85,6.91,0,3.51-2.33,6.95-7.78,7.43Z"/>
        <path class="cls-3" d="M691.07,1422.71c0,4.58-3.86,7.64-9.1,7.64s-9.1-3.06-9.1-7.64c0-2.64,1.49-4.65,3.82-5.83-1.91-1.18-2.92-3.02-2.92-5.04,0-3.58,2.99-6.67,8.2-6.67s8.16,3.09,8.16,6.67c0,2.01-.97,3.86-2.88,5.04,2.29,1.18,3.82,3.2,3.82,5.83Zm-4.9-.24c0-2.08-1.63-3.61-4.2-3.61s-4.24,1.53-4.24,3.61c0,1.81,1.29,3.54,4.24,3.54s4.2-1.74,4.2-3.54Zm-7.81-10.11c0,2.05,1.63,3.09,3.61,3.09s3.61-1.04,3.61-3.09-1.81-3.2-3.61-3.2-3.61,1.08-3.61,3.2Z"/>
        <path class="cls-3" d="M715.14,1417.75c0,6.46-2.64,12.61-9.79,12.61s-9.76-6.15-9.76-12.61,2.64-12.57,9.76-12.57,9.79,6.15,9.79,12.57Zm-4.69,0c0-3.92-1.15-8.09-5.11-8.09s-5.07,4.17-5.07,8.09,1.15,8.13,5.07,8.13,5.11-4.17,5.11-8.13Z"/>
        <path class="cls-3" d="M739.21,1417.75c0,6.46-2.64,12.61-9.79,12.61s-9.76-6.15-9.76-12.61,2.64-12.57,9.76-12.57,9.79,6.15,9.79,12.57Zm-4.69,0c0-3.92-1.15-8.09-5.1-8.09s-5.07,4.17-5.07,8.09,1.15,8.13,5.07,8.13,5.1-4.17,5.1-8.13Z"/>
        <path class="cls-3" d="M661.1,1477.28v3.47h-2.78v-3.47c-3.92-.38-7.26-2.22-8.3-5.83l4.55-1.42c.35,1.39,1.8,3.2,5.21,3.2,2.43,0,4.38-.94,4.38-3.02,0-2.43-2.78-2.6-6.6-3.54-4.9-1.22-6.53-3.68-6.53-7.05,0-4.2,2.92-6.95,7.29-7.36v-3.47h2.78v3.51c3.33,.42,5.9,2.4,6.81,5.63l-4.58,1.11c-.28-1.29-1.53-2.71-3.96-2.71-2.01,0-3.68,1.04-3.68,2.99,0,2.74,3.09,3.12,5.35,3.65,5.77,1.32,7.85,2.99,7.85,6.91,0,3.51-2.33,6.95-7.78,7.43Z"/>
        <path class="cls-3" d="M691.07,1469.71c0,4.58-3.86,7.64-9.1,7.64s-9.1-3.06-9.1-7.64c0-2.64,1.49-4.65,3.82-5.83-1.91-1.18-2.92-3.02-2.92-5.04,0-3.58,2.99-6.67,8.2-6.67s8.16,3.09,8.16,6.67c0,2.01-.97,3.86-2.88,5.04,2.29,1.18,3.82,3.2,3.82,5.83Zm-4.9-.24c0-2.08-1.63-3.61-4.2-3.61s-4.24,1.53-4.24,3.61c0,1.81,1.29,3.54,4.24,3.54s4.2-1.74,4.2-3.54Zm-7.81-10.11c0,2.05,1.63,3.09,3.61,3.09s3.61-1.04,3.61-3.09-1.81-3.2-3.61-3.2-3.61,1.08-3.61,3.2Z"/>
        <path class="cls-3" d="M715.14,1464.75c0,6.46-2.64,12.61-9.79,12.61s-9.76-6.15-9.76-12.61,2.64-12.57,9.76-12.57,9.79,6.15,9.79,12.57Zm-4.69,0c0-3.92-1.15-8.09-5.11-8.09s-5.07,4.17-5.07,8.09,1.15,8.13,5.07,8.13,5.11-4.17,5.11-8.13Z"/>
        <path class="cls-3" d="M739.21,1464.75c0,6.46-2.64,12.61-9.79,12.61s-9.76-6.15-9.76-12.61,2.64-12.57,9.76-12.57,9.79,6.15,9.79,12.57Zm-4.69,0c0-3.92-1.15-8.09-5.1-8.09s-5.07,4.17-5.07,8.09,1.15,8.13,5.07,8.13,5.1-4.17,5.1-8.13Z"/>
      </g>
      <rect class="cls-2" x="45.64" y="1726.65" width="546.27" height="343.57"/>
      <rect class="cls-2" x="596.91" y="1726.65" width="178.77" height="343.57"/>
      <g>
        <path class="cls-3" d="M127.47,1809.15h-7.42l-1.15,3.64h-5.04l7.06-19.6h5.66l7.06,19.6h-5.01l-1.15-3.64Zm-1.15-3.64l-2.58-8.15-2.58,8.15h5.15Z"/>
        <path class="cls-3" d="M149.11,1808.28v4.51h-12.12v-19.6h4.82v15.09h7.31Z"/>
        <path class="cls-3" d="M157.82,1797.73v3.72h6.61v4.51h-6.61v6.83h-4.79v-19.6h12.21v4.54h-7.42Z"/>
        <path class="cls-3" d="M179.97,1809.15h-7.42l-1.15,3.64h-5.04l7.06-19.6h5.66l7.06,19.6h-5.01l-1.15-3.64Zm-1.15-3.64l-2.58-8.15-2.58,8.15h5.15Z"/>
        <path class="cls-3" d="M202.76,1793.19v12.63c0,4.65-2.32,7.34-7.22,7.34-4.23,0-7.11-2.55-7.31-6.05l4.73-.87c.08,1.09,.78,2.3,2.55,2.3,2.02,0,2.46-1.57,2.46-2.72v-12.63h4.79Z"/>
        <path class="cls-3" d="M226.76,1802.99c0,5.82-4.17,10.16-9.97,10.16s-9.97-4.34-9.97-10.16,4.17-10.14,9.97-10.14,9.97,4.34,9.97,10.14Zm-4.82,0c0-2.77-1.74-5.52-5.15-5.52s-5.15,2.74-5.15,5.52,1.74,5.54,5.15,5.54,5.15-2.77,5.15-5.54Z"/>
        <path class="cls-3" d="M241.93,1812.79l-3.3-6.55h-3.03v6.55h-4.79v-19.6h7.53c4.98,0,7.53,2.86,7.53,6.78,0,2.35-1.15,4.12-3.03,5.18l4.17,7.64h-5.1Zm-6.33-10.58h2.74c1.4,0,2.69-.56,2.69-2.24,0-1.46-1.09-2.24-2.69-2.24h-2.74v4.48Z"/>
        <path class="cls-3" d="M276.35,1802.99c0,5.99-3.86,9.8-10.42,9.8h-6.86v-19.6h6.86c6.55,0,10.42,3.84,10.42,9.8Zm-4.79,0c0-3.47-2.41-5.26-5.63-5.26h-2.04v10.56h2.04c3.22,0,5.63-1.82,5.63-5.29Z"/>
        <path class="cls-3" d="M292.73,1808.28v4.51h-12.32v-19.6h12.07v4.54h-7.28v3.02h6.38v4.28h-6.38v3.25h7.53Z"/>
        <path class="cls-3" d="M318.79,1806.72l4,2.63c-1.76,2.35-4.56,3.81-7.92,3.81-5.8,0-9.97-4.34-9.97-10.16s4.17-10.14,9.97-10.14c3.36,0,6.16,1.46,7.92,3.78l-4,2.63c-.84-1.06-2.16-1.79-3.92-1.79-3.42,0-5.15,2.74-5.15,5.52s1.74,5.54,5.15,5.54c1.76,0,3.08-.73,3.92-1.82Z"/>
        <path class="cls-3" d="M342.98,1793.19v19.6h-4.79v-7.62h-7.11v7.62h-4.79v-19.6h4.79v7.45h7.11v-7.45h4.79Z"/>
        <path class="cls-3" d="M366.98,1802.99c0,5.82-4.17,10.16-9.97,10.16s-9.97-4.34-9.97-10.16,4.17-10.14,9.97-10.14,9.97,4.34,9.97,10.14Zm-4.82,0c0-2.77-1.74-5.52-5.15-5.52s-5.15,2.74-5.15,5.52,1.74,5.54,5.15,5.54,5.15-2.77,5.15-5.54Z"/>
        <path class="cls-3" d="M384.23,1806.72l4,2.63c-1.76,2.35-4.56,3.81-7.92,3.81-5.8,0-9.97-4.34-9.97-10.16s4.17-10.14,9.97-10.14c3.36,0,6.16,1.46,7.92,3.78l-4,2.63c-.84-1.06-2.16-1.79-3.92-1.79-3.42,0-5.15,2.74-5.15,5.52s1.74,5.54,5.15,5.54c1.76,0,3.08-.73,3.92-1.82Z"/>
        <path class="cls-3" d="M410.41,1802.99c0,5.82-4.17,10.16-9.97,10.16s-9.97-4.34-9.97-10.16,4.17-10.14,9.97-10.14,9.97,4.34,9.97,10.14Zm-4.82,0c0-2.77-1.74-5.52-5.15-5.52s-5.15,2.74-5.15,5.52,1.74,5.54,5.15,5.54,5.15-2.77,5.15-5.54Z"/>
        <path class="cls-3" d="M426.59,1808.28v4.51h-12.12v-19.6h4.82v15.09h7.31Z"/>
        <path class="cls-3" d="M442.72,1809.15h-7.42l-1.15,3.64h-5.04l7.06-19.6h5.66l7.06,19.6h-5.01l-1.15-3.64Zm-1.15-3.64l-2.58-8.15-2.58,8.15h5.15Z"/>
        <path class="cls-3" d="M463.97,1797.73h-4.59v15.06h-4.79v-15.06h-4.59v-4.54h13.97v4.54Z"/>
        <path class="cls-3" d="M480.21,1808.28v4.51h-12.32v-19.6h12.07v4.54h-7.28v3.02h6.38v4.28h-6.38v3.25h7.53Z"/>
        <path class="cls-3" d="M127.47,1856.15h-7.42l-1.15,3.64h-5.04l7.06-19.6h5.66l7.06,19.6h-5.01l-1.15-3.64Zm-1.15-3.64l-2.58-8.15-2.58,8.15h5.15Z"/>
        <path class="cls-3" d="M149.11,1855.28v4.51h-12.12v-19.6h4.82v15.09h7.31Z"/>
        <path class="cls-3" d="M157.82,1844.73v3.72h6.61v4.51h-6.61v6.83h-4.79v-19.6h12.21v4.54h-7.42Z"/>
        <path class="cls-3" d="M179.97,1856.15h-7.42l-1.15,3.64h-5.04l7.06-19.6h5.66l7.06,19.6h-5.01l-1.15-3.64Zm-1.15-3.64l-2.58-8.15-2.58,8.15h5.15Z"/>
        <path class="cls-3" d="M202.76,1840.19v12.63c0,4.65-2.32,7.34-7.22,7.34-4.23,0-7.11-2.55-7.31-6.05l4.73-.87c.08,1.09,.78,2.3,2.55,2.3,2.02,0,2.46-1.57,2.46-2.72v-12.63h4.79Z"/>
        <path class="cls-3" d="M226.76,1849.99c0,5.82-4.17,10.16-9.97,10.16s-9.97-4.34-9.97-10.16,4.17-10.14,9.97-10.14,9.97,4.34,9.97,10.14Zm-4.82,0c0-2.77-1.74-5.52-5.15-5.52s-5.15,2.74-5.15,5.52,1.74,5.54,5.15,5.54,5.15-2.77,5.15-5.54Z"/>
        <path class="cls-3" d="M241.93,1859.79l-3.3-6.55h-3.03v6.55h-4.79v-19.6h7.53c4.98,0,7.53,2.86,7.53,6.78,0,2.35-1.15,4.12-3.03,5.18l4.17,7.64h-5.1Zm-6.33-10.58h2.74c1.4,0,2.69-.56,2.69-2.24,0-1.46-1.09-2.24-2.69-2.24h-2.74v4.48Z"/>
        <path class="cls-3" d="M276.35,1849.99c0,5.99-3.86,9.8-10.42,9.8h-6.86v-19.6h6.86c6.55,0,10.42,3.84,10.42,9.8Zm-4.79,0c0-3.47-2.41-5.26-5.63-5.26h-2.04v10.56h2.04c3.22,0,5.63-1.82,5.63-5.29Z"/>
        <path class="cls-3" d="M292.73,1855.28v4.51h-12.32v-19.6h12.07v4.54h-7.28v3.02h6.38v4.28h-6.38v3.25h7.53Z"/>
        <path class="cls-3" d="M322.88,1849.99c0,5.99-3.86,9.8-10.42,9.8h-6.86v-19.6h6.86c6.55,0,10.42,3.84,10.42,9.8Zm-4.79,0c0-3.47-2.41-5.26-5.63-5.26h-2.04v10.56h2.04c3.22,0,5.63-1.82,5.63-5.29Z"/>
        <path class="cls-3" d="M343.32,1840.19v11.98c0,5.38-3.05,7.98-8.18,7.98s-8.2-2.6-8.2-7.98v-11.98h4.82v11.51c0,2.6,1.23,3.84,3.39,3.84s3.39-1.23,3.39-3.84v-11.51h4.79Z"/>
        <path class="cls-3" d="M360.2,1855.28v4.51h-12.12v-19.6h4.82v15.09h7.31Z"/>
        <path class="cls-3" d="M376.75,1853.72l4,2.63c-1.76,2.35-4.56,3.81-7.92,3.81-5.79,0-9.97-4.34-9.97-10.16s4.17-10.14,9.97-10.14c3.36,0,6.16,1.46,7.92,3.78l-4,2.63c-.84-1.06-2.16-1.79-3.92-1.79-3.42,0-5.15,2.74-5.15,5.52s1.74,5.54,5.15,5.54c1.76,0,3.08-.73,3.92-1.82Z"/>
        <path class="cls-3" d="M396.58,1855.28v4.51h-12.32v-19.6h12.07v4.54h-7.28v3.02h6.38v4.28h-6.38v3.25h7.53Z"/>
        <path class="cls-3" d="M426.73,1849.99c0,5.99-3.87,9.8-10.42,9.8h-6.86v-19.6h6.86c6.55,0,10.42,3.84,10.42,9.8Zm-4.79,0c0-3.47-2.41-5.26-5.63-5.26h-2.04v10.56h2.04c3.22,0,5.63-1.82,5.63-5.29Z"/>
        <path class="cls-3" d="M443.11,1855.28v4.51h-12.32v-19.6h12.07v4.54h-7.28v3.02h6.38v4.28h-6.38v3.25h7.53Z"/>
        <path class="cls-3" d="M468.12,1855.28v4.51h-12.12v-19.6h4.82v15.09h7.31Z"/>
        <path class="cls-3" d="M484.36,1855.28v4.51h-12.32v-19.6h12.07v4.54h-7.28v3.02h6.38v4.28h-6.38v3.25h7.53Z"/>
        <path class="cls-3" d="M501.46,1853.72l4,2.63c-1.76,2.35-4.56,3.81-7.92,3.81-5.8,0-9.97-4.34-9.97-10.16s4.17-10.14,9.97-10.14c3.36,0,6.16,1.46,7.92,3.78l-4,2.63c-.84-1.06-2.16-1.79-3.92-1.79-3.42,0-5.15,2.74-5.15,5.52s1.74,5.54,5.15,5.54c1.76,0,3.08-.73,3.92-1.82Z"/>
        <path class="cls-3" d="M525.66,1840.19v19.6h-4.79v-7.62h-7.11v7.62h-4.79v-19.6h4.79v7.45h7.11v-7.45h4.79Z"/>
        <path class="cls-3" d="M542.73,1855.28v4.51h-12.32v-19.6h12.07v4.54h-7.28v3.02h6.38v4.28h-6.38v3.25h7.53Z"/>
        <path class="cls-3" d="M130.35,1900.83c0,3.47-2.1,5.96-7.22,5.96h-7.87v-19.6h7.14c4.73,0,7.14,2.07,7.14,5.4,0,1.82-.76,3.05-2.1,3.84v.08c1.88,.81,2.91,2.27,2.91,4.31Zm-10.28-9.86v4.26h2.07c1.74,0,2.58-.87,2.58-2.13,0-1.43-.92-2.13-2.58-2.13h-2.07Zm5.4,9.66c0-1.34-.9-2.13-2.6-2.13h-2.8v4.51h2.8c1.79,0,2.6-1.04,2.6-2.38Z"/>
        <path class="cls-3" d="M153.51,1896.99c0,5.82-4.17,10.16-9.97,10.16s-9.97-4.34-9.97-10.16,4.17-10.14,9.97-10.14,9.97,4.34,9.97,10.14Zm-4.82,0c0-2.77-1.74-5.52-5.15-5.52s-5.15,2.74-5.15,5.52,1.74,5.54,5.15,5.54,5.15-2.77,5.15-5.54Z"/>
        <path class="cls-3" d="M169.69,1902.28v4.51h-12.12v-19.6h4.82v15.09h7.31Z"/>
        <path class="cls-3" d="M188.06,1901.05c0,3.19-2.77,6.1-7.67,6.1-3.61,0-7.03-1.4-7.9-5.04l4.42-1.37c.25,1.12,1.29,2.32,3.42,2.32,1.65,0,2.88-.64,2.88-1.93,0-1.46-1.93-1.68-4.14-2.24-3.92-.95-5.68-2.77-5.68-6.05,0-3.75,3.11-5.99,7.2-5.99,3.36,0,6.22,1.79,6.97,4.9l-4.42,1.09c-.25-.95-1.06-1.9-2.77-1.9-1.4,0-2.32,.76-2.32,1.88,0,1.54,2.32,1.9,3.84,2.32,4.79,1.34,6.19,2.86,6.19,5.91Z"/>
        <path class="cls-3" d="M203.91,1903.15h-7.42l-1.15,3.64h-5.04l7.06-19.6h5.66l7.06,19.6h-5.01l-1.15-3.64Zm-1.15-3.64l-2.58-8.15-2.58,8.15h5.15Z"/>
        <path class="cls-3" d="M239.39,1896.99c0,5.99-3.87,9.8-10.42,9.8h-6.86v-19.6h6.86c6.55,0,10.42,3.84,10.42,9.8Zm-4.79,0c0-3.47-2.41-5.26-5.63-5.26h-2.04v10.56h2.04c3.22,0,5.63-1.82,5.63-5.29Z"/>
        <path class="cls-3" d="M255.77,1902.28v4.51h-12.32v-19.6h12.07v4.54h-7.28v3.02h6.38v4.28h-6.38v3.25h7.53Z"/>
        <path class="cls-3" d="M290.23,1887.19v19.6h-4.82v-11.65l-5.1,8.43h-1.76l-5.12-8.43v11.65h-4.79v-19.6h5.04l5.74,9.49,5.74-9.49h5.07Z"/>
        <path class="cls-3" d="M307.2,1903.15h-7.42l-1.15,3.64h-5.04l7.06-19.6h5.66l7.06,19.6h-5.01l-1.15-3.64Zm-1.15-3.64l-2.58-8.15-2.58,8.15h5.15Z"/>
        <path class="cls-3" d="M321.51,1887.19v19.6h-4.79v-19.6h4.79Z"/>
        <path class="cls-3" d="M340.72,1901.05c0,3.19-2.77,6.1-7.67,6.1-3.61,0-7.03-1.4-7.9-5.04l4.42-1.37c.25,1.12,1.29,2.32,3.42,2.32,1.65,0,2.88-.64,2.88-1.93,0-1.46-1.93-1.68-4.14-2.24-3.92-.95-5.68-2.77-5.68-6.05,0-3.75,3.11-5.99,7.2-5.99,3.36,0,6.22,1.79,6.97,4.9l-4.42,1.09c-.25-.95-1.06-1.9-2.77-1.9-1.4,0-2.32,.76-2.32,1.88,0,1.54,2.32,1.9,3.84,2.32,4.79,1.34,6.19,2.86,6.19,5.91Z"/>
        <path class="cls-3" d="M356.68,1902.28v4.51h-12.32v-19.6h12.07v4.54h-7.28v3.02h6.38v4.28h-6.38v3.25h7.53Z"/>
        <path class="cls-3" d="M377.54,1887.19v19.6h-4.2l-7.64-11.42v11.42h-4.82v-19.6h4.2l7.64,11.42v-11.42h4.82Z"/>
        <path class="cls-3" d="M387.08,1887.19v19.6h-4.79v-19.6h4.79Z"/>
        <path class="cls-3" d="M404.98,1891.73h-4.59v15.06h-4.79v-15.06h-4.59v-4.54h13.97v4.54Z"/>
        <path class="cls-3" d="M419.7,1903.15h-7.42l-1.15,3.64h-5.04l7.06-19.6h5.66l7.06,19.6h-5.01l-1.15-3.64Zm-1.15-3.64l-2.58-8.15-2.58,8.15h5.15Z"/>
        <path class="cls-3" d="M443.67,1901.05c0,3.19-2.77,6.1-7.67,6.1-3.61,0-7.03-1.4-7.9-5.04l4.42-1.37c.25,1.12,1.29,2.32,3.42,2.32,1.65,0,2.88-.64,2.88-1.93,0-1.46-1.93-1.68-4.14-2.24-3.92-.95-5.68-2.77-5.68-6.05,0-3.75,3.11-5.99,7.2-5.99,3.36,0,6.22,1.79,6.97,4.9l-4.42,1.09c-.25-.95-1.06-1.9-2.77-1.9-1.4,0-2.32,.76-2.32,1.88,0,1.54,2.32,1.9,3.84,2.32,4.79,1.34,6.19,2.86,6.19,5.91Z"/>
        <path class="cls-3" d="M136.85,1934.19v19.6h-4.82v-11.65l-5.1,8.43h-1.76l-5.12-8.43v11.65h-4.79v-19.6h5.04l5.74,9.49,5.74-9.49h5.07Z"/>
        <path class="cls-3" d="M153.93,1949.28v4.51h-12.32v-19.6h12.07v4.54h-7.28v3.02h6.38v4.28h-6.38v3.25h7.53Z"/>
        <path class="cls-3" d="M175.41,1943.99c0,5.99-3.86,9.8-10.42,9.8h-6.86v-19.6h6.86c6.55,0,10.42,3.84,10.42,9.8Zm-4.79,0c0-3.47-2.41-5.26-5.63-5.26h-2.04v10.56h2.04c3.22,0,5.63-1.82,5.63-5.29Z"/>
        <path class="cls-3" d="M184.25,1934.19v19.6h-4.79v-19.6h4.79Z"/>
        <path class="cls-3" d="M201.22,1950.15h-7.42l-1.15,3.64h-5.04l7.06-19.6h5.66l7.06,19.6h-5.01l-1.15-3.64Zm-1.15-3.64l-2.58-8.15-2.58,8.15h5.15Z"/>
        <path class="cls-3" d="M222.87,1949.28v4.51h-12.12v-19.6h4.82v15.09h7.31Z"/>
        <path class="cls-3" d="M242.89,1934.19v11.98c0,5.38-3.05,7.98-8.18,7.98s-8.2-2.6-8.2-7.98v-11.98h4.82v11.51c0,2.6,1.23,3.84,3.39,3.84s3.39-1.23,3.39-3.84v-11.51h4.79Z"/>
        <path class="cls-3" d="M264.3,1934.19v19.6h-4.2l-7.64-11.42v11.42h-4.82v-19.6h4.2l7.64,11.42v-11.42h4.82Z"/>
        <path class="cls-3" d="M281.27,1950.15h-7.42l-1.15,3.64h-5.04l7.06-19.6h5.66l7.06,19.6h-5.01l-1.15-3.64Zm-1.15-3.64l-2.58-8.15-2.58,8.15h5.15Z"/>
        <path class="cls-3" d="M128.45,1994.72l4,2.63c-1.76,2.35-4.56,3.81-7.92,3.81-5.8,0-9.97-4.34-9.97-10.16s4.17-10.14,9.97-10.14c3.36,0,6.16,1.46,7.92,3.78l-4,2.63c-.84-1.06-2.16-1.79-3.92-1.79-3.42,0-5.15,2.74-5.15,5.52s1.74,5.54,5.15,5.54c1.76,0,3.08-.73,3.92-1.82Z"/>
        <path class="cls-3" d="M147.07,2000.79l-3.3-6.55h-3.02v6.55h-4.79v-19.6h7.53c4.98,0,7.53,2.86,7.53,6.78,0,2.35-1.15,4.12-3.02,5.18l4.17,7.64h-5.1Zm-6.33-10.58h2.74c1.4,0,2.69-.56,2.69-2.24,0-1.46-1.09-2.24-2.69-2.24h-2.74v4.48Z"/>
        <path class="cls-3" d="M160.31,1981.19v19.6h-4.79v-19.6h4.79Z"/>
        <path class="cls-3" d="M184.31,1990.99c0,5.82-4.17,10.16-9.97,10.16s-9.97-4.34-9.97-10.16,4.17-10.14,9.97-10.14,9.97,4.34,9.97,10.14Zm-4.82,0c0-2.77-1.74-5.52-5.15-5.52s-5.15,2.74-5.15,5.52,1.74,5.54,5.15,5.54,5.15-2.77,5.15-5.54Z"/>
        <path class="cls-3" d="M200.49,1996.28v4.51h-12.12v-19.6h4.82v15.09h7.31Z"/>
        <path class="cls-3" d="M216.54,1996.28v4.51h-12.12v-19.6h4.82v15.09h7.31Z"/>
        <path class="cls-3" d="M239.13,1990.99c0,5.82-4.17,10.16-9.97,10.16s-9.97-4.34-9.97-10.16,4.17-10.14,9.97-10.14,9.97,4.34,9.97,10.14Zm-4.82,0c0-2.77-1.74-5.52-5.15-5.52s-5.15,2.74-5.15,5.52,1.74,5.54,5.15,5.54,5.15-2.77,5.15-5.54Z"/>
      </g>
      <g>
        <path class="cls-3" d="M664.09,1813.17v3.47h-2.78v-3.47c-3.92-.38-7.26-2.22-8.3-5.83l4.55-1.42c.35,1.39,1.8,3.2,5.21,3.2,2.43,0,4.38-.94,4.38-3.02,0-2.43-2.78-2.61-6.6-3.54-4.9-1.21-6.53-3.68-6.53-7.05,0-4.2,2.92-6.95,7.29-7.36v-3.47h2.78v3.51c3.33,.42,5.9,2.4,6.81,5.63l-4.58,1.11c-.28-1.29-1.53-2.71-3.96-2.71-2.01,0-3.68,1.04-3.68,2.99,0,2.74,3.09,3.13,5.35,3.65,5.77,1.32,7.85,2.99,7.85,6.91,0,3.51-2.33,6.95-7.78,7.43Z"/>
        <path class="cls-3" d="M691.84,1808.42v4.38h-15.49v-3.44c2.29-2.54,3.61-4.06,5.87-6.63,2.12-2.47,4.55-5.11,4.55-7.22,0-1.74-1.04-3.16-2.99-3.16-2.15,0-3.06,1.56-3.33,2.99l-4.41-1.01c.87-4.03,4.03-6.25,8.13-6.25,4.48,0,7.33,3.44,7.33,7.26,0,3.4-2.99,6.7-8.61,13.09h8.96Z"/>
        <path class="cls-3" d="M715.31,1807.96h-2.88v4.83h-4.72v-4.83h-11.36v-3.72l9.86-15.77h6.22v15.46h2.88v4.03Zm-7.61-4.03v-10.52l-6.56,10.52h6.56Z"/>
        <path class="cls-3" d="M739.21,1800.64c0,6.46-2.64,12.61-9.79,12.61s-9.76-6.15-9.76-12.61,2.64-12.57,9.76-12.57,9.79,6.15,9.79,12.57Zm-4.69,0c0-3.92-1.15-8.09-5.1-8.09s-5.07,4.17-5.07,8.09,1.15,8.13,5.07,8.13,5.1-4.17,5.1-8.13Z"/>
        <path class="cls-3" d="M660.34,1860.17v3.47h-2.78v-3.47c-3.92-.38-7.26-2.22-8.3-5.83l4.55-1.42c.35,1.39,1.81,3.2,5.21,3.2,2.43,0,4.38-.94,4.38-3.02,0-2.43-2.78-2.61-6.6-3.54-4.9-1.21-6.53-3.68-6.53-7.05,0-4.2,2.92-6.95,7.29-7.36v-3.47h2.78v3.51c3.33,.42,5.9,2.4,6.81,5.63l-4.58,1.11c-.28-1.29-1.53-2.71-3.96-2.71-2.01,0-3.68,1.04-3.68,2.99,0,2.74,3.09,3.13,5.35,3.65,5.76,1.32,7.85,2.99,7.85,6.91,0,3.51-2.33,6.95-7.78,7.43Z"/>
        <path class="cls-3" d="M691.25,1854.96h-2.88v4.83h-4.72v-4.83h-11.36v-3.72l9.86-15.77h6.22v15.46h2.88v4.03Zm-7.61-4.03v-10.52l-6.56,10.52h6.56Z"/>
        <path class="cls-3" d="M715.14,1847.64c0,6.46-2.64,12.61-9.79,12.61s-9.76-6.15-9.76-12.61,2.64-12.57,9.76-12.57,9.79,6.15,9.79,12.57Zm-4.69,0c0-3.92-1.15-8.09-5.11-8.09s-5.07,4.17-5.07,8.09,1.15,8.13,5.07,8.13,5.11-4.17,5.11-8.13Z"/>
        <path class="cls-3" d="M739.21,1847.64c0,6.46-2.64,12.61-9.79,12.61s-9.76-6.15-9.76-12.61,2.64-12.57,9.76-12.57,9.79,6.15,9.79,12.57Zm-4.69,0c0-3.92-1.15-8.09-5.1-8.09s-5.07,4.17-5.07,8.09,1.15,8.13,5.07,8.13,5.1-4.17,5.1-8.13Z"/>
        <path class="cls-3" d="M660.34,1907.17v3.47h-2.78v-3.47c-3.92-.38-7.26-2.22-8.3-5.83l4.55-1.42c.35,1.39,1.81,3.2,5.21,3.2,2.43,0,4.38-.94,4.38-3.02,0-2.43-2.78-2.61-6.6-3.54-4.9-1.21-6.53-3.68-6.53-7.05,0-4.2,2.92-6.95,7.29-7.36v-3.47h2.78v3.51c3.33,.42,5.9,2.4,6.81,5.63l-4.58,1.11c-.28-1.29-1.53-2.71-3.96-2.71-2.01,0-3.68,1.04-3.68,2.99,0,2.74,3.09,3.13,5.35,3.65,5.76,1.32,7.85,2.99,7.85,6.91,0,3.51-2.33,6.95-7.78,7.43Z"/>
        <path class="cls-3" d="M691.25,1901.96h-2.88v4.83h-4.72v-4.83h-11.36v-3.72l9.86-15.77h6.22v15.46h2.88v4.03Zm-7.61-4.03v-10.52l-6.56,10.52h6.56Z"/>
        <path class="cls-3" d="M715.14,1894.64c0,6.46-2.64,12.61-9.79,12.61s-9.76-6.15-9.76-12.61,2.64-12.57,9.76-12.57,9.79,6.15,9.79,12.57Zm-4.69,0c0-3.92-1.15-8.09-5.11-8.09s-5.07,4.17-5.07,8.09,1.15,8.13,5.07,8.13,5.11-4.17,5.11-8.13Z"/>
        <path class="cls-3" d="M739.21,1894.64c0,6.46-2.64,12.61-9.79,12.61s-9.76-6.15-9.76-12.61,2.64-12.57,9.76-12.57,9.79,6.15,9.79,12.57Zm-4.69,0c0-3.92-1.15-8.09-5.1-8.09s-5.07,4.17-5.07,8.09,1.15,8.13,5.07,8.13,5.1-4.17,5.1-8.13Z"/>
        <path class="cls-3" d="M670.13,1954.17v3.47h-2.78v-3.47c-3.92-.38-7.26-2.22-8.3-5.83l4.55-1.42c.35,1.39,1.81,3.2,5.21,3.2,2.43,0,4.38-.94,4.38-3.02,0-2.43-2.78-2.61-6.6-3.54-4.9-1.21-6.53-3.68-6.53-7.05,0-4.2,2.92-6.95,7.29-7.36v-3.47h2.78v3.51c3.33,.42,5.9,2.4,6.81,5.63l-4.58,1.11c-.28-1.29-1.53-2.71-3.96-2.71-2.02,0-3.68,1.04-3.68,2.99,0,2.74,3.09,3.13,5.35,3.65,5.77,1.32,7.85,2.99,7.85,6.91,0,3.51-2.33,6.95-7.78,7.43Z"/>
        <path class="cls-3" d="M692.39,1929.48v24.31h-4.72v-18.82l-4.27,2.88-2.01-3.3,7.5-5.07h3.51Z"/>
        <path class="cls-3" d="M715.14,1945.73c0,4.51-3.09,8.51-8.65,8.51-4.1,0-7.78-2.43-8.37-5.59l4.55-1.04c.28,1.08,1.35,2.36,3.82,2.36,2.85,0,4.03-2.05,4.03-4.17,0-2.29-1.56-3.86-3.99-3.86-1.81,0-3.33,.97-3.96,1.7l-3.61-1.04,1.53-13.13h13.13v4.38h-9.55l-.62,5.35c1.15-.66,2.54-1.11,3.96-1.11,4.65,0,7.74,3.16,7.74,7.64Z"/>
        <path class="cls-3" d="M739.21,1941.64c0,6.46-2.64,12.61-9.79,12.61s-9.76-6.15-9.76-12.61,2.64-12.57,9.76-12.57,9.79,6.15,9.79,12.57Zm-4.69,0c0-3.92-1.15-8.09-5.11-8.09s-5.07,4.17-5.07,8.09,1.15,8.13,5.07,8.13,5.11-4.17,5.11-8.13Z"/>
        <path class="cls-3" d="M670.13,2001.17v3.47h-2.78v-3.47c-3.92-.38-7.26-2.22-8.3-5.83l4.55-1.42c.35,1.39,1.81,3.2,5.21,3.2,2.43,0,4.38-.94,4.38-3.02,0-2.43-2.78-2.61-6.6-3.54-4.9-1.21-6.53-3.68-6.53-7.05,0-4.2,2.92-6.95,7.29-7.36v-3.47h2.78v3.51c3.33,.42,5.9,2.4,6.81,5.63l-4.58,1.11c-.28-1.29-1.53-2.71-3.96-2.71-2.02,0-3.68,1.04-3.68,2.99,0,2.74,3.09,3.13,5.35,3.65,5.77,1.32,7.85,2.99,7.85,6.91,0,3.51-2.33,6.95-7.78,7.43Z"/>
        <path class="cls-3" d="M692.39,1976.48v24.31h-4.72v-18.82l-4.27,2.88-2.01-3.3,7.5-5.07h3.51Z"/>
        <path class="cls-3" d="M715.14,1992.73c0,4.51-3.09,8.51-8.65,8.51-4.1,0-7.78-2.43-8.37-5.59l4.55-1.04c.28,1.08,1.35,2.36,3.82,2.36,2.85,0,4.03-2.05,4.03-4.17,0-2.29-1.56-3.86-3.99-3.86-1.81,0-3.33,.97-3.96,1.7l-3.61-1.04,1.53-13.13h13.13v4.38h-9.55l-.62,5.35c1.15-.66,2.54-1.11,3.96-1.11,4.65,0,7.74,3.16,7.74,7.64Z"/>
        <path class="cls-3" d="M739.21,1988.64c0,6.46-2.64,12.61-9.79,12.61s-9.76-6.15-9.76-12.61,2.64-12.57,9.76-12.57,9.79,6.15,9.79,12.57Zm-4.69,0c0-3.92-1.15-8.09-5.11-8.09s-5.07,4.17-5.07,8.09,1.15,8.13,5.07,8.13,5.11-4.17,5.11-8.13Z"/>
      </g>
      <rect class="cls-2" x="45.64" y="2353.82" width="546.27" height="247.75"/>
      <rect class="cls-2" x="596.91" y="2353.82" width="178.77" height="247.75"/>
      <g>
        <path class="cls-3" d="M129.71,2434.22c0,3.19-2.77,6.1-7.67,6.1-3.61,0-7.03-1.4-7.9-5.04l4.42-1.37c.25,1.12,1.29,2.32,3.42,2.32,1.65,0,2.88-.64,2.88-1.93,0-1.46-1.93-1.68-4.14-2.24-3.92-.95-5.68-2.77-5.68-6.05,0-3.75,3.11-5.99,7.2-5.99,3.36,0,6.22,1.79,6.97,4.9l-4.42,1.09c-.25-.95-1.06-1.9-2.77-1.9-1.4,0-2.32,.76-2.32,1.88,0,1.54,2.32,1.9,3.84,2.32,4.79,1.34,6.19,2.86,6.19,5.91Z"/>
        <path class="cls-3" d="M138.14,2420.36v19.6h-4.79v-19.6h4.79Z"/>
        <path class="cls-3" d="M164.49,2420.36v19.6h-4.82v-11.65l-5.1,8.43h-1.76l-5.12-8.43v11.65h-4.79v-19.6h5.04l5.74,9.49,5.74-9.49h5.07Z"/>
        <path class="cls-3" d="M184.34,2427.39c0,4.62-3.53,6.78-7.78,6.78h-2.52v5.79h-4.79v-19.6h7.31c4.87,0,7.78,2.8,7.78,7.03Zm-4.87,0c0-1.51-1.06-2.49-2.91-2.49h-2.52v4.98h2.52c1.74,0,2.91-.78,2.91-2.49Z"/>
        <path class="cls-3" d="M200.38,2435.46v4.51h-12.12v-19.6h4.82v15.09h7.31Z"/>
        <path class="cls-3" d="M216.62,2435.46v4.51h-12.32v-19.6h12.07v4.54h-7.28v3.02h6.38v4.28h-6.38v3.25h7.53Z"/>
        <path class="cls-3" d="M128.45,2480.89l4,2.63c-1.76,2.35-4.56,3.81-7.92,3.81-5.8,0-9.97-4.34-9.97-10.16s4.17-10.14,9.97-10.14c3.36,0,6.16,1.46,7.92,3.78l-4,2.63c-.84-1.06-2.16-1.79-3.92-1.79-3.42,0-5.15,2.74-5.15,5.52s1.74,5.54,5.15,5.54c1.76,0,3.08-.73,3.92-1.82Z"/>
        <path class="cls-3" d="M148.08,2482.46v4.51h-12.12v-19.6h4.82v15.09h7.31Z"/>
        <path class="cls-3" d="M164.21,2483.32h-7.42l-1.15,3.64h-5.04l7.06-19.6h5.66l7.06,19.6h-5.01l-1.15-3.64Zm-1.15-3.64l-2.58-8.15-2.58,8.15h5.15Zm1.99-18.4l-2.72,3.92h-3.61l1.82-3.92h4.51Z"/>
        <path class="cls-3" d="M188.17,2481.22c0,3.19-2.77,6.1-7.67,6.1-3.61,0-7.03-1.4-7.9-5.04l4.42-1.37c.25,1.12,1.29,2.32,3.42,2.32,1.65,0,2.88-.64,2.88-1.93,0-1.46-1.93-1.68-4.14-2.24-3.92-.95-5.68-2.77-5.68-6.05,0-3.75,3.11-5.99,7.2-5.99,3.36,0,6.22,1.79,6.97,4.9l-4.42,1.09c-.25-.95-1.06-1.9-2.77-1.9-1.4,0-2.32,.76-2.32,1.88,0,1.54,2.32,1.9,3.84,2.32,4.79,1.34,6.19,2.86,6.19,5.91Z"/>
        <path class="cls-3" d="M196.6,2467.36v19.6h-4.79v-19.6h4.79Z"/>
        <path class="cls-3" d="M214.55,2480.89l4,2.63c-1.76,2.35-4.56,3.81-7.92,3.81-5.79,0-9.97-4.34-9.97-10.16s4.17-10.14,9.97-10.14c3.36,0,6.16,1.46,7.92,3.78l-4,2.63c-.84-1.06-2.16-1.79-3.92-1.79-3.42,0-5.15,2.74-5.15,5.52s1.74,5.54,5.15,5.54c1.76,0,3.08-.73,3.92-1.82Z"/>
        <path class="cls-3" d="M240.73,2477.16c0,5.82-4.17,10.16-9.97,10.16s-9.97-4.34-9.97-10.16,4.17-10.14,9.97-10.14,9.97,4.34,9.97,10.14Zm-4.82,0c0-2.77-1.74-5.52-5.15-5.52s-5.15,2.74-5.15,5.52,1.74,5.54,5.15,5.54,5.15-2.77,5.15-5.54Z"/>
        <path class="cls-3" d="M132.54,2524.16c0,5.99-3.87,9.8-10.42,9.8h-6.86v-19.6h6.86c6.55,0,10.42,3.84,10.42,9.8Zm-4.79,0c0-3.47-2.41-5.26-5.63-5.26h-2.04v10.56h2.04c3.22,0,5.63-1.82,5.63-5.29Z"/>
        <path class="cls-3" d="M148.92,2529.46v4.51h-12.32v-19.6h12.07v4.54h-7.28v3.02h6.38v4.28h-6.38v3.25h7.53Z"/>
        <path class="cls-3" d="M165.24,2529.46v4.51h-12.12v-19.6h4.82v15.09h7.31Z"/>
        <path class="cls-3" d="M173.95,2514.36v19.6h-4.79v-19.6h4.79Z"/>
        <path class="cls-3" d="M191.9,2527.89l4,2.63c-1.76,2.35-4.56,3.81-7.92,3.81-5.8,0-9.97-4.34-9.97-10.16s4.17-10.14,9.97-10.14c3.36,0,6.16,1.46,7.92,3.78l-4,2.63c-.84-1.06-2.16-1.79-3.92-1.79-3.42,0-5.15,2.74-5.15,5.52s1.74,5.54,5.15,5.54c1.76,0,3.08-.73,3.92-1.82Z"/>
        <path class="cls-3" d="M211.89,2530.32h-7.42l-1.15,3.64h-5.04l7.06-19.6h5.66l7.06,19.6h-5.01l-1.15-3.64Zm-1.15-3.64l-2.58-8.15-2.58,8.15h5.15Z"/>
        <path class="cls-3" d="M233.14,2518.9h-4.59v15.06h-4.79v-15.06h-4.59v-4.54h13.97v4.54Z"/>
        <path class="cls-3" d="M249.38,2529.46v4.51h-12.32v-19.6h12.07v4.54h-7.28v3.02h6.38v4.28h-6.38v3.25h7.53Z"/>
        <path class="cls-3" d="M268.03,2528.22c0,3.19-2.77,6.1-7.67,6.1-3.61,0-7.03-1.4-7.9-5.04l4.42-1.37c.25,1.12,1.29,2.32,3.42,2.32,1.65,0,2.88-.64,2.88-1.93,0-1.46-1.93-1.68-4.14-2.24-3.92-.95-5.68-2.77-5.68-6.05,0-3.75,3.11-5.99,7.2-5.99,3.36,0,6.22,1.79,6.97,4.9l-4.42,1.09c-.25-.95-1.06-1.9-2.77-1.9-1.4,0-2.32,.76-2.32,1.88,0,1.54,2.32,1.9,3.84,2.32,4.79,1.34,6.19,2.86,6.19,5.91Z"/>
        <path class="cls-3" d="M286.12,2528.22c0,3.19-2.77,6.1-7.67,6.1-3.61,0-7.03-1.4-7.9-5.04l4.42-1.37c.25,1.12,1.29,2.32,3.42,2.32,1.65,0,2.88-.64,2.88-1.93,0-1.46-1.93-1.68-4.14-2.24-3.92-.95-5.68-2.77-5.68-6.05,0-3.75,3.11-5.99,7.2-5.99,3.36,0,6.22,1.79,6.97,4.9l-4.42,1.09c-.25-.95-1.06-1.9-2.77-1.9-1.4,0-2.32,.76-2.32,1.88,0,1.54,2.32,1.9,3.84,2.32,4.79,1.34,6.19,2.86,6.19,5.91Z"/>
        <path class="cls-3" d="M302.08,2529.46v4.51h-12.32v-19.6h12.07v4.54h-7.28v3.02h6.38v4.28h-6.38v3.25h7.53Z"/>
        <path class="cls-3" d="M322.94,2514.36v19.6h-4.2l-7.64-11.42v11.42h-4.82v-19.6h4.2l7.64,11.42v-11.42h4.82Z"/>
        <path class="cls-3" d="M345.03,2514.36v19.6h-4.79v-14.17l-3,2.02-1.99-3.25,6.24-4.2h3.53Z"/>
        <path class="cls-3" d="M132.54,2571.16c0,5.99-3.87,9.8-10.42,9.8h-6.86v-19.6h6.86c6.55,0,10.42,3.84,10.42,9.8Zm-4.79,0c0-3.47-2.41-5.26-5.63-5.26h-2.04v10.56h2.04c3.22,0,5.63-1.82,5.63-5.29Z"/>
        <path class="cls-3" d="M148.92,2576.46v4.51h-12.32v-19.6h12.07v4.54h-7.28v3.02h6.38v4.28h-6.38v3.25h7.53Z"/>
        <path class="cls-3" d="M165.24,2576.46v4.51h-12.12v-19.6h4.82v15.09h7.31Z"/>
        <path class="cls-3" d="M173.95,2561.36v19.6h-4.79v-19.6h4.79Z"/>
        <path class="cls-3" d="M191.9,2574.89l4,2.63c-1.76,2.35-4.56,3.81-7.92,3.81-5.8,0-9.97-4.34-9.97-10.16s4.17-10.14,9.97-10.14c3.36,0,6.16,1.46,7.92,3.78l-4,2.63c-.84-1.06-2.16-1.79-3.92-1.79-3.42,0-5.15,2.74-5.15,5.52s1.74,5.54,5.15,5.54c1.76,0,3.08-.73,3.92-1.82Z"/>
        <path class="cls-3" d="M211.89,2577.32h-7.42l-1.15,3.64h-5.04l7.06-19.6h5.66l7.06,19.6h-5.01l-1.15-3.64Zm-1.15-3.64l-2.58-8.15-2.58,8.15h5.15Z"/>
        <path class="cls-3" d="M233.14,2565.9h-4.59v15.06h-4.79v-15.06h-4.59v-4.54h13.97v4.54Z"/>
        <path class="cls-3" d="M249.38,2576.46v4.51h-12.32v-19.6h12.07v4.54h-7.28v3.02h6.38v4.28h-6.38v3.25h7.53Z"/>
        <path class="cls-3" d="M268.03,2575.22c0,3.19-2.77,6.1-7.67,6.1-3.61,0-7.03-1.4-7.9-5.04l4.42-1.37c.25,1.12,1.29,2.32,3.42,2.32,1.65,0,2.88-.64,2.88-1.93,0-1.46-1.93-1.68-4.14-2.24-3.92-.95-5.68-2.77-5.68-6.05,0-3.75,3.11-5.99,7.2-5.99,3.36,0,6.22,1.79,6.97,4.9l-4.42,1.09c-.25-.95-1.06-1.9-2.77-1.9-1.4,0-2.32,.76-2.32,1.88,0,1.54,2.32,1.9,3.84,2.32,4.79,1.34,6.19,2.86,6.19,5.91Z"/>
        <path class="cls-3" d="M286.12,2575.22c0,3.19-2.77,6.1-7.67,6.1-3.61,0-7.03-1.4-7.9-5.04l4.42-1.37c.25,1.12,1.29,2.32,3.42,2.32,1.65,0,2.88-.64,2.88-1.93,0-1.46-1.93-1.68-4.14-2.24-3.92-.95-5.68-2.77-5.68-6.05,0-3.75,3.11-5.99,7.2-5.99,3.36,0,6.22,1.79,6.97,4.9l-4.42,1.09c-.25-.95-1.06-1.9-2.77-1.9-1.4,0-2.32,.76-2.32,1.88,0,1.54,2.32,1.9,3.84,2.32,4.79,1.34,6.19,2.86,6.19,5.91Z"/>
        <path class="cls-3" d="M302.08,2576.46v4.51h-12.32v-19.6h12.07v4.54h-7.28v3.02h6.38v4.28h-6.38v3.25h7.53Z"/>
        <path class="cls-3" d="M322.94,2561.36v19.6h-4.2l-7.64-11.42v11.42h-4.82v-19.6h4.2l7.64,11.42v-11.42h4.82Z"/>
        <path class="cls-3" d="M349.54,2576.46v4.51h-13.47v-3.78c1.29-1.23,3.47-3.44,5.29-5.46,1.51-1.68,3-3.19,3-4.34,0-.87-.56-1.82-1.88-1.82s-1.99,.98-2.1,2.04l-4.56-1.04c.64-3.75,3.47-5.54,6.94-5.54,3.98,0,6.5,2.35,6.5,6.1,0,2.86-1.96,5.01-6.22,9.32h6.5Z"/>
      </g>
      <g>
        <path class="cls-3" d="M662.87,2440.35v3.47h-2.78v-3.47c-3.92-.38-7.26-2.22-8.3-5.83l4.55-1.42c.35,1.39,1.81,3.2,5.21,3.2,2.43,0,4.38-.94,4.38-3.02,0-2.43-2.78-2.6-6.6-3.54-4.9-1.22-6.53-3.68-6.53-7.05,0-4.2,2.92-6.95,7.29-7.36v-3.47h2.78v3.51c3.33,.42,5.9,2.4,6.81,5.63l-4.58,1.11c-.28-1.29-1.53-2.71-3.96-2.71-2.01,0-3.68,1.04-3.68,2.99,0,2.74,3.09,3.13,5.35,3.65,5.76,1.32,7.85,2.99,7.85,6.91,0,3.51-2.33,6.95-7.78,7.43Z"/>
        <path class="cls-3" d="M693.78,2435.14h-2.88v4.83h-4.72v-4.83h-11.36v-3.72l9.86-15.77h6.22v15.46h2.88v4.03Zm-7.61-4.03v-10.52l-6.56,10.52h6.56Z"/>
        <path class="cls-3" d="M715.14,2431.91c0,4.51-3.09,8.51-8.65,8.51-4.1,0-7.78-2.43-8.37-5.59l4.55-1.04c.28,1.08,1.35,2.36,3.82,2.36,2.85,0,4.03-2.05,4.03-4.17,0-2.29-1.56-3.85-3.99-3.85-1.81,0-3.33,.97-3.96,1.7l-3.61-1.04,1.53-13.13h13.13v4.38h-9.55l-.62,5.35c1.15-.66,2.54-1.11,3.96-1.11,4.65,0,7.74,3.16,7.74,7.64Z"/>
        <path class="cls-3" d="M739.21,2427.81c0,6.46-2.64,12.61-9.79,12.61s-9.76-6.15-9.76-12.61,2.64-12.57,9.76-12.57,9.79,6.15,9.79,12.57Zm-4.69,0c0-3.92-1.15-8.09-5.1-8.09s-5.07,4.17-5.07,8.09,1.15,8.13,5.07,8.13,5.1-4.17,5.1-8.13Z"/>
        <path class="cls-3" d="M667.35,2487.35v3.47h-2.78v-3.47c-3.92-.38-7.26-2.22-8.3-5.83l4.55-1.42c.35,1.39,1.81,3.2,5.21,3.2,2.43,0,4.38-.94,4.38-3.02,0-2.43-2.78-2.6-6.6-3.54-4.9-1.22-6.53-3.68-6.53-7.05,0-4.2,2.92-6.95,7.29-7.36v-3.47h2.78v3.51c3.33,.42,5.9,2.4,6.81,5.63l-4.58,1.11c-.28-1.29-1.53-2.71-3.96-2.71-2.01,0-3.68,1.04-3.68,2.99,0,2.74,3.09,3.13,5.35,3.65,5.76,1.32,7.85,2.99,7.85,6.91,0,3.51-2.33,6.95-7.78,7.43Z"/>
        <path class="cls-3" d="M694.47,2462.65v3.89l-8.61,20.42h-4.72l8.37-19.93h-10.21v-4.38h15.18Z"/>
        <path class="cls-3" d="M715.14,2478.91c0,4.51-3.09,8.51-8.65,8.51-4.1,0-7.78-2.43-8.37-5.59l4.55-1.04c.28,1.08,1.35,2.36,3.82,2.36,2.85,0,4.03-2.05,4.03-4.17,0-2.29-1.56-3.85-3.99-3.85-1.81,0-3.33,.97-3.96,1.7l-3.61-1.04,1.53-13.13h13.13v4.38h-9.55l-.62,5.35c1.15-.66,2.54-1.11,3.96-1.11,4.65,0,7.74,3.16,7.74,7.64Z"/>
        <path class="cls-3" d="M739.21,2474.81c0,6.46-2.64,12.61-9.79,12.61s-9.76-6.15-9.76-12.61,2.64-12.57,9.76-12.57,9.79,6.15,9.79,12.57Zm-4.69,0c0-3.92-1.15-8.09-5.1-8.09s-5.07,4.17-5.07,8.09,1.15,8.13,5.07,8.13,5.1-4.17,5.1-8.13Z"/>
        <path class="cls-3" d="M667.35,2534.35v3.47h-2.78v-3.47c-3.92-.38-7.26-2.22-8.3-5.83l4.55-1.42c.35,1.39,1.81,3.2,5.21,3.2,2.43,0,4.38-.94,4.38-3.02,0-2.43-2.78-2.6-6.6-3.54-4.9-1.22-6.53-3.68-6.53-7.05,0-4.2,2.92-6.95,7.29-7.36v-3.47h2.78v3.51c3.33,.42,5.9,2.4,6.81,5.63l-4.58,1.11c-.28-1.29-1.53-2.71-3.96-2.71-2.01,0-3.68,1.04-3.68,2.99,0,2.74,3.09,3.13,5.35,3.65,5.76,1.32,7.85,2.99,7.85,6.91,0,3.51-2.33,6.95-7.78,7.43Z"/>
        <path class="cls-3" d="M694.47,2509.65v3.89l-8.61,20.42h-4.72l8.37-19.93h-10.21v-4.38h15.18Z"/>
        <path class="cls-3" d="M715.14,2525.91c0,4.51-3.09,8.51-8.65,8.51-4.1,0-7.78-2.43-8.37-5.59l4.55-1.04c.28,1.08,1.35,2.36,3.82,2.36,2.85,0,4.03-2.05,4.03-4.17,0-2.29-1.56-3.85-3.99-3.85-1.81,0-3.33,.97-3.96,1.7l-3.61-1.04,1.53-13.13h13.13v4.38h-9.55l-.62,5.35c1.15-.66,2.54-1.11,3.96-1.11,4.65,0,7.74,3.16,7.74,7.64Z"/>
        <path class="cls-3" d="M739.21,2521.81c0,6.46-2.64,12.61-9.79,12.61s-9.76-6.15-9.76-12.61,2.64-12.57,9.76-12.57,9.79,6.15,9.79,12.57Zm-4.69,0c0-3.92-1.15-8.09-5.1-8.09s-5.07,4.17-5.07,8.09,1.15,8.13,5.07,8.13,5.1-4.17,5.1-8.13Z"/>
        <path class="cls-3" d="M650.33,2581.35v3.47h-2.78v-3.47c-3.92-.38-7.26-2.22-8.3-5.83l4.55-1.42c.35,1.39,1.81,3.2,5.21,3.2,2.43,0,4.38-.94,4.38-3.02,0-2.43-2.78-2.6-6.6-3.54-4.9-1.22-6.53-3.68-6.53-7.05,0-4.2,2.92-6.95,7.29-7.36v-3.47h2.78v3.51c3.33,.42,5.9,2.4,6.81,5.63l-4.58,1.11c-.28-1.29-1.53-2.71-3.96-2.71-2.01,0-3.68,1.04-3.68,2.99,0,2.74,3.09,3.13,5.35,3.65,5.76,1.32,7.85,2.99,7.85,6.91,0,3.51-2.33,6.95-7.78,7.43Z"/>
        <path class="cls-3" d="M672.6,2556.65v24.31h-4.72v-18.82l-4.27,2.88-2.01-3.3,7.5-5.07h3.51Z"/>
        <path class="cls-3" d="M689.86,2556.65v24.31h-4.72v-18.82l-4.27,2.88-2.01-3.3,7.5-5.07h3.51Z"/>
        <path class="cls-3" d="M715.14,2568.81c0,6.46-2.64,12.61-9.79,12.61s-9.76-6.15-9.76-12.61,2.64-12.57,9.76-12.57,9.79,6.15,9.79,12.57Zm-4.69,0c0-3.92-1.15-8.09-5.11-8.09s-5.07,4.17-5.07,8.09,1.15,8.13,5.07,8.13,5.11-4.17,5.11-8.13Z"/>
        <path class="cls-3" d="M739.21,2568.81c0,6.46-2.64,12.61-9.79,12.61s-9.76-6.15-9.76-12.61,2.64-12.57,9.76-12.57,9.79,6.15,9.79,12.57Zm-4.69,0c0-3.92-1.15-8.09-5.1-8.09s-5.07,4.17-5.07,8.09,1.15,8.13,5.07,8.13,5.1-4.17,5.1-8.13Z"/>
      </g>
    </g>
  </g>
</svg>