<?xml version="1.0" encoding="UTF-8"?>
<svg id="Capa_2" data-name="Capa 2" xmlns="http://www.w3.org/2000/svg" viewBox="0 0 830 524.44">
  <defs>
    <style>
      .cls-1 {
        fill: #fbc009;
      }

      .cls-2 {
        fill: #f7f2ea;
      }

      .cls-3 {
        fill: #55111b;
      }
    </style>
  </defs>
  <g id="Capa_1-2" data-name="Capa 1">
    <g>
      <path class="cls-1" d="M830,33.29c0-7.95-2.71-15.74-7.96-21.71-.27-.31-.55-.62-.84-.92l-.39-.41c-10.65-11.22-27.71-13.51-40.95-5.48l-2.4,1.46c-10.56,6.4-23.81,6.36-34.32-.1l-1.71-1.05c-5.35-3.29-11.33-4.88-17.27-4.88-7.02-.77-14.29,.7-20.68,4.57l-2.4,1.46c-10.56,6.4-23.8,6.36-34.32-.1l-1.71-1.05c-5.56-3.42-11.81-5.01-17.98-4.87-7.05-.79-14.36,.67-20.78,4.56l-2.41,1.46c-10.55,6.4-23.8,6.36-34.31-.1l-1.71-1.05c-5.35-3.29-11.34-4.88-17.28-4.88-7.01-.77-14.28,.7-20.67,4.57l-2.4,1.46c-10.56,6.4-23.81,6.36-34.32-.1l-1.71-1.05c-5.56-3.42-11.81-5.01-17.99-4.87-7.04-.79-14.36,.67-20.77,4.56l-2.41,1.46c-10.55,6.4-23.8,6.36-34.32-.1l-1.71-1.05c-5.34-3.29-11.33-4.88-17.27-4.88-7.01-.77-14.29,.7-20.67,4.57l-2.41,1.46c-10.55,6.4-23.8,6.36-34.32-.1l-1.7-1.05c-5.57-3.42-11.82-5.01-17.99-4.87-7.05-.79-14.36,.67-20.78,4.56l-2.4,1.46c-10.56,6.4-23.81,6.36-34.32-.1l-1.71-1.05c-5.35-3.29-11.33-4.88-17.27-4.88-7.02-.77-14.29,.7-20.68,4.57l-2.4,1.46c-10.55,6.4-23.8,6.36-34.32-.1l-1.71-1.05C198.77,1.66,192.52,.07,186.35,.21c-7.05-.79-14.36,.67-20.78,4.56l-2.41,1.46c-10.55,6.4-23.8,6.36-34.31-.1l-1.71-1.05C121.79,1.79,115.8,.2,109.87,.2c-7.02-.77-14.29,.7-20.68,4.57l-2.4,1.46c-10.56,6.4-23.81,6.36-34.32-.1l-1.71-1.05C37.45-3.11,20.2-.8,9.51,10.59l-.93,.99c-2.44,2.61-4.37,5.51-5.8,8.58C.86,24.27,0,28.79,0,33.32v491.12H830V33.29Z"/>
      <rect class="cls-2" x="52.15" y="257.99" width="725.7" height="241.63"/>
      <g>
        <path class="cls-3" d="M125.72,157.3h-15.58v51.11h-16.25v-51.11h-15.58v-15.39h47.41v15.39Z"/>
        <path class="cls-3" d="M183.57,193.12v15.3h-41.8v-66.5h40.95v15.39h-24.7v10.26h21.66v14.54h-21.66v11.02h25.56Z"/>
        <path class="cls-3" d="M241.71,193.12v15.3h-41.14v-66.5h16.34v51.21h24.8Z"/>
        <path class="cls-3" d="M299.56,193.12v15.3h-41.8v-66.5h40.95v15.39h-24.7v10.26h21.66v14.54h-21.66v11.02h25.56Zm-6.37-71.82l-9.21,13.3h-12.26l6.18-13.3h15.29Z"/>
        <path class="cls-3" d="M332.81,157.3v12.63h22.42v15.29h-22.42v23.18h-16.25v-66.5h41.42v15.39h-25.17Z"/>
        <path class="cls-3" d="M439.31,175.16c0,19.76-14.16,34.49-33.82,34.49s-33.82-14.73-33.82-34.49,14.16-34.39,33.82-34.39,33.82,14.73,33.82,34.39Zm-16.34,0c0-9.4-5.89-18.71-17.48-18.71s-17.48,9.31-17.48,18.71,5.89,18.81,17.48,18.81,17.48-9.4,17.48-18.81Z"/>
        <path class="cls-3" d="M512.36,141.91v66.5h-14.25l-25.94-38.76v38.76h-16.34v-66.5h14.25l25.94,38.76v-38.76h16.34Z"/>
        <path class="cls-3" d="M596.53,175.16c0,19.76-14.16,34.49-33.82,34.49s-33.82-14.73-33.82-34.49,14.16-34.39,33.82-34.39,33.82,14.73,33.82,34.39Zm-16.34,0c0-9.4-5.89-18.71-17.48-18.71s-17.48,9.31-17.48,18.71,5.89,18.81,17.48,18.81,17.48-9.4,17.48-18.81Z"/>
      </g>
      <g>
        <path class="cls-3" d="M303.56,327.29c6.15,0,9.66,3.2,9.49,8.16l-4.69-.68c.34-3.4-1.16-5.71-4.79-5.71-4.86,0-6.77,3.84-6.77,9.79s1.56,9.79,6.43,9.79c3.98,0,5.47-2.31,5.13-6.05l4.69-.68c.17,5.3-3.33,8.5-9.83,8.5-7.55,0-11.12-4.25-11.12-11.56s3.91-11.56,11.46-11.56Z"/>
        <path class="cls-3" d="M326.11,332.73c6.42,0,9.31,4.25,9.31,8.84s-2.89,8.84-9.31,8.84-9.32-4.25-9.32-8.84,2.89-8.84,9.32-8.84Zm.95,15.84c3.2-.41,4.18-3.26,3.64-7.58-.54-4.28-2.18-6.83-5.54-6.43-3.2,.41-4.18,3.26-3.64,7.58,.54,4.28,2.18,6.83,5.54,6.42Z"/>
        <path class="cls-3" d="M367.65,348.98v1.09h-8.09v-1.09c1.22,0,1.7-.82,1.7-2.99v-8.67c0-1.87-.68-2.82-1.9-2.82-2.55,0-4.38,4.52-4.38,9.45v2.04c0,2.18,.48,2.99,1.7,2.99v1.09h-8.09v-1.09c1.22,0,1.7-.82,1.7-2.99v-8.67c0-1.87-.68-2.82-1.9-2.82-2.55,0-4.39,4.52-4.39,9.45v2.04c0,2.18,.48,2.99,1.7,2.99v1.09h-8.09v-1.09c1.22,0,1.7-.82,1.7-2.99v-8.84c0-2.18-.48-2.99-1.7-2.99v-1.09h2.24c2.65,0,4.15,.17,4.15,2.82v2.07h.34c.85-3.33,2.69-5.24,5.78-5.24,2.82,0,4.62,1.67,4.83,5.24h.31c.92-3.33,2.75-5.24,5.85-5.24s4.86,1.87,4.86,5.95v7.31c0,2.18,.48,2.99,1.7,2.99Z"/>
        <path class="cls-3" d="M387.68,337.15v8.84c0,2.18,.48,2.99,1.7,2.99v1.09h-2.24c-2.65,0-4.15-.17-4.15-2.82v-2.07h-.34c-.71,3.2-2.69,5.23-6.12,5.23s-5.88-2.07-5.88-6.49v-6.77c0-2.18-.48-2.99-1.7-2.99v-1.09h8.09v1.09c-1.22,0-1.7,.82-1.7,2.99v7.92c0,2.28,.75,3.57,2.62,3.57,3.47,0,5.03-4.79,5.03-9.45v-2.04c0-2.18-.48-2.99-1.7-2.99v-1.09h8.09v1.09c-1.22,0-1.7,.82-1.7,2.99Z"/>
        <path class="cls-3" d="M413.01,348.98v1.09h-8.09v-1.09c1.22,0,1.7-.82,1.7-2.99v-7.92c0-2.28-.75-3.57-2.62-3.57-3.47,0-5.03,4.79-5.03,9.45v2.04c0,2.18,.48,2.99,1.7,2.99v1.09h-8.09v-1.09c1.22,0,1.7-.82,1.7-2.99v-8.84c0-2.18-.48-2.99-1.7-2.99v-1.09h2.24c2.65,0,4.15,.17,4.15,2.82v2.07h.34c.71-3.2,2.69-5.24,6.12-5.24s5.88,2.07,5.88,6.49v6.76c0,2.18,.48,2.99,1.7,2.99Z"/>
        <path class="cls-3" d="M422.05,345.99c0,2.18,.48,2.99,1.7,2.99v1.09h-8.09v-1.09c1.22,0,1.7-.82,1.7-2.99v-8.84c0-2.18-.48-2.99-1.7-2.99v-1.09h2.24c2.75,0,4.15,.17,4.15,2.96v9.96Zm-5.17-16.66c0-1.12,.92-2.04,2.48-2.04s2.48,.92,2.48,2.04c0,1.22-.95,2.11-2.48,2.11s-2.48-.88-2.48-2.11Z"/>
        <path class="cls-3" d="M435.42,332.73c5.71,0,8.5,3.2,8.33,7.48l-4.69-.68c.34-3.33-1.09-5.03-3.67-5.03-3.47,0-4.62,2.72-4.62,7.07s1.16,7.07,4.62,7.07c2.58,0,4.35-1.7,4.01-5.37l4.69-.68c.17,4.62-2.99,7.82-8.7,7.82-6.77,0-9.32-4.25-9.32-8.84s2.58-8.84,9.35-8.84Z"/>
        <path class="cls-3" d="M465.13,347.42v1.29c-.58,.88-1.87,1.36-3.16,1.36s-3.03-.34-3.23-2.28v-.24h-.34c-1.02,1.6-3.16,2.86-6.19,2.86-3.57,0-5.47-1.39-5.47-4.25,0-4.93,7.21-6.08,11.97-6.63-.14-3.5-.78-5.03-3.5-5.03s-3.88,1.56-2.86,4.18l-4.49,.88c-1.02-3.74,1.73-6.83,7.82-6.83,5.54,0,7.75,2.28,7.75,8.36v4.76c0,1.9,.61,2.21,1.7,1.56Zm-6.39-4.28v-1.87c-4.01,.44-7.31,1.94-7.31,4.69,0,1.8,.75,2.69,2.41,2.69,2.92,0,4.9-2.86,4.9-5.1v-.41Z"/>
        <path class="cls-3" d="M479.17,347.52c-.68,1.94-2.28,2.89-5.07,2.89s-5.78-.99-5.78-5.51v-10.06h-2.45v-1.77c2.62-.34,4.15-1.09,4.15-5.44h2.99v5.44h5.13c0,1.09,0,1.77-1.63,1.77h-3.5v9.45c0,2.69,.03,4.35,1.39,4.35,.85,0,1.22-.44,1.29-1.8l3.47,.68Z"/>
        <path class="cls-3" d="M497.36,343.68c.34,3.64-2.35,6.73-7.45,6.73-6.6,0-9.25-3.64-9.25-8.4,0-5.78,3.88-9.28,9.59-9.28,4.22,0,7.21,1.8,7.21,5,0,5.2-7.55,5.78-12.1,4.62,.03,3.43,1.39,6.29,4.42,6.29,2.11,0,3.33-.95,2.89-4.08l4.69-.88Zm-11.93-3.16c4.83,1.16,7.34-.07,7.34-2.89,0-2.01-.99-3.13-2.96-3.13-2.89,0-4.11,2.31-4.39,6.02Z"/>
        <path class="cls-3" d="M527.96,347.42v1.29c-.58,.88-1.87,1.36-3.16,1.36s-3.03-.34-3.23-2.28v-.24h-.34c-1.02,1.6-3.16,2.86-6.19,2.86-3.57,0-5.47-1.39-5.47-4.25,0-4.93,7.21-6.08,11.97-6.63-.14-3.5-.78-5.03-3.5-5.03s-3.88,1.56-2.86,4.18l-4.49,.88c-1.02-3.74,1.73-6.83,7.82-6.83,5.54,0,7.75,2.28,7.75,8.36v4.76c0,1.9,.61,2.21,1.7,1.56Zm-6.39-4.28v-1.87c-4.01,.44-7.31,1.94-7.31,4.69,0,1.8,.75,2.69,2.41,2.69,2.92,0,4.9-2.86,4.9-5.1v-.41Z"/>
        <path class="cls-3" d="M536.53,345.99c0,2.18,.48,2.99,1.7,2.99v1.09h-8.09v-1.09c1.22,0,1.7-.82,1.7-2.99v-16.32c0-2.18-.48-2.99-1.7-2.99v-1.09h2.24c2.65,0,4.15,.2,4.15,2.99v17.41Z"/>
        <path class="cls-3" d="M309.4,368.09c6.02,0,9.62,4.59,9.62,11.56s-3.6,11.56-9.62,11.56-9.76-4.59-9.76-11.56,3.74-11.56,9.76-11.56Zm.65,21.32c3.88-.24,4.62-4.28,4.28-10.06-.38-5.78-1.63-9.72-5.58-9.45-3.88,.24-4.66,4.28-4.32,10.06,.37,5.78,1.67,9.72,5.61,9.45Zm-.65-11.12c.71,0,1.33,.61,1.33,1.36s-.61,1.36-1.33,1.36c-.78,0-1.39-.61-1.39-1.36s.58-1.36,1.39-1.36Z"/>
        <path class="cls-3" d="M339.72,384.68c0,4.45-3.64,6.53-8.8,6.53s-10.03-1.97-8.6-7.89l4.69,.68c-1.43,3.98,.58,5.44,3.5,5.44,3.23,0,4.52-2.07,4.52-4.52,0-3.5-1.77-5.07-5.98-5.07v-1.77c4.01,0,5.44-1.56,5.44-4.35,0-2.48-1.22-3.88-3.71-3.88-2.92,0-4.86,1.46-3.43,5.68l-4.69,.68c-1.43-6.15,3.57-8.13,8.43-8.13,4.32,0,8.09,1.73,8.09,5.81,0,2.69-1.63,4.22-3.91,5.07,2.55,.88,4.45,2.58,4.45,5.71Z"/>
        <path class="cls-3" d="M362.47,383.02c0,5.64-4.89,8.19-10.06,8.19s-10.13-1.97-8.7-7.68l4.69,.68c-1.43,3.98,.71,5.24,3.98,5.24,3.71,0,5.4-2.55,5.4-6.53,0-3.13-1.36-5.34-4.69-5.34-2.21,0-4.59,.92-6.56,3.37l-1.9,.34,1.12-12.85h15.33l.13,2.04,.24,4.21-1.09,.07c-.14-2.31-1.02-3.26-3.2-3.26h-9.76l-.75,7.34c1.9-1.94,4.45-3.03,7.68-3.03s8.12,1.46,8.12,7.21Z"/>
        <path class="cls-3" d="M365.53,389.78c2.99,0,4.15-.82,4.15-2.99v-12.31h-4.15v-1.77c4.15,0,5.2-.51,6.26-4.28h2.58v18.36c0,2.18,1.16,2.99,4.15,2.99v1.09h-12.99v-1.09Z"/>
        <path class="cls-3" d="M407.11,386.66v.14c0,2.18,.48,2.99,1.7,2.99v1.09h-8.09v-1.09c1.22,0,1.7-.82,1.7-2.99v-.14h-11.8v-3.06c4.11-2.41,10.1-7.79,11.8-15.16h4.69v15.16h3.13v3.06h-3.13Zm-4.69-3.06v-10.95c-1.5,5.13-5.71,8.91-9.45,10.95h9.45Z"/>
        <path class="cls-3" d="M430.5,384.34l1.09,.07-.24,4.49-.1,1.97h-17.61c0-7.68,3.03-8.43,7.92-10.27,3.67-1.36,5.37-2.65,5.37-6.09,0-3.06-1.16-4.66-3.81-4.66-1.77,0-5.23,.37-3.88,5.68l-4.69,.68c-1.36-6.63,5.03-8.13,8.87-8.13s8.19,1.46,8.19,6.32c0,5.92-5.85,6.77-9.15,7.92-4.18,1.46-5.71,2.48-5.71,5.47h10.57c2.14,0,3.03-1.02,3.16-3.47Z"/>
        <path class="cls-3" d="M454.74,383.9c0,3.43-2.58,7.31-9.38,7.31-7.92,0-10-5.47-10-11.46,0-5.64,2.62-11.66,10.3-11.66,5.85,0,8.53,3.47,8.19,6.94l-4.69-.68c.34-3.16-.95-4.49-3.64-4.49-4.25,0-5.47,3.74-5.47,9.31v.24c4.08-3.88,14.69-3.94,14.69,4.49Zm-4.69,.31c0-5.64-5.03-6.87-9.96-3.03,.1,4.52,.82,8.26,5.24,8.26,3.91,0,4.73-2.92,4.73-5.24Z"/>
        <path class="cls-3" d="M457.81,389.78c2.99,0,4.15-.82,4.15-2.99v-12.31h-4.15v-1.77c4.15,0,5.2-.51,6.25-4.28h2.58v18.36c0,2.18,1.16,2.99,4.15,2.99v1.09h-12.99v-1.09Z"/>
        <path class="cls-3" d="M492.55,383.9c0,3.43-2.58,7.31-9.38,7.31-7.92,0-10-5.47-10-11.46,0-5.64,2.62-11.66,10.3-11.66,5.85,0,8.53,3.47,8.19,6.94l-4.69-.68c.34-3.16-.95-4.49-3.64-4.49-4.25,0-5.47,3.74-5.47,9.31v.24c4.08-3.88,14.69-3.94,14.69,4.49Zm-4.69,.31c0-5.64-5.03-6.87-9.96-3.03,.1,4.52,.82,8.26,5.23,8.26,3.91,0,4.73-2.92,4.73-5.24Z"/>
        <path class="cls-3" d="M495.61,389.78c2.99,0,4.15-.82,4.15-2.99v-12.31h-4.15v-1.77c4.15,0,5.2-.51,6.25-4.28h2.58v18.36c0,2.18,1.16,2.99,4.15,2.99v1.09h-12.99v-1.09Z"/>
        <path class="cls-3" d="M530.36,383.9c0,3.43-2.58,7.31-9.38,7.31-7.92,0-9.99-5.47-9.99-11.46,0-5.64,2.62-11.66,10.3-11.66,5.85,0,8.53,3.47,8.19,6.94l-4.69-.68c.34-3.16-.95-4.49-3.64-4.49-4.25,0-5.47,3.74-5.47,9.31v.24c4.08-3.88,14.69-3.94,14.69,4.49Zm-4.69,.31c0-5.64-5.03-6.87-9.96-3.03,.1,4.52,.82,8.26,5.24,8.26,3.91,0,4.72-2.92,4.72-5.24Z"/>
        <path class="cls-3" d="M329.78,420.45c0,9.89-7.48,11.22-11.29,11.22h-10.68v-1.09c1.22,0,1.7-.82,1.7-2.99v-14.28c0-2.18-.48-2.99-1.7-2.99v-1.09h10.68c3.81,0,11.29,1.36,11.29,11.22Zm-4.69,0c0-6.87-2.58-9.45-7.48-9.45h-3.4v18.9h3.4c4.9,0,7.48-2.58,7.48-9.45Z"/>
        <path class="cls-3" d="M349.6,425.28c.34,3.64-2.35,6.73-7.45,6.73-6.6,0-9.25-3.64-9.25-8.4,0-5.78,3.88-9.28,9.59-9.28,4.22,0,7.21,1.8,7.21,5,0,5.2-7.55,5.78-12.1,4.62,.03,3.43,1.39,6.29,4.42,6.29,2.11,0,3.33-.95,2.89-4.08l4.69-.88Zm-11.93-3.16c4.83,1.16,7.34-.07,7.34-2.89,0-2.01-.99-3.13-2.96-3.13-2.89,0-4.11,2.31-4.39,6.02Z"/>
        <path class="cls-3" d="M361.81,430.58c2.99,0,4.15-.82,4.15-2.99v-12.31h-4.15v-1.77c4.15,0,5.2-.51,6.26-4.28h2.58v18.36c0,2.18,1.16,2.99,4.15,2.99v1.09h-12.99v-1.09Z"/>
        <path class="cls-3" d="M386.46,408.89c6.02,0,9.62,4.59,9.62,11.56s-3.6,11.56-9.62,11.56-9.76-4.59-9.76-11.56,3.74-11.56,9.76-11.56Zm.65,21.32c3.88-.24,4.62-4.28,4.28-10.06-.37-5.78-1.63-9.72-5.58-9.45-3.88,.24-4.66,4.28-4.32,10.06,.37,5.78,1.67,9.72,5.61,9.45Zm-.65-11.12c.71,0,1.33,.61,1.33,1.36s-.61,1.36-1.33,1.36c-.78,0-1.39-.61-1.39-1.36s.58-1.36,1.39-1.36Z"/>
        <path class="cls-3" d="M426.58,429.02v1.29c-.58,.88-1.87,1.36-3.16,1.36s-3.03-.34-3.23-2.28v-.24h-.34c-1.02,1.6-3.16,2.86-6.19,2.86-3.57,0-5.47-1.39-5.47-4.25,0-4.93,7.21-6.09,11.97-6.63-.14-3.5-.78-5.03-3.5-5.03s-3.88,1.56-2.86,4.18l-4.49,.88c-1.02-3.74,1.73-6.83,7.82-6.83,5.54,0,7.75,2.28,7.75,8.36v4.76c0,1.9,.61,2.21,1.7,1.56Zm-6.39-4.28v-1.87c-4.01,.44-7.31,1.94-7.31,4.69,0,1.8,.75,2.69,2.41,2.69,2.92,0,4.9-2.86,4.9-5.1v-.41Z"/>
        <path class="cls-3" d="M447.76,408.89c6.02,0,9.62,4.59,9.62,11.56s-3.6,11.56-9.62,11.56-9.76-4.59-9.76-11.56,3.74-11.56,9.76-11.56Zm.65,21.32c3.88-.24,4.62-4.28,4.28-10.06-.37-5.78-1.63-9.72-5.58-9.45-3.88,.24-4.66,4.28-4.32,10.06,.38,5.78,1.67,9.72,5.61,9.45Zm-.65-11.12c.71,0,1.33,.61,1.33,1.36s-.61,1.36-1.33,1.36c-.78,0-1.39-.61-1.39-1.36s.58-1.36,1.39-1.36Z"/>
        <path class="cls-3" d="M470.88,408.89c6.02,0,9.62,4.59,9.62,11.56s-3.6,11.56-9.62,11.56-9.76-4.59-9.76-11.56,3.74-11.56,9.76-11.56Zm.65,21.32c3.88-.24,4.62-4.28,4.28-10.06-.38-5.78-1.63-9.72-5.58-9.45-3.88,.24-4.66,4.28-4.32,10.06,.37,5.78,1.67,9.72,5.61,9.45Zm-.65-11.12c.71,0,1.33,.61,1.33,1.36s-.61,1.36-1.33,1.36c-.78,0-1.39-.61-1.39-1.36s.58-1.36,1.39-1.36Z"/>
        <path class="cls-3" d="M504.67,430.58v1.09h-8.09v-1.09c1.22,0,1.7-.82,1.7-2.99v-7.92c0-2.28-.75-3.57-2.62-3.57-3.47,0-5.03,4.79-5.03,9.45v2.04c0,2.18,.48,2.99,1.7,2.99v1.09h-8.09v-1.09c1.22,0,1.7-.82,1.7-2.99v-16.32c0-2.18-.48-2.99-1.7-2.99v-1.09h2.24c2.65,0,4.15,.2,4.15,2.99v9.38h.34c.71-3.2,2.69-5.24,6.12-5.24s5.88,2.07,5.88,6.49v6.77c0,2.18,.48,2.99,1.7,2.99Z"/>
        <path class="cls-3" d="M514.5,414.33c4.32,0,8.67,1.5,7.31,6.29l-4.69-.68c1.02-3.09-.82-3.84-2.52-3.84-2.07,0-2.79,1.02-2.79,2.21,0,1.56,.78,2.18,3.81,3.03,3.6,.99,6.9,1.87,6.9,5.44,0,3.91-3.5,5.24-7.38,5.24-4.72,0-9.48-1.5-8.12-7.24l4.69,.68c-1.36,3.88,.68,4.79,3.16,4.79,2.11,0,2.96-1.12,2.96-2.62,0-1.94-1.67-2.48-4.11-3.23-3.74-1.05-6.6-1.97-6.6-5.3s3.23-4.76,7.38-4.76Z"/>
      </g>
    </g>
  </g>
</svg>