<?xml version="1.0" encoding="UTF-8"?>
<svg id="Capa_2" data-name="Capa 2" xmlns="http://www.w3.org/2000/svg" viewBox="0 0 830 450.95">
  <defs>
    <style>
      .cls-1 {
        fill: #fbc009;
      }

      .cls-2 {
        fill: #f7f2ea;
      }

      .cls-3 {
        fill: #55121c;
      }
    </style>
  </defs>
  <g id="Capa_1-2" data-name="Capa 1">
    <g>
      <path class="cls-1" d="M0,0V417.63c0,4.53,.86,9.05,2.78,13.16,1.43,3.07,3.36,5.97,5.8,8.58l.93,.99c10.69,11.39,27.94,13.7,41.25,5.51l1.71-1.05c10.51-6.46,23.76-6.5,34.32-.1l2.4,1.46c6.39,3.87,13.66,5.34,20.68,4.57,5.93,0,11.92-1.59,17.27-4.88l1.71-1.05c10.51-6.46,23.76-6.5,34.31-.1l2.41,1.46c6.42,3.89,13.73,5.35,20.78,4.56,6.17,.14,12.42-1.44,17.98-4.87l1.71-1.05c10.52-6.46,23.77-6.5,34.32-.1l2.4,1.46c6.39,3.87,13.66,5.34,20.68,4.57,5.94,0,11.92-1.59,17.27-4.88l1.71-1.05c10.51-6.46,23.76-6.5,34.32-.1l2.4,1.46c6.42,3.89,13.73,5.35,20.78,4.56,6.17,.14,12.42-1.44,17.99-4.87l1.7-1.05c10.52-6.46,23.77-6.5,34.32-.1l2.41,1.46c6.38,3.87,13.66,5.34,20.67,4.57,5.94,0,11.93-1.59,17.27-4.88l1.71-1.05c10.52-6.46,23.77-6.5,34.32-.1l2.41,1.46c6.41,3.89,13.73,5.35,20.77,4.56,6.18,.14,12.43-1.44,17.99-4.87l1.71-1.05c10.51-6.46,23.76-6.5,34.32-.1l2.4,1.46c6.39,3.87,13.66,5.34,20.67,4.57,5.94,0,11.93-1.59,17.28-4.88l1.71-1.05c10.51-6.46,23.76-6.5,34.31-.1l2.41,1.46c6.42,3.89,13.73,5.35,20.78,4.56,6.17,.14,12.42-1.44,17.98-4.87l1.71-1.05c10.52-6.46,23.76-6.5,34.32-.1l2.4,1.46c6.39,3.87,13.66,5.34,20.68,4.57,5.94,0,11.92-1.59,17.27-4.88l1.71-1.05c10.51-6.46,23.76-6.5,34.32-.1l2.4,1.46c13.24,8.03,30.3,5.75,40.95-5.48l.39-.41c.29-.3,.57-.61,.84-.92,5.25-5.97,7.96-13.76,7.96-21.71V0H0Z"/>
      <g>
        <path class="cls-2" d="M599.74,226.32c5.61,3.4,12.01,4.68,18.17,3.98,5.4,.12,10.86-1.26,15.73-4.25l1.49-.92c9.19-5.65,20.78-5.69,30.01-.09l2.1,1.28c5.58,3.39,11.94,4.67,18.08,3.99,5.19,0,10.43-1.38,15.1-4.26l1.49-.92c9.19-5.65,20.78-5.69,30-.09l2.1,1.28c11.57,7.02,26.49,5.02,35.8-4.79l.34-.36c.25-.26,.49-.53,.73-.8,4.59-5.22,6.96-12.03,6.96-18.98V75.58c0-6.95-2.37-13.76-6.96-18.98-.24-.27-.48-.54-.73-.8l-.34-.36c-9.31-9.81-24.23-11.81-35.8-4.79l-2.1,1.28c-9.23,5.6-20.81,5.56-30-.09l-1.49-.92c-4.68-2.88-9.91-4.27-15.1-4.26-6.13-.67-12.49,.61-18.08,3.99l-2.1,1.28c-9.23,5.6-20.81,5.56-30.01-.09l-1.49-.92c-4.86-2.99-10.33-4.37-15.73-4.25-6.16-.7-12.56,.58-18.17,3.98l-2.1,1.28c-9.23,5.6-20.81,5.56-30-.09l-1.49-.92c-4.68-2.88-9.91-4.27-15.1-4.26-6.13-.67-12.49,.61-18.08,3.99l-2.1,1.28c-9.23,5.6-20.81,5.56-30.01-.09l-1.49-.92c-4.86-2.99-10.33-4.37-15.73-4.25-6.16-.7-12.56,.58-18.17,3.98l-2.1,1.28c-9.23,5.6-20.81,5.56-30-.09l-1.49-.92c-4.68-2.88-9.91-4.27-15.1-4.26-6.13-.67-12.49,.61-18.08,3.99l-2.1,1.28c-9.23,5.6-20.81,5.56-30.01-.09l-1.49-.92c-4.86-2.99-10.33-4.37-15.73-4.25-6.16-.7-12.56,.58-18.17,3.98l-2.1,1.28c-9.23,5.6-20.81,5.56-30-.09l-1.49-.92c-4.68-2.88-9.91-4.27-15.1-4.26-6.13-.67-12.49,.61-18.08,3.99l-2.1,1.28c-9.23,5.6-20.81,5.56-30.01-.09l-1.49-.92c-4.86-2.99-10.33-4.37-15.73-4.25-6.16-.7-12.56,.58-18.17,3.98l-2.1,1.28c-9.23,5.6-20.81,5.56-30-.09l-1.49-.92c-4.68-2.88-9.91-4.27-15.1-4.26-6.13-.67-12.49,.61-18.08,3.99l-2.1,1.28c-9.23,5.6-20.81,5.56-30.01-.09l-1.49-.92c-11.64-7.16-26.72-5.14-36.06,4.82l-.81,.87c-2.13,2.28-3.83,4.81-5.08,7.5-1.67,3.59-2.43,7.54-2.43,11.51v125.75c0,3.96,.76,7.91,2.43,11.51,1.25,2.69,2.94,5.22,5.08,7.5l.81,.87c9.34,9.96,24.42,11.98,36.06,4.82l1.49-.92c9.19-5.65,20.78-5.69,30.01-.09l2.1,1.28c5.58,3.39,11.94,4.67,18.08,3.99,5.19,0,10.43-1.38,15.1-4.26l1.49-.92c9.19-5.65,20.78-5.69,30-.09l2.1,1.28c5.61,3.4,12,4.68,18.17,3.98,5.4,.12,10.86-1.26,15.73-4.25l1.49-.92c9.19-5.65,20.78-5.69,30.01-.09l2.1,1.28c5.58,3.39,11.94,4.67,18.08,3.99,5.19,0,10.43-1.38,15.1-4.26l1.49-.92c9.19-5.65,20.78-5.69,30-.09l2.1,1.28c5.61,3.4,12.01,4.68,18.17,3.98,5.4,.12,10.86-1.26,15.73-4.25l1.49-.92c9.19-5.65,20.78-5.69,30.01-.09l2.1,1.28c5.58,3.39,11.94,4.67,18.08,3.99,5.19,0,10.43-1.38,15.1-4.26l1.49-.92c9.19-5.65,20.78-5.69,30-.09l2.1,1.28c5.61,3.4,12.01,4.68,18.17,3.98,5.4,.12,10.86-1.26,15.73-4.25l1.49-.92c9.19-5.65,20.78-5.69,30.01-.09l2.1,1.28c5.58,3.39,11.94,4.67,18.08,3.99,5.19,0,10.43-1.38,15.1-4.26l1.49-.92c9.19-5.65,20.78-5.69,30-.09l2.1,1.28Z"/>
        <g>
          <path class="cls-3" d="M268.15,132.1c0,15.57-13.21,15.5-22.11,15.5h-7.61v7.75c0,4.59,1.01,6.32,3.59,6.32v2.3h-17.08v-2.3c2.58,0,3.59-1.72,3.59-6.32v-30.15c0-4.59-1.01-6.32-3.59-6.32v-2.3h21.1c8.9,0,22.11,0,22.11,15.5Zm-9.91,0c0-9.19-4.31-11.77-12.35-11.77h-7.46v23.54h7.46c8.04,0,12.35-2.58,12.35-11.77Z"/>
          <path class="cls-3" d="M306.83,150.47c.72,7.68-4.95,14.21-15.72,14.21-13.92,0-19.52-7.68-19.52-17.73,0-12.2,8.18-19.6,20.24-19.6,8.9,0,15.22,3.8,15.22,10.55,0,10.98-15.93,12.2-25.55,9.76,.07,7.25,2.94,13.28,9.33,13.28,4.45,0,7.03-2.01,6.1-8.61l9.9-1.87Zm-25.19-6.68c10.19,2.44,15.5-.14,15.5-6.1,0-4.23-2.08-6.6-6.24-6.6-6.1,0-8.69,4.88-9.26,12.71Z"/>
          <path class="cls-3" d="M328.08,127.36c5.81,0,10.84,2.73,13.42,7.46h.72v-13.92c0-4.59-1.01-6.32-3.59-6.32v-2.3h4.74c5.6,0,8.76,.43,8.76,6.32v36.75c0,4.59,1.01,6.32,3.59,6.32v2.3h-4.74c-5.38,0-8.76-.36-8.76-5.38v-1.36h-.72c-2.58,4.74-7.61,7.46-13.42,7.46-9.19,0-16.87-6.46-16.87-18.66s7.68-18.66,16.87-18.66Zm3.37,33.59c6.75,0,10.05-5.96,10.05-14.93s-3.3-14.93-10.05-14.93-9.62,5.96-9.62,14.93,2.87,14.93,9.62,14.93Z"/>
          <path class="cls-3" d="M373.08,155.35c0,4.59,1,6.32,3.59,6.32v2.3h-17.08v-2.3c2.58,0,3.59-1.72,3.59-6.32v-18.66c0-4.59-1-6.32-3.59-6.32v-2.3h4.74c5.81,0,8.76,.36,8.76,6.24v21.03Zm-10.91-35.17c0-2.37,1.94-4.31,5.24-4.31s5.24,1.94,5.24,4.31c0,2.58-2.01,4.45-5.24,4.45s-5.24-1.87-5.24-4.45Z"/>
          <path class="cls-3" d="M396.27,127.36c5.81,0,10.84,2.73,13.42,7.46h.72v-13.92c0-4.59-1-6.32-3.59-6.32v-2.3h4.74c5.6,0,8.76,.43,8.76,6.32v36.75c0,4.59,1,6.32,3.59,6.32v2.3h-4.74c-5.38,0-8.76-.36-8.76-5.38v-1.36h-.72c-2.58,4.74-7.61,7.46-13.42,7.46-9.19,0-16.87-6.46-16.87-18.66s7.68-18.66,16.87-18.66Zm3.37,33.59c6.75,0,10.05-5.96,10.05-14.93s-3.3-14.93-10.05-14.93-9.62,5.96-9.62,14.93,2.87,14.93,9.62,14.93Z"/>
          <path class="cls-3" d="M446.01,127.36c13.57,0,19.67,8.97,19.67,18.66s-6.1,18.66-19.67,18.66-19.67-8.97-19.67-18.66,6.1-18.66,19.67-18.66Zm2.01,33.45c6.75-.86,8.83-6.89,7.68-16.01-1.15-9.04-4.59-14.43-11.7-13.56-6.75,.86-8.83,6.89-7.68,16.01,1.15,9.04,4.59,14.43,11.7,13.57Z"/>
          <path class="cls-3" d="M486.13,127.36c9.12,0,18.3,3.16,15.43,13.28l-9.9-1.44c2.15-6.53-1.72-8.11-5.31-8.11-4.38,0-5.88,2.15-5.88,4.67,0,3.3,1.65,4.59,8.04,6.39,7.61,2.08,14.57,3.95,14.57,11.48,0,8.25-7.39,11.05-15.58,11.05-9.98,0-20.03-3.16-17.15-15.29l9.9,1.44c-2.87,8.18,1.44,10.12,6.68,10.12,4.45,0,6.24-2.37,6.24-5.53,0-4.09-3.52-5.24-8.68-6.82-7.9-2.22-13.93-4.16-13.93-11.2s6.82-10.05,15.58-10.05Z"/>
          <path class="cls-3" d="M573.41,118.89c-2.66,0-5.81,1.15-8.18,5.1l-12.49,20.89v10.48c0,4.59,1,6.32,3.59,6.32v2.3h-17.08v-2.3c2.58,0,3.59-1.72,3.59-6.32v-10.48l-13.13-20.96c-2.37-3.88-5.6-5.02-8.25-5.02v-2.3h22.46v2.3c-5.17,0-5.02,1.15-2.58,5.02l10.05,15.94,9.47-15.86c2.37-3.95,2.44-5.1-2.73-5.1v-2.3h15.29v2.3Z"/>
          <path class="cls-3" d="M605.06,158.37v2.73c-1.22,1.87-3.95,2.87-6.68,2.87s-6.39-.72-6.82-4.81v-.5h-.72c-2.15,3.37-6.67,6.03-13.06,6.03-7.54,0-11.56-2.94-11.56-8.97,0-10.41,15.22-12.85,25.27-14-.29-7.39-1.65-10.62-7.39-10.62s-8.18,3.3-6.03,8.83l-9.47,1.87c-2.15-7.9,3.66-14.43,16.51-14.43,11.7,0,16.37,4.81,16.37,17.66v10.05c0,4.02,1.29,4.66,3.59,3.3Zm-13.49-9.04v-3.95c-8.47,.93-15.43,4.09-15.43,9.91,0,3.8,1.58,5.67,5.1,5.67,6.17,0,10.34-6.03,10.34-10.77v-.86Z"/>
        </g>
      </g>
    </g>
  </g>
</svg>