<?xml version="1.0" encoding="UTF-8"?>
<svg id="Capa_2" data-name="Capa 2" xmlns="http://www.w3.org/2000/svg" viewBox="0 0 830 524.44">
  <defs>
    <style>
      .cls-1 {
        stroke: #55111b;
        stroke-miterlimit: 10;
      }

      .cls-1, .cls-2 {
        fill: #55111b;
      }

      .cls-3 {
        fill: #fbc009;
      }

      .cls-4 {
        fill: #f7f2ea;
      }
    </style>
  </defs>
  <g id="Capa_1-2" data-name="Capa 1">
    <g>
      <path class="cls-3" d="M830,33.29c0-7.95-2.71-15.74-7.96-21.71-.27-.31-.55-.62-.84-.92l-.39-.41c-10.65-11.22-27.71-13.51-40.95-5.48l-2.4,1.46c-10.56,6.4-23.81,6.36-34.32-.1l-1.71-1.05c-5.35-3.29-11.33-4.88-17.27-4.88-7.02-.77-14.29,.7-20.68,4.57l-2.4,1.46c-10.56,6.4-23.8,6.36-34.32-.1l-1.71-1.05c-5.56-3.42-11.81-5.01-17.98-4.87-7.05-.79-14.36,.67-20.78,4.56l-2.41,1.46c-10.55,6.4-23.8,6.36-34.31-.1l-1.71-1.05c-5.35-3.29-11.34-4.88-17.28-4.88-7.01-.77-14.28,.7-20.67,4.57l-2.4,1.46c-10.56,6.4-23.81,6.36-34.32-.1l-1.71-1.05c-5.56-3.42-11.81-5.01-17.99-4.87-7.04-.79-14.36,.67-20.77,4.56l-2.41,1.46c-10.55,6.4-23.8,6.36-34.32-.1l-1.71-1.05c-5.34-3.29-11.33-4.88-17.27-4.88-7.01-.77-14.29,.7-20.67,4.57l-2.41,1.46c-10.55,6.4-23.8,6.36-34.32-.1l-1.7-1.05c-5.57-3.42-11.82-5.01-17.99-4.87-7.05-.79-14.36,.67-20.78,4.56l-2.4,1.46c-10.56,6.4-23.81,6.36-34.32-.1l-1.71-1.05c-5.35-3.29-11.33-4.88-17.27-4.88-7.02-.77-14.29,.7-20.68,4.57l-2.4,1.46c-10.55,6.4-23.8,6.36-34.32-.1l-1.71-1.05C198.77,1.66,192.52,.07,186.35,.21c-7.05-.79-14.36,.67-20.78,4.56l-2.41,1.46c-10.55,6.4-23.8,6.36-34.31-.1l-1.71-1.05C121.79,1.79,115.8,.2,109.87,.2c-7.02-.77-14.29,.7-20.68,4.57l-2.4,1.46c-10.56,6.4-23.81,6.36-34.32-.1l-1.71-1.05C37.45-3.11,20.2-.8,9.51,10.59l-.93,.99c-2.44,2.61-4.37,5.51-5.8,8.58C.86,24.27,0,28.79,0,33.32v491.12H830V33.29Z"/>
      <rect class="cls-4" x="52.15" y="257.99" width="725.7" height="241.63"/>
      <g>
        <path class="cls-2" d="M125.72,157.3h-15.58v51.11h-16.25v-51.11h-15.58v-15.39h47.41v15.39Z"/>
        <path class="cls-2" d="M183.57,193.12v15.3h-41.8v-66.5h40.95v15.39h-24.7v10.26h21.66v14.54h-21.66v11.02h25.56Z"/>
        <path class="cls-2" d="M241.71,193.12v15.3h-41.14v-66.5h16.34v51.21h24.8Z"/>
        <path class="cls-2" d="M299.56,193.12v15.3h-41.8v-66.5h40.95v15.39h-24.7v10.26h21.66v14.54h-21.66v11.02h25.56Zm-6.37-71.82l-9.21,13.3h-12.26l6.18-13.3h15.29Z"/>
        <path class="cls-2" d="M332.81,157.3v12.63h22.42v15.29h-22.42v23.18h-16.25v-66.5h41.42v15.39h-25.17Z"/>
        <path class="cls-2" d="M439.31,175.16c0,19.76-14.16,34.49-33.82,34.49s-33.82-14.73-33.82-34.49,14.16-34.39,33.82-34.39,33.82,14.73,33.82,34.39Zm-16.34,0c0-9.4-5.89-18.71-17.48-18.71s-17.48,9.31-17.48,18.71,5.89,18.81,17.48,18.81,17.48-9.4,17.48-18.81Z"/>
        <path class="cls-2" d="M512.36,141.91v66.5h-14.25l-25.94-38.76v38.76h-16.34v-66.5h14.25l25.94,38.76v-38.76h16.34Z"/>
        <path class="cls-2" d="M596.53,175.16c0,19.76-14.16,34.49-33.82,34.49s-33.82-14.73-33.82-34.49,14.16-34.39,33.82-34.39,33.82,14.73,33.82,34.39Zm-16.34,0c0-9.4-5.89-18.71-17.48-18.71s-17.48,9.31-17.48,18.71,5.89,18.81,17.48,18.81,17.48-9.4,17.48-18.81Z"/>
      </g>
      <g>
        <g>
          <path class="cls-2" d="M183.52,320.69c6.15,0,9.66,3.2,9.49,8.16l-4.69-.68c.34-3.4-1.16-5.71-4.79-5.71-4.86,0-6.77,3.84-6.77,9.79s1.56,9.79,6.42,9.79c3.98,0,5.47-2.31,5.13-6.05l4.69-.68c.17,5.3-3.33,8.5-9.83,8.5-7.55,0-11.12-4.25-11.12-11.56s3.91-11.56,11.46-11.56Z"/>
          <path class="cls-2" d="M206.06,326.13c6.43,0,9.31,4.25,9.31,8.84s-2.89,8.84-9.31,8.84-9.31-4.25-9.31-8.84,2.89-8.84,9.31-8.84Zm.95,15.84c3.2-.41,4.18-3.26,3.64-7.58-.54-4.28-2.18-6.83-5.54-6.43-3.2,.41-4.18,3.26-3.64,7.58,.54,4.28,2.18,6.83,5.54,6.42Z"/>
          <path class="cls-2" d="M247.61,342.38v1.09h-8.09v-1.09c1.22,0,1.7-.82,1.7-2.99v-8.67c0-1.87-.68-2.82-1.9-2.82-2.55,0-4.39,4.52-4.39,9.45v2.04c0,2.18,.48,2.99,1.7,2.99v1.09h-8.09v-1.09c1.22,0,1.7-.82,1.7-2.99v-8.67c0-1.87-.68-2.82-1.9-2.82-2.55,0-4.38,4.52-4.38,9.45v2.04c0,2.18,.48,2.99,1.7,2.99v1.09h-8.09v-1.09c1.22,0,1.7-.82,1.7-2.99v-8.84c0-2.18-.48-2.99-1.7-2.99v-1.09h2.24c2.65,0,4.15,.17,4.15,2.82v2.07h.34c.85-3.33,2.69-5.24,5.78-5.24,2.82,0,4.62,1.67,4.83,5.24h.3c.92-3.33,2.75-5.24,5.85-5.24s4.86,1.87,4.86,5.95v7.31c0,2.18,.48,2.99,1.7,2.99Z"/>
          <path class="cls-2" d="M267.64,330.55v8.84c0,2.18,.48,2.99,1.7,2.99v1.09h-2.24c-2.65,0-4.15-.17-4.15-2.82v-2.07h-.34c-.71,3.2-2.69,5.23-6.12,5.23s-5.88-2.07-5.88-6.49v-6.77c0-2.18-.48-2.99-1.7-2.99v-1.09h8.09v1.09c-1.22,0-1.7,.82-1.7,2.99v7.92c0,2.28,.75,3.57,2.62,3.57,3.47,0,5.03-4.79,5.03-9.45v-2.04c0-2.18-.48-2.99-1.7-2.99v-1.09h8.09v1.09c-1.22,0-1.7,.82-1.7,2.99Z"/>
          <path class="cls-2" d="M292.97,342.38v1.09h-8.09v-1.09c1.22,0,1.7-.82,1.7-2.99v-7.92c0-2.28-.75-3.57-2.62-3.57-3.47,0-5.03,4.79-5.03,9.45v2.04c0,2.18,.48,2.99,1.7,2.99v1.09h-8.09v-1.09c1.22,0,1.7-.82,1.7-2.99v-8.84c0-2.18-.47-2.99-1.7-2.99v-1.09h2.24c2.65,0,4.15,.17,4.15,2.82v2.07h.34c.71-3.2,2.69-5.24,6.12-5.24s5.88,2.07,5.88,6.49v6.76c0,2.18,.48,2.99,1.7,2.99Z"/>
          <path class="cls-2" d="M302.01,339.39c0,2.18,.48,2.99,1.7,2.99v1.09h-8.09v-1.09c1.22,0,1.7-.82,1.7-2.99v-8.84c0-2.18-.47-2.99-1.7-2.99v-1.09h2.24c2.75,0,4.15,.17,4.15,2.96v9.96Zm-5.17-16.66c0-1.12,.92-2.04,2.48-2.04s2.48,.92,2.48,2.04c0,1.22-.95,2.11-2.48,2.11s-2.48-.88-2.48-2.11Z"/>
          <path class="cls-2" d="M315.37,326.13c5.71,0,8.5,3.2,8.33,7.48l-4.69-.68c.34-3.33-1.09-5.03-3.67-5.03-3.47,0-4.62,2.72-4.62,7.07s1.16,7.07,4.62,7.07c2.58,0,4.35-1.7,4.01-5.37l4.69-.68c.17,4.62-2.99,7.82-8.7,7.82-6.77,0-9.31-4.25-9.31-8.84s2.58-8.84,9.35-8.84Z"/>
          <path class="cls-2" d="M345.09,340.82v1.29c-.58,.88-1.87,1.36-3.16,1.36s-3.03-.34-3.23-2.28v-.24h-.34c-1.02,1.6-3.16,2.86-6.19,2.86-3.57,0-5.47-1.39-5.47-4.25,0-4.93,7.21-6.08,11.97-6.63-.14-3.5-.78-5.03-3.5-5.03s-3.88,1.56-2.86,4.18l-4.49,.88c-1.02-3.74,1.73-6.83,7.82-6.83,5.54,0,7.75,2.28,7.75,8.36v4.76c0,1.9,.61,2.21,1.7,1.56Zm-6.39-4.28v-1.87c-4.01,.44-7.31,1.94-7.31,4.69,0,1.8,.75,2.69,2.41,2.69,2.92,0,4.9-2.86,4.9-5.1v-.41Z"/>
          <path class="cls-2" d="M359.13,340.92c-.68,1.94-2.28,2.89-5.06,2.89s-5.78-.99-5.78-5.51v-10.06h-2.45v-1.77c2.62-.34,4.15-1.09,4.15-5.44h2.99v5.44h5.13c0,1.09,0,1.77-1.63,1.77h-3.5v9.45c0,2.69,.03,4.35,1.39,4.35,.85,0,1.22-.44,1.29-1.8l3.47,.68Z"/>
          <path class="cls-2" d="M377.32,337.08c.34,3.64-2.35,6.73-7.45,6.73-6.59,0-9.25-3.64-9.25-8.4,0-5.78,3.88-9.28,9.59-9.28,4.22,0,7.21,1.8,7.21,5,0,5.2-7.55,5.78-12.1,4.62,.03,3.43,1.39,6.29,4.42,6.29,2.11,0,3.33-.95,2.89-4.08l4.69-.88Zm-11.93-3.16c4.83,1.16,7.34-.07,7.34-2.89,0-2.01-.99-3.13-2.96-3.13-2.89,0-4.11,2.31-4.38,6.02Z"/>
          <path class="cls-2" d="M407.92,340.82v1.29c-.58,.88-1.87,1.36-3.16,1.36s-3.03-.34-3.23-2.28v-.24h-.34c-1.02,1.6-3.16,2.86-6.19,2.86-3.57,0-5.47-1.39-5.47-4.25,0-4.93,7.21-6.08,11.97-6.63-.13-3.5-.78-5.03-3.5-5.03s-3.88,1.56-2.86,4.18l-4.49,.88c-1.02-3.74,1.73-6.83,7.82-6.83,5.54,0,7.75,2.28,7.75,8.36v4.76c0,1.9,.61,2.21,1.7,1.56Zm-6.39-4.28v-1.87c-4.01,.44-7.31,1.94-7.31,4.69,0,1.8,.75,2.69,2.41,2.69,2.92,0,4.9-2.86,4.9-5.1v-.41Z"/>
          <path class="cls-2" d="M416.49,339.39c0,2.18,.48,2.99,1.7,2.99v1.09h-8.09v-1.09c1.22,0,1.7-.82,1.7-2.99v-16.32c0-2.18-.48-2.99-1.7-2.99v-1.09h2.24c2.65,0,4.15,.2,4.15,2.99v17.41Z"/>
          <path class="cls-1" d="M155.19,367.32c7.96,0,12.73,6.07,12.73,15.3s-4.77,15.3-12.73,15.3-12.92-6.08-12.92-15.3,4.95-15.3,12.92-15.3Zm.85,28.21c5.13-.32,6.12-5.67,5.67-13.32-.49-7.65-2.16-12.87-7.38-12.51-5.13,.32-6.17,5.67-5.71,13.32,.49,7.65,2.21,12.87,7.42,12.51Zm-.85-14.71c.94,0,1.75,.81,1.75,1.8s-.81,1.8-1.75,1.8c-1.03,0-1.84-.81-1.84-1.8s.76-1.8,1.84-1.8Z"/>
          <path class="cls-1" d="M195.33,389.28c0,5.89-4.81,8.64-11.65,8.64s-13.27-2.61-11.38-10.44l6.21,.9c-1.89,5.27,.76,7.2,4.63,7.2,4.27,0,5.99-2.75,5.99-5.98,0-4.63-2.34-6.71-7.92-6.71v-2.34c5.31,0,7.2-2.07,7.2-5.76,0-3.28-1.62-5.13-4.9-5.13-3.87,0-6.44,1.94-4.54,7.52l-6.21,.9c-1.89-8.15,4.72-10.75,11.16-10.75,5.71,0,10.71,2.29,10.71,7.7,0,3.55-2.16,5.58-5.17,6.7,3.38,1.17,5.89,3.42,5.89,7.56Z"/>
          <path class="cls-1" d="M225.43,387.08c0,7.47-6.48,10.85-13.32,10.85s-13.41-2.61-11.52-10.17l6.21,.9c-1.89,5.26,.94,6.93,5.26,6.93,4.91,0,7.16-3.37,7.16-8.64,0-4.14-1.8-7.06-6.21-7.06-2.92,0-6.07,1.21-8.68,4.46l-2.52,.45,1.49-17.01h20.29l.18,2.7,.32,5.58-1.44,.09c-.18-3.06-1.35-4.32-4.23-4.32h-12.92l-.99,9.72c2.52-2.57,5.89-4,10.17-4s10.75,1.94,10.75,9.54Z"/>
          <path class="cls-1" d="M229.48,396.03c3.96,0,5.49-1.08,5.49-3.96v-16.29h-5.49v-2.34c5.49,0,6.88-.67,8.28-5.67h3.42v24.3c0,2.88,1.53,3.96,5.49,3.96v1.44h-17.19v-1.44Z"/>
          <path class="cls-1" d="M284.52,391.89v.18c0,2.88,.63,3.96,2.25,3.96v1.44h-10.71v-1.44c1.62,0,2.25-1.08,2.25-3.96v-.18h-15.61v-4.05c5.45-3.2,13.37-10.3,15.61-20.07h6.21v20.07h4.14v4.05h-4.14Zm-6.21-4.05v-14.49c-1.98,6.79-7.56,11.79-12.51,14.49h12.51Z"/>
          <path class="cls-1" d="M315.48,388.83l1.44,.09-.31,5.94-.14,2.61h-23.31c0-10.17,4.01-11.16,10.49-13.59,4.86-1.8,7.11-3.51,7.11-8.05,0-4.05-1.53-6.17-5.04-6.17-2.34,0-6.93,.5-5.13,7.52l-6.21,.9c-1.8-8.77,6.66-10.75,11.75-10.75s10.84,1.94,10.84,8.37c0,7.83-7.74,8.96-12.1,10.49-5.53,1.93-7.56,3.28-7.56,7.25h13.99c2.83,0,4-1.35,4.19-4.59Z"/>
          <path class="cls-1" d="M347.56,388.25c0,4.54-3.42,9.68-12.42,9.68-10.48,0-13.23-7.25-13.23-15.17,0-7.47,3.46-15.43,13.63-15.43,7.74,0,11.29,4.59,10.84,9.18l-6.21-.9c.45-4.18-1.26-5.94-4.82-5.94-5.62,0-7.25,4.95-7.25,12.33v.31c5.4-5.13,19.44-5.22,19.44,5.94Zm-6.21,.41c0-7.47-6.66-9.09-13.19-4,.13,5.98,1.08,10.93,6.93,10.93,5.18,0,6.26-3.87,6.26-6.93Z"/>
          <path class="cls-1" d="M351.61,396.03c3.96,0,5.49-1.08,5.49-3.96v-16.29h-5.49v-2.34c5.49,0,6.88-.67,8.28-5.67h3.42v24.3c0,2.88,1.53,3.96,5.49,3.96v1.44h-17.19v-1.44Z"/>
          <path class="cls-1" d="M397.6,388.25c0,4.54-3.42,9.68-12.42,9.68-10.48,0-13.23-7.25-13.23-15.17,0-7.47,3.46-15.43,13.63-15.43,7.74,0,11.29,4.59,10.84,9.18l-6.21-.9c.45-4.18-1.26-5.94-4.81-5.94-5.62,0-7.25,4.95-7.25,12.33v.31c5.4-5.13,19.44-5.22,19.44,5.94Zm-6.21,.41c0-7.47-6.66-9.09-13.18-4,.13,5.98,1.08,10.93,6.93,10.93,5.17,0,6.25-3.87,6.25-6.93Z"/>
          <path class="cls-1" d="M401.65,396.03c3.96,0,5.49-1.08,5.49-3.96v-16.29h-5.49v-2.34c5.49,0,6.88-.67,8.28-5.67h3.42v24.3c0,2.88,1.53,3.96,5.49,3.96v1.44h-17.19v-1.44Z"/>
          <path class="cls-1" d="M447.64,388.25c0,4.54-3.42,9.68-12.42,9.68-10.48,0-13.23-7.25-13.23-15.17,0-7.47,3.46-15.43,13.63-15.43,7.74,0,11.29,4.59,10.84,9.18l-6.21-.9c.45-4.18-1.26-5.94-4.82-5.94-5.62,0-7.24,4.95-7.24,12.33v.31c5.4-5.13,19.44-5.22,19.44,5.94Zm-6.21,.41c0-7.47-6.66-9.09-13.18-4,.13,5.98,1.08,10.93,6.93,10.93,5.17,0,6.25-3.87,6.25-6.93Z"/>
          <path class="cls-2" d="M209.62,427.05c0,9.89-7.48,11.22-11.29,11.22h-10.67v-1.09c1.22,0,1.7-.82,1.7-2.99v-14.28c0-2.18-.48-2.99-1.7-2.99v-1.09h10.67c3.81,0,11.29,1.36,11.29,11.22Zm-4.69,0c0-6.87-2.58-9.45-7.48-9.45h-3.4v18.9h3.4c4.9,0,7.48-2.58,7.48-9.45Z"/>
          <path class="cls-2" d="M229.44,431.88c.34,3.64-2.35,6.73-7.45,6.73-6.59,0-9.25-3.64-9.25-8.4,0-5.78,3.88-9.28,9.59-9.28,4.22,0,7.21,1.8,7.21,5,0,5.2-7.55,5.78-12.1,4.62,.03,3.43,1.39,6.29,4.42,6.29,2.11,0,3.33-.95,2.89-4.08l4.69-.88Zm-11.93-3.16c4.83,1.16,7.34-.07,7.34-2.89,0-2.01-.99-3.13-2.96-3.13-2.89,0-4.11,2.31-4.38,6.02Z"/>
          <path class="cls-2" d="M241.65,437.18c2.99,0,4.15-.82,4.15-2.99v-12.31h-4.15v-1.77c4.15,0,5.2-.51,6.26-4.28h2.58v18.36c0,2.18,1.16,2.99,4.15,2.99v1.09h-12.99v-1.09Z"/>
          <path class="cls-2" d="M275.03,431.74l1.09,.07-.24,4.49-.1,1.97h-17.61c0-7.68,3.03-8.43,7.92-10.27,3.67-1.36,5.37-2.65,5.37-6.09,0-3.06-1.16-4.66-3.81-4.66-1.77,0-5.24,.37-3.88,5.68l-4.69,.68c-1.36-6.63,5.03-8.13,8.87-8.13s8.19,1.46,8.19,6.32c0,5.92-5.85,6.77-9.15,7.92-4.18,1.46-5.71,2.48-5.71,5.47h10.57c2.14,0,3.03-1.02,3.16-3.47Z"/>
          <path class="cls-2" d="M306.65,435.62v1.29c-.58,.88-1.87,1.36-3.16,1.36s-3.03-.34-3.23-2.28v-.24h-.34c-1.02,1.6-3.16,2.86-6.19,2.86-3.57,0-5.47-1.39-5.47-4.25,0-4.93,7.21-6.09,11.97-6.63-.13-3.5-.78-5.03-3.5-5.03s-3.88,1.56-2.86,4.18l-4.49,.88c-1.02-3.74,1.73-6.83,7.82-6.83,5.54,0,7.75,2.28,7.75,8.36v4.76c0,1.9,.61,2.21,1.7,1.56Zm-6.39-4.28v-1.87c-4.01,.44-7.31,1.94-7.31,4.69,0,1.8,.75,2.69,2.41,2.69,2.92,0,4.9-2.86,4.9-5.1v-.41Z"/>
          <path class="cls-2" d="M327.83,415.49c6.02,0,9.62,4.59,9.62,11.56s-3.6,11.56-9.62,11.56-9.76-4.59-9.76-11.56,3.74-11.56,9.76-11.56Zm.65,21.32c3.88-.24,4.62-4.28,4.28-10.06-.37-5.78-1.63-9.72-5.58-9.45-3.88,.24-4.66,4.28-4.32,10.06,.38,5.78,1.67,9.72,5.61,9.45Zm-.65-11.12c.71,0,1.33,.61,1.33,1.36s-.61,1.36-1.33,1.36c-.78,0-1.39-.61-1.39-1.36s.58-1.36,1.39-1.36Z"/>
          <path class="cls-2" d="M350.95,415.49c6.02,0,9.62,4.59,9.62,11.56s-3.6,11.56-9.62,11.56-9.76-4.59-9.76-11.56,3.74-11.56,9.76-11.56Zm.65,21.32c3.88-.24,4.62-4.28,4.28-10.06-.38-5.78-1.63-9.72-5.58-9.45-3.88,.24-4.66,4.28-4.32,10.06,.37,5.78,1.67,9.72,5.61,9.45Zm-.65-11.12c.71,0,1.33,.61,1.33,1.36s-.61,1.36-1.33,1.36c-.78,0-1.39-.61-1.39-1.36s.58-1.36,1.39-1.36Z"/>
          <path class="cls-2" d="M384.75,437.18v1.09h-8.09v-1.09c1.22,0,1.7-.82,1.7-2.99v-7.92c0-2.28-.75-3.57-2.62-3.57-3.47,0-5.03,4.79-5.03,9.45v2.04c0,2.18,.48,2.99,1.7,2.99v1.09h-8.09v-1.09c1.22,0,1.7-.82,1.7-2.99v-16.32c0-2.18-.48-2.99-1.7-2.99v-1.09h2.24c2.65,0,4.15,.21,4.15,2.99v9.38h.34c.71-3.2,2.69-5.24,6.12-5.24s5.88,2.07,5.88,6.49v6.77c0,2.18,.48,2.99,1.7,2.99Z"/>
          <path class="cls-2" d="M394.58,420.93c4.32,0,8.67,1.5,7.31,6.29l-4.69-.68c1.02-3.09-.82-3.84-2.52-3.84-2.07,0-2.79,1.02-2.79,2.21,0,1.56,.78,2.18,3.81,3.03,3.6,.99,6.9,1.87,6.9,5.44,0,3.91-3.5,5.24-7.38,5.24-4.73,0-9.49-1.5-8.12-7.24l4.69,.68c-1.36,3.88,.68,4.79,3.16,4.79,2.11,0,2.96-1.12,2.96-2.62,0-1.94-1.67-2.48-4.11-3.23-3.74-1.05-6.6-1.97-6.6-5.3s3.23-4.76,7.38-4.76Z"/>
        </g>
        <g>
          <path class="cls-2" d="M643.87,416.87c-1.16,0-2.31-.32-3.34-.96-1.82-1.12-2.91-3.05-2.91-5.16,0-1.21,.07-2.3,.2-3.41,1.35-11.98,10.17-21.9,21.95-24.68,2.17-.52,4.41-.79,6.65-.79,6.31,0,12.31,2.01,17.34,5.83,1.71,1.3,2.61,3.37,2.41,5.53-.21,2.19-1.5,4.08-3.45,5.05,0,0,0,0,0,0l-.93,.46s-.1,.06-.14,.08l-9.89,4.9c-.06,.03-.12,.06-.18,.08l-24.8,12.36c-.93,.46-1.92,.69-2.9,.69Zm22.56-30.81c-1.91,0-3.83,.23-5.69,.67-10.07,2.37-17.61,10.85-18.77,21.11-.12,.96-.18,1.88-.18,2.85s.58,1.46,.93,1.67c.66,.41,1.45,.45,2.12,.11l.44-.24,24.59-12.24c.06-.03,.12-.06,.19-.08l9.59-4.76c.05-.03,.1-.06,.16-.09l1.06-.52c.65-.32,1.08-.96,1.14-1.7,.03-.35,.02-1.21-.77-1.82-4.3-3.26-9.42-4.98-14.82-4.98Zm15.37,10.37h0Z"/>
          <path class="cls-2" d="M665.76,431.99c-10.36,0-19.42-7.36-21.52-17.49-.19-.93,.27-1.87,1.12-2.29l24.52-12.2c.06-.03,.13-.06,.19-.08l9.72-4.82c.85-.42,1.86-.22,2.49,.48,3.51,3.97,5.45,9.09,5.45,14.44,0,12.11-9.85,21.96-21.96,21.96Zm-17.04-16.8c2.25,7.4,9.18,12.62,17.04,12.62,9.81,0,17.79-7.98,17.79-17.79,0-3.79-1.2-7.44-3.41-10.45l-8.39,4.16c-.06,.03-.12,.06-.18,.08l-22.86,11.37Z"/>
          <path class="cls-2" d="M581.08,432.01c-12.12,0-21.98-9.86-21.98-21.98,0-.86,.09-1.74,.18-2.63,.11-1.07,1.01-1.88,2.08-1.88h39.42c1.07,0,1.97,.81,2.08,1.87,.09,.89,.18,1.77,.18,2.63,0,12.12-9.84,21.98-21.94,21.98Zm-17.81-22.32c0,.11,0,.22,0,.33,0,9.82,7.99,17.81,17.81,17.81s17.77-7.99,17.77-17.81c0-.11,0-.22,0-.33h-35.57Z"/>
          <path class="cls-2" d="M639.9,409.69h-82.24c-4.82,0-8.74-3.91-8.74-8.72,0-.28,0-.53,.03-.81,.73-8.49,3.45-20.57,12.29-29.77,.39-.41,.93-.64,1.5-.64h8.76c4.09,0,7.42-3.32,7.42-7.4v-.5c0-.95,.64-1.78,1.56-2.02,3.12-.81,6.43-1.39,10.13-1.75,2.57-.2,5.08,.65,6.94,2.35,1.87,1.7,2.91,4.03,2.94,6.55l.13,15.19c.03,3.21,2.67,5.82,5.88,5.82h16.08c3.26,0,5.9-2.64,5.9-5.88v-48.98c0-3.01,2.45-5.47,5.47-5.47h18.42c2.83,0,5.57,1.16,7.51,3.19,2.16,2.1,3.3,5.11,3.08,8.2-.41,5.54-5.26,9.88-11.05,9.88h-5.74c-.75,0-1.29,.54-1.29,1.29,0,.3,.08,.55,.24,.76l8.75,11.36c4.33,5.61,7.34,12.28,8.7,19.3l.37,1.94c.12,.64-.05,1.29-.48,1.78l-.65,.73c-.29,.32-.67,.55-1.09,.65-10.06,2.37-17.6,10.85-18.76,21.1-.12,1.06-1.01,1.85-2.07,1.85Zm-76.25-35.77c-7.52,8.25-9.9,18.98-10.55,26.62-.02,.16-.01,.29-.01,.43,0,2.51,2.05,4.55,4.57,4.55h80.44c1.94-10.76,9.92-19.56,20.49-22.54l-.11-.55c-1.23-6.37-3.97-12.44-7.9-17.54l-8.74-11.35c-.73-.93-1.12-2.08-1.12-3.32,0-3.06,2.4-5.47,5.47-5.47h5.74c3.62,0,6.64-2.64,6.89-6.01,.13-1.86-.55-3.67-1.88-4.97-1.21-1.26-2.85-1.95-4.55-1.95h-18.42c-.71,0-1.29,.58-1.29,1.29v48.98c0,5.54-4.52,10.05-10.07,10.05h-16.08c-5.49,0-10-4.46-10.05-9.95l-.13-15.19c-.01-1.35-.57-2.59-1.58-3.51-1.02-.93-2.36-1.39-3.76-1.27-2.85,.28-5.48,.69-7.95,1.26-.58,5.85-5.53,10.43-11.54,10.43h-7.86Z"/>
          <path class="cls-2" d="M571.5,373.92h-25.17c-6.4,0-11.6-5.19-11.6-11.58v-25.15c0-6.4,5.2-11.6,11.6-11.6h25.17c6.4,0,11.6,5.21,11.6,11.6v25.15c0,6.38-5.21,11.58-11.6,11.58Zm-25.17-44.16c-4.1,0-7.43,3.33-7.43,7.43v25.15c0,4.08,3.33,7.4,7.43,7.4h25.17c4.1,0,7.43-3.32,7.43-7.4v-25.15c0-4.1-3.33-7.43-7.43-7.43h-25.17Z"/>
        </g>
      </g>
    </g>
  </g>
</svg>