<?xml version="1.0" encoding="UTF-8"?>
<svg id="Capa_2" data-name="Capa 2" xmlns="http://www.w3.org/2000/svg" viewBox="0 0 830 450.95">
  <defs>
    <style>
      .cls-1 {
        fill: #fbc009;
      }

      .cls-2 {
        fill: #f7f2ea;
      }

      .cls-3 {
        fill: #ed2f42;
      }
    </style>
  </defs>
  <g id="Capa_1-2" data-name="Capa 1">
    <g>
      <g>
        <path class="cls-1" d="M0,0V417.63c0,4.53,.86,9.05,2.78,13.16,1.43,3.07,3.36,5.97,5.8,8.58l.93,.99c10.69,11.39,27.94,13.7,41.25,5.51l1.71-1.05c10.51-6.46,23.76-6.5,34.32-.1l2.4,1.46c6.39,3.87,13.66,5.34,20.68,4.57,5.93,0,11.92-1.59,17.27-4.88l1.71-1.05c10.51-6.46,23.76-6.5,34.31-.1l2.41,1.46c6.42,3.89,13.73,5.35,20.78,4.56,6.17,.14,12.42-1.44,17.98-4.87l1.71-1.05c10.52-6.46,23.77-6.5,34.32-.1l2.4,1.46c6.39,3.87,13.66,5.34,20.68,4.57,5.94,0,11.92-1.59,17.27-4.88l1.71-1.05c10.51-6.46,23.76-6.5,34.32-.1l2.4,1.46c6.42,3.89,13.73,5.35,20.78,4.56,6.17,.14,12.42-1.44,17.99-4.87l1.7-1.05c10.52-6.46,23.77-6.5,34.32-.1l2.41,1.46c6.38,3.87,13.66,5.34,20.67,4.57,5.94,0,11.93-1.59,17.27-4.88l1.71-1.05c10.52-6.46,23.77-6.5,34.32-.1l2.41,1.46c6.41,3.89,13.73,5.35,20.77,4.56,6.18,.14,12.43-1.44,17.99-4.87l1.71-1.05c10.51-6.46,23.76-6.5,34.32-.1l2.4,1.46c6.39,3.87,13.66,5.34,20.67,4.57,5.94,0,11.93-1.59,17.28-4.88l1.71-1.05c10.51-6.46,23.76-6.5,34.31-.1l2.41,1.46c6.42,3.89,13.73,5.35,20.78,4.56,6.17,.14,12.42-1.44,17.98-4.87l1.71-1.05c10.52-6.46,23.76-6.5,34.32-.1l2.4,1.46c6.39,3.87,13.66,5.34,20.68,4.57,5.94,0,11.92-1.59,17.27-4.88l1.71-1.05c10.51-6.46,23.76-6.5,34.32-.1l2.4,1.46c13.24,8.03,30.3,5.75,40.95-5.48l.39-.41c.29-.3,.57-.61,.84-.92,5.25-5.97,7.96-13.76,7.96-21.71V0H0Z"/>
        <path class="cls-2" d="M599.74,226.32c5.61,3.4,12.01,4.68,18.17,3.98,5.4,.12,10.86-1.26,15.73-4.25l1.49-.92c9.19-5.65,20.78-5.69,30.01-.09l2.1,1.28c5.58,3.39,11.94,4.67,18.08,3.99,5.19,0,10.43-1.38,15.1-4.26l1.49-.92c9.19-5.65,20.78-5.69,30-.09l2.1,1.28c11.57,7.02,26.49,5.02,35.8-4.79l.34-.36c.25-.26,.49-.53,.73-.8,4.59-5.22,6.96-12.03,6.96-18.98V75.58c0-6.95-2.37-13.76-6.96-18.98-.24-.27-.48-.54-.73-.8l-.34-.36c-9.31-9.81-24.23-11.81-35.8-4.79l-2.1,1.28c-9.23,5.6-20.81,5.56-30-.09l-1.49-.92c-4.68-2.88-9.91-4.27-15.1-4.26-6.13-.67-12.49,.61-18.08,3.99l-2.1,1.28c-9.23,5.6-20.81,5.56-30.01-.09l-1.49-.92c-4.86-2.99-10.33-4.37-15.73-4.25-6.16-.7-12.56,.58-18.17,3.98l-2.1,1.28c-9.23,5.6-20.81,5.56-30-.09l-1.49-.92c-4.68-2.88-9.91-4.27-15.1-4.26-6.13-.67-12.49,.61-18.08,3.99l-2.1,1.28c-9.23,5.6-20.81,5.56-30.01-.09l-1.49-.92c-4.86-2.99-10.33-4.37-15.73-4.25-6.16-.7-12.56,.58-18.17,3.98l-2.1,1.28c-9.23,5.6-20.81,5.56-30-.09l-1.49-.92c-4.68-2.88-9.91-4.27-15.1-4.26-6.13-.67-12.49,.61-18.08,3.99l-2.1,1.28c-9.23,5.6-20.81,5.56-30.01-.09l-1.49-.92c-4.86-2.99-10.33-4.37-15.73-4.25-6.16-.7-12.56,.58-18.17,3.98l-2.1,1.28c-9.23,5.6-20.81,5.56-30-.09l-1.49-.92c-4.68-2.88-9.91-4.27-15.1-4.26-6.13-.67-12.49,.61-18.08,3.99l-2.1,1.28c-9.23,5.6-20.81,5.56-30.01-.09l-1.49-.92c-4.86-2.99-10.33-4.37-15.73-4.25-6.16-.7-12.56,.58-18.17,3.98l-2.1,1.28c-9.23,5.6-20.81,5.56-30-.09l-1.49-.92c-4.68-2.88-9.91-4.27-15.1-4.26-6.13-.67-12.49,.61-18.08,3.99l-2.1,1.28c-9.23,5.6-20.81,5.56-30.01-.09l-1.49-.92c-11.64-7.16-26.72-5.14-36.06,4.82l-.81,.87c-2.13,2.28-3.83,4.81-5.08,7.5-1.67,3.59-2.43,7.54-2.43,11.51v125.75c0,3.96,.76,7.91,2.43,11.51,1.25,2.69,2.94,5.22,5.08,7.5l.81,.87c9.34,9.96,24.42,11.98,36.06,4.82l1.49-.92c9.19-5.65,20.78-5.69,30.01-.09l2.1,1.28c5.58,3.39,11.94,4.67,18.08,3.99,5.19,0,10.43-1.38,15.1-4.26l1.49-.92c9.19-5.65,20.78-5.69,30-.09l2.1,1.28c5.61,3.4,12,4.68,18.17,3.98,5.4,.12,10.86-1.26,15.73-4.25l1.49-.92c9.19-5.65,20.78-5.69,30.01-.09l2.1,1.28c5.58,3.39,11.94,4.67,18.08,3.99,5.19,0,10.43-1.38,15.1-4.26l1.49-.92c9.19-5.65,20.78-5.69,30-.09l2.1,1.28c5.61,3.4,12.01,4.68,18.17,3.98,5.4,.12,10.86-1.26,15.73-4.25l1.49-.92c9.19-5.65,20.78-5.69,30.01-.09l2.1,1.28c5.58,3.39,11.94,4.67,18.08,3.99,5.19,0,10.43-1.38,15.1-4.26l1.49-.92c9.19-5.65,20.78-5.69,30-.09l2.1,1.28c5.61,3.4,12.01,4.68,18.17,3.98,5.4,.12,10.86-1.26,15.73-4.25l1.49-.92c9.19-5.65,20.78-5.69,30.01-.09l2.1,1.28c5.58,3.39,11.94,4.67,18.08,3.99,5.19,0,10.43-1.38,15.1-4.26l1.49-.92c9.19-5.65,20.78-5.69,30-.09l2.1,1.28Z"/>
      </g>
      <path class="cls-3" d="M472.95,111.95c-4.38,0-7.75,3.37-7.75,8.09,0,3.71,2.36,5.73,6.07,5.73,4.38,0,7.75-3.37,7.75-8.09,0-3.37-2.02-5.73-6.07-5.73Zm-13.82,2.02c0-.34-.34-.34-.67-.34h-9.78c-.34,0-.67,.34-1.01,.67,0,0-3.71,18.88-4.05,19.89-2.36-4.38-7.42-7.08-13.15-7.08-11.8,0-20.57,9.44-20.57,22.59,0,10.79,6.41,18.21,16.18,18.21,4.72,0,8.77-2.02,11.8-5.39-.34,1.01-.34,2.02-.67,3.03,0,.34,0,.67,.34,.67,0,.34,.34,.34,.67,.34h9.78c.34,0,.67-.34,1.01-.67l10.45-51.59-.34-.34Zm-18.88,33.72c-.34,1.35-.67,2.7-1.35,3.71s-1.35,2.36-2.36,3.03c-1.01,1.01-2.02,1.69-3.03,2.02-2.02,1.01-4.72,1.01-6.74,0-1.01-.34-1.69-1.01-2.36-1.69s-1.01-1.69-1.35-2.7-.34-2.02-.34-3.37,.34-3.03,1.01-4.38,1.35-2.7,2.36-3.71,2.02-1.69,3.37-2.36,2.7-1.01,4.05-1.01,2.36,.34,3.37,.67,1.69,1.01,2.36,2.02c.67,.67,1.01,1.69,1.35,3.03,0,2.02,0,3.37-.34,4.72h0Zm34.39-16.18h-10.12c-.34,0-.67,.34-1.01,.67l-6.74,33.72q0,.34,.34,.67t.67,.34h10.12c.34,0,.67-.34,1.01-.67l6.74-33.72q0-.34-.34-.67c-.34,0-.67-.34-.67-.34Zm-147.01,32.37c1.01-4.72,3.03-14.84,3.03-14.84h11.8c13.49,0,22.25-7.42,22.25-18.88,0-10.12-7.08-16.52-18.88-16.52h-20.23c-.34,0-.67,.34-1.01,.67l-10.12,51.25c0,.34,0,.67,.34,.67,0,.34,.34,.34,.67,.34h9.1c-.34,.34,2.36,.34,3.03-2.7h0Zm15.17-25.96h-10.12c0-.34,2.7-12.81,2.7-13.49h9.44c4.38,0,7.08,2.02,7.08,5.73-.34,5.06-3.37,7.75-9.1,7.75h0Zm206.69-10.45c-13.15,0-22.93,9.44-22.93,22.59,0,11.13,7.75,18.21,19.56,18.21,13.15,0,22.93-9.44,22.93-22.59-.34-11.13-7.75-18.21-19.56-18.21Zm-2.7,29.33c-5.06,0-8.09-2.7-8.09-7.42,0-6.07,4.05-10.12,9.78-10.12,5.06,0,8.09,2.7,8.09,7.42,0,5.73-4.05,10.12-9.78,10.12Zm-18.88-42.82c0-.34-.34-.34-.67-.34h-9.78c-.34,0-.67,.34-1.01,.67,0,0-3.71,18.88-4.05,19.89-2.36-4.38-7.42-7.08-13.15-7.08-11.8,0-20.57,9.44-20.57,22.59,0,10.79,6.41,18.21,16.18,18.21,4.72,0,8.77-2.02,11.8-5.39-.34,1.01-.34,2.02-.67,3.03,0,.34,0,.67,.34,.67,0,.34,.34,.34,.67,.34h9.78c.34,0,.67-.34,1.01-.67l10.45-51.59s-.34,0-.34-.34h0Zm-18.54,33.72c-.34,1.35-.67,2.7-1.35,3.71s-1.35,2.36-2.36,3.03c-1.01,1.01-2.02,1.69-3.03,2.02-2.02,1.01-4.72,1.01-6.74,0-1.01-.34-1.69-1.01-2.36-1.69s-1.01-1.69-1.35-2.7-.34-2.02-.34-3.37,.34-3.03,1.01-4.38,1.35-2.7,2.36-3.71,2.02-1.69,3.37-2.36,2.7-1.01,4.05-1.01,2.36,.34,3.37,.67,1.69,1.01,2.36,2.02c.67,.67,1.01,1.69,1.35,3.03-.34,2.02-.34,3.37-.34,4.72h0Zm91.71-17.2c-5.06-2.36-10.45-3.37-15.17-3.03-8.43,.67-13.15,5.73-12.48,13.15,.34,4.38,3.03,7.75,7.75,10.45l5.39,2.7c2.02,1.01,2.36,1.69,2.36,2.36,0,1.69-1.69,2.02-2.7,2.02-3.37,.34-7.42-1.01-11.8-3.71h-.67c-.34,0-.34,.34-.67,.34l-4.38,7.42c-.34,.34,0,1.01,.34,1.01,5.39,3.71,11.46,5.39,17.53,4.72,9.44-.67,14.16-5.73,13.49-13.49-.34-4.72-2.7-7.75-7.75-10.45l-4.72-2.36c-2.7-1.69-3.03-2.02-3.03-2.7,0-.34,0-1.69,2.7-2.02,2.7-.34,6.07,.67,9.44,2.36h.67c.34,0,.34-.34,.34-.34l3.37-7.75c.67,0,.34-.67,0-.67Zm52.94-15.17c0-.34-.34-.67-.67-.67h-13.82c-.34,0-.67,0-.67,.34,0,0-13.82,19.56-14.84,21.24-.34-1.69-7.08-20.9-7.08-20.9,0-.34-.34-.67-1.01-.67h-12.14c-.34,0-.67,0-.67,.34-.34,.34-.34,.67,0,1.01l12.81,32.37-3.71,18.88c0,.34,0,.67,.34,.67q.34,.34,.67,.34h9.78c1.35,0,2.36-1.01,2.7-2.02l3.37-17.53,25.29-32.71c-.34,0-.34-.34-.34-.67h0Zm29.33,14.5c0-.34-.34-.34-.67-.34h-9.44c-.34,0-.67,.34-.67,.67,0,0-.34,1.69-.67,3.03-2.02-2.7-5.39-4.05-8.77-4.38-3.03-.34-6.07,.34-8.77,1.35-9.44,3.71-15.51,12.81-15.51,22.93,0,8.77,5.73,14.84,14.5,15.17,4.72,.34,8.77-1.35,12.48-4.38-.34,1.01-.34,2.02-.67,3.03q0,.34,.34,.67c0,.34,.34,.34,.67,.34h9.44c.34,0,.67-.34,.67-.67l7.42-36.75c-.34,0-.34-.34-.34-.67h0Zm-14.84,18.88c-.34,1.35-.67,2.7-1.35,3.71s-1.35,2.02-2.36,3.03l-3.03,2.02c-2.02,1.01-4.72,1.01-6.41,0-1.01-.34-1.69-1.01-2.36-1.69s-1.01-1.35-1.35-2.36-.34-2.02-.34-3.37,.34-2.7,1.01-4.05,1.35-2.36,2.36-3.37,2.02-1.69,3.03-2.36c1.35-.67,2.36-.67,3.71-.67,1.01,0,2.36,.34,3.03,.67,1.01,.34,1.69,1.01,2.36,1.69s1.01,1.69,1.35,3.03c.67,1.01,.67,2.36,.34,3.71h0Zm-280.53-21.24c-13.15,0-22.59,9.44-22.59,22.59,0,11.13,7.75,18.21,19.89,18.21,5.39,0,10.12-1.35,14.84-4.72,.34-.34,.34-1.01,0-1.35l-6.07-6.07c-.34-.34-.67-.34-1.01,0-2.7,1.35-5.06,2.02-7.75,2.02-5.73,0-8.77-2.7-8.77-7.08h27.31c.34,0,.67-.34,1.01-.67,.67-2.7,1.01-4.72,1.01-7.08-.34-9.78-7.08-15.85-17.87-15.85h0Zm-10.12,15.17c1.69-4.38,5.06-6.41,9.78-6.41,5.06,0,7.42,2.36,7.42,6.74-.67-.34-16.52-.34-17.2-.34Zm-131.5-61.7h-78.56c-1.35,0-2.02,.67-2.02,2.02v11.13c0,12.48,8.77,19.22,24.61,19.22h56.31c6.07,0,10.79,4.72,10.79,10.79s-4.72,10.79-10.79,10.79h-63.39c-1.01,0-1.69,.67-2.02,1.35l-14.5,59.01c0,.67,0,1.35,.34,1.69s1.01,.67,1.69,.67h19.89c7.42,0,11.13-6.07,11.8-9.44l5.73-21.24h40.12c23.6,0,43.16-19.22,43.16-43.16s-19.22-42.82-43.16-42.82h0Z"/>
    </g>
  </g>
</svg>