<?xml version="1.0" encoding="UTF-8"?>
<svg id="Capa_2" data-name="Capa 2" xmlns="http://www.w3.org/2000/svg" viewBox="0 0 830 2589.57">
  <defs>
    <style>
      .cls-1 {
        fill: #fbc009;
      }

      .cls-2 {
        fill: #f7f2ea;
      }

      .cls-3 {
        fill: #55111b;
      }
    </style>
  </defs>
  <g id="Capa_1-2" data-name="Capa 1">
    <path class="cls-1" d="M830,33.29V2556.27c0,7.95-2.71,15.74-7.96,21.71-.27,.31-.55,.62-.84,.92l-.39,.41c-10.65,11.23-27.71,13.51-40.95,5.48l-2.4-1.46c-10.56-6.4-23.81-6.36-34.32,.1l-1.71,1.05c-5.35,3.29-11.33,4.88-17.27,4.88-7.02,.77-14.29-.7-20.68-4.57l-2.4-1.46c-10.56-6.4-23.8-6.36-34.32,.1l-1.71,1.05c-5.56,3.43-11.81,5.01-17.98,4.87-7.05,.79-14.36-.67-20.78-4.56l-2.41-1.46c-10.55-6.4-23.8-6.36-34.31,.1l-1.71,1.05c-5.35,3.29-11.34,4.88-17.28,4.88-7.01,.77-14.28-.7-20.67-4.57l-2.4-1.46c-10.56-6.4-23.81-6.36-34.32,.1l-1.71,1.05c-5.56,3.43-11.81,5.01-17.99,4.87-7.04,.79-14.36-.67-20.77-4.56l-2.41-1.46c-10.55-6.4-23.8-6.36-34.32,.1l-1.71,1.05c-5.34,3.29-11.33,4.88-17.27,4.88-7.01,.77-14.29-.7-20.67-4.57l-2.41-1.46c-10.55-6.4-23.8-6.36-34.32,.1l-1.7,1.05c-5.57,3.43-11.82,5.01-17.99,4.87-7.05,.79-14.36-.67-20.78-4.56l-2.4-1.46c-10.56-6.4-23.81-6.36-34.32,.1l-1.71,1.05c-5.35,3.29-11.33,4.88-17.27,4.88-7.02,.77-14.29-.7-20.68-4.57l-2.4-1.46c-10.55-6.4-23.8-6.36-34.32,.1l-1.71,1.05c-5.56,3.43-11.81,5.01-17.98,4.87-7.05,.79-14.36-.67-20.78-4.56l-2.41-1.46c-10.55-6.4-23.8-6.36-34.31,.1l-1.71,1.05c-5.35,3.29-11.34,4.88-17.27,4.88-7.02,.77-14.29-.7-20.68-4.57l-2.4-1.46c-10.56-6.4-23.81-6.36-34.32,.1l-1.71,1.05c-13.31,8.19-30.56,5.88-41.25-5.51l-.93-.99c-2.44-2.61-4.37-5.51-5.8-8.58-1.92-4.11-2.78-8.63-2.78-13.16V33.32c0-4.53,.86-9.05,2.78-13.16,1.43-3.07,3.36-5.97,5.8-8.58l.93-.99C20.2-.8,37.45-3.11,50.76,5.08l1.71,1.05c10.51,6.46,23.76,6.5,34.32,.1l2.4-1.46C95.58,.9,102.85-.57,109.87,.2c5.93,0,11.92,1.59,17.27,4.88l1.71,1.05c10.51,6.46,23.76,6.5,34.31,.1l2.41-1.46c6.42-3.89,13.73-5.35,20.78-4.56,6.17-.14,12.42,1.45,17.98,4.87l1.71,1.05c10.52,6.46,23.77,6.5,34.32,.1l2.4-1.46c6.39-3.87,13.66-5.34,20.68-4.57,5.94,0,11.92,1.59,17.27,4.88l1.71,1.05c10.51,6.46,23.76,6.5,34.32,.1l2.4-1.46c6.42-3.89,13.73-5.35,20.78-4.56,6.17-.14,12.42,1.45,17.99,4.87l1.7,1.05c10.52,6.46,23.77,6.5,34.32,.1l2.41-1.46c6.38-3.87,13.66-5.34,20.67-4.57,5.94,0,11.93,1.59,17.27,4.88l1.71,1.05c10.52,6.46,23.77,6.5,34.32,.1l2.41-1.46c6.41-3.89,13.73-5.35,20.77-4.56,6.18-.14,12.43,1.45,17.99,4.87l1.71,1.05c10.51,6.46,23.76,6.5,34.32,.1l2.4-1.46c6.39-3.87,13.66-5.34,20.67-4.57,5.94,0,11.93,1.59,17.28,4.88l1.71,1.05c10.51,6.46,23.76,6.5,34.31,.1l2.41-1.46c6.42-3.89,13.73-5.35,20.78-4.56,6.17-.14,12.42,1.45,17.98,4.87l1.71,1.05c10.52,6.46,23.76,6.5,34.32,.1l2.4-1.46c6.39-3.87,13.66-5.34,20.68-4.57,5.94,0,11.92,1.59,17.27,4.88l1.71,1.05c10.51,6.46,23.76,6.5,34.32,.1l2.4-1.46c13.24-8.03,30.3-5.74,40.95,5.48l.39,.41c.29,.3,.57,.61,.84,.92,5.25,5.97,7.96,13.76,7.96,21.71Z"/>
    <g>
      <path class="cls-3" d="M126.59,145.88l13.58,8.93c-5.98,7.98-15.48,12.92-26.88,12.92-19.67,0-33.82-14.72-33.82-34.49s14.16-34.39,33.82-34.39c11.4,0,20.9,4.94,26.88,12.82l-13.58,8.93c-2.85-3.61-7.32-6.08-13.3-6.08-11.59,0-17.48,9.31-17.48,18.71s5.89,18.81,17.48,18.81c5.98,0,10.45-2.47,13.3-6.17Z"/>
      <path class="cls-3" d="M197.17,154.15h-25.18l-3.89,12.35h-17.1l23.94-66.5h19.19l23.94,66.5h-17.01l-3.89-12.35Zm-3.9-12.35l-8.74-27.65-8.74,27.65h17.48Z"/>
      <path class="cls-3" d="M273.36,151.2v15.3h-41.14V100h16.34v51.21h24.8Z"/>
      <path class="cls-3" d="M305.66,100v66.5h-16.25V100h16.25Z"/>
      <path class="cls-3" d="M366.36,151.2v15.3h-41.8V100h40.95v15.39h-24.7v10.26h21.66v14.54h-21.66v11.02h25.56Z"/>
      <path class="cls-3" d="M439.89,100v66.5h-14.25l-25.94-38.76v38.76h-16.34V100h14.25l25.94,38.76v-38.76h16.34Z"/>
      <path class="cls-3" d="M503.35,115.39h-15.58v51.11h-16.25v-51.11h-15.58v-15.39h47.41v15.39Z"/>
      <path class="cls-3" d="M561.21,151.2v15.3h-41.8V100h40.95v15.39h-24.7v10.26h21.66v14.54h-21.66v11.02h25.55Z"/>
      <path class="cls-3" d="M627.23,147.02c0,10.83-9.41,20.71-26.03,20.71-12.25,0-23.84-4.75-26.79-17.1l15.01-4.66c.85,3.8,4.37,7.88,11.59,7.88,5.61,0,9.79-2.18,9.79-6.55,0-4.94-6.55-5.7-14.06-7.6-13.3-3.23-19.29-9.4-19.29-20.52,0-12.73,10.54-20.33,24.42-20.33,11.4,0,21.09,6.08,23.65,16.62l-15.01,3.71c-.86-3.23-3.61-6.46-9.41-6.46-4.75,0-7.88,2.56-7.88,6.36,0,5.23,7.88,6.46,13.01,7.89,16.25,4.56,21,9.69,21,20.04Z"/>
    </g>
    <rect class="cls-2" x="45.64" y="214.21" width="546.27" height="384.99"/>
    <rect class="cls-2" x="596.91" y="214.21" width="178.77" height="384.99"/>
    <g>
      <path class="cls-3" d="M127.58,295.84v4.51h-12.32v-19.6h12.07v4.54h-7.28v3.02h6.38v4.28h-6.38v3.25h7.53Z"/>
      <path class="cls-3" d="M146.23,294.61c0,3.19-2.77,6.1-7.67,6.1-3.61,0-7.03-1.4-7.9-5.04l4.42-1.37c.25,1.12,1.29,2.32,3.42,2.32,1.65,0,2.88-.64,2.88-1.93,0-1.46-1.93-1.68-4.14-2.24-3.92-.95-5.68-2.77-5.68-6.05,0-3.75,3.11-5.99,7.2-5.99,3.36,0,6.22,1.79,6.97,4.9l-4.42,1.09c-.25-.95-1.06-1.9-2.77-1.9-1.4,0-2.32,.76-2.32,1.88,0,1.54,2.32,1.9,3.84,2.32,4.79,1.34,6.19,2.86,6.19,5.91Z"/>
      <path class="cls-3" d="M164.96,287.78c0,4.62-3.53,6.78-7.78,6.78h-2.52v5.8h-4.79v-19.6h7.31c4.87,0,7.78,2.8,7.78,7.03Zm-4.87,0c0-1.51-1.06-2.49-2.91-2.49h-2.52v4.98h2.52c1.74,0,2.91-.78,2.91-2.49Z"/>
      <path class="cls-3" d="M180,300.35l-3.3-6.55h-3.02v6.55h-4.79v-19.6h7.53c4.98,0,7.53,2.86,7.53,6.78,0,2.35-1.15,4.12-3.02,5.18l4.17,7.64h-5.1Zm-6.33-10.58h2.74c1.4,0,2.69-.56,2.69-2.24,0-1.46-1.09-2.24-2.69-2.24h-2.74v4.48Z"/>
      <path class="cls-3" d="M200.77,295.84v4.51h-12.32v-19.6h12.07v4.54h-7.28v3.02h6.38v4.28h-6.38v3.25h7.53Z"/>
      <path class="cls-3" d="M219.42,294.61c0,3.19-2.77,6.1-7.67,6.1-3.61,0-7.03-1.4-7.9-5.04l4.42-1.37c.25,1.12,1.29,2.32,3.42,2.32,1.65,0,2.88-.64,2.88-1.93,0-1.46-1.93-1.68-4.14-2.24-3.92-.95-5.68-2.77-5.68-6.05,0-3.75,3.11-5.99,7.2-5.99,3.36,0,6.22,1.79,6.97,4.9l-4.42,1.09c-.25-.95-1.06-1.9-2.77-1.9-1.4,0-2.32,.76-2.32,1.88,0,1.54,2.32,1.9,3.84,2.32,4.79,1.34,6.19,2.86,6.19,5.91Z"/>
      <path class="cls-3" d="M237.51,294.61c0,3.19-2.77,6.1-7.67,6.1-3.61,0-7.03-1.4-7.9-5.04l4.42-1.37c.25,1.12,1.29,2.32,3.42,2.32,1.65,0,2.88-.64,2.88-1.93,0-1.46-1.93-1.68-4.14-2.24-3.92-.95-5.68-2.77-5.68-6.05,0-3.75,3.11-5.99,7.2-5.99,3.36,0,6.22,1.79,6.97,4.9l-4.42,1.09c-.25-.95-1.06-1.9-2.77-1.9-1.4,0-2.32,.76-2.32,1.88,0,1.54,2.32,1.9,3.84,2.32,4.79,1.34,6.19,2.86,6.19,5.91Z"/>
      <path class="cls-3" d="M260.39,290.55c0,5.82-4.17,10.16-9.97,10.16s-9.97-4.34-9.97-10.16,4.17-10.14,9.97-10.14,9.97,4.34,9.97,10.14Zm-4.82,0c0-2.77-1.74-5.52-5.15-5.52s-5.15,2.74-5.15,5.52,1.74,5.54,5.15,5.54,5.15-2.77,5.15-5.54Z"/>
      <path class="cls-3" d="M127.39,342.84v4.51h-12.12v-19.6h4.82v15.09h7.31Z"/>
      <path class="cls-3" d="M147.41,327.75v11.98c0,5.38-3.05,7.98-8.18,7.98s-8.2-2.6-8.2-7.98v-11.98h4.82v11.51c0,2.6,1.23,3.84,3.39,3.84s3.39-1.23,3.39-3.84v-11.51h4.79Z"/>
      <path class="cls-3" d="M168.83,327.75v19.6h-4.2l-7.64-11.42v11.42h-4.82v-19.6h4.2l7.64,11.42v-11.42h4.82Z"/>
      <path class="cls-3" d="M192.09,336.01v11.34h-2.3l-.64-2.44c-1.4,1.76-3.47,2.8-6.3,2.8-5.82,0-9.97-4.34-9.97-10.16s4.14-10.14,9.97-10.14c3.33,0,6.13,1.43,7.9,3.78l-3.98,2.63c-.87-1.09-2.18-1.82-3.92-1.82-3.42,0-5.18,2.77-5.18,5.54s1.76,5.54,5.18,5.54c2.66,0,4.17-1.43,4.79-3.28h-4.79v-3.81h9.24Z"/>
      <path class="cls-3" d="M215.81,337.55c0,5.82-4.17,10.16-9.97,10.16s-9.97-4.34-9.97-10.16,4.17-10.14,9.97-10.14,9.97,4.34,9.97,10.14Zm-4.82,0c0-2.77-1.74-5.52-5.15-5.52s-5.15,2.74-5.15,5.52,1.74,5.54,5.15,5.54,5.15-2.77,5.15-5.54Z"/>
      <path class="cls-3" d="M128.45,388.27l4,2.63c-1.76,2.35-4.56,3.81-7.92,3.81-5.8,0-9.97-4.34-9.97-10.16s4.17-10.14,9.97-10.14c3.36,0,6.16,1.46,7.92,3.78l-4,2.63c-.84-1.06-2.16-1.79-3.92-1.79-3.42,0-5.15,2.74-5.15,5.52s1.74,5.54,5.15,5.54c1.76,0,3.08-.73,3.92-1.82Z"/>
      <path class="cls-3" d="M154.63,384.55c0,5.82-4.17,10.16-9.97,10.16s-9.97-4.34-9.97-10.16,4.17-10.14,9.97-10.14,9.97,4.34,9.97,10.14Zm-4.82,0c0-2.77-1.74-5.52-5.15-5.52s-5.15,2.74-5.15,5.52,1.74,5.54,5.15,5.54,5.15-2.77,5.15-5.54Z"/>
      <path class="cls-3" d="M169.81,394.35l-3.3-6.55h-3.02v6.55h-4.79v-19.6h7.53c4.98,0,7.53,2.86,7.53,6.78,0,2.35-1.15,4.12-3.02,5.18l4.17,7.64h-5.1Zm-6.33-10.58h2.74c1.4,0,2.69-.56,2.69-2.24,0-1.46-1.09-2.24-2.69-2.24h-2.74v4.48Z"/>
      <path class="cls-3" d="M191.11,379.29h-4.59v15.06h-4.79v-15.06h-4.59v-4.54h13.97v4.54Z"/>
      <path class="cls-3" d="M205.84,390.71h-7.42l-1.15,3.64h-5.04l7.06-19.6h5.66l7.06,19.6h-5.01l-1.15-3.64Zm-1.15-3.64l-2.58-8.15-2.58,8.15h5.15Z"/>
      <path class="cls-3" d="M232.64,384.55c0,5.99-3.86,9.8-10.42,9.8h-6.86v-19.6h6.86c6.55,0,10.42,3.84,10.42,9.8Zm-4.79,0c0-3.47-2.41-5.26-5.63-5.26h-2.04v10.56h2.04c3.22,0,5.63-1.82,5.63-5.29Z"/>
      <path class="cls-3" d="M255.93,384.55c0,5.82-4.17,10.16-9.97,10.16s-9.97-4.34-9.97-10.16,4.17-10.14,9.97-10.14,9.97,4.34,9.97,10.14Zm-4.82,0c0-2.77-1.74-5.52-5.15-5.52s-5.15,2.74-5.15,5.52,1.74,5.54,5.15,5.54,5.15-2.77,5.15-5.54Z"/>
      <path class="cls-3" d="M128.45,435.27l4,2.63c-1.76,2.35-4.56,3.81-7.92,3.81-5.8,0-9.97-4.34-9.97-10.16s4.17-10.14,9.97-10.14c3.36,0,6.16,1.46,7.92,3.78l-4,2.63c-.84-1.06-2.16-1.79-3.92-1.79-3.42,0-5.15,2.74-5.15,5.52s1.74,5.54,5.15,5.54c1.76,0,3.08-.73,3.92-1.82Z"/>
      <path class="cls-3" d="M148.44,437.71h-7.42l-1.15,3.64h-5.04l7.06-19.6h5.66l7.06,19.6h-5.01l-1.15-3.64Zm-1.15-3.64l-2.58-8.15-2.58,8.15h5.15Z"/>
      <path class="cls-3" d="M173.05,428.78c0,4.62-3.53,6.78-7.78,6.78h-2.52v5.8h-4.79v-19.6h7.31c4.87,0,7.78,2.8,7.78,7.03Zm-4.87,0c0-1.51-1.06-2.49-2.91-2.49h-2.52v4.98h2.52c1.74,0,2.91-.78,2.91-2.49Z"/>
      <path class="cls-3" d="M192.07,428.78c0,4.62-3.53,6.78-7.78,6.78h-2.52v5.8h-4.79v-19.6h7.31c4.87,0,7.78,2.8,7.78,7.03Zm-4.87,0c0-1.51-1.06-2.49-2.91-2.49h-2.52v4.98h2.52c1.74,0,2.91-.78,2.91-2.49Z"/>
      <path class="cls-3" d="M212.37,421.75v11.98c0,5.38-3.05,7.98-8.18,7.98s-8.2-2.6-8.2-7.98v-11.98h4.82v11.51c0,2.6,1.23,3.84,3.39,3.84s3.39-1.23,3.39-3.84v-11.51h4.79Z"/>
      <path class="cls-3" d="M230.31,435.27l4,2.63c-1.76,2.35-4.56,3.81-7.92,3.81-5.8,0-9.97-4.34-9.97-10.16s4.17-10.14,9.97-10.14c3.36,0,6.16,1.46,7.92,3.78l-4,2.63c-.84-1.06-2.16-1.79-3.92-1.79-3.42,0-5.15,2.74-5.15,5.52s1.74,5.54,5.15,5.54c1.76,0,3.08-.73,3.92-1.82Z"/>
      <path class="cls-3" d="M250.45,435.27l4,2.63c-1.76,2.35-4.56,3.81-7.92,3.81-5.8,0-9.97-4.34-9.97-10.16s4.17-10.14,9.97-10.14c3.36,0,6.16,1.46,7.92,3.78l-4,2.63c-.84-1.06-2.16-1.79-3.92-1.79-3.42,0-5.15,2.74-5.15,5.52s1.74,5.54,5.15,5.54c1.76,0,3.08-.73,3.92-1.82Z"/>
      <path class="cls-3" d="M262.74,421.75v19.6h-4.79v-19.6h4.79Z"/>
      <path class="cls-3" d="M284.16,421.75v19.6h-4.2l-7.64-11.42v11.42h-4.82v-19.6h4.2l7.64,11.42v-11.42h4.82Z"/>
      <path class="cls-3" d="M308.15,431.55c0,5.82-4.17,10.16-9.97,10.16s-9.97-4.34-9.97-10.16,4.17-10.14,9.97-10.14,9.97,4.34,9.97,10.14Zm-4.82,0c0-2.77-1.74-5.52-5.15-5.52s-5.15,2.74-5.15,5.52,1.74,5.54,5.15,5.54,5.15-2.77,5.15-5.54Z"/>
      <path class="cls-3" d="M127.39,483.84v4.51h-12.12v-19.6h4.82v15.09h7.31Z"/>
      <path class="cls-3" d="M143.51,484.71h-7.42l-1.15,3.64h-5.04l7.06-19.6h5.66l7.06,19.6h-5.01l-1.15-3.64Zm-1.15-3.64l-2.58-8.15-2.58,8.15h5.15Z"/>
      <path class="cls-3" d="M164.77,473.29h-4.59v15.06h-4.79v-15.06h-4.59v-4.54h13.97v4.54Z"/>
      <path class="cls-3" d="M181.54,473.29h-4.59v15.06h-4.79v-15.06h-4.59v-4.54h13.97v4.54Z"/>
      <path class="cls-3" d="M197.78,483.84v4.51h-12.32v-19.6h12.07v4.54h-7.28v3.02h6.38v4.28h-6.38v3.25h7.53Z"/>
      <path class="cls-3" d="M128.39,520.29h-4.59v15.06h-4.79v-15.06h-4.59v-4.54h13.97v4.54Z"/>
      <path class="cls-3" d="M144.63,530.84v4.51h-12.32v-19.6h12.07v4.54h-7.28v3.02h6.38v4.28h-6.38v3.25h7.53Z"/>
    </g>
    <g>
      <path class="cls-3" d="M647.28,300.73v3.47h-2.78v-3.47c-3.92-.38-7.26-2.22-8.3-5.83l4.55-1.42c.35,1.39,1.81,3.2,5.21,3.2,2.43,0,4.38-.94,4.38-3.02,0-2.43-2.78-2.61-6.6-3.54-4.9-1.21-6.53-3.68-6.53-7.05,0-4.2,2.92-6.95,7.29-7.36v-3.47h2.78v3.51c3.33,.42,5.9,2.4,6.81,5.63l-4.58,1.11c-.28-1.29-1.53-2.71-3.96-2.71-2.01,0-3.68,1.04-3.68,2.99,0,2.74,3.09,3.13,5.35,3.65,5.76,1.32,7.85,2.99,7.85,6.91,0,3.51-2.33,6.95-7.78,7.43Z"/>
      <path class="cls-3" d="M669.54,276.04v24.31h-4.72v-18.82l-4.27,2.88-2.01-3.3,7.5-5.07h3.51Z"/>
      <path class="cls-3" d="M691.24,295.97v4.38h-15.49v-3.44c2.29-2.54,3.61-4.06,5.87-6.63,2.12-2.47,4.55-5.11,4.55-7.22,0-1.74-1.04-3.16-2.99-3.16-2.15,0-3.06,1.56-3.33,2.99l-4.41-1.01c.87-4.03,4.03-6.25,8.13-6.25,4.48,0,7.33,3.44,7.33,7.26,0,3.4-2.99,6.7-8.61,13.09h8.96Z"/>
      <path class="cls-3" d="M715.14,288.2c0,6.46-2.64,12.61-9.79,12.61s-9.76-6.15-9.76-12.61,2.64-12.57,9.76-12.57,9.79,6.15,9.79,12.57Zm-4.69,0c0-3.92-1.15-8.09-5.11-8.09s-5.07,4.17-5.07,8.09,1.15,8.13,5.07,8.13,5.11-4.17,5.11-8.13Z"/>
      <path class="cls-3" d="M739.21,288.2c0,6.46-2.64,12.61-9.79,12.61s-9.76-6.15-9.76-12.61,2.64-12.57,9.76-12.57,9.79,6.15,9.79,12.57Zm-4.69,0c0-3.92-1.15-8.09-5.1-8.09s-5.07,4.17-5.07,8.09,1.15,8.13,5.07,8.13,5.1-4.17,5.1-8.13Z"/>
      <path class="cls-3" d="M647.28,347.73v3.47h-2.78v-3.47c-3.92-.38-7.26-2.22-8.3-5.83l4.55-1.42c.35,1.39,1.81,3.2,5.21,3.2,2.43,0,4.38-.94,4.38-3.02,0-2.43-2.78-2.61-6.6-3.54-4.9-1.21-6.53-3.68-6.53-7.05,0-4.2,2.92-6.95,7.29-7.36v-3.47h2.78v3.51c3.33,.42,5.9,2.4,6.81,5.63l-4.58,1.11c-.28-1.29-1.53-2.71-3.96-2.71-2.01,0-3.68,1.04-3.68,2.99,0,2.74,3.09,3.13,5.35,3.65,5.76,1.32,7.85,2.99,7.85,6.91,0,3.51-2.33,6.95-7.78,7.43Z"/>
      <path class="cls-3" d="M669.54,323.04v24.31h-4.72v-18.82l-4.27,2.88-2.01-3.3,7.5-5.07h3.51Z"/>
      <path class="cls-3" d="M691.24,342.97v4.38h-15.49v-3.44c2.29-2.54,3.61-4.06,5.87-6.63,2.12-2.47,4.55-5.11,4.55-7.22,0-1.74-1.04-3.16-2.99-3.16-2.15,0-3.06,1.56-3.33,2.99l-4.41-1.01c.87-4.03,4.03-6.25,8.13-6.25,4.48,0,7.33,3.44,7.33,7.26,0,3.4-2.99,6.7-8.61,13.09h8.96Z"/>
      <path class="cls-3" d="M715.14,335.2c0,6.46-2.64,12.61-9.79,12.61s-9.76-6.15-9.76-12.61,2.64-12.57,9.76-12.57,9.79,6.15,9.79,12.57Zm-4.69,0c0-3.92-1.15-8.09-5.11-8.09s-5.07,4.17-5.07,8.09,1.15,8.13,5.07,8.13,5.11-4.17,5.11-8.13Z"/>
      <path class="cls-3" d="M739.21,335.2c0,6.46-2.64,12.61-9.79,12.61s-9.76-6.15-9.76-12.61,2.64-12.57,9.76-12.57,9.79,6.15,9.79,12.57Zm-4.69,0c0-3.92-1.15-8.09-5.1-8.09s-5.07,4.17-5.07,8.09,1.15,8.13,5.07,8.13,5.1-4.17,5.1-8.13Z"/>
      <path class="cls-3" d="M647.28,394.73v3.47h-2.78v-3.47c-3.92-.38-7.26-2.22-8.3-5.83l4.55-1.42c.35,1.39,1.81,3.2,5.21,3.2,2.43,0,4.38-.94,4.38-3.02,0-2.43-2.78-2.61-6.6-3.54-4.9-1.21-6.53-3.68-6.53-7.05,0-4.2,2.92-6.95,7.29-7.36v-3.47h2.78v3.51c3.33,.42,5.9,2.4,6.81,5.63l-4.58,1.11c-.28-1.29-1.53-2.71-3.96-2.71-2.01,0-3.68,1.04-3.68,2.99,0,2.74,3.09,3.13,5.35,3.65,5.76,1.32,7.85,2.99,7.85,6.91,0,3.51-2.33,6.95-7.78,7.43Z"/>
      <path class="cls-3" d="M669.54,370.04v24.31h-4.72v-18.82l-4.27,2.88-2.01-3.3,7.5-5.07h3.51Z"/>
      <path class="cls-3" d="M691.24,389.97v4.38h-15.49v-3.44c2.29-2.54,3.61-4.06,5.87-6.63,2.12-2.47,4.55-5.11,4.55-7.22,0-1.74-1.04-3.16-2.99-3.16-2.15,0-3.06,1.56-3.33,2.99l-4.41-1.01c.87-4.03,4.03-6.25,8.13-6.25,4.48,0,7.33,3.44,7.33,7.26,0,3.4-2.99,6.7-8.61,13.09h8.96Z"/>
      <path class="cls-3" d="M715.14,382.2c0,6.46-2.64,12.61-9.79,12.61s-9.76-6.15-9.76-12.61,2.64-12.57,9.76-12.57,9.79,6.15,9.79,12.57Zm-4.69,0c0-3.92-1.15-8.09-5.11-8.09s-5.07,4.17-5.07,8.09,1.15,8.13,5.07,8.13,5.11-4.17,5.11-8.13Z"/>
      <path class="cls-3" d="M739.21,382.2c0,6.46-2.64,12.61-9.79,12.61s-9.76-6.15-9.76-12.61,2.64-12.57,9.76-12.57,9.79,6.15,9.79,12.57Zm-4.69,0c0-3.92-1.15-8.09-5.1-8.09s-5.07,4.17-5.07,8.09,1.15,8.13,5.07,8.13,5.1-4.17,5.1-8.13Z"/>
      <path class="cls-3" d="M647.28,441.73v3.47h-2.78v-3.47c-3.92-.38-7.26-2.22-8.3-5.83l4.55-1.42c.35,1.39,1.81,3.2,5.21,3.2,2.43,0,4.38-.94,4.38-3.02,0-2.43-2.78-2.61-6.6-3.54-4.9-1.21-6.53-3.68-6.53-7.05,0-4.2,2.92-6.95,7.29-7.36v-3.47h2.78v3.51c3.33,.42,5.9,2.4,6.81,5.63l-4.58,1.11c-.28-1.29-1.53-2.71-3.96-2.71-2.01,0-3.68,1.04-3.68,2.99,0,2.74,3.09,3.13,5.35,3.65,5.76,1.32,7.85,2.99,7.85,6.91,0,3.51-2.33,6.95-7.78,7.43Z"/>
      <path class="cls-3" d="M669.54,417.04v24.31h-4.72v-18.82l-4.27,2.88-2.01-3.3,7.5-5.07h3.51Z"/>
      <path class="cls-3" d="M691.24,436.97v4.38h-15.49v-3.44c2.29-2.54,3.61-4.06,5.87-6.63,2.12-2.47,4.55-5.11,4.55-7.22,0-1.74-1.04-3.16-2.99-3.16-2.15,0-3.06,1.56-3.33,2.99l-4.41-1.01c.87-4.03,4.03-6.25,8.13-6.25,4.48,0,7.33,3.44,7.33,7.26,0,3.4-2.99,6.7-8.61,13.09h8.96Z"/>
      <path class="cls-3" d="M715.14,429.2c0,6.46-2.64,12.61-9.79,12.61s-9.76-6.15-9.76-12.61,2.64-12.57,9.76-12.57,9.79,6.15,9.79,12.57Zm-4.69,0c0-3.92-1.15-8.09-5.11-8.09s-5.07,4.17-5.07,8.09,1.15,8.13,5.07,8.13,5.11-4.17,5.11-8.13Z"/>
      <path class="cls-3" d="M739.21,429.2c0,6.46-2.64,12.61-9.79,12.61s-9.76-6.15-9.76-12.61,2.64-12.57,9.76-12.57,9.79,6.15,9.79,12.57Zm-4.69,0c0-3.92-1.15-8.09-5.1-8.09s-5.07,4.17-5.07,8.09,1.15,8.13,5.07,8.13,5.1-4.17,5.1-8.13Z"/>
      <path class="cls-3" d="M647.28,488.73v3.47h-2.78v-3.47c-3.92-.38-7.26-2.22-8.3-5.83l4.55-1.42c.35,1.39,1.81,3.2,5.21,3.2,2.43,0,4.38-.94,4.38-3.02,0-2.43-2.78-2.61-6.6-3.54-4.9-1.21-6.53-3.68-6.53-7.05,0-4.2,2.92-6.95,7.29-7.36v-3.47h2.78v3.51c3.33,.42,5.9,2.4,6.81,5.63l-4.58,1.11c-.28-1.29-1.53-2.71-3.96-2.71-2.01,0-3.68,1.04-3.68,2.99,0,2.74,3.09,3.13,5.35,3.65,5.76,1.32,7.85,2.99,7.85,6.91,0,3.51-2.33,6.95-7.78,7.43Z"/>
      <path class="cls-3" d="M669.54,464.04v24.31h-4.72v-18.82l-4.27,2.88-2.01-3.3,7.5-5.07h3.51Z"/>
      <path class="cls-3" d="M691.24,483.97v4.38h-15.49v-3.44c2.29-2.54,3.61-4.06,5.87-6.63,2.12-2.47,4.55-5.11,4.55-7.22,0-1.74-1.04-3.16-2.99-3.16-2.15,0-3.06,1.56-3.33,2.99l-4.41-1.01c.87-4.03,4.03-6.25,8.13-6.25,4.48,0,7.33,3.44,7.33,7.26,0,3.4-2.99,6.7-8.61,13.09h8.96Z"/>
      <path class="cls-3" d="M715.14,476.2c0,6.46-2.64,12.61-9.79,12.61s-9.76-6.15-9.76-12.61,2.64-12.57,9.76-12.57,9.79,6.15,9.79,12.57Zm-4.69,0c0-3.92-1.15-8.09-5.11-8.09s-5.07,4.17-5.07,8.09,1.15,8.13,5.07,8.13,5.11-4.17,5.11-8.13Z"/>
      <path class="cls-3" d="M739.21,476.2c0,6.46-2.64,12.61-9.79,12.61s-9.76-6.15-9.76-12.61,2.64-12.57,9.76-12.57,9.79,6.15,9.79,12.57Zm-4.69,0c0-3.92-1.15-8.09-5.1-8.09s-5.07,4.17-5.07,8.09,1.15,8.13,5.07,8.13,5.1-4.17,5.1-8.13Z"/>
      <path class="cls-3" d="M647.28,535.73v3.47h-2.78v-3.47c-3.92-.38-7.26-2.22-8.3-5.83l4.55-1.42c.35,1.39,1.81,3.2,5.21,3.2,2.43,0,4.38-.94,4.38-3.02,0-2.43-2.78-2.61-6.6-3.54-4.9-1.21-6.53-3.68-6.53-7.05,0-4.2,2.92-6.95,7.29-7.36v-3.47h2.78v3.51c3.33,.42,5.9,2.4,6.81,5.63l-4.58,1.11c-.28-1.29-1.53-2.71-3.96-2.71-2.01,0-3.68,1.04-3.68,2.99,0,2.74,3.09,3.13,5.35,3.65,5.76,1.32,7.85,2.99,7.85,6.91,0,3.51-2.33,6.95-7.78,7.43Z"/>
      <path class="cls-3" d="M669.54,511.04v24.31h-4.72v-18.82l-4.27,2.88-2.01-3.3,7.5-5.07h3.51Z"/>
      <path class="cls-3" d="M691.24,530.97v4.38h-15.49v-3.44c2.29-2.54,3.61-4.06,5.87-6.63,2.12-2.47,4.55-5.11,4.55-7.22,0-1.74-1.04-3.16-2.99-3.16-2.15,0-3.06,1.56-3.33,2.99l-4.41-1.01c.87-4.03,4.03-6.25,8.13-6.25,4.48,0,7.33,3.44,7.33,7.26,0,3.4-2.99,6.7-8.61,13.09h8.96Z"/>
      <path class="cls-3" d="M715.14,523.2c0,6.46-2.64,12.61-9.79,12.61s-9.76-6.15-9.76-12.61,2.64-12.57,9.76-12.57,9.79,6.15,9.79,12.57Zm-4.69,0c0-3.92-1.15-8.09-5.11-8.09s-5.07,4.17-5.07,8.09,1.15,8.13,5.07,8.13,5.11-4.17,5.11-8.13Z"/>
      <path class="cls-3" d="M739.21,523.2c0,6.46-2.64,12.61-9.79,12.61s-9.76-6.15-9.76-12.61,2.64-12.57,9.76-12.57,9.79,6.15,9.79,12.57Zm-4.69,0c0-3.92-1.15-8.09-5.1-8.09s-5.07,4.17-5.07,8.09,1.15,8.13,5.07,8.13,5.1-4.17,5.1-8.13Z"/>
    </g>
    <g>
      <path class="cls-3" d="M98.09,681.12v12.63h22.42v15.29h-22.42v23.18h-16.25v-66.5h41.42v15.39h-25.17Z"/>
      <path class="cls-3" d="M177.98,732.23l-11.21-22.23h-10.26v22.23h-16.25v-66.5h25.56c16.91,0,25.55,9.69,25.55,22.99,0,7.98-3.89,13.96-10.26,17.58l14.15,25.94h-17.29Zm-21.47-35.91h9.31c4.75,0,9.12-1.9,9.12-7.6,0-4.94-3.71-7.6-9.12-7.6h-9.31v15.2Z"/>
      <path class="cls-3" d="M225.67,665.73v66.5h-16.24v-66.5h16.24Z"/>
      <path class="cls-3" d="M309.84,698.98c0,19.76-14.16,34.49-33.82,34.49s-33.82-14.73-33.82-34.49,14.15-34.39,33.82-34.39,33.82,14.73,33.82,34.39Zm-16.34,0c0-9.4-5.89-18.71-17.48-18.71s-17.48,9.31-17.48,18.71,5.89,18.81,17.48,18.81,17.48-9.4,17.48-18.81Z"/>
      <path class="cls-3" d="M373.49,712.75c0,10.83-9.41,20.71-26.03,20.71-12.25,0-23.84-4.75-26.79-17.1l15.01-4.66c.86,3.8,4.37,7.88,11.59,7.88,5.61,0,9.79-2.18,9.79-6.55,0-4.94-6.55-5.7-14.06-7.6-13.3-3.23-19.29-9.41-19.29-20.52,0-12.73,10.55-20.33,24.42-20.33,11.4,0,21.09,6.08,23.66,16.62l-15.01,3.71c-.85-3.23-3.61-6.46-9.4-6.46-4.75,0-7.88,2.56-7.88,6.37,0,5.22,7.88,6.46,13.01,7.88,16.25,4.56,21,9.69,21,20.04Z"/>
    </g>
    <g>
      <path class="cls-3" d="M155.09,1091.25v66.5h-16.34v-39.52l-17.29,28.6h-5.98l-17.39-28.6v39.52h-16.25v-66.5h17.1l19.48,32.21,19.48-32.21h17.2Z"/>
      <path class="cls-3" d="M190.24,1091.25v66.5h-16.25v-66.5h16.25Z"/>
      <path class="cls-3" d="M265.66,1091.25v66.5h-14.25l-25.94-38.76v38.76h-16.34v-66.5h14.25l25.94,38.76v-38.76h16.34Z"/>
      <path class="cls-3" d="M300.81,1091.25v66.5h-16.25v-66.5h16.25Z"/>
      <path class="cls-3" d="M396.48,1106.64h-15.58v51.11h-16.25v-51.11h-15.58v-15.39h47.41v15.39Z"/>
      <path class="cls-3" d="M475.9,1124.5c0,19.76-14.16,34.49-33.82,34.49s-33.82-14.73-33.82-34.49,14.15-34.39,33.82-34.39,33.82,14.73,33.82,34.39Zm-16.34,0c0-9.4-5.89-18.71-17.48-18.71s-17.48,9.31-17.48,18.71,5.89,18.81,17.48,18.81,17.48-9.4,17.48-18.81Z"/>
      <path class="cls-3" d="M530.14,1157.75l-11.21-22.23h-10.26v22.23h-16.24v-66.5h25.55c16.91,0,25.55,9.69,25.55,22.99,0,7.98-3.89,13.96-10.26,17.58l14.16,25.94h-17.29Zm-21.47-35.91h9.31c4.75,0,9.12-1.9,9.12-7.6,0-4.94-3.71-7.6-9.12-7.6h-9.31v15.2Z"/>
      <path class="cls-3" d="M605.19,1106.64h-15.58v51.11h-16.25v-51.11h-15.58v-15.39h47.41v15.39Z"/>
      <path class="cls-3" d="M657.92,1145.4h-25.17l-3.9,12.35h-17.1l23.94-66.5h19.19l23.94,66.5h-17l-3.9-12.35Zm-3.9-12.35l-8.74-27.65-8.74,27.65h17.48Z"/>
      <path class="cls-3" d="M741.99,1138.27c0,10.83-9.41,20.71-26.03,20.71-12.25,0-23.84-4.75-26.79-17.1l15.01-4.66c.86,3.8,4.37,7.88,11.59,7.88,5.61,0,9.79-2.18,9.79-6.55,0-4.94-6.55-5.7-14.06-7.6-13.3-3.23-19.29-9.41-19.29-20.52,0-12.73,10.55-20.33,24.42-20.33,11.4,0,21.09,6.08,23.66,16.62l-15.01,3.71c-.85-3.23-3.61-6.46-9.4-6.46-4.75,0-7.88,2.56-7.88,6.37,0,5.22,7.88,6.46,13.01,7.88,16.25,4.56,21,9.69,21,20.04Z"/>
    </g>
    <g>
      <path class="cls-3" d="M123.26,1672.71h-25.17l-3.9,12.35h-17.1l23.94-66.5h19.19l23.94,66.5h-17l-3.9-12.35Zm-3.89-12.35l-8.74-27.65-8.74,27.65h17.48Z"/>
      <path class="cls-3" d="M199.45,1669.77v15.29h-41.13v-66.5h16.34v51.21h24.79Z"/>
      <path class="cls-3" d="M231.75,1633.95v12.64h22.42v15.3h-22.42v23.18h-16.25v-66.5h41.42v15.39h-25.17Z"/>
      <path class="cls-3" d="M309.65,1672.71h-25.17l-3.9,12.35h-17.1l23.94-66.5h19.19l23.94,66.5h-17l-3.9-12.35Zm-3.9-12.35l-8.74-27.65-8.74,27.65h17.48Z"/>
      <path class="cls-3" d="M389.74,1618.56v42.85c0,15.77-7.88,24.89-24.51,24.89-14.34,0-24.13-8.64-24.8-20.52l16.06-2.95c.29,3.71,2.66,7.79,8.65,7.79,6.84,0,8.36-5.32,8.36-9.21v-42.85h16.25Z"/>
      <path class="cls-3" d="M473.91,1651.81c0,19.76-14.16,34.48-33.82,34.48s-33.82-14.72-33.82-34.48,14.15-34.39,33.82-34.39,33.82,14.72,33.82,34.39Zm-16.34,0c0-9.41-5.89-18.72-17.48-18.72s-17.48,9.31-17.48,18.72,5.89,18.81,17.48,18.81,17.48-9.41,17.48-18.81Z"/>
      <path class="cls-3" d="M528.15,1685.06l-11.21-22.23h-10.26v22.23h-16.24v-66.5h25.55c16.91,0,25.55,9.69,25.55,22.99,0,7.98-3.89,13.97-10.26,17.58l14.16,25.94h-17.29Zm-21.47-35.91h9.31c4.75,0,9.12-1.9,9.12-7.6,0-4.94-3.71-7.6-9.12-7.6h-9.31v15.2Z"/>
      <path class="cls-3" d="M601.39,1669.77v15.29h-41.8v-66.5h40.95v15.39h-24.7v10.26h21.66v14.54h-21.66v11.02h25.56Z"/>
      <path class="cls-3" d="M667.42,1665.59c0,10.83-9.4,20.71-26.03,20.71-12.26,0-23.85-4.75-26.79-17.1l15.01-4.66c.86,3.8,4.37,7.89,11.59,7.89,5.6,0,9.79-2.19,9.79-6.56,0-4.94-6.56-5.7-14.06-7.6-13.3-3.23-19.29-9.4-19.29-20.52,0-12.73,10.55-20.33,24.42-20.33,11.4,0,21.09,6.08,23.66,16.62l-15.01,3.71c-.85-3.23-3.61-6.46-9.41-6.46-4.75,0-7.88,2.57-7.88,6.36,0,5.23,7.88,6.46,13.02,7.89,16.24,4.56,20.99,9.69,20.99,20.05Z"/>
    </g>
    <g>
      <path class="cls-3" d="M140.46,2066.26c0,20.33-13.11,33.25-35.34,33.25h-23.28v-66.5h23.28c22.23,0,35.34,13.01,35.34,33.25Zm-16.24,0c0-11.78-8.17-17.86-19.1-17.86h-6.94v35.82h6.94c10.92,0,19.1-6.18,19.1-17.96Z"/>
      <path class="cls-3" d="M198.79,2084.21v15.29h-41.8v-66.5h40.95v15.39h-24.7v10.26h21.66v14.54h-21.66v11.02h25.56Z"/>
      <path class="cls-3" d="M264.81,2080.03c0,10.83-9.41,20.71-26.03,20.71-12.25,0-23.84-4.75-26.79-17.1l15.01-4.66c.86,3.8,4.37,7.89,11.59,7.89,5.61,0,9.79-2.19,9.79-6.56,0-4.94-6.55-5.7-14.06-7.6-13.3-3.23-19.29-9.4-19.29-20.52,0-12.73,10.55-20.33,24.42-20.33,11.4,0,21.09,6.08,23.66,16.62l-15.01,3.71c-.85-3.23-3.61-6.46-9.4-6.46-4.75,0-7.88,2.57-7.88,6.36,0,5.23,7.88,6.46,13.01,7.89,16.25,4.56,21,9.69,21,20.05Z"/>
      <path class="cls-3" d="M321.33,2087.16h-25.17l-3.9,12.35h-17.1l23.94-66.5h19.19l23.94,66.5h-17l-3.9-12.35Zm-3.9-12.35l-8.74-27.65-8.74,27.65h17.48Z"/>
      <path class="cls-3" d="M381.47,2074.52v24.99h-16.34v-24.99l-23.94-41.52h17.48l14.63,28.31,14.63-28.31h17.48l-23.94,41.52Z"/>
      <path class="cls-3" d="M475.14,2033.01v40.66c0,18.24-10.36,27.07-27.74,27.07s-27.83-8.83-27.83-27.07v-40.66h16.34v39.05c0,8.83,4.18,13.01,11.5,13.01s11.5-4.18,11.5-13.01v-39.05h16.25Z"/>
      <path class="cls-3" d="M550.57,2033.01v66.5h-14.25l-25.94-38.76v38.76h-16.34v-66.5h14.25l25.94,38.76v-38.76h16.34Z"/>
      <path class="cls-3" d="M634.74,2066.26c0,19.76-14.16,34.48-33.82,34.48s-33.82-14.72-33.82-34.48,14.15-34.39,33.82-34.39,33.82,14.72,33.82,34.39Zm-16.34,0c0-9.41-5.89-18.72-17.48-18.72s-17.48,9.31-17.48,18.72,5.89,18.81,17.48,18.81,17.48-9.41,17.48-18.81Z"/>
      <path class="cls-3" d="M698.39,2080.03c0,10.83-9.41,20.71-26.03,20.71-12.25,0-23.84-4.75-26.79-17.1l15.01-4.66c.86,3.8,4.37,7.89,11.59,7.89,5.61,0,9.79-2.19,9.79-6.56,0-4.94-6.55-5.7-14.06-7.6-13.3-3.23-19.29-9.4-19.29-20.52,0-12.73,10.55-20.33,24.42-20.33,11.4,0,21.09,6.08,23.66,16.62l-15.01,3.71c-.85-3.23-3.61-6.46-9.4-6.46-4.75,0-7.88,2.57-7.88,6.36,0,5.23,7.88,6.46,13.01,7.89,16.25,4.56,21,9.69,21,20.05Z"/>
      <path class="cls-3" d="M117.37,2168.37v24.99h-16.34v-24.99l-23.94-41.52h17.48l14.63,28.31,14.63-28.31h17.48l-23.94,41.52Z"/>
      <path class="cls-3" d="M260.92,2126.85v66.5h-16.34v-39.52l-17.29,28.6h-5.99l-17.39-28.6v39.52h-16.24v-66.5h17.1l19.47,32.21,19.48-32.21h17.19Z"/>
      <path class="cls-3" d="M321.62,2178.06v15.3h-41.8v-66.5h40.95v15.39h-24.7v10.26h21.66v14.54h-21.66v11.02h25.56Z"/>
      <path class="cls-3" d="M376.34,2193.35l-11.21-22.23h-10.26v22.23h-16.24v-66.5h25.55c16.91,0,25.55,9.69,25.55,22.99,0,7.98-3.89,13.96-10.26,17.58l14.16,25.94h-17.29Zm-21.47-35.91h9.31c4.75,0,9.12-1.9,9.12-7.6,0-4.94-3.71-7.6-9.12-7.6h-9.31v15.2Z"/>
      <path class="cls-3" d="M424.03,2126.85v66.5h-16.25v-66.5h16.25Z"/>
      <path class="cls-3" d="M484.73,2178.06v15.3h-41.8v-66.5h40.95v15.39h-24.7v10.26h21.66v14.54h-21.66v11.02h25.55Z"/>
      <path class="cls-3" d="M558.26,2126.85v66.5h-14.25l-25.94-38.76v38.76h-16.34v-66.5h14.25l25.94,38.76v-38.76h16.34Z"/>
      <path class="cls-3" d="M635.78,2160.1c0,20.33-13.11,33.25-35.34,33.25h-23.28v-66.5h23.28c22.23,0,35.34,13.02,35.34,33.25Zm-16.24,0c0-11.78-8.17-17.86-19.1-17.86h-6.94v35.81h6.94c10.92,0,19.1-6.17,19.1-17.96Z"/>
      <path class="cls-3" d="M690.88,2181h-25.18l-3.89,12.35h-17.1l23.94-66.5h19.19l23.94,66.5h-17.01l-3.89-12.35Zm-3.89-12.35l-8.74-27.65-8.74,27.65h17.48Z"/>
      <path class="cls-3" d="M774.95,2173.88c0,10.83-9.4,20.71-26.03,20.71-12.26,0-23.85-4.75-26.79-17.1l15.01-4.66c.86,3.8,4.37,7.88,11.59,7.88,5.6,0,9.79-2.18,9.79-6.55,0-4.94-6.56-5.7-14.06-7.6-13.3-3.23-19.29-9.41-19.29-20.52,0-12.73,10.55-20.33,24.42-20.33,11.4,0,21.09,6.08,23.66,16.62l-15.01,3.71c-.85-3.23-3.61-6.46-9.41-6.46-4.75,0-7.88,2.56-7.88,6.37,0,5.22,7.88,6.46,13.02,7.88,16.24,4.56,20.99,9.69,20.99,20.04Z"/>
    </g>
    <rect class="cls-2" x="45.64" y="775.04" width="546.27" height="248.03"/>
    <rect class="cls-2" x="596.91" y="775.04" width="178.77" height="248.03"/>
    <g>
      <path class="cls-3" d="M128.53,841.58v12.63c0,4.65-2.32,7.34-7.22,7.34-4.23,0-7.11-2.55-7.31-6.05l4.73-.87c.08,1.09,.78,2.3,2.55,2.3,2.02,0,2.46-1.57,2.46-2.72v-12.63h4.79Z"/>
      <path class="cls-3" d="M149.67,841.58v11.98c0,5.38-3.05,7.98-8.18,7.98s-8.2-2.6-8.2-7.98v-11.98h4.82v11.51c0,2.6,1.23,3.84,3.39,3.84s3.39-1.23,3.39-3.84v-11.51h4.79Z"/>
      <path class="cls-3" d="M172.94,849.84v11.34h-2.3l-.64-2.44c-1.4,1.76-3.47,2.8-6.3,2.8-5.82,0-9.97-4.34-9.97-10.16s4.14-10.14,9.97-10.14c3.33,0,6.13,1.43,7.9,3.78l-3.98,2.63c-.87-1.09-2.18-1.82-3.92-1.82-3.42,0-5.18,2.77-5.18,5.54s1.76,5.54,5.18,5.54c2.66,0,4.17-1.43,4.79-3.28h-4.79v-3.81h9.24Z"/>
      <path class="cls-3" d="M196.66,851.38c0,5.82-4.17,10.16-9.97,10.16s-9.97-4.34-9.97-10.16,4.17-10.14,9.97-10.14,9.97,4.34,9.97,10.14Zm-4.82,0c0-2.77-1.74-5.52-5.15-5.52s-5.15,2.74-5.15,5.52,1.74,5.54,5.15,5.54,5.15-2.77,5.15-5.54Z"/>
      <path class="cls-3" d="M214.61,855.44c0,3.19-2.77,6.1-7.67,6.1-3.61,0-7.03-1.4-7.9-5.04l4.42-1.37c.25,1.12,1.29,2.32,3.42,2.32,1.65,0,2.88-.64,2.88-1.93,0-1.46-1.93-1.68-4.14-2.24-3.92-.95-5.68-2.77-5.68-6.05,0-3.75,3.11-5.99,7.2-5.99,3.36,0,6.22,1.79,6.97,4.9l-4.42,1.09c-.25-.95-1.06-1.9-2.77-1.9-1.4,0-2.32,.76-2.32,1.88,0,1.54,2.32,1.9,3.84,2.32,4.79,1.34,6.19,2.86,6.19,5.91Z"/>
      <path class="cls-3" d="M133.77,896.84v11.34h-2.3l-.64-2.44c-1.4,1.76-3.47,2.8-6.3,2.8-5.82,0-9.97-4.34-9.97-10.16s4.14-10.14,9.97-10.14c3.33,0,6.13,1.43,7.9,3.78l-3.98,2.63c-.87-1.09-2.18-1.82-3.92-1.82-3.42,0-5.18,2.77-5.18,5.54s1.76,5.54,5.18,5.54c2.66,0,4.17-1.43,4.79-3.28h-4.79v-3.81h9.24Z"/>
      <path class="cls-3" d="M150.46,904.54h-7.42l-1.15,3.64h-5.04l7.06-19.6h5.66l7.06,19.6h-5.01l-1.15-3.64Zm-1.15-3.64l-2.58-8.15-2.58,8.15h5.15Z"/>
      <path class="cls-3" d="M174.43,902.44c0,3.19-2.77,6.1-7.67,6.1-3.61,0-7.03-1.4-7.9-5.04l4.42-1.37c.25,1.12,1.29,2.32,3.42,2.32,1.65,0,2.88-.64,2.88-1.93,0-1.46-1.93-1.68-4.14-2.24-3.92-.95-5.68-2.77-5.68-6.05,0-3.75,3.11-5.99,7.2-5.99,3.36,0,6.22,1.79,6.97,4.9l-4.42,1.09c-.25-.95-1.06-1.9-2.77-1.9-1.4,0-2.32,.76-2.32,1.88,0,1.54,2.32,1.9,3.84,2.32,4.79,1.34,6.19,2.86,6.19,5.91Z"/>
      <path class="cls-3" d="M190.39,903.67v4.51h-12.32v-19.6h12.07v4.54h-7.28v3.02h6.38v4.28h-6.38v3.25h7.53Z"/>
      <path class="cls-3" d="M213.54,898.38c0,5.82-4.17,10.16-9.97,10.16s-9.97-4.34-9.97-10.16,4.17-10.14,9.97-10.14,9.97,4.34,9.97,10.14Zm-4.82,0c0-2.77-1.74-5.52-5.15-5.52s-5.15,2.74-5.15,5.52,1.74,5.54,5.15,5.54,5.15-2.77,5.15-5.54Z"/>
      <path class="cls-3" d="M231.49,902.44c0,3.19-2.77,6.1-7.67,6.1-3.61,0-7.03-1.4-7.9-5.04l4.42-1.37c.25,1.12,1.29,2.32,3.42,2.32,1.65,0,2.88-.64,2.88-1.93,0-1.46-1.93-1.68-4.14-2.24-3.92-.95-5.68-2.77-5.68-6.05,0-3.75,3.11-5.99,7.2-5.99,3.36,0,6.22,1.79,6.97,4.9l-4.42,1.09c-.25-.95-1.06-1.9-2.77-1.9-1.4,0-2.32,.76-2.32,1.88,0,1.54,2.32,1.9,3.84,2.32,4.79,1.34,6.19,2.86,6.19,5.91Z"/>
      <path class="cls-3" d="M247.34,904.54h-7.42l-1.15,3.64h-5.04l7.06-19.6h5.66l7.06,19.6h-5.01l-1.15-3.64Zm-1.15-3.64l-2.58-8.15-2.58,8.15h5.15Z"/>
      <path class="cls-3" d="M271.31,902.44c0,3.19-2.77,6.1-7.67,6.1-3.61,0-7.03-1.4-7.9-5.04l4.42-1.37c.25,1.12,1.29,2.32,3.42,2.32,1.65,0,2.88-.64,2.88-1.93,0-1.46-1.93-1.68-4.14-2.24-3.92-.95-5.68-2.77-5.68-6.05,0-3.75,3.11-5.99,7.2-5.99,3.36,0,6.22,1.79,6.97,4.9l-4.42,1.09c-.25-.95-1.06-1.9-2.77-1.9-1.4,0-2.32,.76-2.32,1.88,0,1.54,2.32,1.9,3.84,2.32,4.79,1.34,6.19,2.86,6.19,5.91Z"/>
      <path class="cls-3" d="M127.47,951.54h-7.42l-1.15,3.64h-5.04l7.06-19.6h5.66l7.06,19.6h-5.01l-1.15-3.64Zm-1.15-3.64l-2.58-8.15-2.58,8.15h5.15Z"/>
      <path class="cls-3" d="M154.66,943.84v11.34h-2.3l-.64-2.44c-1.4,1.76-3.47,2.8-6.3,2.8-5.82,0-9.97-4.34-9.97-10.16s4.14-10.14,9.97-10.14c3.33,0,6.13,1.43,7.9,3.78l-3.98,2.63c-.87-1.09-2.18-1.82-3.92-1.82-3.42,0-5.18,2.77-5.18,5.54s1.76,5.54,5.18,5.54c2.66,0,4.17-1.43,4.79-3.28h-4.79v-3.81h9.24Z"/>
      <path class="cls-3" d="M175.52,935.58v11.98c0,5.38-3.05,7.98-8.18,7.98s-8.2-2.6-8.2-7.98v-11.98h4.82v11.51c0,2.6,1.23,3.84,3.39,3.84s3.39-1.23,3.39-3.84v-11.51h4.79Z"/>
      <path class="cls-3" d="M191.65,951.54h-7.42l-1.15,3.64h-5.04l7.06-19.6h5.66l7.06,19.6h-5.01l-1.15-3.64Zm-1.15-3.64l-2.58-8.15-2.58,8.15h5.15Z"/>
    </g>
    <g>
      <path class="cls-3" d="M647.28,861.56v3.47h-2.78v-3.47c-3.92-.38-7.26-2.22-8.3-5.83l4.55-1.42c.35,1.39,1.81,3.2,5.21,3.2,2.43,0,4.38-.94,4.38-3.02,0-2.43-2.78-2.6-6.6-3.54-4.9-1.22-6.53-3.68-6.53-7.05,0-4.2,2.92-6.95,7.29-7.36v-3.47h2.78v3.51c3.33,.42,5.9,2.4,6.81,5.63l-4.58,1.11c-.28-1.29-1.53-2.71-3.96-2.71-2.01,0-3.68,1.04-3.68,2.99,0,2.74,3.09,3.12,5.35,3.65,5.76,1.32,7.85,2.99,7.85,6.91,0,3.51-2.33,6.95-7.78,7.43Z"/>
      <path class="cls-3" d="M669.54,836.87v24.31h-4.72v-18.82l-4.27,2.88-2.01-3.3,7.5-5.07h3.51Z"/>
      <path class="cls-3" d="M691.24,856.81v4.38h-15.49v-3.44c2.29-2.54,3.61-4.06,5.87-6.63,2.12-2.47,4.55-5.11,4.55-7.22,0-1.74-1.04-3.16-2.99-3.16-2.15,0-3.06,1.56-3.33,2.99l-4.41-1.01c.87-4.03,4.03-6.25,8.13-6.25,4.48,0,7.33,3.44,7.33,7.26,0,3.4-2.99,6.7-8.61,13.09h8.96Z"/>
      <path class="cls-3" d="M715.14,849.03c0,6.46-2.64,12.61-9.79,12.61s-9.76-6.15-9.76-12.61,2.64-12.57,9.76-12.57,9.79,6.15,9.79,12.57Zm-4.69,0c0-3.92-1.15-8.09-5.11-8.09s-5.07,4.17-5.07,8.09,1.15,8.13,5.07,8.13,5.11-4.17,5.11-8.13Z"/>
      <path class="cls-3" d="M739.21,849.03c0,6.46-2.64,12.61-9.79,12.61s-9.76-6.15-9.76-12.61,2.64-12.57,9.76-12.57,9.79,6.15,9.79,12.57Zm-4.69,0c0-3.92-1.15-8.09-5.1-8.09s-5.07,4.17-5.07,8.09,1.15,8.13,5.07,8.13,5.1-4.17,5.1-8.13Z"/>
      <path class="cls-3" d="M647.28,908.56v3.47h-2.78v-3.47c-3.92-.38-7.26-2.22-8.3-5.83l4.55-1.42c.35,1.39,1.81,3.2,5.21,3.2,2.43,0,4.38-.94,4.38-3.02,0-2.43-2.78-2.6-6.6-3.54-4.9-1.22-6.53-3.68-6.53-7.05,0-4.2,2.92-6.95,7.29-7.36v-3.47h2.78v3.51c3.33,.42,5.9,2.4,6.81,5.63l-4.58,1.11c-.28-1.29-1.53-2.71-3.96-2.71-2.01,0-3.68,1.04-3.68,2.99,0,2.74,3.09,3.12,5.35,3.65,5.76,1.32,7.85,2.99,7.85,6.91,0,3.51-2.33,6.95-7.78,7.43Z"/>
      <path class="cls-3" d="M669.54,883.87v24.31h-4.72v-18.82l-4.27,2.88-2.01-3.3,7.5-5.07h3.51Z"/>
      <path class="cls-3" d="M691.24,903.81v4.38h-15.49v-3.44c2.29-2.54,3.61-4.06,5.87-6.63,2.12-2.47,4.55-5.11,4.55-7.22,0-1.74-1.04-3.16-2.99-3.16-2.15,0-3.06,1.56-3.33,2.99l-4.41-1.01c.87-4.03,4.03-6.25,8.13-6.25,4.48,0,7.33,3.44,7.33,7.26,0,3.4-2.99,6.7-8.61,13.09h8.96Z"/>
      <path class="cls-3" d="M715.14,896.03c0,6.46-2.64,12.61-9.79,12.61s-9.76-6.15-9.76-12.61,2.64-12.57,9.76-12.57,9.79,6.15,9.79,12.57Zm-4.69,0c0-3.92-1.15-8.09-5.11-8.09s-5.07,4.17-5.07,8.09,1.15,8.13,5.07,8.13,5.11-4.17,5.11-8.13Z"/>
      <path class="cls-3" d="M739.21,896.03c0,6.46-2.64,12.61-9.79,12.61s-9.76-6.15-9.76-12.61,2.64-12.57,9.76-12.57,9.79,6.15,9.79,12.57Zm-4.69,0c0-3.92-1.15-8.09-5.1-8.09s-5.07,4.17-5.07,8.09,1.15,8.13,5.07,8.13,5.1-4.17,5.1-8.13Z"/>
      <path class="cls-3" d="M647.28,955.56v3.47h-2.78v-3.47c-3.92-.38-7.26-2.22-8.3-5.83l4.55-1.42c.35,1.39,1.81,3.2,5.21,3.2,2.43,0,4.38-.94,4.38-3.02,0-2.43-2.78-2.6-6.6-3.54-4.9-1.22-6.53-3.68-6.53-7.05,0-4.2,2.92-6.95,7.29-7.36v-3.47h2.78v3.51c3.33,.42,5.9,2.4,6.81,5.63l-4.58,1.11c-.28-1.29-1.53-2.71-3.96-2.71-2.01,0-3.68,1.04-3.68,2.99,0,2.74,3.09,3.12,5.35,3.65,5.76,1.32,7.85,2.99,7.85,6.91,0,3.51-2.33,6.95-7.78,7.43Z"/>
      <path class="cls-3" d="M669.54,930.87v24.31h-4.72v-18.82l-4.27,2.88-2.01-3.3,7.5-5.07h3.51Z"/>
      <path class="cls-3" d="M691.24,950.81v4.38h-15.49v-3.44c2.29-2.54,3.61-4.06,5.87-6.63,2.12-2.47,4.55-5.11,4.55-7.22,0-1.74-1.04-3.16-2.99-3.16-2.15,0-3.06,1.56-3.33,2.99l-4.41-1.01c.87-4.03,4.03-6.25,8.13-6.25,4.48,0,7.33,3.44,7.33,7.26,0,3.4-2.99,6.7-8.61,13.09h8.96Z"/>
      <path class="cls-3" d="M715.14,943.03c0,6.46-2.64,12.61-9.79,12.61s-9.76-6.15-9.76-12.61,2.64-12.57,9.76-12.57,9.79,6.15,9.79,12.57Zm-4.69,0c0-3.92-1.15-8.09-5.11-8.09s-5.07,4.17-5.07,8.09,1.15,8.13,5.07,8.13,5.11-4.17,5.11-8.13Z"/>
      <path class="cls-3" d="M739.21,943.03c0,6.46-2.64,12.61-9.79,12.61s-9.76-6.15-9.76-12.61,2.64-12.57,9.76-12.57,9.79,6.15,9.79,12.57Zm-4.69,0c0-3.92-1.15-8.09-5.1-8.09s-5.07,4.17-5.07,8.09,1.15,8.13,5.07,8.13,5.1-4.17,5.1-8.13Z"/>
    </g>
    <rect class="cls-2" x="45.64" y="1208.07" width="546.27" height="341.75"/>
    <rect class="cls-2" x="596.91" y="1208.07" width="178.77" height="341.75"/>
    <g>
      <path class="cls-3" d="M128.45,1288.14l4,2.63c-1.76,2.35-4.56,3.81-7.92,3.81-5.8,0-9.97-4.34-9.97-10.16s4.17-10.14,9.97-10.14c3.36,0,6.16,1.46,7.92,3.78l-4,2.63c-.84-1.06-2.16-1.79-3.92-1.79-3.42,0-5.15,2.74-5.15,5.52s1.74,5.54,5.15,5.54c1.76,0,3.08-.73,3.92-1.82Z"/>
      <path class="cls-3" d="M152.64,1274.61v19.6h-4.79v-7.62h-7.11v7.62h-4.79v-19.6h4.79v7.45h7.11v-7.45h4.79Z"/>
      <path class="cls-3" d="M169.72,1289.71v4.51h-12.32v-19.6h12.07v4.54h-7.28v3.02h6.38v4.29h-6.38v3.25h7.53Z"/>
      <path class="cls-3" d="M186.24,1289.71v4.51h-12.32v-19.6h12.07v4.54h-7.28v3.02h6.38v4.29h-6.38v3.25h7.53Z"/>
      <path class="cls-3" d="M204.89,1288.48c0,3.19-2.77,6.1-7.67,6.1-3.61,0-7.03-1.4-7.9-5.04l4.42-1.37c.25,1.12,1.29,2.32,3.42,2.32,1.65,0,2.88-.64,2.88-1.93,0-1.46-1.93-1.68-4.14-2.24-3.92-.95-5.68-2.77-5.68-6.05,0-3.75,3.11-5.99,7.2-5.99,3.36,0,6.22,1.79,6.97,4.9l-4.42,1.09c-.25-.95-1.06-1.9-2.77-1.9-1.4,0-2.32,.76-2.32,1.88,0,1.54,2.32,1.9,3.84,2.32,4.79,1.34,6.19,2.86,6.19,5.91Z"/>
      <path class="cls-3" d="M220.85,1289.71v4.51h-12.32v-19.6h12.07v4.54h-7.28v3.02h6.38v4.29h-6.38v3.25h7.53Z"/>
      <path class="cls-3" d="M246.92,1288.14l4,2.63c-1.76,2.35-4.56,3.81-7.92,3.81-5.8,0-9.97-4.34-9.97-10.16s4.17-10.14,9.97-10.14c3.36,0,6.16,1.46,7.92,3.78l-4,2.63c-.84-1.06-2.16-1.79-3.92-1.79-3.42,0-5.15,2.74-5.15,5.52s1.74,5.54,5.15,5.54c1.76,0,3.08-.73,3.92-1.82Z"/>
      <path class="cls-3" d="M266.91,1290.57h-7.42l-1.15,3.64h-5.04l7.06-19.6h5.66l7.06,19.6h-5.01l-1.15-3.64Zm-1.15-3.64l-2.58-8.15-2.58,8.15h5.15Z"/>
      <path class="cls-3" d="M287.43,1294.22l-6.22-8.96v8.96h-4.79v-19.6h4.79v8.71l5.99-8.71h5.35l-6.78,9.49,7.25,10.11h-5.6Z"/>
      <path class="cls-3" d="M308.71,1289.71v4.51h-12.32v-19.6h12.07v4.54h-7.28v3.02h6.38v4.29h-6.38v3.25h7.53Z"/>
      <path class="cls-3" d="M325.85,1284.41c0,4.82,1.46,8.74,2.74,10.75l-2.94,2.18c-1.71-2.3-4.06-7.14-4.06-12.94s2.35-10.64,4.06-12.94l2.94,2.21c-1.29,2.02-2.74,5.91-2.74,10.72Z"/>
      <path class="cls-3" d="M337.86,1279.15v3.72h6.61v4.51h-6.61v6.83h-4.79v-19.6h12.21v4.54h-7.42Z"/>
      <path class="cls-3" d="M360.6,1294.22l-3.3-6.55h-3.02v6.55h-4.79v-19.6h7.53c4.98,0,7.53,2.86,7.53,6.78,0,2.35-1.15,4.12-3.02,5.18l4.17,7.64h-5.1Zm-6.33-10.58h2.74c1.4,0,2.69-.56,2.69-2.24,0-1.46-1.09-2.24-2.69-2.24h-2.74v4.48Z"/>
      <path class="cls-3" d="M385.15,1274.61v11.98c0,5.38-3.05,7.98-8.18,7.98s-8.2-2.6-8.2-7.98v-11.98h4.82v11.51c0,2.6,1.23,3.84,3.39,3.84s3.39-1.23,3.39-3.84v-11.51h4.79Z"/>
      <path class="cls-3" d="M403.04,1279.15h-4.59v15.06h-4.79v-15.06h-4.59v-4.54h13.97v4.54Z"/>
      <path class="cls-3" d="M425.64,1284.41c0,5.82-4.17,10.16-9.97,10.16s-9.97-4.34-9.97-10.16,4.17-10.14,9.97-10.14,9.97,4.34,9.97,10.14Zm-4.82,0c0-2.77-1.74-5.52-5.15-5.52s-5.15,2.74-5.15,5.52,1.74,5.54,5.15,5.54,5.15-2.77,5.15-5.54Z"/>
      <path class="cls-3" d="M443.59,1288.48c0,3.19-2.77,6.1-7.67,6.1-3.61,0-7.03-1.4-7.9-5.04l4.42-1.37c.25,1.12,1.29,2.32,3.42,2.32,1.65,0,2.88-.64,2.88-1.93,0-1.46-1.93-1.68-4.14-2.24-3.92-.95-5.68-2.77-5.68-6.05,0-3.75,3.11-5.99,7.2-5.99,3.36,0,6.22,1.79,6.97,4.9l-4.42,1.09c-.25-.95-1.06-1.9-2.77-1.9-1.4,0-2.32,.76-2.32,1.88,0,1.54,2.32,1.9,3.84,2.32,4.79,1.34,6.19,2.86,6.19,5.91Z"/>
      <path class="cls-3" d="M467.02,1294.22l-3.3-6.55h-3.02v6.55h-4.79v-19.6h7.53c4.98,0,7.53,2.86,7.53,6.78,0,2.35-1.15,4.12-3.02,5.18l4.17,7.64h-5.1Zm-6.33-10.58h2.74c1.4,0,2.69-.56,2.69-2.24,0-1.46-1.09-2.24-2.69-2.24h-2.74v4.48Z"/>
      <path class="cls-3" d="M494.15,1284.41c0,5.82-4.17,10.16-9.97,10.16s-9.97-4.34-9.97-10.16,4.17-10.14,9.97-10.14,9.97,4.34,9.97,10.14Zm-4.82,0c0-2.77-1.74-5.52-5.15-5.52s-5.15,2.74-5.15,5.52,1.74,5.54,5.15,5.54,5.15-2.77,5.15-5.54Z"/>
      <path class="cls-3" d="M511.21,1274.61v12.63c0,4.65-2.32,7.34-7.22,7.34-4.23,0-7.11-2.55-7.31-6.05l4.73-.87c.08,1.09,.78,2.3,2.55,2.3,2.02,0,2.46-1.57,2.46-2.72v-12.63h4.79Z"/>
      <path class="cls-3" d="M535.2,1284.41c0,5.82-4.17,10.16-9.97,10.16s-9.97-4.34-9.97-10.16,4.17-10.14,9.97-10.14,9.97,4.34,9.97,10.14Zm-4.82,0c0-2.77-1.74-5.52-5.15-5.52s-5.15,2.74-5.15,5.52,1.74,5.54,5.15,5.54,5.15-2.77,5.15-5.54Z"/>
      <path class="cls-3" d="M553.15,1288.48c0,3.19-2.77,6.1-7.67,6.1-3.61,0-7.03-1.4-7.9-5.04l4.42-1.37c.25,1.12,1.29,2.32,3.42,2.32,1.65,0,2.88-.64,2.88-1.93,0-1.46-1.93-1.68-4.14-2.24-3.92-.95-5.68-2.77-5.68-6.05,0-3.75,3.11-5.99,7.2-5.99,3.36,0,6.22,1.79,6.97,4.9l-4.42,1.09c-.25-.95-1.06-1.9-2.77-1.9-1.4,0-2.32,.76-2.32,1.88,0,1.54,2.32,1.9,3.84,2.32,4.79,1.34,6.19,2.86,6.19,5.91Z"/>
      <path class="cls-3" d="M563.51,1284.41c0,5.8-2.35,10.64-4.06,12.94l-2.94-2.18c1.29-2.02,2.77-5.94,2.77-10.75s-1.48-8.71-2.77-10.72l2.94-2.21c1.71,2.3,4.06,7.14,4.06,12.94Z"/>
      <path class="cls-3" d="M128.45,1335.14l4,2.63c-1.76,2.35-4.56,3.81-7.92,3.81-5.8,0-9.97-4.34-9.97-10.16s4.17-10.14,9.97-10.14c3.36,0,6.16,1.46,7.92,3.78l-4,2.63c-.84-1.06-2.16-1.79-3.92-1.79-3.42,0-5.15,2.74-5.15,5.52s1.74,5.54,5.15,5.54c1.76,0,3.08-.73,3.92-1.82Z"/>
      <path class="cls-3" d="M148.44,1337.57h-7.42l-1.15,3.64h-5.04l7.06-19.6h5.66l7.06,19.6h-5.01l-1.15-3.64Zm-1.15-3.64l-2.58-8.15-2.58,8.15h5.15Z"/>
      <path class="cls-3" d="M169.08,1341.22l-3.3-6.55h-3.02v6.55h-4.79v-19.6h7.53c4.98,0,7.53,2.86,7.53,6.78,0,2.35-1.15,4.12-3.02,5.18l4.17,7.64h-5.1Zm-6.33-10.58h2.74c1.4,0,2.69-.56,2.69-2.24,0-1.46-1.09-2.24-2.69-2.24h-2.74v4.48Z"/>
      <path class="cls-3" d="M188.65,1341.22l-3.3-6.55h-3.02v6.55h-4.79v-19.6h7.53c4.98,0,7.53,2.86,7.53,6.78,0,2.35-1.15,4.12-3.02,5.18l4.17,7.64h-5.1Zm-6.33-10.58h2.74c1.4,0,2.69-.56,2.69-2.24,0-1.46-1.09-2.24-2.69-2.24h-2.74v4.48Z"/>
      <path class="cls-3" d="M215.78,1331.41c0,5.82-4.17,10.16-9.97,10.16s-9.97-4.34-9.97-10.16,4.17-10.14,9.97-10.14,9.97,4.34,9.97,10.14Zm-4.82,0c0-2.77-1.74-5.52-5.15-5.52s-5.15,2.74-5.15,5.52,1.74,5.54,5.15,5.54,5.15-2.77,5.15-5.54Z"/>
      <path class="cls-3" d="M232.41,1326.15h-4.59v15.06h-4.79v-15.06h-4.59v-4.54h13.97v4.54Z"/>
      <path class="cls-3" d="M258.2,1335.14l4,2.63c-1.76,2.35-4.56,3.81-7.92,3.81-5.8,0-9.97-4.34-9.97-10.16s4.17-10.14,9.97-10.14c3.36,0,6.16,1.46,7.92,3.78l-4,2.63c-.84-1.06-2.16-1.79-3.92-1.79-3.42,0-5.15,2.74-5.15,5.52s1.74,5.54,5.15,5.54c1.76,0,3.08-.73,3.92-1.82Z"/>
      <path class="cls-3" d="M278.19,1337.57h-7.42l-1.15,3.64h-5.04l7.06-19.6h5.66l7.06,19.6h-5.01l-1.15-3.64Zm-1.15-3.64l-2.58-8.15-2.58,8.15h5.15Z"/>
      <path class="cls-3" d="M298.72,1341.22l-6.22-8.96v8.96h-4.79v-19.6h4.79v8.71l5.99-8.71h5.35l-6.78,9.49,7.25,10.11h-5.6Z"/>
      <path class="cls-3" d="M320,1336.71v4.51h-12.32v-19.6h12.07v4.54h-7.28v3.02h6.38v4.29h-6.38v3.25h7.53Z"/>
      <path class="cls-3" d="M126.27,1388.22l-6.22-8.96v8.96h-4.79v-19.6h4.79v8.71l5.99-8.71h5.35l-6.78,9.49,7.25,10.11h-5.6Z"/>
      <path class="cls-3" d="M147.55,1383.71v4.51h-12.32v-19.6h12.07v4.54h-7.28v3.02h6.38v4.29h-6.38v3.25h7.53Z"/>
      <path class="cls-3" d="M162.22,1380.85v7.36h-4.82v-7.36l-7.06-12.24h5.15l4.31,8.34,4.31-8.34h5.15l-7.06,12.24Z"/>
      <path class="cls-3" d="M193.44,1383.71v4.51h-12.12v-19.6h4.82v15.09h7.31Z"/>
      <path class="cls-3" d="M202.15,1368.61v19.6h-4.79v-19.6h4.79Z"/>
      <path class="cls-3" d="M228.49,1368.61v19.6h-4.82v-11.65l-5.1,8.43h-1.76l-5.12-8.43v11.65h-4.79v-19.6h5.04l5.74,9.49,5.74-9.49h5.07Z"/>
      <path class="cls-3" d="M245.57,1383.71v4.51h-12.32v-19.6h12.07v4.54h-7.28v3.02h6.38v4.29h-6.38v3.25h7.53Z"/>
      <path class="cls-3" d="M273.54,1375.64c0,4.62-3.53,6.78-7.78,6.78h-2.52v5.8h-4.79v-19.6h7.31c4.87,0,7.78,2.8,7.78,7.03Zm-4.87,0c0-1.51-1.06-2.49-2.91-2.49h-2.52v4.98h2.52c1.74,0,2.91-.78,2.91-2.49Z"/>
      <path class="cls-3" d="M282.25,1368.61v19.6h-4.79v-19.6h4.79Z"/>
      <path class="cls-3" d="M299.33,1383.71v4.51h-12.32v-19.6h12.07v4.54h-7.28v3.02h6.38v4.29h-6.38v3.25h7.53Z"/>
      <path class="cls-3" d="M136.85,1415.61v19.6h-4.82v-11.65l-5.1,8.43h-1.76l-5.12-8.43v11.65h-4.79v-19.6h5.04l5.74,9.49,5.74-9.49h5.07Z"/>
      <path class="cls-3" d="M153.82,1431.57h-7.42l-1.15,3.64h-5.04l7.06-19.6h5.66l7.06,19.6h-5.01l-1.15-3.64Zm-1.15-3.64l-2.58-8.15-2.58,8.15h5.15Z"/>
      <path class="cls-3" d="M174.45,1435.22l-3.3-6.55h-3.02v6.55h-4.79v-19.6h7.53c4.98,0,7.53,2.86,7.53,6.78,0,2.35-1.15,4.12-3.02,5.18l4.17,7.64h-5.1Zm-6.33-10.58h2.74c1.4,0,2.69-.56,2.69-2.24,0-1.46-1.09-2.24-2.69-2.24h-2.74v4.48Z"/>
      <path class="cls-3" d="M199.71,1431.57l1.74,1.74-2.55,2.52-1.79-1.82c-1.54,1.01-3.42,1.57-5.49,1.57-5.8,0-9.97-4.34-9.97-10.16s4.17-10.14,9.97-10.14,9.97,4.34,9.97,10.14c0,2.35-.7,4.48-1.88,6.16Zm-6.02-1.01l-2.44-2.44,2.55-2.52,2.41,2.44c.36-.81,.56-1.71,.56-2.63,0-2.77-1.74-5.52-5.15-5.52s-5.15,2.74-5.15,5.52,1.74,5.54,5.15,5.54c.78,0,1.46-.14,2.07-.39Z"/>
      <path class="cls-3" d="M222.03,1415.61v11.98c0,5.38-3.05,7.98-8.18,7.98s-8.2-2.6-8.2-7.98v-11.98h4.82v11.51c0,2.6,1.23,3.84,3.39,3.84s3.39-1.23,3.39-3.84v-11.51h4.79Z"/>
      <path class="cls-3" d="M231.57,1415.61v19.6h-4.79v-19.6h4.79Z"/>
      <path class="cls-3" d="M250.78,1429.48c0,3.19-2.77,6.1-7.67,6.1-3.61,0-7.03-1.4-7.9-5.04l4.42-1.37c.25,1.12,1.29,2.32,3.42,2.32,1.65,0,2.88-.64,2.88-1.93,0-1.46-1.93-1.68-4.14-2.24-3.92-.95-5.68-2.77-5.68-6.05,0-3.75,3.11-5.99,7.2-5.99,3.36,0,6.22,1.79,6.97,4.9l-4.42,1.09c-.25-.95-1.06-1.9-2.77-1.9-1.4,0-2.32,.76-2.32,1.88,0,1.54,2.32,1.9,3.84,2.32,4.79,1.34,6.19,2.86,6.19,5.91Z"/>
      <path class="cls-3" d="M266.74,1430.71v4.51h-12.32v-19.6h12.07v4.54h-7.28v3.02h6.38v4.29h-6.38v3.25h7.53Z"/>
      <path class="cls-3" d="M128.45,1476.14l4,2.63c-1.76,2.35-4.56,3.81-7.92,3.81-5.8,0-9.97-4.34-9.97-10.16s4.17-10.14,9.97-10.14c3.36,0,6.16,1.46,7.92,3.78l-4,2.63c-.84-1.06-2.16-1.79-3.92-1.79-3.42,0-5.15,2.74-5.15,5.52s1.74,5.54,5.15,5.54c1.76,0,3.08-.73,3.92-1.82Z"/>
      <path class="cls-3" d="M152.64,1462.61v19.6h-4.79v-7.62h-7.11v7.62h-4.79v-19.6h4.79v7.45h7.11v-7.45h4.79Z"/>
      <path class="cls-3" d="M176.64,1472.41c0,5.82-4.17,10.16-9.97,10.16s-9.97-4.34-9.97-10.16,4.17-10.14,9.97-10.14,9.97,4.34,9.97,10.14Zm-4.82,0c0-2.77-1.74-5.52-5.15-5.52s-5.15,2.74-5.15,5.52,1.74,5.54,5.15,5.54,5.15-2.77,5.15-5.54Z"/>
      <path class="cls-3" d="M193.89,1476.14l4,2.63c-1.76,2.35-4.56,3.81-7.92,3.81-5.8,0-9.97-4.34-9.97-10.16s4.17-10.14,9.97-10.14c3.36,0,6.16,1.46,7.92,3.78l-4,2.63c-.84-1.06-2.16-1.79-3.92-1.79-3.42,0-5.15,2.74-5.15,5.52s1.74,5.54,5.15,5.54c1.76,0,3.08-.73,3.92-1.82Z"/>
      <path class="cls-3" d="M220.07,1472.41c0,5.82-4.17,10.16-9.97,10.16s-9.97-4.34-9.97-10.16,4.17-10.14,9.97-10.14,9.97,4.34,9.97,10.14Zm-4.82,0c0-2.77-1.74-5.52-5.15-5.52s-5.15,2.74-5.15,5.52,1.74,5.54,5.15,5.54,5.15-2.77,5.15-5.54Z"/>
      <path class="cls-3" d="M252.04,1472.41c0,5.82-4.17,10.16-9.97,10.16s-9.97-4.34-9.97-10.16,4.17-10.14,9.97-10.14,9.97,4.34,9.97,10.14Zm-4.82,0c0-2.77-1.74-5.52-5.15-5.52s-5.15,2.74-5.15,5.52,1.74,5.54,5.15,5.54,5.15-2.77,5.15-5.54Z"/>
      <path class="cls-3" d="M267.22,1482.22l-3.3-6.55h-3.02v6.55h-4.79v-19.6h7.53c4.98,0,7.53,2.86,7.53,6.78,0,2.35-1.15,4.12-3.02,5.18l4.17,7.64h-5.1Zm-6.33-10.58h2.74c1.4,0,2.69-.56,2.69-2.24,0-1.46-1.09-2.24-2.69-2.24h-2.74v4.48Z"/>
      <path class="cls-3" d="M287.99,1477.71v4.51h-12.32v-19.6h12.07v4.54h-7.28v3.02h6.38v4.29h-6.38v3.25h7.53Z"/>
      <path class="cls-3" d="M311.15,1472.41c0,5.82-4.17,10.16-9.97,10.16s-9.97-4.34-9.97-10.16,4.17-10.14,9.97-10.14,9.97,4.34,9.97,10.14Zm-4.82,0c0-2.77-1.74-5.52-5.15-5.52s-5.15,2.74-5.15,5.52,1.74,5.54,5.15,5.54,5.15-2.77,5.15-5.54Z"/>
    </g>
    <g>
      <path class="cls-3" d="M647.28,1294.6v3.47h-2.78v-3.47c-3.92-.38-7.26-2.22-8.3-5.83l4.55-1.42c.35,1.39,1.81,3.2,5.21,3.2,2.43,0,4.38-.94,4.38-3.02,0-2.43-2.78-2.6-6.6-3.54-4.9-1.22-6.53-3.68-6.53-7.05,0-4.2,2.92-6.95,7.29-7.36v-3.47h2.78v3.51c3.33,.42,5.9,2.4,6.81,5.63l-4.58,1.11c-.28-1.29-1.53-2.71-3.96-2.71-2.01,0-3.68,1.04-3.68,2.99,0,2.74,3.09,3.12,5.35,3.65,5.76,1.32,7.85,2.99,7.85,6.91,0,3.51-2.33,6.95-7.78,7.43Z"/>
      <path class="cls-3" d="M669.54,1269.91v24.31h-4.72v-18.82l-4.27,2.88-2.01-3.3,7.5-5.07h3.51Z"/>
      <path class="cls-3" d="M691.24,1289.84v4.38h-15.49v-3.44c2.29-2.54,3.61-4.06,5.87-6.63,2.12-2.47,4.55-5.11,4.55-7.22,0-1.74-1.04-3.16-2.99-3.16-2.15,0-3.06,1.56-3.33,2.99l-4.41-1.01c.87-4.03,4.03-6.25,8.13-6.25,4.48,0,7.33,3.44,7.33,7.26,0,3.4-2.99,6.7-8.61,13.09h8.96Z"/>
      <path class="cls-3" d="M715.14,1282.06c0,6.46-2.64,12.61-9.79,12.61s-9.76-6.15-9.76-12.61,2.64-12.57,9.76-12.57,9.79,6.15,9.79,12.57Zm-4.69,0c0-3.92-1.15-8.09-5.11-8.09s-5.07,4.17-5.07,8.09,1.15,8.13,5.07,8.13,5.11-4.17,5.11-8.13Z"/>
      <path class="cls-3" d="M739.21,1282.06c0,6.46-2.64,12.61-9.79,12.61s-9.76-6.15-9.76-12.61,2.64-12.57,9.76-12.57,9.79,6.15,9.79,12.57Zm-4.69,0c0-3.92-1.15-8.09-5.1-8.09s-5.07,4.17-5.07,8.09,1.15,8.13,5.07,8.13,5.1-4.17,5.1-8.13Z"/>
      <path class="cls-3" d="M647.28,1341.6v3.47h-2.78v-3.47c-3.92-.38-7.26-2.22-8.3-5.83l4.55-1.42c.35,1.39,1.81,3.2,5.21,3.2,2.43,0,4.38-.94,4.38-3.02,0-2.43-2.78-2.6-6.6-3.54-4.9-1.22-6.53-3.68-6.53-7.05,0-4.2,2.92-6.95,7.29-7.36v-3.47h2.78v3.51c3.33,.42,5.9,2.4,6.81,5.63l-4.58,1.11c-.28-1.29-1.53-2.71-3.96-2.71-2.01,0-3.68,1.04-3.68,2.99,0,2.74,3.09,3.12,5.35,3.65,5.76,1.32,7.85,2.99,7.85,6.91,0,3.51-2.33,6.95-7.78,7.43Z"/>
      <path class="cls-3" d="M669.54,1316.91v24.31h-4.72v-18.82l-4.27,2.88-2.01-3.3,7.5-5.07h3.51Z"/>
      <path class="cls-3" d="M691.24,1336.84v4.38h-15.49v-3.44c2.29-2.54,3.61-4.06,5.87-6.63,2.12-2.47,4.55-5.11,4.55-7.22,0-1.74-1.04-3.16-2.99-3.16-2.15,0-3.06,1.56-3.33,2.99l-4.41-1.01c.87-4.03,4.03-6.25,8.13-6.25,4.48,0,7.33,3.44,7.33,7.26,0,3.4-2.99,6.7-8.61,13.09h8.96Z"/>
      <path class="cls-3" d="M715.14,1329.06c0,6.46-2.64,12.61-9.79,12.61s-9.76-6.15-9.76-12.61,2.64-12.57,9.76-12.57,9.79,6.15,9.79,12.57Zm-4.69,0c0-3.92-1.15-8.09-5.11-8.09s-5.07,4.17-5.07,8.09,1.15,8.13,5.07,8.13,5.11-4.17,5.11-8.13Z"/>
      <path class="cls-3" d="M739.21,1329.06c0,6.46-2.64,12.61-9.79,12.61s-9.76-6.15-9.76-12.61,2.64-12.57,9.76-12.57,9.79,6.15,9.79,12.57Zm-4.69,0c0-3.92-1.15-8.09-5.1-8.09s-5.07,4.17-5.07,8.09,1.15,8.13,5.07,8.13,5.1-4.17,5.1-8.13Z"/>
      <path class="cls-3" d="M647.28,1388.6v3.47h-2.78v-3.47c-3.92-.38-7.26-2.22-8.3-5.83l4.55-1.42c.35,1.39,1.81,3.2,5.21,3.2,2.43,0,4.38-.94,4.38-3.02,0-2.43-2.78-2.6-6.6-3.54-4.9-1.22-6.53-3.68-6.53-7.05,0-4.2,2.92-6.95,7.29-7.36v-3.47h2.78v3.51c3.33,.42,5.9,2.4,6.81,5.63l-4.58,1.11c-.28-1.29-1.53-2.71-3.96-2.71-2.01,0-3.68,1.04-3.68,2.99,0,2.74,3.09,3.12,5.35,3.65,5.76,1.32,7.85,2.99,7.85,6.91,0,3.51-2.33,6.95-7.78,7.43Z"/>
      <path class="cls-3" d="M669.54,1363.91v24.31h-4.72v-18.82l-4.27,2.88-2.01-3.3,7.5-5.07h3.51Z"/>
      <path class="cls-3" d="M691.24,1383.84v4.38h-15.49v-3.44c2.29-2.54,3.61-4.06,5.87-6.63,2.12-2.47,4.55-5.11,4.55-7.22,0-1.74-1.04-3.16-2.99-3.16-2.15,0-3.06,1.56-3.33,2.99l-4.41-1.01c.87-4.03,4.03-6.25,8.13-6.25,4.48,0,7.33,3.44,7.33,7.26,0,3.4-2.99,6.7-8.61,13.09h8.96Z"/>
      <path class="cls-3" d="M715.14,1376.06c0,6.46-2.64,12.61-9.79,12.61s-9.76-6.15-9.76-12.61,2.64-12.57,9.76-12.57,9.79,6.15,9.79,12.57Zm-4.69,0c0-3.92-1.15-8.09-5.11-8.09s-5.07,4.17-5.07,8.09,1.15,8.13,5.07,8.13,5.11-4.17,5.11-8.13Z"/>
      <path class="cls-3" d="M739.21,1376.06c0,6.46-2.64,12.61-9.79,12.61s-9.76-6.15-9.76-12.61,2.64-12.57,9.76-12.57,9.79,6.15,9.79,12.57Zm-4.69,0c0-3.92-1.15-8.09-5.1-8.09s-5.07,4.17-5.07,8.09,1.15,8.13,5.07,8.13,5.1-4.17,5.1-8.13Z"/>
      <path class="cls-3" d="M647.28,1435.6v3.47h-2.78v-3.47c-3.92-.38-7.26-2.22-8.3-5.83l4.55-1.42c.35,1.39,1.81,3.2,5.21,3.2,2.43,0,4.38-.94,4.38-3.02,0-2.43-2.78-2.6-6.6-3.54-4.9-1.22-6.53-3.68-6.53-7.05,0-4.2,2.92-6.95,7.29-7.36v-3.47h2.78v3.51c3.33,.42,5.9,2.4,6.81,5.63l-4.58,1.11c-.28-1.29-1.53-2.71-3.96-2.71-2.01,0-3.68,1.04-3.68,2.99,0,2.74,3.09,3.12,5.35,3.65,5.76,1.32,7.85,2.99,7.85,6.91,0,3.51-2.33,6.95-7.78,7.43Z"/>
      <path class="cls-3" d="M669.54,1410.91v24.31h-4.72v-18.82l-4.27,2.88-2.01-3.3,7.5-5.07h3.51Z"/>
      <path class="cls-3" d="M691.24,1430.84v4.38h-15.49v-3.44c2.29-2.54,3.61-4.06,5.87-6.63,2.12-2.47,4.55-5.11,4.55-7.22,0-1.74-1.04-3.16-2.99-3.16-2.15,0-3.06,1.56-3.33,2.99l-4.41-1.01c.87-4.03,4.03-6.25,8.13-6.25,4.48,0,7.33,3.44,7.33,7.26,0,3.4-2.99,6.7-8.61,13.09h8.96Z"/>
      <path class="cls-3" d="M715.14,1423.06c0,6.46-2.64,12.61-9.79,12.61s-9.76-6.15-9.76-12.61,2.64-12.57,9.76-12.57,9.79,6.15,9.79,12.57Zm-4.69,0c0-3.92-1.15-8.09-5.11-8.09s-5.07,4.17-5.07,8.09,1.15,8.13,5.07,8.13,5.11-4.17,5.11-8.13Z"/>
      <path class="cls-3" d="M739.21,1423.06c0,6.46-2.64,12.61-9.79,12.61s-9.76-6.15-9.76-12.61,2.64-12.57,9.76-12.57,9.79,6.15,9.79,12.57Zm-4.69,0c0-3.92-1.15-8.09-5.1-8.09s-5.07,4.17-5.07,8.09,1.15,8.13,5.07,8.13,5.1-4.17,5.1-8.13Z"/>
      <path class="cls-3" d="M647.28,1482.6v3.47h-2.78v-3.47c-3.92-.38-7.26-2.22-8.3-5.83l4.55-1.42c.35,1.39,1.81,3.2,5.21,3.2,2.43,0,4.38-.94,4.38-3.02,0-2.43-2.78-2.6-6.6-3.54-4.9-1.22-6.53-3.68-6.53-7.05,0-4.2,2.92-6.95,7.29-7.36v-3.47h2.78v3.51c3.33,.42,5.9,2.4,6.81,5.63l-4.58,1.11c-.28-1.29-1.53-2.71-3.96-2.71-2.01,0-3.68,1.04-3.68,2.99,0,2.74,3.09,3.12,5.35,3.65,5.76,1.32,7.85,2.99,7.85,6.91,0,3.51-2.33,6.95-7.78,7.43Z"/>
      <path class="cls-3" d="M669.54,1457.91v24.31h-4.72v-18.82l-4.27,2.88-2.01-3.3,7.5-5.07h3.51Z"/>
      <path class="cls-3" d="M691.24,1477.84v4.38h-15.49v-3.44c2.29-2.54,3.61-4.06,5.87-6.63,2.12-2.47,4.55-5.11,4.55-7.22,0-1.74-1.04-3.16-2.99-3.16-2.15,0-3.06,1.56-3.33,2.99l-4.41-1.01c.87-4.03,4.03-6.25,8.13-6.25,4.48,0,7.33,3.44,7.33,7.26,0,3.4-2.99,6.7-8.61,13.09h8.96Z"/>
      <path class="cls-3" d="M715.14,1470.06c0,6.46-2.64,12.61-9.79,12.61s-9.76-6.15-9.76-12.61,2.64-12.57,9.76-12.57,9.79,6.15,9.79,12.57Zm-4.69,0c0-3.92-1.15-8.09-5.11-8.09s-5.07,4.17-5.07,8.09,1.15,8.13,5.07,8.13,5.11-4.17,5.11-8.13Z"/>
      <path class="cls-3" d="M739.21,1470.06c0,6.46-2.64,12.61-9.79,12.61s-9.76-6.15-9.76-12.61,2.64-12.57,9.76-12.57,9.79,6.15,9.79,12.57Zm-4.69,0c0-3.92-1.15-8.09-5.1-8.09s-5.07,4.17-5.07,8.09,1.15,8.13,5.07,8.13,5.1-4.17,5.1-8.13Z"/>
    </g>
    <rect class="cls-2" x="45.64" y="1731.96" width="546.27" height="201.11"/>
    <rect class="cls-2" x="596.91" y="1731.96" width="178.77" height="201.11"/>
    <g>
      <path class="cls-3" d="M128.45,1812.03l4,2.63c-1.76,2.35-4.56,3.81-7.92,3.81-5.8,0-9.97-4.34-9.97-10.16s4.17-10.14,9.97-10.14c3.36,0,6.16,1.46,7.92,3.78l-4,2.63c-.84-1.06-2.16-1.79-3.92-1.79-3.42,0-5.15,2.74-5.15,5.52s1.74,5.54,5.15,5.54c1.76,0,3.08-.73,3.92-1.82Z"/>
      <path class="cls-3" d="M152.64,1798.5v19.6h-4.79v-7.62h-7.11v7.62h-4.79v-19.6h4.79v7.45h7.11v-7.45h4.79Z"/>
      <path class="cls-3" d="M176.64,1808.3c0,5.82-4.17,10.16-9.97,10.16s-9.97-4.34-9.97-10.16,4.17-10.14,9.97-10.14,9.97,4.34,9.97,10.14Zm-4.82,0c0-2.77-1.74-5.52-5.15-5.52s-5.15,2.74-5.15,5.52,1.74,5.54,5.15,5.54,5.15-2.77,5.15-5.54Z"/>
      <path class="cls-3" d="M193.89,1812.03l4,2.63c-1.76,2.35-4.56,3.81-7.92,3.81-5.8,0-9.97-4.34-9.97-10.16s4.17-10.14,9.97-10.14c3.36,0,6.16,1.46,7.92,3.78l-4,2.63c-.84-1.06-2.16-1.79-3.92-1.79-3.42,0-5.15,2.74-5.15,5.52s1.74,5.54,5.15,5.54c1.76,0,3.08-.73,3.92-1.82Z"/>
      <path class="cls-3" d="M220.07,1808.3c0,5.82-4.17,10.16-9.97,10.16s-9.97-4.34-9.97-10.16,4.17-10.14,9.97-10.14,9.97,4.34,9.97,10.14Zm-4.82,0c0-2.77-1.74-5.52-5.15-5.52s-5.15,2.74-5.15,5.52,1.74,5.54,5.15,5.54,5.15-2.77,5.15-5.54Z"/>
      <path class="cls-3" d="M236.25,1813.6v4.51h-12.12v-19.6h4.82v15.09h7.31Z"/>
      <path class="cls-3" d="M252.38,1814.46h-7.42l-1.15,3.64h-5.04l7.06-19.6h5.66l7.06,19.6h-5.01l-1.15-3.64Zm-1.15-3.64l-2.58-8.15-2.58,8.15h5.15Z"/>
      <path class="cls-3" d="M273.63,1803.04h-4.59v15.06h-4.79v-15.06h-4.59v-4.54h13.97v4.54Z"/>
      <path class="cls-3" d="M289.87,1813.6v4.51h-12.32v-19.6h12.07v4.54h-7.28v3.02h6.38v4.29h-6.38v3.25h7.53Z"/>
      <path class="cls-3" d="M132.54,1855.3c0,5.99-3.86,9.8-10.42,9.8h-6.86v-19.6h6.86c6.55,0,10.42,3.84,10.42,9.8Zm-4.79,0c0-3.47-2.41-5.26-5.63-5.26h-2.04v10.56h2.04c3.22,0,5.63-1.82,5.63-5.29Z"/>
      <path class="cls-3" d="M152.98,1845.5v11.98c0,5.38-3.05,7.98-8.18,7.98s-8.2-2.6-8.2-7.98v-11.98h4.82v11.51c0,2.6,1.23,3.84,3.39,3.84s3.39-1.23,3.39-3.84v-11.51h4.79Z"/>
      <path class="cls-3" d="M169.86,1860.6v4.51h-12.12v-19.6h4.82v15.09h7.31Z"/>
      <path class="cls-3" d="M186.41,1859.03l4,2.63c-1.76,2.35-4.56,3.81-7.92,3.81-5.8,0-9.97-4.34-9.97-10.16s4.17-10.14,9.97-10.14c3.36,0,6.16,1.46,7.92,3.78l-4,2.63c-.84-1.06-2.16-1.79-3.92-1.79-3.42,0-5.15,2.74-5.15,5.52s1.74,5.54,5.15,5.54c1.76,0,3.08-.73,3.92-1.82Z"/>
      <path class="cls-3" d="M206.23,1860.6v4.51h-12.32v-19.6h12.07v4.54h-7.28v3.02h6.38v4.29h-6.38v3.25h7.53Z"/>
      <path class="cls-3" d="M236.39,1855.3c0,5.99-3.86,9.8-10.42,9.8h-6.86v-19.6h6.86c6.55,0,10.42,3.84,10.42,9.8Zm-4.79,0c0-3.47-2.41-5.26-5.63-5.26h-2.04v10.56h2.04c3.22,0,5.63-1.82,5.63-5.29Z"/>
      <path class="cls-3" d="M252.77,1860.6v4.51h-12.32v-19.6h12.07v4.54h-7.28v3.02h6.38v4.29h-6.38v3.25h7.53Z"/>
      <path class="cls-3" d="M277.77,1860.6v4.51h-12.12v-19.6h4.82v15.09h7.31Z"/>
      <path class="cls-3" d="M294.01,1860.6v4.51h-12.32v-19.6h12.07v4.54h-7.28v3.02h6.38v4.29h-6.38v3.25h7.53Z"/>
      <path class="cls-3" d="M311.12,1859.03l4,2.63c-1.76,2.35-4.56,3.81-7.92,3.81-5.8,0-9.97-4.34-9.97-10.16s4.17-10.14,9.97-10.14c3.36,0,6.16,1.46,7.92,3.78l-4,2.63c-.84-1.06-2.16-1.79-3.92-1.79-3.42,0-5.15,2.74-5.15,5.52s1.74,5.54,5.15,5.54c1.76,0,3.08-.73,3.92-1.82Z"/>
      <path class="cls-3" d="M335.31,1845.5v19.6h-4.79v-7.62h-7.11v7.62h-4.79v-19.6h4.79v7.45h7.11v-7.45h4.79Z"/>
      <path class="cls-3" d="M352.39,1860.6v4.51h-12.32v-19.6h12.07v4.54h-7.28v3.02h6.38v4.29h-6.38v3.25h7.53Z"/>
      <path class="cls-3" d="M375.74,1857.74v7.36h-4.82v-7.36l-7.06-12.24h5.15l4.31,8.34,4.31-8.34h5.15l-7.06,12.24Z"/>
      <path class="cls-3" d="M411.5,1845.5v19.6h-4.2l-7.64-11.42v11.42h-4.82v-19.6h4.2l7.64,11.42v-11.42h4.82Z"/>
      <path class="cls-3" d="M432.64,1845.5v11.98c0,5.38-3.05,7.98-8.18,7.98s-8.2-2.6-8.2-7.98v-11.98h4.82v11.51c0,2.6,1.23,3.84,3.39,3.84s3.39-1.23,3.39-3.84v-11.51h4.79Z"/>
      <path class="cls-3" d="M449.72,1860.6v4.51h-12.32v-19.6h12.07v4.54h-7.28v3.02h6.38v4.29h-6.38v3.25h7.53Z"/>
      <path class="cls-3" d="M467.92,1860.6v4.51h-14.84v-4l8.2-11.06h-7.95v-4.54h14.08v4.03l-8.2,11.06h8.71Z"/>
    </g>
    <g>
      <path class="cls-3" d="M647.28,1818.49v3.47h-2.78v-3.47c-3.92-.38-7.26-2.22-8.3-5.83l4.55-1.42c.35,1.39,1.81,3.2,5.21,3.2,2.43,0,4.38-.94,4.38-3.02,0-2.43-2.78-2.6-6.6-3.54-4.9-1.22-6.53-3.68-6.53-7.05,0-4.2,2.92-6.95,7.29-7.36v-3.47h2.78v3.51c3.33,.42,5.9,2.4,6.81,5.63l-4.58,1.11c-.28-1.29-1.53-2.71-3.96-2.71-2.01,0-3.68,1.04-3.68,2.99,0,2.74,3.09,3.12,5.35,3.65,5.76,1.32,7.85,2.99,7.85,6.91,0,3.51-2.33,6.95-7.78,7.43Z"/>
      <path class="cls-3" d="M669.54,1793.79v24.31h-4.72v-18.82l-4.27,2.88-2.01-3.3,7.5-5.07h3.51Z"/>
      <path class="cls-3" d="M691.24,1813.73v4.38h-15.49v-3.44c2.29-2.54,3.61-4.06,5.87-6.63,2.12-2.47,4.55-5.11,4.55-7.22,0-1.74-1.04-3.16-2.99-3.16-2.15,0-3.06,1.56-3.33,2.99l-4.41-1.01c.87-4.03,4.03-6.25,8.13-6.25,4.48,0,7.33,3.44,7.33,7.26,0,3.4-2.99,6.7-8.61,13.09h8.96Z"/>
      <path class="cls-3" d="M715.14,1805.95c0,6.46-2.64,12.61-9.79,12.61s-9.76-6.15-9.76-12.61,2.64-12.57,9.76-12.57,9.79,6.15,9.79,12.57Zm-4.69,0c0-3.92-1.15-8.09-5.11-8.09s-5.07,4.17-5.07,8.09,1.15,8.13,5.07,8.13,5.11-4.17,5.11-8.13Z"/>
      <path class="cls-3" d="M739.21,1805.95c0,6.46-2.64,12.61-9.79,12.61s-9.76-6.15-9.76-12.61,2.64-12.57,9.76-12.57,9.79,6.15,9.79,12.57Zm-4.69,0c0-3.92-1.15-8.09-5.1-8.09s-5.07,4.17-5.07,8.09,1.15,8.13,5.07,8.13,5.1-4.17,5.1-8.13Z"/>
      <path class="cls-3" d="M647.28,1865.49v3.47h-2.78v-3.47c-3.92-.38-7.26-2.22-8.3-5.83l4.55-1.42c.35,1.39,1.81,3.2,5.21,3.2,2.43,0,4.38-.94,4.38-3.02,0-2.43-2.78-2.6-6.6-3.54-4.9-1.22-6.53-3.68-6.53-7.05,0-4.2,2.92-6.95,7.29-7.36v-3.47h2.78v3.51c3.33,.42,5.9,2.4,6.81,5.63l-4.58,1.11c-.28-1.29-1.53-2.71-3.96-2.71-2.01,0-3.68,1.04-3.68,2.99,0,2.74,3.09,3.12,5.35,3.65,5.76,1.32,7.85,2.99,7.85,6.91,0,3.51-2.33,6.95-7.78,7.43Z"/>
      <path class="cls-3" d="M669.54,1840.79v24.31h-4.72v-18.82l-4.27,2.88-2.01-3.3,7.5-5.07h3.51Z"/>
      <path class="cls-3" d="M691.24,1860.73v4.38h-15.49v-3.44c2.29-2.54,3.61-4.06,5.87-6.63,2.12-2.47,4.55-5.11,4.55-7.22,0-1.74-1.04-3.16-2.99-3.16-2.15,0-3.06,1.56-3.33,2.99l-4.41-1.01c.87-4.03,4.03-6.25,8.13-6.25,4.48,0,7.33,3.44,7.33,7.26,0,3.4-2.99,6.7-8.61,13.09h8.96Z"/>
      <path class="cls-3" d="M715.14,1852.95c0,6.46-2.64,12.61-9.79,12.61s-9.76-6.15-9.76-12.61,2.64-12.57,9.76-12.57,9.79,6.15,9.79,12.57Zm-4.69,0c0-3.92-1.15-8.09-5.11-8.09s-5.07,4.17-5.07,8.09,1.15,8.13,5.07,8.13,5.11-4.17,5.11-8.13Z"/>
      <path class="cls-3" d="M739.21,1852.95c0,6.46-2.64,12.61-9.79,12.61s-9.76-6.15-9.76-12.61,2.64-12.57,9.76-12.57,9.79,6.15,9.79,12.57Zm-4.69,0c0-3.92-1.15-8.09-5.1-8.09s-5.07,4.17-5.07,8.09,1.15,8.13,5.07,8.13,5.1-4.17,5.1-8.13Z"/>
    </g>
    <rect class="cls-2" x="45.64" y="2242.87" width="546.27" height="247.75"/>
    <rect class="cls-2" x="596.91" y="2242.87" width="178.77" height="247.75"/>
    <g>
      <path class="cls-3" d="M129.71,2323.28c0,3.19-2.77,6.1-7.67,6.1-3.61,0-7.03-1.4-7.9-5.04l4.42-1.37c.25,1.12,1.29,2.32,3.42,2.32,1.65,0,2.88-.64,2.88-1.93,0-1.46-1.93-1.68-4.14-2.24-3.92-.95-5.68-2.77-5.68-6.05,0-3.75,3.11-5.99,7.2-5.99,3.36,0,6.22,1.79,6.97,4.9l-4.42,1.09c-.25-.95-1.06-1.9-2.77-1.9-1.4,0-2.32,.76-2.32,1.88,0,1.54,2.32,1.9,3.84,2.32,4.79,1.34,6.19,2.86,6.19,5.91Z"/>
      <path class="cls-3" d="M138.14,2309.42v19.6h-4.79v-19.6h4.79Z"/>
      <path class="cls-3" d="M164.49,2309.42v19.6h-4.82v-11.65l-5.1,8.43h-1.76l-5.12-8.43v11.65h-4.79v-19.6h5.04l5.74,9.49,5.74-9.49h5.07Z"/>
      <path class="cls-3" d="M184.34,2316.44c0,4.62-3.53,6.78-7.78,6.78h-2.52v5.79h-4.79v-19.6h7.31c4.87,0,7.78,2.8,7.78,7.03Zm-4.87,0c0-1.51-1.06-2.49-2.91-2.49h-2.52v4.98h2.52c1.74,0,2.91-.78,2.91-2.49Z"/>
      <path class="cls-3" d="M200.38,2324.51v4.51h-12.12v-19.6h4.82v15.09h7.31Z"/>
      <path class="cls-3" d="M216.62,2324.51v4.51h-12.32v-19.6h12.07v4.54h-7.28v3.02h6.38v4.28h-6.38v3.25h7.53Z"/>
      <path class="cls-3" d="M128.45,2369.94l4,2.63c-1.76,2.35-4.56,3.81-7.92,3.81-5.8,0-9.97-4.34-9.97-10.16s4.17-10.14,9.97-10.14c3.36,0,6.16,1.46,7.92,3.78l-4,2.63c-.84-1.06-2.16-1.79-3.92-1.79-3.42,0-5.15,2.74-5.15,5.52s1.74,5.54,5.15,5.54c1.76,0,3.08-.73,3.92-1.82Z"/>
      <path class="cls-3" d="M148.08,2371.51v4.51h-12.12v-19.6h4.82v15.09h7.31Z"/>
      <path class="cls-3" d="M164.21,2372.38h-7.42l-1.15,3.64h-5.04l7.06-19.6h5.66l7.06,19.6h-5.01l-1.15-3.64Zm-1.15-3.64l-2.58-8.15-2.58,8.15h5.15Zm1.99-18.4l-2.72,3.92h-3.61l1.82-3.92h4.51Z"/>
      <path class="cls-3" d="M188.17,2370.28c0,3.19-2.77,6.1-7.67,6.1-3.61,0-7.03-1.4-7.9-5.04l4.42-1.37c.25,1.12,1.29,2.32,3.42,2.32,1.65,0,2.88-.64,2.88-1.93,0-1.46-1.93-1.68-4.14-2.24-3.92-.95-5.68-2.77-5.68-6.05,0-3.75,3.11-5.99,7.2-5.99,3.36,0,6.22,1.79,6.97,4.9l-4.42,1.09c-.25-.95-1.06-1.9-2.77-1.9-1.4,0-2.32,.76-2.32,1.88,0,1.54,2.32,1.9,3.84,2.32,4.79,1.34,6.19,2.86,6.19,5.91Z"/>
      <path class="cls-3" d="M196.6,2356.42v19.6h-4.79v-19.6h4.79Z"/>
      <path class="cls-3" d="M214.55,2369.94l4,2.63c-1.76,2.35-4.56,3.81-7.92,3.81-5.8,0-9.97-4.34-9.97-10.16s4.17-10.14,9.97-10.14c3.36,0,6.16,1.46,7.92,3.78l-4,2.63c-.84-1.06-2.16-1.79-3.92-1.79-3.42,0-5.15,2.74-5.15,5.52s1.74,5.54,5.15,5.54c1.76,0,3.08-.73,3.92-1.82Z"/>
      <path class="cls-3" d="M240.73,2366.22c0,5.82-4.17,10.16-9.97,10.16s-9.97-4.34-9.97-10.16,4.17-10.14,9.97-10.14,9.97,4.34,9.97,10.14Zm-4.82,0c0-2.77-1.74-5.52-5.15-5.52s-5.15,2.74-5.15,5.52,1.74,5.54,5.15,5.54,5.15-2.77,5.15-5.54Z"/>
      <path class="cls-3" d="M132.54,2413.22c0,5.99-3.86,9.8-10.42,9.8h-6.86v-19.6h6.86c6.55,0,10.42,3.84,10.42,9.8Zm-4.79,0c0-3.47-2.41-5.26-5.63-5.26h-2.04v10.56h2.04c3.22,0,5.63-1.82,5.63-5.29Z"/>
      <path class="cls-3" d="M148.92,2418.51v4.51h-12.32v-19.6h12.07v4.54h-7.28v3.02h6.38v4.28h-6.38v3.25h7.53Z"/>
      <path class="cls-3" d="M165.24,2418.51v4.51h-12.12v-19.6h4.82v15.09h7.31Z"/>
      <path class="cls-3" d="M173.95,2403.42v19.6h-4.79v-19.6h4.79Z"/>
      <path class="cls-3" d="M191.9,2416.94l4,2.63c-1.76,2.35-4.56,3.81-7.92,3.81-5.8,0-9.97-4.34-9.97-10.16s4.17-10.14,9.97-10.14c3.36,0,6.16,1.46,7.92,3.78l-4,2.63c-.84-1.06-2.16-1.79-3.92-1.79-3.42,0-5.15,2.74-5.15,5.52s1.74,5.54,5.15,5.54c1.76,0,3.08-.73,3.92-1.82Z"/>
      <path class="cls-3" d="M211.89,2419.38h-7.42l-1.15,3.64h-5.04l7.06-19.6h5.66l7.06,19.6h-5.01l-1.15-3.64Zm-1.15-3.64l-2.58-8.15-2.58,8.15h5.15Z"/>
      <path class="cls-3" d="M233.14,2407.95h-4.59v15.06h-4.79v-15.06h-4.59v-4.54h13.97v4.54Z"/>
      <path class="cls-3" d="M249.38,2418.51v4.51h-12.32v-19.6h12.07v4.54h-7.28v3.02h6.38v4.28h-6.38v3.25h7.53Z"/>
      <path class="cls-3" d="M268.03,2417.28c0,3.19-2.77,6.1-7.67,6.1-3.61,0-7.03-1.4-7.9-5.04l4.42-1.37c.25,1.12,1.29,2.32,3.42,2.32,1.65,0,2.88-.64,2.88-1.93,0-1.46-1.93-1.68-4.14-2.24-3.92-.95-5.68-2.77-5.68-6.05,0-3.75,3.11-5.99,7.2-5.99,3.36,0,6.22,1.79,6.97,4.9l-4.42,1.09c-.25-.95-1.06-1.9-2.77-1.9-1.4,0-2.32,.76-2.32,1.88,0,1.54,2.32,1.9,3.84,2.32,4.79,1.34,6.19,2.86,6.19,5.91Z"/>
      <path class="cls-3" d="M286.12,2417.28c0,3.19-2.77,6.1-7.67,6.1-3.61,0-7.03-1.4-7.9-5.04l4.42-1.37c.25,1.12,1.29,2.32,3.42,2.32,1.65,0,2.88-.64,2.88-1.93,0-1.46-1.93-1.68-4.14-2.24-3.92-.95-5.68-2.77-5.68-6.05,0-3.75,3.11-5.99,7.2-5.99,3.36,0,6.22,1.79,6.97,4.9l-4.42,1.09c-.25-.95-1.06-1.9-2.77-1.9-1.4,0-2.32,.76-2.32,1.88,0,1.54,2.32,1.9,3.84,2.32,4.79,1.34,6.19,2.86,6.19,5.91Z"/>
      <path class="cls-3" d="M302.08,2418.51v4.51h-12.32v-19.6h12.07v4.54h-7.28v3.02h6.38v4.28h-6.38v3.25h7.53Z"/>
      <path class="cls-3" d="M322.94,2403.42v19.6h-4.2l-7.64-11.42v11.42h-4.82v-19.6h4.2l7.64,11.42v-11.42h4.82Z"/>
    </g>
    <g>
      <path class="cls-3" d="M647.28,2329.4v3.47h-2.78v-3.47c-3.92-.38-7.26-2.22-8.3-5.83l4.55-1.42c.35,1.39,1.81,3.2,5.21,3.2,2.43,0,4.38-.94,4.38-3.02,0-2.43-2.78-2.6-6.6-3.54-4.9-1.22-6.53-3.68-6.53-7.05,0-4.2,2.92-6.95,7.29-7.36v-3.47h2.78v3.51c3.33,.42,5.9,2.4,6.81,5.63l-4.58,1.11c-.28-1.29-1.53-2.71-3.96-2.71-2.01,0-3.68,1.04-3.68,2.99,0,2.74,3.09,3.13,5.35,3.65,5.76,1.32,7.85,2.99,7.85,6.91,0,3.51-2.33,6.95-7.78,7.43Z"/>
      <path class="cls-3" d="M669.54,2304.7v24.31h-4.72v-18.82l-4.27,2.88-2.01-3.3,7.5-5.07h3.51Z"/>
      <path class="cls-3" d="M691.24,2324.64v4.38h-15.49v-3.44c2.29-2.54,3.61-4.06,5.87-6.63,2.12-2.47,4.55-5.11,4.55-7.22,0-1.74-1.04-3.16-2.99-3.16-2.15,0-3.06,1.56-3.33,2.99l-4.41-1.01c.87-4.03,4.03-6.25,8.13-6.25,4.48,0,7.33,3.44,7.33,7.26,0,3.4-2.99,6.7-8.61,13.09h8.96Z"/>
      <path class="cls-3" d="M715.14,2316.86c0,6.46-2.64,12.61-9.79,12.61s-9.76-6.15-9.76-12.61,2.64-12.57,9.76-12.57,9.79,6.15,9.79,12.57Zm-4.69,0c0-3.92-1.15-8.09-5.11-8.09s-5.07,4.17-5.07,8.09,1.15,8.13,5.07,8.13,5.11-4.17,5.11-8.13Z"/>
      <path class="cls-3" d="M739.21,2316.86c0,6.46-2.64,12.61-9.79,12.61s-9.76-6.15-9.76-12.61,2.64-12.57,9.76-12.57,9.79,6.15,9.79,12.57Zm-4.69,0c0-3.92-1.15-8.09-5.1-8.09s-5.07,4.17-5.07,8.09,1.15,8.13,5.07,8.13,5.1-4.17,5.1-8.13Z"/>
      <path class="cls-3" d="M647.28,2376.4v3.47h-2.78v-3.47c-3.92-.38-7.26-2.22-8.3-5.83l4.55-1.42c.35,1.39,1.81,3.2,5.21,3.2,2.43,0,4.38-.94,4.38-3.02,0-2.43-2.78-2.6-6.6-3.54-4.9-1.22-6.53-3.68-6.53-7.05,0-4.2,2.92-6.95,7.29-7.36v-3.47h2.78v3.51c3.33,.42,5.9,2.4,6.81,5.63l-4.58,1.11c-.28-1.29-1.53-2.71-3.96-2.71-2.01,0-3.68,1.04-3.68,2.99,0,2.74,3.09,3.13,5.35,3.65,5.76,1.32,7.85,2.99,7.85,6.91,0,3.51-2.33,6.95-7.78,7.43Z"/>
      <path class="cls-3" d="M669.54,2351.7v24.31h-4.72v-18.82l-4.27,2.88-2.01-3.3,7.5-5.07h3.51Z"/>
      <path class="cls-3" d="M691.24,2371.64v4.38h-15.49v-3.44c2.29-2.54,3.61-4.06,5.87-6.63,2.12-2.47,4.55-5.11,4.55-7.22,0-1.74-1.04-3.16-2.99-3.16-2.15,0-3.06,1.56-3.33,2.99l-4.41-1.01c.87-4.03,4.03-6.25,8.13-6.25,4.48,0,7.33,3.44,7.33,7.26,0,3.4-2.99,6.7-8.61,13.09h8.96Z"/>
      <path class="cls-3" d="M715.14,2363.86c0,6.46-2.64,12.61-9.79,12.61s-9.76-6.15-9.76-12.61,2.64-12.57,9.76-12.57,9.79,6.15,9.79,12.57Zm-4.69,0c0-3.92-1.15-8.09-5.11-8.09s-5.07,4.17-5.07,8.09,1.15,8.13,5.07,8.13,5.11-4.17,5.11-8.13Z"/>
      <path class="cls-3" d="M739.21,2363.86c0,6.46-2.64,12.61-9.79,12.61s-9.76-6.15-9.76-12.61,2.64-12.57,9.76-12.57,9.79,6.15,9.79,12.57Zm-4.69,0c0-3.92-1.15-8.09-5.1-8.09s-5.07,4.17-5.07,8.09,1.15,8.13,5.07,8.13,5.1-4.17,5.1-8.13Z"/>
      <path class="cls-3" d="M647.28,2423.4v3.47h-2.78v-3.47c-3.92-.38-7.26-2.22-8.3-5.83l4.55-1.42c.35,1.39,1.81,3.2,5.21,3.2,2.43,0,4.38-.94,4.38-3.02,0-2.43-2.78-2.6-6.6-3.54-4.9-1.22-6.53-3.68-6.53-7.05,0-4.2,2.92-6.95,7.29-7.36v-3.47h2.78v3.51c3.33,.42,5.9,2.4,6.81,5.63l-4.58,1.11c-.28-1.29-1.53-2.71-3.96-2.71-2.01,0-3.68,1.04-3.68,2.99,0,2.74,3.09,3.13,5.35,3.65,5.76,1.32,7.85,2.99,7.85,6.91,0,3.51-2.33,6.95-7.78,7.43Z"/>
      <path class="cls-3" d="M669.54,2398.7v24.31h-4.72v-18.82l-4.27,2.88-2.01-3.3,7.5-5.07h3.51Z"/>
      <path class="cls-3" d="M691.24,2418.64v4.38h-15.49v-3.44c2.29-2.54,3.61-4.06,5.87-6.63,2.12-2.47,4.55-5.11,4.55-7.22,0-1.74-1.04-3.16-2.99-3.16-2.15,0-3.06,1.56-3.33,2.99l-4.41-1.01c.87-4.03,4.03-6.25,8.13-6.25,4.48,0,7.33,3.44,7.33,7.26,0,3.4-2.99,6.7-8.61,13.09h8.96Z"/>
      <path class="cls-3" d="M715.14,2410.86c0,6.46-2.64,12.61-9.79,12.61s-9.76-6.15-9.76-12.61,2.64-12.57,9.76-12.57,9.79,6.15,9.79,12.57Zm-4.69,0c0-3.92-1.15-8.09-5.11-8.09s-5.07,4.17-5.07,8.09,1.15,8.13,5.07,8.13,5.11-4.17,5.11-8.13Z"/>
      <path class="cls-3" d="M739.21,2410.86c0,6.46-2.64,12.61-9.79,12.61s-9.76-6.15-9.76-12.61,2.64-12.57,9.76-12.57,9.79,6.15,9.79,12.57Zm-4.69,0c0-3.92-1.15-8.09-5.1-8.09s-5.07,4.17-5.07,8.09,1.15,8.13,5.07,8.13,5.1-4.17,5.1-8.13Z"/>
    </g>
  </g>
</svg>