<?xml version="1.0" encoding="UTF-8"?>
<svg id="Capa_2" data-name="Capa 2" xmlns="http://www.w3.org/2000/svg" viewBox="0 0 1920 970">
  <defs>
    <style>
      .cls-1 {
        fill: #fcc10c;
      }

      .cls-2 {
        fill: #55131d;
      }

      .cls-3 {
        fill: #f7f2ea;
      }
    </style>
  </defs>
  <g id="Capa_1-2" data-name="Capa 1">
    <g>
      <rect class="cls-3" x="0" width="1920" height="970"/>
      <path class="cls-1" d="M1920,606.83v238.61c0,29.43-9.94,58.26-29.24,80.36-.99,1.14-2.02,2.28-3.07,3.39l-1.44,1.53c-30.88,32.82-76.46,44.97-118.2,33.99-.38-.1-.75-.2-1.13-.3-.85-.23-1.7-.48-2.55-.73-.53-.16-1.06-.32-1.58-.48-.75-.24-1.51-.47-2.26-.72-.68-.23-1.35-.46-2.02-.7-.62-.22-1.24-.43-1.86-.66-1.3-.48-2.59-.99-3.88-1.52,0,0,0,0,0,0-5.76-2.39-11.41-5.24-16.87-8.58l-8.84-5.4c-1.2-.74-2.42-1.45-3.64-2.14-1.84-1.03-3.69-2.02-5.56-2.95-.63-.31-1.25-.62-1.88-.92-1.89-.89-3.79-1.74-5.71-2.54-.64-.26-1.28-.52-1.92-.78-8.35-3.29-16.99-5.61-25.73-6.95-11.49-1.77-23.18-1.86-34.69-.27-2.04,.28-4.08,.62-6.12,1-.68,.13-1.35,.27-2.03,.41-1.34,.28-2.69,.59-4.04,.91-2.01,.49-4.01,1.03-6.01,1.64-.83,.25-1.65,.51-2.48,.78-.98,.32-1.97,.66-2.94,1-.35,.12-.7,.24-1.04,.37-1.13,.42-2.26,.85-3.38,1.29-1.29,.52-2.59,1.05-3.87,1.62-5.13,2.26-10.14,4.88-15,7.9l-6.28,3.89c-4.51,2.8-9.16,5.27-13.89,7.41-3.61,1.63-7.28,3.07-10.99,4.33-4.61,1.56-9.3,2.82-14,3.8-.86,.18-1.71,.35-2.58,.51-1.01,.19-2.03,.36-3.04,.52-.34,.06-.68,.11-1,.16-1.17,.18-2.35,.33-3.53,.48-4.78,.57-9.6,.86-14.39,.85-2.23,.25-4.47,.43-6.7,.55-6.88,.38-13.8,.17-20.69-.65,0,0,0,0-.02,0-3.34-.41-6.68-.94-10.01-1.62-2-.41-4-.88-5.99-1.38-1.98-.52-3.95-1.08-5.91-1.7-5.45-1.71-10.82-3.84-16.07-6.36-1.68-.82-3.34-1.67-5-2.56h0c-1.86-1.01-3.7-2.08-5.52-3.19l-8.83-5.4c-1.81-1.1-3.64-2.16-5.48-3.15-.62-.33-1.23-.66-1.86-.98-1.86-.96-3.74-1.88-5.63-2.74-.64-.28-1.27-.57-1.91-.85-1.9-.83-3.83-1.6-5.76-2.33-7.11-2.66-14.4-4.61-21.79-5.89-1.34-.23-2.68-.44-4.03-.62-5.39-.74-10.83-1.1-16.26-1.1-.68,0-1.36,0-2.04,.02-.6,0-1.19,.02-1.79,.04-1.65,.05-3.3,.14-4.95,.26-.5,.04-.99,.08-1.48,.12-1.37,.12-2.73,.26-4.1,.43-.74,.08-1.46,.18-2.19,.28-1.28,.18-2.56,.38-3.83,.6-1.39,.24-2.78,.51-4.17,.8-13.5,2.82-26.63,8-38.76,15.51l-6.28,3.89c-20.43,12.66-43.38,18.52-66.04,17.99-25.88,2.95-52.74-2.46-76.3-16.87l-8.84-5.4c-38.75-23.7-87.4-23.55-126.02,.39l-6.28,3.89c-19.64,12.17-41.62,18.06-63.43,18.04-25.76,2.85-52.47-2.58-75.92-16.92l-8.83-5.4c-38.75-23.69-87.4-23.54-126.02,.39l-6.28,3.89c-20.43,12.66-43.38,18.52-66.04,17.99-25.88,2.95-52.74-2.46-76.3-16.87l-8.84-5.4c-38.75-23.7-87.4-23.55-126.02,.39l-6.27,3.89c-19.65,12.17-41.62,18.06-63.43,18.04-25.77,2.85-52.48-2.58-75.92-16.92l-8.84-5.4c-38.75-23.69-87.4-23.54-126.02,.39l-6.27,3.89c-48.88,30.3-112.24,21.76-151.46-20.42l-3.42-3.68c-8.97-9.64-16.07-20.37-21.32-31.73-7.02-15.22-10.2-31.95-10.2-48.73v-238.37c0-16.79,3.18-33.51,10.2-48.73,5.25-11.37,12.35-22.1,21.32-31.74l3.42-3.67c39.22-42.18,102.58-50.72,151.46-20.42l6.27,3.89c38.62,23.93,87.26,24.08,126.02,.38l8.84-5.4c23.44-14.33,50.15-19.76,75.92-16.91,21.81-.03,43.78,5.87,63.43,18.04l6.27,3.89c38.62,23.93,87.26,24.08,126.02,.39l8.84-5.41c23.56-14.4,50.42-19.81,76.3-16.86,22.66-.53,45.62,5.33,66.04,17.99l6.28,3.89c38.62,23.93,87.26,24.08,126.02,.38l8.83-5.4c23.45-14.33,50.16-19.76,75.92-16.91,21.81-.03,43.79,5.87,63.43,18.04l6.28,3.89c38.62,23.93,87.26,24.08,126.02,.39l8.84-5.41c23.56-14.4,50.42-19.81,76.3-16.86,22.66-.53,45.62,5.33,66.04,17.99l6.28,3.89c11.86,7.35,24.68,12.46,37.86,15.31,2.1,.46,4.21,.86,6.32,1.19,.57,.09,1.13,.18,1.7,.27,1.01,.15,2.04,.29,3.05,.41,1.06,.13,2.13,.24,3.2,.34,.54,.06,1.06,.1,1.59,.14,.54,.05,1.06,.09,1.6,.12,1.41,.09,2.83,.16,4.25,.21,.56,.02,1.12,.03,1.68,.04,.68,.01,1.34,.02,2.02,.02,21.73,.01,43.46-5.88,62.74-17.67l8.83-5.4c23.45-14.33,50.16-19.76,75.92-16.91,5.49-.01,11,.36,16.48,1.11,1.35,.18,2.71,.39,4.06,.63,1.34,.23,2.7,.49,4.04,.77,8.08,1.67,16.04,4.2,23.77,7.59,1.28,.57,2.57,1.16,3.84,1.77,1.27,.62,2.54,1.25,3.8,1.91,2.52,1.32,5,2.74,7.45,4.27l6.28,3.89c1.82,1.12,3.66,2.21,5.53,3.22,.62,.34,1.24,.68,1.86,1,1.88,.99,3.78,1.93,5.69,2.8,8.29,3.82,16.91,6.64,25.68,8.48,1.25,.26,2.5,.5,3.75,.72,12.25,2.16,24.75,2.4,37.06,.72,1.35-.19,2.69-.39,4.04-.62,7.38-1.27,14.68-3.23,21.78-5.89,1.93-.73,3.86-1.5,5.76-2.33,.64-.28,1.27-.57,1.91-.85,1.89-.87,3.77-1.78,5.63-2.74,.63-.33,1.24-.66,1.86-.98,1.84-.99,3.67-2.05,5.48-3.15l8.83-5.41c3.03-1.86,6.13-3.56,9.27-5.12,1.25-.62,2.52-1.22,3.79-1.8,1.26-.58,2.54-1.12,3.82-1.65,.64-.28,1.28-.54,1.94-.79,1.28-.5,2.58-.98,3.87-1.44h0c1.21-.44,2.43-.84,3.66-1.23,.57-.18,1.14-.35,1.72-.52,.64-.19,1.28-.38,1.92-.56,.7-.2,1.4-.39,2.1-.57,.46-.12,.93-.24,1.39-.35,4.12-1.03,8.27-1.84,12.43-2.43,.03,0,.05,0,.08-.01,37.73-5.29,76.88,7.54,104.37,36.77l1.44,1.53c1.05,1.11,2.08,2.25,3.07,3.39,19.29,22.1,29.24,50.93,29.24,80.36Z"/>
      <g>
        <path class="cls-2" d="M964.37,389.38c-3.12,0-5.66-3.31-5.66-5.14V238.02c0-1.82,2.53-5.14,5.66-5.14s5.66,3.31,5.66,5.14v146.22c0,1.82-2.53,5.14-5.66,5.14Z"/>
        <path class="cls-2" d="M1042.62,311.13c0,3.12-3.31,5.66-5.14,5.66h-146.22c-1.82,0-5.14-2.53-5.14-5.66s3.31-5.66,5.14-5.66h146.22c1.82,0,5.14,2.53,5.14,5.66Z"/>
      </g>
      <rect class="cls-3" x="672.28" y="628.31" width="575.44" height="182.13" rx="91.06" ry="91.06"/>
      <g>
        <path class="cls-2" d="M767.81,755.44v8.41h-6.66v-8.32c-9.57-.75-18.15-4.99-20.48-14.82l13.15-4.08c.75,3.33,3.83,6.91,10.15,6.91,4.91,0,8.49-1.92,8.49-5.74,0-4.33-5.66-4.99-12.24-6.66-11.65-2.83-16.98-8.24-16.98-17.98s7.49-16.48,17.9-17.65v-8.32h6.66v8.32c8.66,1,15.65,6.08,17.65,14.4l-13.15,3.25c-.75-2.83-3.25-5.66-8.24-5.66-4.16,0-6.99,2.25-6.99,5.58,0,4.58,6.99,5.66,11.49,6.91,14.23,4,18.39,8.49,18.39,17.56s-6.91,16.65-19.14,17.9Z"/>
        <g>
          <path class="cls-2" d="M869.37,669.07v105.23h-25.71v-76.07l-16.09,10.82-10.67-17.44,33.52-22.55h18.94Z"/>
          <path class="cls-2" d="M961.82,750.09v24.2h-72.31v-20.29c6.91-6.61,18.64-18.49,28.41-29.31,8.12-9.02,16.08-17.14,16.08-23.3,0-4.66-3.01-9.77-10.07-9.77s-10.67,5.26-11.28,10.97l-24.5-5.56c3.46-20.14,18.64-29.76,37.28-29.76,21.35,0,34.88,12.63,34.88,32.77,0,15.33-10.52,26.91-33.37,50.06h34.88Z"/>
          <path class="cls-2" d="M1050.37,739.27c0,19.39-14.73,36.98-38.63,36.98-20.14,0-35.63-12.18-38.63-27.81l23.75-5.41c.6,3.46,4.06,10.37,14.28,10.37,9.17,0,13.83-6.31,13.83-14.28,0-9.77-6.46-13.53-14.28-13.53-5.56,0-10.07,2.56-13.38,4.81l-19.54-4.51,6.46-56.82h58.18v24.35h-39.39l-1.95,17.44c4.66-2.86,9.92-4.51,16.09-4.51,21.5,0,33.22,13.83,33.22,32.92Z"/>
          <path class="cls-2" d="M1150.93,721.68c0,29.31-13.53,54.57-45.1,54.57s-44.95-25.25-44.95-54.57,13.53-54.42,44.95-54.42,45.1,25.1,45.1,54.42Zm-25.71,0c0-15.33-5.11-29.62-19.39-29.62s-19.24,14.28-19.24,29.62,5.11,29.76,19.24,29.76,19.39-14.28,19.39-29.76Z"/>
        </g>
      </g>
      <g>
        <path class="cls-2" d="M1206.57,329.46c5.33,0,7.39-1.45,7.39-5.33v-21.94h-7.39v-3.15c7.39,0,9.27-.91,11.15-7.64h4.61v32.73c0,3.88,2.06,5.33,7.39,5.33v1.94h-23.15v-1.94Z"/>
        <path class="cls-2" d="M1237.96,335.04h-3.39l17.94-47.27h3.39l-17.94,47.27Z"/>
        <path class="cls-2" d="M1290.14,323.88v.24c0,3.88,.85,5.33,3.03,5.33v1.94h-14.42v-1.94c2.18,0,3.03-1.45,3.03-5.33v-.24h-21.03v-5.45c7.33-4.3,18-13.88,21.03-27.03h8.36v27.03h5.58v5.45h-5.58Zm-8.36-5.45v-19.52c-2.67,9.15-10.18,15.88-16.85,19.52h16.85Z"/>
      </g>
      <g>
        <path class="cls-2" d="M641.73,329.46c5.33,0,7.39-1.45,7.39-5.33v-21.94h-7.39v-3.15c7.39,0,9.27-.91,11.15-7.64h4.61v32.73c0,3.88,2.06,5.33,7.39,5.33v1.94h-23.15v-1.94Z"/>
        <path class="cls-2" d="M673.12,335.04h-3.39l17.94-47.27h3.39l-17.94,47.27Z"/>
        <path class="cls-2" d="M725.3,323.88v.24c0,3.88,.85,5.33,3.03,5.33v1.94h-14.42v-1.94c2.18,0,3.03-1.45,3.03-5.33v-.24h-21.03v-5.45c7.33-4.3,18-13.88,21.03-27.03h8.36v27.03h5.58v5.45h-5.58Zm-8.36-5.45v-19.52c-2.67,9.15-10.18,15.88-16.85,19.52h16.85Z"/>
      </g>
      <g>
        <path class="cls-2" d="M1365.4,252.73h-228.85c-6.99,0-12.67-5.68-12.67-12.67v-3.19c0-6.98,5.68-12.67,12.67-12.67h228.85c7.17,0,13,5.83,13,13v2.53c0,7.17-5.83,13-13,13Zm-228.85-19.98c-2.27,0-4.12,1.85-4.12,4.12v3.19c0,2.27,1.85,4.12,4.12,4.12h228.85c2.46,0,4.45-2,4.45-4.45v-2.53c0-2.46-2-4.45-4.45-4.45h-228.85Z"/>
        <path class="cls-2" d="M1322.93,398.59h-143.58c-4.39,0-8.28-2.95-9.46-7.17l-40.66-145.18c-.64-2.27,.69-4.63,2.96-5.27,2.26-.64,4.63,.69,5.27,2.96l40.66,145.18c.15,.55,.66,.93,1.23,.93h143.58c.57,0,1.08-.38,1.23-.93l40.66-145.18c.64-2.27,2.99-3.6,5.27-2.96,2.27,.64,3.6,2.99,2.96,5.27l-40.66,145.18c-1.18,4.22-5.07,7.17-9.46,7.17Z"/>
      </g>
      <g>
        <path class="cls-2" d="M800.56,252.73h-228.85c-6.99,0-12.67-5.68-12.67-12.67v-3.19c0-6.98,5.68-12.67,12.67-12.67h228.85c7.17,0,13,5.83,13,13v2.53c0,7.17-5.83,13-13,13Zm-228.85-19.98c-2.27,0-4.12,1.85-4.12,4.12v3.19c0,2.27,1.85,4.12,4.12,4.12h228.85c2.46,0,4.45-2,4.45-4.45v-2.53c0-2.46-2-4.45-4.45-4.45h-228.85Z"/>
        <path class="cls-2" d="M758.09,398.59h-143.58c-4.39,0-8.28-2.95-9.46-7.17l-40.66-145.18c-.64-2.27,.69-4.63,2.96-5.27,2.26-.64,4.63,.69,5.27,2.96l40.66,145.18c.15,.55,.66,.93,1.23,.93h143.58c.57,0,1.08-.38,1.23-.93l40.66-145.18c.64-2.27,2.99-3.6,5.27-2.96,2.27,.64,3.6,2.99,2.96,5.27l-40.66,145.18c-1.18,4.22-5.07,7.17-9.46,7.17Z"/>
      </g>
    </g>
  </g>
</svg>