<?xml version="1.0" encoding="UTF-8"?>
<svg id="Capa_2" data-name="Capa 2" xmlns="http://www.w3.org/2000/svg" viewBox="0 0 1080 266.66">
  <defs>
    <style>
      .cls-1 {
        fill: #fcc10c;
      }

      .cls-2 {
        fill: #55131d;
      }

      .cls-3 {
        fill: #f7f2ea;
      }
    </style>
  </defs>
  <g id="Capa_1-2" data-name="Capa 1">
    <g>
      <rect class="cls-1" width="1080" height="266.66"/>
      <path class="cls-3" d="M743.24,165.38c6.17,3.74,13.21,5.15,19.99,4.38,5.94,.14,11.95-1.39,17.3-4.68l1.64-1.01c10.11-6.22,22.86-6.26,33.01-.1l2.31,1.4c6.14,3.72,13.14,5.14,19.89,4.39,5.71,0,11.47-1.52,16.61-4.69l1.64-1.01c10.11-6.22,22.86-6.26,33.01-.1l2.31,1.4c12.73,7.72,29.15,5.53,39.39-5.27l.38-.4c.28-.29,.54-.58,.81-.88,5.05-5.74,7.66-13.23,7.66-20.88V68.71c0-7.65-2.61-15.14-7.66-20.88-.26-.3-.53-.59-.81-.88l-.38-.4c-10.24-10.8-26.65-12.99-39.39-5.27l-2.31,1.4c-10.15,6.16-22.9,6.12-33.01-.1l-1.64-1.01c-5.15-3.16-10.9-4.69-16.61-4.69-6.75-.74-13.74,.67-19.89,4.39l-2.31,1.4c-10.15,6.16-22.9,6.12-33.01-.1l-1.64-1.01c-5.35-3.29-11.36-4.81-17.3-4.68-6.78-.77-13.81,.64-19.99,4.38l-2.31,1.4c-10.15,6.16-22.9,6.12-33.01-.1l-1.64-1.01c-5.15-3.16-10.9-4.69-16.61-4.69-6.75-.74-13.74,.67-19.89,4.39l-2.31,1.4c-10.15,6.16-22.9,6.12-33.01-.1l-1.64-1.01c-5.35-3.29-11.36-4.81-17.3-4.68-6.78-.77-13.81,.64-19.99,4.38l-2.31,1.4c-10.15,6.16-22.9,6.12-33.01-.1l-1.64-1.01c-5.15-3.16-10.9-4.69-16.61-4.69-6.75-.74-13.74,.67-19.89,4.39l-2.31,1.4c-10.15,6.16-22.9,6.12-33.01-.1l-1.64-1.01c-5.35-3.29-11.36-4.81-17.3-4.68-6.78-.77-13.81,.64-19.99,4.38l-2.31,1.4c-10.15,6.16-22.9,6.12-33.01-.1l-1.64-1.01c-5.15-3.16-10.9-4.69-16.61-4.69-6.75-.74-13.74,.67-19.89,4.39l-2.31,1.4c-10.15,6.16-22.9,6.12-33.01-.1l-1.64-1.01c-5.35-3.29-11.36-4.81-17.3-4.68-6.78-.77-13.81,.64-19.99,4.38l-2.31,1.4c-10.15,6.16-22.9,6.12-33.01-.1l-1.64-1.01c-5.15-3.16-10.9-4.69-16.61-4.69-6.75-.74-13.74,.67-19.89,4.39l-2.31,1.4c-10.15,6.16-22.9,6.12-33.01-.1l-1.64-1.01c-12.81-7.87-29.4-5.65-39.67,5.3l-.9,.96c-2.35,2.51-4.21,5.29-5.58,8.25-1.84,3.95-2.67,8.3-2.67,12.66v69.17c0,4.36,.83,8.71,2.67,12.66,1.38,2.95,3.24,5.74,5.58,8.25l.9,.96c10.27,10.96,26.87,13.18,39.67,5.3l1.64-1.01c10.11-6.22,22.86-6.26,33.01-.1l2.31,1.4c6.14,3.72,13.14,5.14,19.89,4.39,5.71,0,11.47-1.52,16.61-4.69l1.64-1.01c10.11-6.22,22.86-6.26,33.01-.1l2.31,1.4c6.17,3.74,13.21,5.15,19.99,4.38,5.94,.14,11.95-1.39,17.3-4.68l1.64-1.01c10.11-6.22,22.86-6.26,33.01-.1l2.31,1.4c6.14,3.72,13.14,5.14,19.89,4.39,5.71,0,11.47-1.52,16.61-4.69l1.64-1.01c10.11-6.22,22.86-6.26,33.01-.1l2.31,1.4c6.17,3.74,13.21,5.15,19.99,4.38,5.94,.14,11.95-1.39,17.3-4.68l1.64-1.01c10.11-6.22,22.86-6.26,33.01-.1l2.31,1.4c6.14,3.72,13.14,5.14,19.89,4.39,5.71,0,11.47-1.52,16.61-4.69l1.64-1.01c10.11-6.22,22.86-6.26,33.01-.1l2.31,1.4c6.17,3.74,13.21,5.15,19.99,4.38,5.94,.14,11.95-1.39,17.3-4.68l1.64-1.01c10.11-6.22,22.86-6.26,33.01-.1l2.31,1.4c6.14,3.72,13.14,5.14,19.89,4.39,5.71,0,11.47-1.52,16.61-4.69l1.64-1.01c10.11-6.22,22.86-6.26,33.01-.1l2.31,1.4Z"/>
      <g>
        <path class="cls-2" d="M313.79,105.56c0,4.96-4.44,4.94-7.89,4.94h-8.55v-.88c.99,0,1.38-.66,1.38-2.43v-11.58c0-1.76-.39-2.43-1.38-2.43v-.88h8c3.83,0,7.72,0,7.72,4.41,0,2.18-1.08,3.36-2.62,4.03,1.85,.66,3.34,2.04,3.34,4.83Zm-11.25-5.49h2.43c2.92,0,4.3-.39,4.3-3.17s-1.38-3.17-4.3-3.17h-2.43v6.34Zm7.45,5.21c0-2.79-1.38-3.78-4.3-3.78h-3.14v7.55h3.14c2.92,0,4.3-.99,4.3-3.78Z"/>
        <path class="cls-2" d="M330.36,108.35v1.05c-.47,.72-1.52,1.1-2.56,1.1s-2.45-.28-2.62-1.85v-.19h-.28c-.83,1.3-2.56,2.32-5.02,2.32-2.9,0-4.44-1.13-4.44-3.45,0-4,5.85-4.94,9.71-5.38-.11-2.84-.63-4.08-2.84-4.08s-3.14,1.27-2.32,3.39l-3.64,.72c-.83-3.03,1.41-5.54,6.34-5.54,4.49,0,6.29,1.85,6.29,6.78v3.86c0,1.54,.5,1.79,1.38,1.27Zm-5.18-3.47v-1.52c-3.25,.36-5.93,1.57-5.93,3.81,0,1.46,.61,2.18,1.96,2.18,2.37,0,3.97-2.32,3.97-4.14v-.33Z"/>
        <path class="cls-2" d="M337.83,96.43c3.5,0,7.03,1.21,5.93,5.1l-3.81-.55c.83-2.51-.66-3.12-2.04-3.12-1.68,0-2.26,.83-2.26,1.79,0,1.27,.63,1.76,3.09,2.45,2.92,.8,5.6,1.52,5.6,4.41,0,3.17-2.84,4.25-5.98,4.25-3.83,0-7.69-1.21-6.59-5.87l3.8,.55c-1.1,3.14,.55,3.89,2.56,3.89,1.71,0,2.4-.91,2.4-2.12,0-1.57-1.35-2.01-3.34-2.62-3.03-.85-5.35-1.6-5.35-4.3s2.62-3.86,5.98-3.86Z"/>
        <path class="cls-2" d="M359.2,105.31c.28,2.95-1.9,5.46-6.04,5.46-5.35,0-7.5-2.95-7.5-6.81,0-4.69,3.14-7.53,7.78-7.53,3.42,0,5.85,1.46,5.85,4.05,0,4.22-6.12,4.69-9.82,3.75,.03,2.78,1.13,5.1,3.58,5.1,1.71,0,2.7-.77,2.34-3.31l3.8-.72Zm-9.68-2.56c3.92,.94,5.96-.05,5.96-2.34,0-1.63-.8-2.54-2.4-2.54-2.34,0-3.34,1.88-3.56,4.88Z"/>
        <path class="cls-2" d="M367.14,96.43c3.5,0,7.03,1.21,5.93,5.1l-3.81-.55c.83-2.51-.66-3.12-2.04-3.12-1.68,0-2.26,.83-2.26,1.79,0,1.27,.63,1.76,3.09,2.45,2.92,.8,5.6,1.52,5.6,4.41,0,3.17-2.84,4.25-5.98,4.25-3.83,0-7.69-1.21-6.59-5.87l3.8,.55c-1.1,3.14,.55,3.89,2.56,3.89,1.71,0,2.4-.91,2.4-2.12,0-1.57-1.35-2.01-3.34-2.62-3.03-.85-5.35-1.6-5.35-4.3s2.62-3.86,5.98-3.86Z"/>
        <path class="cls-2" d="M399.7,97.59c-1.19,0-2.23,.55-2.9,2.18l-4.77,11.86c-1.21,2.95-2.54,4.38-5.4,4.38-3.28,0-5.02-1.93-3.89-4.96l3.8,.55c-1.27,2.21-.44,2.98,.66,2.98,1.27,0,2.4-.77,3.28-2.95l.44-1.13h-3.06l-4.27-10.73c-.66-1.63-1.71-2.18-2.9-2.18v-.88h8.49v.88c-1.99,0-2.18,.55-1.54,2.18l3.81,9.43,3.8-9.43c.66-1.63,.47-2.18-1.52-2.18v-.88h5.96v.88Z"/>
        <path class="cls-2" d="M416.32,92.02c4.99,0,7.83,2.59,7.69,6.62l-3.81-.55c.28-2.76-.94-4.63-3.89-4.63-3.94,0-5.49,3.12-5.49,7.94s1.27,7.94,5.21,7.94c3.23,0,4.44-1.88,4.16-4.91l3.81-.55c.14,4.3-2.7,6.89-7.97,6.89-6.12,0-9.02-3.45-9.02-9.37s3.17-9.38,9.29-9.38Z"/>
        <path class="cls-2" d="M433.77,96.43c5.21,0,7.55,3.45,7.55,7.17s-2.34,7.17-7.55,7.17-7.56-3.45-7.56-7.17,2.34-7.17,7.56-7.17Zm.77,12.85c2.59-.33,3.39-2.65,2.95-6.15-.44-3.47-1.76-5.54-4.49-5.21-2.59,.33-3.39,2.65-2.95,6.15,.44,3.47,1.76,5.54,4.49,5.21Z"/>
        <path class="cls-2" d="M458.84,109.61v.88h-6.56v-.88c.99,0,1.38-.66,1.38-2.43v-6.42c0-1.85-.61-2.89-2.12-2.89-2.81,0-4.08,3.89-4.08,7.67v1.65c0,1.76,.39,2.43,1.38,2.43v.88h-6.56v-.88c.99,0,1.38-.66,1.38-2.43v-7.17c0-1.76-.39-2.43-1.38-2.43v-.88h1.82c2.15,0,3.36,.14,3.36,2.29v1.68h.28c.58-2.59,2.18-4.25,4.96-4.25s4.77,1.68,4.77,5.27v5.49c0,1.76,.39,2.43,1.38,2.43Z"/>
        <path class="cls-2" d="M466.09,96.43c2.23,0,4.16,1.05,5.16,2.87h.28v-5.35c0-1.76-.39-2.43-1.38-2.43v-.88h1.82c2.15,0,3.36,.17,3.36,2.43v14.12c0,1.76,.39,2.43,1.38,2.43v.88h-1.82c-2.07,0-3.36-.14-3.36-2.07v-.52h-.28c-.99,1.82-2.92,2.87-5.16,2.87-3.53,0-6.48-2.48-6.48-7.17s2.95-7.17,6.48-7.17Zm1.3,12.9c2.59,0,3.86-2.29,3.86-5.74s-1.27-5.73-3.86-5.73-3.69,2.29-3.69,5.73,1.1,5.74,3.69,5.74Z"/>
        <path class="cls-2" d="M483.37,107.19c0,1.76,.39,2.43,1.38,2.43v.88h-6.56v-.88c.99,0,1.38-.66,1.38-2.43v-7.17c0-1.76-.39-2.43-1.38-2.43v-.88h1.82c2.23,0,3.36,.14,3.36,2.4v8.08Zm-4.19-13.51c0-.91,.74-1.65,2.01-1.65s2.01,.74,2.01,1.65c0,.99-.77,1.71-2.01,1.71s-2.01-.72-2.01-1.71Z"/>
        <path class="cls-2" d="M493.38,96.43c4.63,0,6.89,2.59,6.75,6.07l-3.8-.55c.28-2.7-.88-4.08-2.98-4.08-2.81,0-3.75,2.21-3.75,5.73s.94,5.74,3.75,5.74c2.09,0,3.53-1.38,3.25-4.36l3.81-.55c.14,3.75-2.43,6.34-7.06,6.34-5.49,0-7.56-3.45-7.56-7.17s2.1-7.17,7.58-7.17Z"/>
        <path class="cls-2" d="M506.92,107.19c0,1.76,.39,2.43,1.38,2.43v.88h-6.56v-.88c.99,0,1.38-.66,1.38-2.43v-7.17c0-1.76-.39-2.43-1.38-2.43v-.88h1.82c2.23,0,3.36,.14,3.36,2.4v8.08Zm-4.19-13.51c0-.91,.74-1.65,2.01-1.65s2.01,.74,2.01,1.65c0,.99-.77,1.71-2.01,1.71s-2.01-.72-2.01-1.71Z"/>
        <path class="cls-2" d="M516.9,96.43c5.21,0,7.55,3.45,7.55,7.17s-2.34,7.17-7.55,7.17-7.56-3.45-7.56-7.17,2.34-7.17,7.56-7.17Zm.77,12.85c2.59-.33,3.39-2.65,2.95-6.15-.44-3.47-1.76-5.54-4.49-5.21-2.59,.33-3.39,2.65-2.95,6.15,.44,3.47,1.76,5.54,4.49,5.21Z"/>
        <path class="cls-2" d="M541.96,109.61v.88h-6.56v-.88c.99,0,1.38-.66,1.38-2.43v-6.42c0-1.85-.61-2.89-2.12-2.89-2.81,0-4.08,3.89-4.08,7.67v1.65c0,1.76,.39,2.43,1.38,2.43v.88h-6.56v-.88c.99,0,1.38-.66,1.38-2.43v-7.17c0-1.76-.39-2.43-1.38-2.43v-.88h1.82c2.15,0,3.36,.14,3.36,2.29v1.68h.28c.58-2.59,2.18-4.25,4.96-4.25s4.77,1.68,4.77,5.27v5.49c0,1.76,.39,2.43,1.38,2.43Z"/>
        <path class="cls-2" d="M556.27,105.31c.28,2.95-1.9,5.46-6.04,5.46-5.35,0-7.5-2.95-7.5-6.81,0-4.69,3.14-7.53,7.78-7.53,3.42,0,5.85,1.46,5.85,4.05,0,4.22-6.12,4.69-9.82,3.75,.03,2.78,1.13,5.1,3.58,5.1,1.71,0,2.7-.77,2.34-3.31l3.8-.72Zm-9.68-2.56c3.92,.94,5.96-.05,5.96-2.34,0-1.63-.8-2.54-2.4-2.54-2.34,0-3.34,1.88-3.56,4.88Z"/>
        <path class="cls-2" d="M564.21,96.43c3.5,0,7.03,1.21,5.93,5.1l-3.81-.55c.83-2.51-.66-3.12-2.04-3.12-1.68,0-2.26,.83-2.26,1.79,0,1.27,.63,1.76,3.09,2.45,2.92,.8,5.6,1.52,5.6,4.41,0,3.17-2.84,4.25-5.98,4.25-3.83,0-7.69-1.21-6.59-5.87l3.8,.55c-1.1,3.14,.55,3.89,2.56,3.89,1.71,0,2.4-.91,2.4-2.12,0-1.57-1.35-2.01-3.34-2.62-3.03-.85-5.35-1.6-5.35-4.3s2.62-3.86,5.98-3.86Z"/>
        <path class="cls-2" d="M584.58,96.43c3.5,0,7.03,1.21,5.93,5.1l-3.81-.55c.83-2.51-.66-3.12-2.04-3.12-1.68,0-2.26,.83-2.26,1.79,0,1.27,.63,1.76,3.09,2.45,2.92,.8,5.6,1.52,5.6,4.41,0,3.17-2.84,4.25-5.98,4.25-3.83,0-7.69-1.21-6.59-5.87l3.8,.55c-1.1,3.14,.55,3.89,2.56,3.89,1.71,0,2.4-.91,2.4-2.12,0-1.57-1.35-2.01-3.34-2.62-3.03-.85-5.35-1.6-5.35-4.3s2.62-3.86,5.98-3.86Z"/>
        <path class="cls-2" d="M599.97,96.43c5.21,0,7.55,3.45,7.55,7.17s-2.34,7.17-7.55,7.17-7.56-3.45-7.56-7.17,2.34-7.17,7.56-7.17Zm.77,12.85c2.59-.33,3.39-2.65,2.95-6.15-.44-3.47-1.76-5.54-4.49-5.21-2.59,.33-3.39,2.65-2.95,6.15,.44,3.47,1.76,5.54,4.49,5.21Z"/>
        <path class="cls-2" d="M622.05,102.8l-3.8-.55c1.43-3.23,.94-4.38-.39-4.38-2.4,0-4.22,3.89-4.22,7.67v1.65c0,1.76,.39,2.43,1.38,2.43v.88h-6.56v-.88c.99,0,1.38-.66,1.38-2.43v-7.17c0-1.76-.39-2.43-1.38-2.43v-.88h1.82c2.15,0,3.36,.14,3.36,2.29v1.68h.28c.55-1.76,2.23-4.25,5.29-4.25s3.94,2.23,2.84,6.37Z"/>
        <path class="cls-2" d="M634.62,108.43c-.55,1.57-1.85,2.34-4.11,2.34s-4.69-.8-4.69-4.47v-8.16h-1.99v-1.43c2.12-.28,3.36-.88,3.36-4.41h2.43v4.41h4.16c0,.88,0,1.43-1.32,1.43h-2.84v7.67c0,2.18,.03,3.53,1.13,3.53,.69,0,.99-.36,1.05-1.46l2.81,.55Z"/>
        <path class="cls-2" d="M648.54,105.31c.28,2.95-1.9,5.46-6.04,5.46-5.35,0-7.5-2.95-7.5-6.81,0-4.69,3.14-7.53,7.78-7.53,3.42,0,5.85,1.46,5.85,4.05,0,4.22-6.12,4.69-9.82,3.75,.03,2.78,1.13,5.1,3.58,5.1,1.71,0,2.7-.77,2.34-3.31l3.8-.72Zm-9.68-2.56c3.92,.94,5.96-.05,5.96-2.34,0-1.63-.8-2.54-2.4-2.54-2.34,0-3.34,1.88-3.56,4.88Z"/>
        <path class="cls-2" d="M657.78,96.43c5.21,0,7.55,3.45,7.55,7.17s-2.34,7.17-7.55,7.17-7.56-3.45-7.56-7.17,2.34-7.17,7.56-7.17Zm.77,12.85c2.59-.33,3.39-2.65,2.95-6.15-.44-3.47-1.76-5.54-4.49-5.21-2.59,.33-3.39,2.65-2.95,6.15,.44,3.47,1.76,5.54,4.49,5.21Z"/>
        <path class="cls-2" d="M697.87,109.61v.88h-6.56v-.88c.99,0,1.38-.66,1.38-2.43v-7.03c0-1.52-.55-2.29-1.54-2.29-2.07,0-3.56,3.67-3.56,7.67v1.65c0,1.76,.39,2.43,1.38,2.43v.88h-6.56v-.88c.99,0,1.38-.66,1.38-2.43v-7.03c0-1.52-.55-2.29-1.54-2.29-2.07,0-3.56,3.67-3.56,7.67v1.65c0,1.76,.39,2.43,1.38,2.43v.88h-6.56v-.88c.99,0,1.38-.66,1.38-2.43v-7.17c0-1.76-.39-2.43-1.38-2.43v-.88h1.82c2.15,0,3.36,.14,3.36,2.29v1.68h.28c.69-2.7,2.18-4.25,4.69-4.25,2.29,0,3.75,1.35,3.92,4.25h.25c.74-2.7,2.23-4.25,4.74-4.25s3.94,1.52,3.94,4.83v5.93c0,1.76,.39,2.43,1.38,2.43Z"/>
        <path class="cls-2" d="M713.28,100.02v7.17c0,1.76,.39,2.43,1.38,2.43v.88h-1.82c-2.15,0-3.36-.14-3.36-2.29v-1.68h-.28c-.58,2.59-2.18,4.25-4.96,4.25s-4.77-1.68-4.77-5.27v-5.49c0-1.76-.39-2.43-1.38-2.43v-.88h6.56v.88c-.99,0-1.38,.66-1.38,2.43v6.42c0,1.85,.61,2.89,2.12,2.89,2.81,0,4.08-3.89,4.08-7.67v-1.65c0-1.76-.39-2.43-1.38-2.43v-.88h6.56v.88c-.99,0-1.38,.66-1.38,2.43Z"/>
        <path class="cls-2" d="M732.99,109.61v.88h-6.56v-.88c.99,0,1.38-.66,1.38-2.43v-6.42c0-1.85-.61-2.89-2.12-2.89-2.81,0-4.08,3.89-4.08,7.67v1.65c0,1.76,.39,2.43,1.38,2.43v.88h-6.56v-.88c.99,0,1.38-.66,1.38-2.43v-7.17c0-1.76-.39-2.43-1.38-2.43v-.88h1.82c2.15,0,3.36,.14,3.36,2.29v1.68h.28c.58-2.59,2.18-4.25,4.96-4.25s4.77,1.68,4.77,5.27v5.49c0,1.76,.39,2.43,1.38,2.43Z"/>
        <path class="cls-2" d="M740.24,96.43c2.23,0,4.16,1.05,5.16,2.87h.28v-5.35c0-1.76-.39-2.43-1.38-2.43v-.88h1.82c2.15,0,3.36,.17,3.36,2.43v14.12c0,1.76,.39,2.43,1.38,2.43v.88h-1.82c-2.07,0-3.36-.14-3.36-2.07v-.52h-.28c-.99,1.82-2.92,2.87-5.16,2.87-3.53,0-6.48-2.48-6.48-7.17s2.95-7.17,6.48-7.17Zm1.3,12.9c2.59,0,3.86-2.29,3.86-5.74s-1.27-5.73-3.86-5.73-3.69,2.29-3.69,5.73,1.1,5.74,3.69,5.74Z"/>
        <path class="cls-2" d="M757.53,107.19c0,1.76,.39,2.43,1.38,2.43v.88h-6.56v-.88c.99,0,1.38-.66,1.38-2.43v-7.17c0-1.76-.39-2.43-1.38-2.43v-.88h1.82c2.23,0,3.36,.14,3.36,2.4v8.08Zm-4.19-13.51c0-.91,.74-1.65,2.01-1.65s2.01,.74,2.01,1.65c0,.99-.77,1.71-2.01,1.71s-2.01-.72-2.01-1.71Z"/>
        <path class="cls-2" d="M775.15,108.35v1.05c-.47,.72-1.52,1.1-2.56,1.1s-2.45-.28-2.62-1.85v-.19h-.28c-.83,1.3-2.56,2.32-5.02,2.32-2.89,0-4.44-1.13-4.44-3.45,0-4,5.85-4.94,9.71-5.38-.11-2.84-.63-4.08-2.84-4.08s-3.14,1.27-2.32,3.39l-3.64,.72c-.83-3.03,1.41-5.54,6.34-5.54,4.49,0,6.29,1.85,6.29,6.78v3.86c0,1.54,.5,1.79,1.38,1.27Zm-5.18-3.47v-1.52c-3.25,.36-5.93,1.57-5.93,3.81,0,1.46,.61,2.18,1.96,2.18,2.37,0,3.97-2.32,3.97-4.14v-.33Z"/>
        <path class="cls-2" d="M781.27,107.19c0,1.76,.39,2.43,1.38,2.43v.88h-6.56v-.88c.99,0,1.38-.66,1.38-2.43v-13.24c0-1.76-.39-2.43-1.38-2.43v-.88h1.82c2.15,0,3.36,.17,3.36,2.43v14.12Z"/>
      </g>
    </g>
  </g>
</svg>