<?xml version="1.0" encoding="UTF-8"?>
<svg id="Capa_2" data-name="Capa 2" xmlns="http://www.w3.org/2000/svg" viewBox="0 0 888.57 225.32">
  <defs>
    <style>
      .cls-1 {
        fill: #fcc10c;
      }

      .cls-2 {
        fill: #55131d;
      }
    </style>
  </defs>
  <g id="Capa_1-2" data-name="Capa 1">
    <g>
      <path class="cls-1" d="M670.49,220.21c6.87,4.17,14.7,5.73,22.24,4.88,6.61,.15,13.3-1.54,19.25-5.2l1.83-1.12c11.26-6.92,25.44-6.96,36.74-.11l2.58,1.56c6.84,4.15,14.62,5.72,22.13,4.89,6.36,0,12.77-1.7,18.49-5.22l1.83-1.12c11.26-6.92,25.44-6.96,36.74-.11l2.58,1.56c14.17,8.6,32.44,6.15,43.84-5.87l.42-.44c.31-.32,.61-.65,.9-.98,5.62-6.39,8.52-14.73,8.52-23.24V35.64c0-8.51-2.9-16.85-8.52-23.24-.29-.33-.59-.66-.9-.98l-.42-.44c-11.4-12.02-29.67-14.46-43.84-5.87l-2.58,1.56c-11.3,6.85-25.48,6.81-36.74-.11l-1.83-1.12c-5.73-3.52-12.13-5.22-18.49-5.22-7.51-.83-15.3,.74-22.13,4.89l-2.58,1.56c-11.3,6.85-25.48,6.81-36.74-.11l-1.83-1.12c-5.96-3.66-12.65-5.35-19.25-5.2-7.54-.85-15.37,.71-22.24,4.88l-2.58,1.56c-11.3,6.85-25.48,6.81-36.74-.11l-1.83-1.12c-5.73-3.52-12.13-5.22-18.49-5.22-7.51-.83-15.3,.74-22.13,4.89l-2.58,1.56c-11.3,6.85-25.48,6.81-36.74-.11l-1.83-1.12c-5.96-3.66-12.65-5.35-19.25-5.2-7.54-.85-15.37,.71-22.24,4.88l-2.58,1.56c-11.3,6.85-25.48,6.81-36.74-.11l-1.83-1.12c-5.73-3.52-12.13-5.22-18.49-5.22-7.51-.83-15.3,.74-22.13,4.89l-2.58,1.56c-11.3,6.85-25.48,6.81-36.74-.11l-1.83-1.12c-5.96-3.66-12.65-5.35-19.25-5.2-7.54-.85-15.37,.71-22.24,4.88l-2.58,1.56c-11.3,6.85-25.48,6.81-36.74-.11l-1.83-1.12c-5.73-3.52-12.13-5.22-18.49-5.22-7.51-.83-15.3,.74-22.13,4.89l-2.58,1.56c-11.3,6.85-25.48,6.81-36.74-.11l-1.83-1.12C212.8,1.77,206.11,.08,199.5,.23c-7.54-.85-15.37,.71-22.24,4.88l-2.58,1.56c-11.3,6.85-25.48,6.81-36.74-.11l-1.83-1.12C130.39,1.91,123.98,.21,117.62,.22c-7.51-.83-15.3,.74-22.13,4.89l-2.58,1.56c-11.3,6.85-25.48,6.81-36.74-.11l-1.83-1.12C40.09-3.33,21.62-.86,10.19,11.34l-1,1.06c-2.61,2.79-4.68,5.89-6.21,9.18C.93,25.98,0,30.82,0,35.67V189.65c0,4.85,.93,9.69,2.97,14.09,1.53,3.29,3.6,6.39,6.21,9.18l1,1.06c11.44,12.2,29.9,14.67,44.16,5.9l1.83-1.12c11.26-6.92,25.44-6.96,36.74-.11l2.58,1.56c6.84,4.15,14.62,5.72,22.13,4.89,6.36,0,12.77-1.7,18.49-5.22l1.83-1.12c11.26-6.92,25.44-6.96,36.74-.11l2.58,1.56c6.87,4.17,14.7,5.73,22.24,4.88,6.61,.15,13.3-1.54,19.25-5.2l1.83-1.12c11.26-6.92,25.44-6.96,36.74-.11l2.58,1.56c6.84,4.15,14.62,5.72,22.13,4.89,6.36,0,12.77-1.7,18.49-5.22l1.83-1.12c11.26-6.92,25.44-6.96,36.74-.11l2.58,1.56c6.87,4.17,14.7,5.73,22.24,4.88,6.61,.15,13.3-1.54,19.25-5.2l1.83-1.12c11.26-6.92,25.44-6.96,36.74-.11l2.58,1.56c6.84,4.15,14.62,5.72,22.13,4.89,6.36,0,12.77-1.7,18.49-5.22l1.83-1.12c11.26-6.92,25.44-6.96,36.74-.11l2.58,1.56c6.87,4.17,14.7,5.73,22.24,4.88,6.61,.15,13.3-1.54,19.25-5.2l1.83-1.12c11.26-6.92,25.44-6.96,36.74-.11l2.58,1.56c6.84,4.15,14.62,5.72,22.13,4.89,6.36,0,12.77-1.7,18.49-5.22l1.83-1.12c11.26-6.92,25.44-6.96,36.74-.11l2.58,1.56Z"/>
      <g>
        <path class="cls-2" d="M319.45,114.86c0,25.58-19.34,29-29.18,29h-27.6v-2.81c3.16,0,4.39-2.11,4.39-7.73v-36.91c0-5.62-1.23-7.73-4.39-7.73v-2.81h27.6c9.84,0,29.18,3.52,29.18,29Zm-12.13,0c0-17.75-6.68-24.43-19.34-24.43h-8.79v48.87h8.79c12.66,0,19.34-6.68,19.34-24.43Z"/>
        <path class="cls-2" d="M368.05,127.34c.88,9.4-6.06,17.4-19.25,17.4-17.05,0-23.91-9.4-23.91-21.71,0-14.94,10.02-23.99,24.79-23.99,10.9,0,18.63,4.66,18.63,12.92,0,13.45-19.51,14.94-31.29,11.95,.09,8.88,3.6,16.26,11.43,16.26,5.45,0,8.61-2.46,7.47-10.55l12.13-2.29Zm-30.85-8.17c12.48,2.99,18.98-.18,18.98-7.47,0-5.19-2.55-8.09-7.65-8.09-7.47,0-10.63,5.98-11.34,15.56Z"/>
        <path class="cls-2" d="M387.82,133.31c0,5.62,1.23,7.73,4.39,7.73v2.81h-20.92v-2.81c3.16,0,4.39-2.11,4.39-7.73v-42.19c0-5.62-1.23-7.73-4.39-7.73v-2.81h5.8c6.86,0,10.72,.53,10.72,7.73v45Z"/>
        <path class="cls-2" d="M413.48,133.31c0,5.62,1.23,7.73,4.39,7.73v2.81h-20.92v-2.81c3.16,0,4.39-2.11,4.39-7.73v-22.85c0-5.62-1.23-7.73-4.39-7.73v-2.81h5.8c7.12,0,10.72,.44,10.72,7.65v25.75Zm-13.36-43.07c0-2.9,2.37-5.27,6.42-5.27s6.42,2.37,6.42,5.27c0,3.16-2.46,5.45-6.42,5.45s-6.42-2.29-6.42-5.45Z"/>
        <path class="cls-2" d="M476.41,102.73c-3.34,0-6.5,1.76-8.61,6.94l-13.8,34.19h-13.18l-14.5-34.28c-2.2-5.1-5.36-6.86-8.61-6.86v-2.81h26.54v2.81c-6.33,0-6.86,1.76-4.75,6.94l12.04,28.3,11.34-28.3c2.11-5.19,1.49-6.94-4.83-6.94v-2.81h18.37v2.81Z"/>
        <path class="cls-2" d="M516.93,127.34c.88,9.4-6.06,17.4-19.25,17.4-17.05,0-23.91-9.4-23.91-21.71,0-14.94,10.02-23.99,24.79-23.99,10.9,0,18.63,4.66,18.63,12.92,0,13.45-19.51,14.94-31.29,11.95,.09,8.88,3.6,16.26,11.43,16.26,5.45,0,8.61-2.46,7.47-10.55l12.13-2.29Zm-30.85-8.17c12.48,2.99,18.98-.18,18.98-7.47,0-5.19-2.55-8.09-7.65-8.09-7.47,0-10.63,5.98-11.34,15.56Z"/>
        <path class="cls-2" d="M564.38,119.34l-12.13-1.76c4.57-10.28,2.99-13.97-1.23-13.97-7.65,0-13.45,12.39-13.45,24.43v5.27c0,5.62,1.23,7.73,4.39,7.73v2.81h-20.92v-2.81c3.16,0,4.39-2.11,4.39-7.73v-22.85c0-5.62-1.23-7.73-4.39-7.73v-2.81h5.8c6.86,0,10.72,.44,10.72,7.29v5.36h.88c1.76-5.62,7.12-13.54,16.88-13.54s12.57,7.12,9.05,20.3Z"/>
        <path class="cls-2" d="M628.54,102.73c-3.78,0-7.12,1.76-9.23,6.94l-15.21,37.79c-3.87,9.4-8.09,13.97-17.23,13.97-10.46,0-16-6.15-12.39-15.82l12.13,1.76c-4.04,7.03-1.41,9.49,2.11,9.49,4.04,0,7.65-2.46,10.46-9.4l1.41-3.6h-9.76l-13.62-34.19c-2.11-5.19-5.45-6.94-9.23-6.94v-2.81h27.07v2.81c-6.33,0-6.94,1.76-4.92,6.94l12.13,30.06,12.13-30.06c2.11-5.19,1.49-6.94-4.83-6.94v-2.81h18.98v2.81Z"/>
      </g>
    </g>
  </g>
</svg>